<svg viewBox="0 0 496 495" xmlns="http://www.w3.org/2000/svg" xml:space="preserve" style="fill-rule:evenodd;clip-rule:evenodd;stroke-linejoin:round;stroke-miterlimit:2"><path d="M2468.43 1795.93c0-618.01-501.74-1119.748-1119.74-1119.748-618.008 0-1119.75 501.738-1119.75 1119.748 0 618 501.742 1119.74 1119.75 1119.74 618 0 1119.74-501.74 1119.74-1119.74Z" style="fill:#5d1100;stroke:#ffb000;stroke-width:154.78px" transform="matrix(.20674 0 0 .20674 -31.332 -123.796)"/><path d="M2468.43 1795.93c0-618.01-501.74-1119.748-1119.74-1119.748-618.008 0-1119.75 501.738-1119.75 1119.748 0 618 501.742 1119.74 1119.75 1119.74 618 0 1119.74-501.74 1119.74-1119.74Zm-80.53 0c0 573.56-465.65 1039.21-1039.21 1039.21-573.562 0-1039.219-465.65-1039.219-1039.21 0-573.56 465.657-1039.218 1039.219-1039.218 573.56 0 1039.21 465.658 1039.21 1039.218Z" style="fill:#5d1100;stroke:#ffb000;stroke-width:9.67px" transform="matrix(.20674 0 0 .20674 -31.332 -123.796)"/><g><path d="M478.691 125.789c0-8.137-2.394-17.48-7.179-28.027-4.305-9.434-9.633-18.11-16.024-25.973-.16-.199-3.672-4.953-10.527-14.273-.504-.668-1.352-1.621-2.559-2.829-.863-.882-1.312-1.457-1.312-1.765v-9.32c0-.938.234-1.407.683-1.407.235 0 .524.145.883.434l16.938 14.418c1.043.863 1.566 1.547 1.566 1.996 0 .289-.269.434-.793.434-.738 0-1.996-.344-3.742-1.028-1.316-.484-1.965-.574-1.965-.289 0 .164.235.469.688.938 7.414 7.418 13.59 16.199 18.504 26.371 5.558 11.484 8.351 22.644 8.351 33.496 0 10.676-2.504 19.531-7.473 26.551-3.886 5.472-8.296 9.359-13.281 11.629-1.945.917-5.312 1.996-10.062 3.222-4.735 1.242-8.246 1.961-10.496 2.16-.899.09-1.348.016-1.348-.254 0-.234.43-.628 1.312-1.222 4.321-2.43 11.395-6.68 21.188-12.692 11.086-7.199 16.648-14.722 16.648-22.57Z" style="fill:#ffb000;fill-rule:nonzero" transform="translate(-1029.115 -56.003) scale(2.9645)"/><path d="M456.301 114.375c-1.656-5.02-2.774-9.703-3.367-14.074-.215-1.692-.379-2.719-.485-3.114-.234-.917-.668-1.82-1.316-2.683.449-1.512 1.172-3.602 2.144-6.301.325-.793.629-1.168.879-1.168.235 0 .633.375 1.227 1.168 2.574 3.582 4.734 6.785 6.48 9.613.719 1.168 1.078 1.996 1.078 2.485 0 .359-.16.539-.484.539-.648 0-1.82-.539-3.512-1.602-.16 0-.289.106-.394.34.594 2.109 1.527 5.024 2.824 8.731 2.934 8.336 4.41 14.402 4.41 18.218 0 3.797-.574 7.125-1.711 9.953-1.886 4.825-5.164 7.235-9.808 7.235-4.95 0-8.856-2.16-11.719-6.442-1.727-2.574-3.258-6.429-4.59-11.574-.574 5.184-2.23 9.629-4.93 13.371-3.312 4.539-7.562 6.805-12.726 6.805-5.707 0-9.684-2.719-11.973-8.172-1.258-3.058-1.887-6.641-1.887-10.781 0-5.473.649-10.567 1.942-15.281.344-1.278.523-2.125.523-2.539 0-.235-.054-.344-.179-.344-.235 0-.758.633-1.567 1.89-1.277 2-2.609 6.032-4.015 12.118-1.817 7.847-3.004 12.578-3.563 14.199-.738 2.25-1.801 4.07-3.168 5.437-1.098 1.133-2.07 1.711-2.879 1.711-3.637 0-6.465-2.324-8.441-6.949-1.621-3.836-2.434-8.477-2.434-13.914 0-3.797.578-7.938 1.746-12.402.274-1.008.524-1.746.793-2.25.344-.614.594-.684.723-.235.125.524.07 1.442-.199 2.774-.649 3.402-.973 6.496-.973 9.34 0 11 2.305 16.507 6.93 16.507 1.98 0 3.636-1.496 4.933-4.445.809-1.855 1.797-5.402 2.969-10.602 1.352-5.761 2.484-9.972 3.422-12.656 1.078-3.058 2.41-5.777 4.012-8.152 1.711-2.664 3.222-3.996 4.48-3.996 1.047 0 1.567 1.097 1.567 3.312 0 1.836-.52 5.524-1.567 11.106-1.043 5.597-1.547 9.34-1.547 11.265 0 4.161.864 7.418 2.61 9.758 1.73 2.36 4.16 3.528 7.238 3.528 5.598 0 9.808-1.766 12.598-5.274 2.214-2.773 3.332-6.191 3.332-10.262 0-3.906-.344-7.683-.993-11.32a50.164 50.164 0 0 0-1.851-7.328c-.649-2.016-.973-2.969-.973-2.844 0-2.23.719-5.289 2.195-9.179.325-.844.579-1.258.774-1.258.234 0 .594.558 1.117 1.656 2.086 4.336 3.727 10.98 4.934 19.926 1.133 8.367 2.769 14.343 4.914 17.945 2.121 3.602 5.363 5.398 9.734 5.398 3.637 0 6.031-1.332 7.164-3.957 0-.918-.754-2.863-2.285-5.871-1.961-3.797-3.328-6.929-4.156-9.359ZM420.949 61.816c-.144.829-.344 1.278-.594 1.332-.324.071-.488-.398-.488-1.441 0-.898-.16-2.035-.484-3.383-1.028-4.445-4.535-8.297-10.567-11.539-.378-.215-.503-.558-.378-1.008l.828-2.863c.089-.25.289-.285.629-.141 5.761 2.52 9.363 6.93 10.82 13.227.449 1.98.519 3.906.234 5.816ZM437.203 79.258c0 1.277-.289 2.594-.848 3.961-.738 1.761-1.691 2.644-2.878 2.644-1.856 0-3.168-1.277-3.942-3.816-.883 3.258-2.484 4.898-4.844 4.898-.863 0-1.636-.453-2.285-1.332-.758-1.047-1.117-2.414-1.117-4.105v-3.996c0-.325-.234-.559-.664-.684-.449-.125-.668-.469-.668-1.027 0-.883.359-1.746 1.117-2.59.684-.738 1.207-1.117 1.567-1.117.468 0 .703.883.703 2.629 0 .918-.09 1.672-.235 2.304-.144.61-.218 1.149-.218 1.602 0 .953.179 1.871.578 2.734.469 1.028 1.023 1.532 1.711 1.532.879 0 1.707-.415 2.48-1.208.758-.792 1.153-1.726 1.153-2.808 0-.609-.18-1.672-.54-3.168-.359-1.512-.539-2.43-.539-2.789 0-.324.161-.848.485-1.547.324-.684.558-1.047.722-1.047.305 0 .684.992 1.153 2.988.465 1.981.719 3.438.719 4.395 0 2.734 1.042 4.101 3.167 4.101.899 0 1.477-.468 1.711-1.367-1.836-3.203-2.738-5.633-2.738-7.324 0-.992.235-1.855.723-2.594.34-.523.554-.808.683-.828.145 0 .235.324.305.973.09.918.234 1.656.434 2.25.035.055.465 1.187 1.312 3.367.524 1.293.793 2.285.793 2.969ZM407.285 70.672c9.035-3.293 18.649-6.785 28.801-10.512.504-.18.828-.254.918-.18.125.09.109.36-.09.829-.594 1.421-1.062 2.285-1.422 2.589-8.531 3.063-18.484 6.95-29.863 11.684.344-1.352.902-2.809 1.656-4.41Z" style="fill:#ffb000;fill-rule:nonzero" transform="translate(-1029.115 -56.003) scale(2.9645)"/><path d="M404.496 146.184c0 1.203-.504 2.554-1.476 4.086a14.48 14.48 0 0 1-3.907 4.066c-.629.449-1.008.684-1.133.684-.019 0-.019-.02-.019-.036 0-.109.269-.433.793-1.027 2.629-2.863 3.941-4.77 3.941-5.723 0-.918-.429-1.367-1.277-1.367-.449 0-.883.125-1.262.375-.269.18-.449.289-.519.309a.417.417 0 0 0-.18-.09c.035-.109.07-.344.145-.738.429-1.981 1.402-2.953 2.949-2.953 1.297 0 1.945.808 1.945 2.414ZM449.371 75.711c0 1.207-.504 2.559-1.476 4.086a14.497 14.497 0 0 1-3.907 4.07c-.629.449-1.008.684-1.133.684-.019 0-.019-.02-.019-.035 0-.11.269-.434.793-1.028 2.629-2.863 3.941-4.769 3.941-5.722 0-.922-.433-1.371-1.277-1.371-.449 0-.883.128-1.262.378-.269.18-.449.289-.519.305a.486.486 0 0 0-.184-.09c.039-.105.074-.34.145-.738.433-1.977 1.406-2.949 2.953-2.949 1.297 0 1.945.808 1.945 2.41ZM417.078 113.855c1.313 0 2.485.774 3.527 2.321 1.043 1.566 1.782 3.601 2.196 6.101.054.254.074.414.074.45.055.074.09.074.105 0 .02-.036.09-.196.18-.45.219-1.492.723-3.742 1.551-6.715.883-2.121 1.852-3.183 2.914-3.183.539 0 1.082.359 1.602 1.078.488.629.722 1.152.722 1.547 0 .308-.09.703-.254 1.207-.215.648-.449.992-.738.992-.125 0-.379-.254-.773-.758-.395-.504-.809-.754-1.223-.754-.938 0-1.82 2.211-2.609 6.621-.344 1.926-.739 3.278-1.153 4.086-.308.543-.558.813-.773.813-.199 0-.289-.254-.289-.738 0-.774-.434-2.286-1.332-4.52-.883-2.23-1.532-3.348-1.891-3.348-.269 0-.434.071-.504.235-.07.16-.269.25-.629.25-.398 0-.918-.305-1.566-.879-.633-.594-.953-1.063-.953-1.406 0-.16.269-.7.789-1.602.543-.898.883-1.348 1.027-1.348ZM439.883 147.91c0 1.207-.504 2.555-1.477 4.086a14.465 14.465 0 0 1-3.902 4.066c-.633.454-1.012.684-1.137.684-.015 0-.015-.016-.015-.035 0-.106.269-.43.789-1.024 2.629-2.863 3.941-4.773 3.941-5.726 0-.918-.43-1.367-1.277-1.367-.45 0-.879.125-1.258.379-.27.179-.449.285-.524.304a.461.461 0 0 0-.179-.09c.035-.109.07-.343.144-.738.434-1.98 1.403-2.953 2.953-2.953 1.293 0 1.942.813 1.942 2.414ZM416.07 149.402c.883 0 1.657.524 2.36 1.551.699 1.043 1.187 2.391 1.457 4.067.035.179.054.289.054.304.036.055.051.055.071 0 .019-.015.054-.125.109-.304.145-.989.484-2.485 1.043-4.465.594-1.422 1.242-2.121 1.945-2.121.36 0 .719.23 1.079.718.304.414.468.754.468 1.024 0 .199-.054.469-.179.793-.125.433-.289.668-.489.668-.07 0-.25-.18-.504-.504-.269-.344-.539-.504-.828-.504-.629 0-1.203 1.476-1.726 4.426-.235 1.277-.504 2.179-.774 2.718-.215.36-.379.539-.523.539-.125 0-.18-.179-.18-.503 0-.504-.305-1.512-.898-3.004-.594-1.496-1.008-2.235-1.262-2.235-.18 0-.285.055-.324.164-.055.106-.196.161-.43.161-.254 0-.613-.196-1.047-.594-.414-.395-.629-.699-.629-.934 0-.109.18-.469.539-1.062.364-.614.578-.903.668-.903ZM408.887 91.031c-.52-1.551-1.547-2.738-3.078-3.582-.161 1.422-.43 2.555-.829 3.403.2.07 1.422.394 3.657.933.125.035.234.035.289-.015.105-.094.09-.325-.039-.739Zm-5.094-.543c.289-.718.379-1.527.254-2.41-.125-.953-.504-1.476-1.098-1.531-.324-.035-.828.219-1.476.738-.668.539-1.008.973-1.043 1.277-.075.723 1.043 1.372 3.363 1.926Zm-3.363-4.551c-.289-1.656-.075-2.792.664-3.386.578-.469 1.207-.664 1.91-.594.684.074 1.422.398 2.25.953 2.879 2 4.695 4.266 5.453 6.77.055.16.07.379.055.648-.09.828-.453 1.746-1.082 2.789-.629 1.028-1.188 1.512-1.692 1.457-.179-.015-1.586-.304-4.211-.863-1.55 1.73-3.386 3.223-5.547 4.484-2.535 1.473-4.824 2.555-6.89 3.239-.434.16-2.793.793-7.094 1.871-.683.179-1.133.254-1.367.218-.09 0-.145-.039-.145-.089.02-.129.43-.399 1.223-.813 3.223-1.476 6.426-2.934 9.648-4.41 3.692-1.672 6.571-3.328 8.641-4.949-2.34-.793-3.437-1.996-3.258-3.637a7.381 7.381 0 0 1 1.442-3.688ZM393.406 55.246c1.461 0 2.774.863 3.926 2.59 1.172 1.73 1.981 3.98 2.449 6.769.051.29.071.45.071.504.054.09.089.09.125 0 .019-.054.089-.214.199-.504.234-1.671.793-4.156 1.711-7.468.988-2.379 2.07-3.547 3.238-3.547.594 0 1.188.394 1.801 1.207.523.699.773 1.277.773 1.707 0 .344-.09.793-.269 1.332-.235.723-.504 1.101-.828 1.101-.125 0-.414-.289-.844-.847-.453-.559-.903-.828-1.371-.828-1.043 0-2.016 2.449-2.899 7.379-.375 2.144-.808 3.636-1.277 4.535-.34.597-.629.902-.863.902-.215 0-.305-.289-.305-.828 0-.863-.504-2.52-1.496-5.004-.988-2.484-1.692-3.726-2.106-3.726-.289 0-.468.089-.539.269-.089.18-.324.27-.703.27-.449 0-1.023-.325-1.746-.989-.719-.648-1.062-1.172-1.062-1.547 0-.183.289-.777.882-1.785.614-1.008.993-1.492 1.133-1.492ZM432.809 44.984c0 1.332-.555 2.844-1.637 4.539a16.163 16.163 0 0 1-4.34 4.516c-.699.504-1.113.758-1.238.758-.039 0-.039-.02-.039-.055 0-.09.289-.469.883-1.117 2.917-3.184 4.375-5.309 4.375-6.371 0-1.008-.469-1.512-1.407-1.512a2.53 2.53 0 0 0-1.402.414 5.114 5.114 0 0 1-.574.36c-.055-.055-.129-.09-.2-.125.016-.09.071-.379.145-.813.469-2.195 1.566-3.273 3.273-3.273 1.442 0 2.161.882 2.161 2.679ZM398.27 79.348c0 .613-.778 1.98-2.305 4.14-1.746 2.41-3.402 4.196-4.969 5.309-1.008.703-4.34 1.82-10.008 3.312-1.008.254-1.511.344-1.511.289.07-.109.414-.398 1.043-.882.738-.575 2.753-1.711 6.046-3.457 3.168-1.672 5.024-2.754 5.563-3.223.09-.106.144-.195.144-.285 0-.758-2.824-1.117-8.441-1.117-.019 0-1.098.035-3.238.125-1.028.054-1.531-.016-1.531-.196 0-.144.125-.433.378-.883l1.997-3.386c.593-.989 1.656-1.602 3.203-1.871.558-.09 1.855-.125 3.906-.125 6.48 0 9.723.738 9.723 2.25ZM425.539 96.16c0 1.207-.504 2.555-1.476 4.086a14.483 14.483 0 0 1-3.907 4.066c-.629.454-1.008.684-1.133.684-.019 0-.019-.016-.019-.035 0-.106.269-.43.793-1.024 2.629-2.863 3.941-4.773 3.941-5.726 0-.918-.433-1.367-1.277-1.367-.449 0-.883.125-1.262.379-.269.179-.449.285-.519.304a.486.486 0 0 0-.184-.09c.039-.109.074-.343.145-.738.433-1.98 1.406-2.953 2.953-2.953 1.297 0 1.945.813 1.945 2.414Z" style="fill:#ffb000;fill-rule:nonzero" transform="translate(-1029.115 -56.003) scale(2.9645)"/></g></svg>