<svg viewBox="0 0 488 414" xmlns="http://www.w3.org/2000/svg" xml:space="preserve" style="fill-rule:evenodd;clip-rule:evenodd;stroke-linejoin:round;stroke-miterlimit:2"><path d="M.73-.708c.006 0 .011-.001.014-.005a.013.013 0 0 0 .004-.009.013.013 0 0 0-.004-.01C.742-.735.74-.737.738-.737s-.003.001-.005.003a.02.02 0 0 0-.002.006c0 .004.002.005.005.005.007 0 .01.002.01.004a.016.016 0 0 1-.007.004L.73-.713c-.003 0-.005-.002-.005-.006L.724-.736A.128.128 0 0 0 .72-.77v-.001L.719-.77l-.001.004.002.012.002.039c.001.005.004.007.008.007Zm.012-.02H.737A.002.002 0 0 1 .735-.73l.002-.001.005.003Zm-.059.037c.005 0 .011-.003.018-.008L.71-.707c.002-.001.003-.004.003-.006l.001-.012-.002-.034.002.002h.001a.017.017 0 0 0-.003-.007L.711-.768.71-.77v-.001L.709-.77l-.001.005.001.005.003.046c0 .002-.004.006-.013.011a.03.03 0 0 1-.015.006c-.005 0-.009-.002-.011-.006L.671-.709l.001-.009.001-.002-.001.002a.018.018 0 0 0-.003.011c0 .004.001.007.003.009a.012.012 0 0 0 .011.007ZM.661-.706h.001c.002-.002.003-.006.003-.013L.662-.758l.002.002.001-.002-.002-.005-.001-.001L.66-.769V-.77v.001l-.002.005.001.004.003.047-.001.005v.002Zm-.034.001a.011.011 0 0 0 .008-.003l.003-.009c.001.007.005.011.009.011.005 0 .007-.003.007-.01L.652-.728.65-.732v-.001l.003.001-.001-.001L.647-.74l-.001.004v.004l.005.014.002.004a.008.008 0 0 1-.005.002.005.005 0 0 1-.005-.003.018.018 0 0 1-.003-.011L.636-.739l-.001.001-.001.005.002.007v.006l-.002.007C.633-.711.63-.71.627-.71.623-.71.621-.713.621-.719l.002-.013-.001-.002-.003.003c-.002.002-.003.006-.004.012C.613-.713.612-.71.61-.71.607-.71.605-.713.605-.72l.001-.006v-.002l-.001.002-.001.008a.03.03 0 0 0 .002.009.005.005 0 0 0 .005.003l.002-.001.002-.003.002-.009.002-.007.001-.001v.002l-.001.009.001.007c.001.003.004.004.007.004ZM.583-.707l.005-.001.004-.004.003-.003-.001.005.001-.001.002-.007c0-.001 0-.002-.002-.002l-.003.002-.004.004a.008.008 0 0 1-.005.002.01.01 0 0 1-.007-.003l.007-.003.002-.004-.001-.002a.021.021 0 0 0-.012-.003l-.009.001c-.005.001-.007.003-.007.007h.001L.56-.72c.002 0 .005.002.007.005a.016.016 0 0 1-.009.003c-.003 0-.005-.002-.006-.006L.551-.735c0-.019-.001-.03-.004-.034V-.77l-.001.001-.001.004a.027.027 0 0 1 .003.012l.001.019.001.019c.001.006.004.008.008.008l.005-.001A.027.027 0 0 0 .57-.712l.007.004.006.001ZM.572-.718.568-.722h.003l.006.001-.005.003ZM.514-.68a.033.033 0 0 0 .014-.004l.013-.008a.012.012 0 0 0 .004-.009L.544-.704.539-.706a.044.044 0 0 0 .003-.019L.541-.759l.001.002.001-.002L.539-.77.538-.771v.001l-.002.005.001.004.001.021.002.023-.001.006-.003.001-.006.001c-.002 0-.003.001-.003.002l-.001.002.001.002c.003.001.007.001.01.003l.006.002-.005.004a.062.062 0 0 1-.023.008C.511-.686.507-.687.506-.69a.011.011 0 0 1-.003-.008l.003-.013.001-.002-.002.001a.033.033 0 0 0-.004.017c0 .01.004.015.013.015ZM.465-.69a.03.03 0 0 0 .014-.004.032.032 0 0 0 .013-.008C.495-.705.497-.708.497-.71c0-.003-.003-.005-.009-.006L.493-.72a.019.019 0 0 0 .002-.008.02.02 0 0 0-.003-.011L.485-.743.481-.74c-.002.003-.002.005-.002.007L.48-.73l.003.001c.007 0 .01.002.01.004a.033.033 0 0 1-.012.006c-.002 0-.003.001-.003.002v.003l.009.004a.031.031 0 0 1 .007.002l-.005.004-.011.006-.012.002C.458-.696.454-.7.454-.708a.03.03 0 0 1 .004-.013v-.002l-.001.002c-.004.005-.005.01-.005.017 0 .009.004.014.013.014Zm.024-.044H.484a.002.002 0 0 1-.002-.002l.002-.001c.002 0 .003.001.005.003Zm-.072.027A.011.011 0 0 0 .425-.71l.004-.004.001-.001v.001c0 .004.002.006.006.006.002 0 .003-.002.005-.004a.01.01 0 0 0 .003-.007L.442-.725l-.011-.01-.014-.012H.42L.416-.751.413-.753a.126.126 0 0 1 .022-.012.057.057 0 0 1 .02-.007l.002.001-.005.007-.004.006v.002l.001-.002a.014.014 0 0 0 .003-.004l.003-.003a.012.012 0 0 0 .004-.009c0-.002 0-.003-.002-.003a.063.063 0 0 0-.022.007.083.083 0 0 0-.021.012c-.002.001-.002.005-.002.01l.001.002a.09.09 0 0 0 .01.011c.01.007.016.012.018.015l.001.002v.001l-.006.003c-.003 0-.004-.002-.004-.005v-.002H.431l-.006.006a.019.019 0 0 1-.008.002L.414-.714.411-.719v-.017L.41-.757A.086.086 0 0 0 .407-.77H.406v.001l-.001.004a.037.037 0 0 1 .002.012.2.2 0 0 0 .001.019l.001.02c0 .003.001.005.003.006l.005.001Zm-.059.006c.003 0 .005-.003.008-.009.002-.007.005-.01.009-.01l.002.001.002.005.004.003h.005l.004-.001.004-.004.003-.003-.001.005.001-.001C.401-.717.401-.72.401-.722L.4-.725l-.004.003-.004.004-.004.002v-.001A.01.01 0 0 1 .38-.721L.378-.724.375-.726a.008.008 0 0 0-.004.002l-.005.007-.004.008C.361-.707.36-.706.358-.706.354-.706.353-.71.353-.718v-.008l-.001.002-.001.009.002.01c.001.003.003.004.005.004ZM.34-.705l.001-.002a.037.037 0 0 0 .002-.012L.341-.757l.002.002v-.002L.338-.769v.001l-.002.005.001.004.003.047v.007Zm-.074.027c.002 0 .005-.002.007-.005l.008-.008.011-.005a.046.046 0 0 0 .013-.007L.307-.71.306-.715a.027.027 0 0 1 .006.005l.005.004a.009.009 0 0 0 .005.001c.003 0 .005-.002.007-.005a.023.023 0 0 0 .003-.013.303.303 0 0 0-.002-.029l.001-.003h.001v-.001L.328-.768H.327l-.002.005.001.005c-.004 0-.01.003-.02.007-.014.007-.022.012-.023.015l-.001.005.001.001.014.011c.006.004.009.008.009.011l-.008.003a.058.058 0 0 0-.021.013l-.005.005c-.003.003-.005.004-.007.004C.262-.683.26-.685.26-.688l.002-.009.002-.006-.001.001a.03.03 0 0 0-.004.014l.002.007a.005.005 0 0 0 .005.003Zm.056-.033C.319-.711.315-.713.31-.718a.122.122 0 0 0-.026-.016.061.061 0 0 1 .022-.012.057.057 0 0 1 .02-.007l.001.003-.005.005-.003.006v.001L.32-.739a.014.014 0 0 0 .003-.004l.004-.004v.009l.002.02c0 .005-.003.007-.007.007Zm-.085.018.006-.003.009-.008A.04.04 0 0 1 .263-.71l.003.004.005.003c.003 0 .005-.002.005-.007S.274-.717.271-.717l-.006.001-.001-.003c0-.005.002-.008.006-.008h.002l.001.001.001-.004c0-.002-.001-.003-.003-.003-.003 0-.005.002-.007.005l-.002.01v.003a.091.091 0 0 0-.013.008l-.007.006a.01.01 0 0 1-.007.003C.233-.698.231-.7.231-.703l.002-.009.002-.006-.001.001a.033.033 0 0 0-.004.014l.002.007c.002.002.003.003.005.003Zm.035-.016L.268-.711.27-.712c.002 0 .003.001.003.003H.272Zm.461-.035.001-.001.001-.003.005.003.002-.004L.74-.75.737-.752l-.001.003-.003-.002-.002-.001-.002.004.004.004ZM.59-.731l.002-.004.004.003h.001l.002-.004L.594-.74l-.002.004-.005-.003-.001.002-.001.002.005.004ZM.488-.747.49-.751.486-.754l-.002.002-.001.002.005.003Zm-.07.026L.42-.724l.004.003.003-.005-.006-.003-.001.004-.003-.002-.002-.002-.002.005.004.003h.001Zm-.022.022.002-.005-.002-.001-.003-.002-.002.005.005.003Zm-.153.018.001-.001.001-.003.005.003.002-.004-.004-.003-.001.001-.001.002-.003-.002-.002-.001-.002.004.004.004Zm.484-.077L.74-.764l.001-.002-.013.005-.001.003ZM.682-.76A.134.134 0 0 1 .7-.767l.001-.002H.7l-.017.007-.001.002Zm.004.031.001-.005a.031.031 0 0 1 .002-.007l.002.001.001-.002-.001-.001L.69-.744c-.002 0-.003.003-.004.01L.684-.74.681-.743l-.002.002.001.001.001.001h.001l.002.004a.01.01 0 0 1 .001.005l.001.001ZM.63-.746c.002 0 .003-.001.003-.003.001.002.001.002.003.002.001 0 .002-.001.002-.003L.636-.756l-.001.002.002.004-.001.001a.002.002 0 0 1-.002-.002v-.003L.633-.756l-.001.002.001.003c0 .002-.001.002-.002.002s-.002 0-.002-.002v-.004l-.001.001-.001.002h.001v.002l.001.003.001.001ZM.615-.758l.024-.01L.64-.77l-.024.009-.001.003Zm.005.014L.617-.746l.002-.001.001.001v.002ZM.603-.73c.008-.004.014-.007.016-.011l.002.001.001-.002-.001-.002v-.003L.62-.749l-.003.001-.001.003c0 .002.001.003.002.003l-.007.006-.009.006h.001ZM.579-.742l.018-.007.001-.001-.018.006-.001.002ZM.558-.756l.023-.01.001-.002-.023.009-.001.003Zm.005.024c.004 0 .006-.001.008-.003l.001-.001H.571l-.006.001-.003-.001c0-.002.002-.005.006-.008l.001-.002-.001-.001-.001.002-.002.001-.002-.001v-.002h.001l.001.001.001-.002L.565-.75l-.002.002-.002.004c0 .001 0 .002.002.002-.002.003-.002.005-.002.007s.001.003.002.003ZM.52-.729.521-.73v-.003C.521-.737.52-.74.517-.742L.516-.743.515-.74c.003.002.005.005.005.008v.003ZM.515-.757l.012-.005.001-.003-.013.005v.003Zm-.044.074L.489-.69.49-.692l-.018.006-.001.003Zm-.047-.01L.442-.7l.001-.002-.018.006-.001.003ZM.412-.767.43-.774l.001-.002-.018.006-.001.003Zm-.025.078.017-.008.001-.001.001-.001H.405l-.017.007-.001.003Zm-.034 0 .018-.007.001-.002H.371l-.017.007-.001.002ZM.36-.733l.005-.001.004-.001.001-.001-.006.001-.006-.001.002-.001.003-.002.003-.003h.003c.001 0 .002-.001.002-.003A.012.012 0 0 0 .366-.75H.364c-.001 0-.002 0-.001.001v.001l-.001.003c0 .002.001.002.003.003L.362-.74l-.003.002-.001.004.002.001Zm.01-.011H.367v-.003l.002.002.001.001Zm-.004 0c-.002 0-.003-.001-.003-.002h.001l.001-.001v.001l.001.002Zm.014-.01.001-.005c.001-.005.002-.007.003-.007l.002.001v-.003L.384-.769c-.001 0-.003.003-.004.01v.001-.001L.378-.765.375-.768l-.001.003.001.002.001-.001.002.004a.01.01 0 0 1 .001.005l.001.001Zm.008.02.001-.001.003-.003.001-.004-.001-.002c-.002 0-.003.001-.003.003l.003.001-.004.005v.001Zm.044-.009.01-.002.001-.001.001-.003L.443-.75.44-.751H.437L.433-.75.431-.751c.003-.003.005-.005.007-.005v.001l.001-.002-.001-.001c-.001 0-.002 0-.003.002C.431-.754.43-.752.43-.75c0 .001.001.002.003.002l.006-.001.004.001-.006.002h-.01c.001.002.002.003.005.003ZM.31-.727l.002-.001.001-.002c0-.001 0-.002-.002-.003L.309-.734.305-.736.303-.737l.005-.002.004.001v.001l.001-.001.001-.001c0-.001-.001-.002-.003-.002a.011.011 0 0 0-.008.003.002.002 0 0 0-.002.002l.002.002c.006.002.009.004.009.005L.307-.73C.301-.732.298-.733.297-.735c0 .002.001.004.003.005a.04.04 0 0 0 .01.003ZM.287-.746a.09.09 0 0 1 .022-.011v-.001L.31-.759a.042.042 0 0 0-.009.003.13.13 0 0 0-.013.007l-.001.003Zm-.006.062A.094.094 0 0 1 .299-.69L.3-.693l-.001.001a.07.07 0 0 0-.017.006l-.001.002ZM.244-.707v-.004a.06.06 0 0 0-.002-.015l.004-.001.002-.001v-.001L.249-.73.247-.732.245-.733l.001-.004c0-.004.001-.006.002-.006l.001.001H.25v-.003L.249-.746c-.002 0-.004.003-.004.009H.244C.243-.742.242-.744.24-.744l-.001.001-.001.001.001.001.001.001h.001c.001 0 .002.002.003.007l-.002.004.002-.001.001.001c-.002 0-.003.002-.003.004l.001.006.001.009v.003Zm.109-.052L.354-.76l.003-.003.001-.004a.002.002 0 0 0-.002-.002c-.001 0-.002.001-.002.003h.001l.001.001-.003.005v.001ZM.5-.756.501-.76l.003-.008.001.001.001.001.001-.002L.506-.77.505-.771C.503-.771.501-.767.5-.76L.499-.766.495-.769l-.001.002.002.002h.001l.002.004A.01.01 0 0 1 .5-.757v.001ZM.467-.759.469-.76l.002-.003a.008.008 0 0 0 .002-.004.002.002 0 0 0-.002-.002c-.002 0-.002.001-.003.003v.001L.47-.766l.001.001-.003.005-.001.001Zm-.009.027.001-.005.002-.005.002.001v.001l.001-.002v-.001L.462-.744.46-.742l-.002.006C.457-.741.456-.743.454-.743l-.001.001-.001.001.001.001.001.001h.001l.002.003.001.003v.001ZM.263-.746l.001-.001.003-.003.002-.003c0-.002-.001-.002-.002-.002-.002 0-.003 0-.003.002v.001l.002-.001.001.001-.003.005-.001.001Zm.335-.01L.6-.761c0-.003.001-.005.002-.005l.001.001v.001l.001-.002-.001-.002-.001-.001C.601-.769.6-.768.6-.766L.598-.76C.597-.765.596-.767.593-.767l-.001.002.001.002h.002l.001.003.002.003v.001Zm.073-.002A.002.002 0 0 1 .669-.76l.002-.004.002-.003.001-.001-.001.001-.001.003-.002.002h.002l.001.001c0 .002 0 .003-.002.003Zm-.155.062c-.001 0-.002 0-.002-.002 0-.003.002-.005.005-.007l-.001.001-.001.002L.516-.7l.002.001c0 .002-.001.003-.002.003ZM.463-.704l.002-.001.003-.003.001-.003c0-.002-.001-.002-.002-.002s-.002 0-.002.002v.001l.001-.001.001.002-.003.004-.001.001Zm.223-.005L.685-.71c0-.004.001-.006.004-.008l-.003.005h.001l.001.001v.002l-.002.001Zm.179.085.003-.003c0 .002.001.002.002.002s.002-.001.002-.003v-.003L.871-.633v-.001L.87-.632l.001.004-.001.001a.002.002 0 0 1-.002-.002v-.003L.867-.634l-.001.002.001.003c0 .002-.001.003-.002.003S.863-.627.863-.629l.001-.002-.001-.002-.001.001v.004l.001.003.002.001ZM.853-.636l.024-.01.001-.002-.024.009-.001.003Zm-.002.009L.848-.629.85-.63l.001.001v.002Zm-.015.011.007-.002.003-.003.005-.004.001.002.002-.002-.002-.002V-.63L.851-.633l-.003.002-.001.003.003.003-.007.004-.003.003-.005.002h.001ZM.801-.648l.013-.005.001-.001v-.001l-.011.004-.003.003Zm-.019.075.007-.004.001-.002.001-.001H.79l-.002.001-.002.001H.785L.784-.579.785-.58l.001-.001.001.001v.001-.001l.001-.002-.001-.001-.004.003-.001.002c0 .001 0 .002.002.002l-.002.003Zm-.005.007.018-.007.001-.002H.795l-.017.006-.001.003Zm-.019-.08.018-.008.001-.001v-.001l-.018.007-.001.003Zm.001.033L.76-.615v-.003c0-.004-.001-.007-.004-.009H.755v.002a.015.015 0 0 1 .004.011v.001Zm-.027.004L.75-.616l.001-.002-.018.007-.001.002ZM.72-.572l.007-.004.001-.002v-.001l-.004.002-.003-.001.001-.001.002-.001v.001h.001l.001-.002-.002-.001-.003.002-.001.003.002.002C.72-.574.72-.573.72-.572Zm-.003.006L.73-.571l.001-.002H.73l-.012.004-.001.003ZM.696-.632l.003-.003c0 .002.001.003.002.003.002 0 .003-.002.003-.004L.702-.642.701-.64l.002.004-.001.001L.7-.636.699-.64.698-.642v.005c0 .002 0 .003-.002.003L.695-.637v-.004L.694-.64l-.001.002.001.003v.002l.002.001ZM.688-.643l.014-.005.001-.002-.014.004-.001.003Zm-.012.019L.673-.625l.002-.001.001.001v.001Zm-.015.013v-.001h.001a.028.028 0 0 0 .014-.009l.001.002.002-.003-.002-.001v-.005H.676l-.003.001-.001.003.003.003-.007.005c-.005.002-.007.004-.007.005ZM.645-.617l.012-.005.002-.002-.001-.001v.001l-.013.005v.002ZM.616-.658A.002.002 0 0 0 .618-.66L.62-.663c0-.002-.001-.003-.003-.003l-.002.003-.001.003c0 .001 0 .002.002.002Zm0-.003H.615l.001-.002.003.001-.003.001Zm-.017.043.013-.005.001-.002L.6-.62l-.001.002Zm-.014.009c.002 0 .003-.001.003-.003l.003.002c.001 0 .002-.001.002-.004L.591-.62.59-.618l.002.005-.001.001a.002.002 0 0 1-.002-.002v-.003L.588-.619l-.001.001.001.004c0 .002-.001.002-.002.002a.002.002 0 0 1-.002-.002v-.004l-.001.001v.004l.001.003.001.001Zm.008-.025L.591-.636l.001-.001.001.001v.002Zm-.014.012.005-.002C.588-.625.59-.628.593-.631l.002.002.001-.003-.002-.001.001-.004c0-.002-.001-.002-.002-.002l-.002.001-.002.004.003.003-.006.004-.008.005h.001Zm-.02-.031c.001 0 .002 0 .003-.002l.001-.003A.002.002 0 0 0 .561-.66l-.003.002-.001.003c0 .002.001.002.002.002ZM.56-.655.558-.656l.001-.001.001-.001c.001 0 .002 0 .002.002L.56-.655Zm-.026.03.018-.007.001-.001v-.001l-.018.006-.001.003Zm-.01.014c.002 0 .003-.001.003-.003l.003.003c.001 0 .002-.002.002-.005L.53-.621l-.001.002.002.004-.001.001-.002-.001v-.004L.527-.621l-.001.002.001.003c0 .002-.001.003-.002.003S.523-.614.523-.616l.001-.002L.523-.62l-.001.001-.001.001.001.001v.002l.001.003.001.001ZM.527-.64.524-.641l.002-.001.001.001v.001Zm-.015.013.001-.001.005-.002c.004-.002.007-.004.008-.007l.002.002.001-.003-.001-.001v-.004L.527-.645l-.003.002-.001.003.002.003-.005.005-.008.004v.001ZM.493-.633c-.002 0-.002-.001-.002-.002l.001-.001.001.001v.002Zm-.015.012h.001l.005-.002C.487-.624.49-.627.493-.63l.002.002.001-.003-.002-.001.001-.004-.001-.002H.493l-.002.002c-.001 0-.002.001-.002.003l.003.003c-.003.002-.006.005-.01.006l-.004.003ZM.429-.646l.013-.005.001-.002H.442L.43-.649l-.001.003Zm-.135.074.019-.007v-.002l-.018.007-.001.002ZM.256-.623.274-.63l.001-.002-.018.007-.001.002ZM.244-.647.241-.648l.002-.001.001.001v.001Zm-.007.002L.236-.646l.003-.006.007-.004.001.002-.002.003-.001-.001-.003.002-.001.003c0 .001-.001.002-.003.002Zm-.008.01.007-.002L.24-.64l.004-.004.001.001.002-.002-.002-.001V-.65a.016.016 0 0 0 .004-.007L.247-.658l-.004.001-.005.004C.236-.65.235-.648.235-.645l.001.002c.002 0 .003-.001.004-.003l.003.002-.007.004-.007.005Zm.008.01h.001l.001-.003.005.003.002-.004-.005-.004-.002.004-.004-.003-.002.002-.001.002.005.003Zm.048.009c.002 0 .003 0 .005-.002h.001C.295-.622.298-.625.3-.625l.001.001a.008.008 0 0 0 .005-.002l.002.001A.002.002 0 0 0 .31-.627v-.004l-.001.002v.001H.307V-.63l-.001.001v.001c0 .001-.001.002-.003.002L.302-.627H.301c-.004 0-.007.003-.011.008l-.005.003Zm-.084 0 .017-.008.001-.001-.017.006-.001.003ZM.162-.65.18-.657l.001-.001v-.001l-.018.006-.001.003Zm-.027.016.013-.005.001-.002-.013.004-.001.003Zm.008.022.002-.001.001-.004-.001-.002-.003.002-.001.004.002.001Zm0-.002L.142-.615l.001-.001.001-.001.002.002-.003.001ZM.117-.631.115-.633l.001-.001.001.001.001.001-.001.001Zm-.006.002L.11-.631l.002-.005.004-.003L.12-.64l.001.001-.002.003H.118l-.003.001-.002.003c0 .002-.001.003-.002.003Zm-.01.011a.036.036 0 0 0 .016-.01l.002.001.001-.002-.002-.002.001-.004c.002-.001.003-.004.003-.006v-.001L.121-.643a.008.008 0 0 0-.004.002C.111-.638.108-.634.108-.63c0 .002.001.003.002.003.002 0 .003-.001.004-.003l.002.001c-.001.002-.005.004-.012.008L.1-.618h.001Zm.792.033v-.001l.002-.013-.002-.038.002.002.001-.001v-.001L.891-.648H.89l-.001.005.001.004.001.023.001.029v.002h.001ZM.86-.583c.003 0 .005-.002.007-.004A.014.014 0 0 0 .87-.596c.002.007.006.011.01.011.005 0 .007-.003.007-.01a.036.036 0 0 0-.003-.011L.883-.611l.002.001v-.002L.88-.619l-.001.001-.001.004.001.001v.002l.005.014a.008.008 0 0 1 .001.004l-.004.002c-.003 0-.005-.001-.006-.003a.053.053 0 0 1-.003-.011.104.104 0 0 0-.003-.012v-.001l-.001.001-.001.005.001.002.001.005v.006l-.002.007C.865-.59.863-.589.859-.589S.854-.592.854-.597v-.007a.026.026 0 0 0 .001-.007L.854-.613l-.002.002-.003.006c-.002.011-.004.016-.007.016-.002 0-.004-.003-.004-.01l.001-.007-.001.002-.001.007c0 .003 0 .006.002.009.001.002.002.004.005.004L.85-.597c0-.004.001-.007.002-.007l.001-.002v.002l-.001.009c0 .008.002.012.008.012ZM.826-.594l.001-.007c0-.005-.003-.011-.01-.018l-.019-.02h.004L.797-.643.792-.646v.003l.001.003.003.005a.077.077 0 0 0 .01.012l.008.008c.007.006.011.011.011.016a.018.018 0 0 1 .001.005ZM.808-.58l.006-.001c.012-.003.019-.011.019-.025L.831-.624.83-.64l.002.002v-.001L.827-.65H.826l-.001.002v.002l.001.002v.004l.002.018L.83-.6c0 .005-.007.012-.022.019L.807-.58h.001ZM.786-.584l.001-.002.002-.012-.003-.039.003.003v-.002L.787-.642.786-.644.784-.648v.001l-.002.004a.009.009 0 0 1 .001.005l.001.023.002.029v.002Zm-.047.009.004-.002a.049.049 0 0 0 .003-.007.01.01 0 0 1 .003-.005c.002-.004.004-.006.006-.006.001 0 .003.002.005.006.001.003.004.004.009.004.002 0 .004-.001.006-.004a.026.026 0 0 0 .003-.014L.776-.637v.001l.003.002v-.001L.778-.636a.024.024 0 0 0-.004-.011v-.001l-.001.001-.001.004v.005l.003.04c0 .005-.002.007-.006.007S.763-.592.761-.595L.76-.596.759-.599.756-.6l-.005.002-.004.007-.004.008-.004.003C.735-.58.733-.584.733-.592l.001-.006L.733-.6v.001l-.001.01a.03.03 0 0 0 .002.009c.001.004.003.005.005.005ZM.725-.584l.001-.002.002-.012-.003-.039.002.002h.001L.726-.642.723-.647v-.001.001l-.002.004.001.005.003.046-.001.005v.003h.001ZM.711-.592l.001-.005v-.002c0-.005-.003-.011-.01-.018a.21.21 0 0 1-.019-.02l.004.001v-.001L.678-.644l-.001.003.001.003.004.006a.047.047 0 0 0 .01.011L.7-.613c.006.006.01.012.01.017l.001.004Zm-.019.015L.7-.579a.022.022 0 0 0 .014-.008.03.03 0 0 0 .004-.017L.717-.621.715-.637l.003.002v-.001L.712-.648.71-.643l.001.001v.004l.002.018a.113.113 0 0 1 .002.022l-.003.007-.006.005-.014.009ZM.643-.56a.03.03 0 0 0 .013-.005c.009-.008.013-.014.013-.019l.012-.005.009.001c.005 0 .007-.003.007-.008C.697-.6.695-.603.69-.605L.686-.609h.002L.681-.614.68-.61v.002c-.003.002-.005.006-.005.012l.001.004H.674L.67-.59l-.001.001C.667-.594.665-.597.662-.597a.005.005 0 0 0-.005.003l-.002.006c0 .003.002.005.007.005h.005v.001l-.004.006-.01.007c-.004.002-.007.004-.01.004-.006 0-.009-.003-.009-.009l.002-.009v-.002l-.001.002-.002.012.002.008c.002.002.004.003.008.003Zm.018-.028C.659-.588.658-.589.658-.59l.001-.001.005.002-.003.001Zm.031-.005L.686-.594l.001-.008a.022.022 0 0 0 .005.003l.003.004c0 .001-.001.002-.003.002Zm-.01-.002C.678-.596.676-.597.676-.599l.002-.004.004-.002.002.001A.008.008 0 0 1 .685-.6c0 .002-.001.003-.003.005Zm-.05.003h.001c.002-.002.003-.007.003-.014L.633-.644l.002.002.001-.002L.634-.65H.633L.632-.655.631-.656.63-.655.629-.65l.001.004.003.046-.001.006v.002ZM.59-.557a.033.033 0 0 0 .014-.004l.013-.008a.01.01 0 0 0 .004-.008c0-.003-.003-.005-.008-.006l.012-.004a.121.121 0 0 1 .02-.004l.001-.002.001-.003-.001-.001c-.007 0-.016 0-.026-.002.003-.004.004-.01.004-.018L.622-.644l.003.002v-.002L.621-.655H.62L.618-.65l.001.005.002.033v.007l-.01.004L.607-.6H.606l-.001.004.001.001.011.002.009.001-.013.004-.01.004-.001.003.001.001h.001l.015.005-.005.004a.042.042 0 0 1-.023.008c-.005 0-.008-.001-.01-.003L.579-.575a.04.04 0 0 1 .003-.013L.583-.59l-.002.002a.03.03 0 0 0-.004.017c0 .004.001.007.003.01s.005.004.01.004ZM.572-.585l.001-.002a.024.024 0 0 0 .003-.012L.573-.638l.002.003.001-.001-.001-.001-.002-.006v-.001L.571-.649.57-.648l-.001.004.001.005.003.046-.001.006v.002Zm-.073.022a.024.024 0 0 0 .013-.006c.009-.007.013-.013.013-.019L.53-.591l.002-.001v.001c0 .004.002.006.007.006l.007-.003a.027.027 0 0 0 .011.002c.002 0 .004-.001.006-.005a.023.023 0 0 0 .003-.013L.564-.638l.002.002h.001L.562-.648v-.001.001L.56-.644l.001.005.002.04c0 .005-.002.007-.006.007H.551a.014.014 0 0 0 .003-.009L.553-.606C.552-.608.551-.608.55-.608s-.003.001-.005.004a.011.011 0 0 0-.003.008l.001.004-.004.001-.004-.001-.001-.003v-.003l-.009.005C.523-.598.521-.601.518-.601a.005.005 0 0 0-.005.003c-.002.001-.002.004-.002.006 0 .003.002.005.007.005l.004-.001.001.002-.004.006-.01.007c-.004.003-.007.004-.01.004S.493-.57.492-.572L.49-.578l.002-.009v-.002l-.001.002-.002.012.002.008c.002.002.004.004.008.004Zm.018-.029c-.002 0-.003-.001-.003-.002s0-.002.002-.002l.004.003-.003.001Zm.03-.002L.543-.597l.003-.004.003-.002.001.002a.008.008 0 0 1 .001.004l-.004.003ZM.505-.608.503-.613h.002l.004.001.002.002-.006.002Zm-.034.029c.002 0 .003 0 .005-.002l.006-.006.009-.009.015-.008.001.003v-.003l.009-.002.001-.005c0-.001-.001-.003-.004-.005L.507-.619c-.004 0-.006.002-.006.006l.002.006a.048.048 0 0 0-.022.015l-.006.006-.006.003c-.003 0-.004-.002-.004-.005 0-.002 0-.005.002-.008l.002-.007H.468v.001a.04.04 0 0 0-.005.014.01.01 0 0 0 .003.007.008.008 0 0 0 .005.002ZM.452-.595l.001-.006c0-.005-.004-.011-.011-.018l-.019-.02h.004L.418-.646l-.001.003.001.003.003.004a.02.02 0 0 1 .004.006l.015.015c.006.006.01.011.011.016l.001.004ZM.433-.58l.006-.001c.013-.003.019-.011.019-.025L.457-.624.455-.64l.003.002a.027.027 0 0 0-.003-.008L.452-.651.45-.646l.001.002v.003l.002.018A.176.176 0 0 1 .456-.6c0 .003-.004.007-.01.012L.433-.58ZM.419-.585c.004 0 .006-.003.006-.01L.424-.599.423-.602.422-.604l-.001.001-.001.004.001.001a.006.006 0 0 1 .002.005l-.004.002H.416C.414-.592.413-.594.413-.597L.412-.614.411-.635C.41-.641.41-.645.408-.647v-.001l-.001.001-.001.004.003.011.001.02.001.019c0 .005.003.008.008.008ZM.37-.582l.001-.002A.037.037 0 0 0 .386-.59a.04.04 0 0 1 .016-.006l.002-.002.001-.003H.404L.396-.602l-.01-.002a.036.036 0 0 0-.011-.003c-.005 0-.008.004-.008.011l.001.005a.018.018 0 0 1-.007-.012L.358-.615a.047.047 0 0 0-.007-.02L.35-.634l-.001.003v.002a.06.06 0 0 1 .007.023v.001l-.001.002a.038.038 0 0 1-.009.009c-.006.003-.01.005-.014.005S.327-.591.327-.594l.003-.01v-.001l-.001.001a.02.02 0 0 0-.004.013c0 .005.002.008.007.008a.024.024 0 0 0 .012-.005c.008-.005.013-.01.014-.016l.003.013c.001.003.004.005.009.007v.002ZM.373-.59H.371L.369-.598.37-.6l.004-.002.018.005-.008.004a.036.036 0 0 1-.011.003ZM.33-.605l.005-.002c.004-.003.006-.006.006-.01a.012.012 0 0 0-.005-.01l.005-.007.002-.005.001-.005-.001-.001c-.002 0-.006.004-.012.013L.33-.634h.001l.002-.001H.332a.014.014 0 0 0-.004-.003L.325-.639l-.001.004.001.002.002.001.002.004-.011.01.001-.001A.021.021 0 0 0 .33-.627l.002.002a.024.024 0 0 0-.005.014c0 .004.001.006.003.006Zm.004-.024L.333-.631.34-.639h.001l-.003.004-.004.006Zm-.003.018c-.002 0-.002-.001-.002-.002l.002-.005.003-.005a.013.013 0 0 1 .005.006l-.001.002a.014.014 0 0 1-.004.003l-.003.001Zm-.054.027a.019.019 0 0 0 .008-.002l.007-.003.001-.002v.001c0 .004.002.006.006.006S.306-.586.308-.59c.001.002.003.004.005.004.004 0 .006-.004.006-.01L.318-.598.317-.599l-.001.005.001.001-.003.001-.003-.001L.31-.595l.001-.002v-.002l-.004.006-.006.003C.298-.59.296-.591.296-.593v-.004H.295a.023.023 0 0 1-.017.007L.271-.591a.032.032 0 0 1-.007-.004L.263-.599.262-.601.261-.6l-.002.003-.003.004-.006.002a.008.008 0 0 1-.004-.002L.242-.599.24-.611c.003-.002.005-.004.005-.006H.244l-.005.004L.237-.62H.236l-.001.005.001.004a.022.022 0 0 0-.007.007c-.003.002-.004.006-.004.009 0 .002.001.003.003.003.006 0 .01-.003.011-.009.001.004.001.007.003.009a.013.013 0 0 0 .008.008c.003 0 .005-.002.007-.005l.001-.002.002-.004h.001a.016.016 0 0 0 .003.006l.006.004a.02.02 0 0 0 .007.001ZM.229-.598.228-.599l.001-.002.003-.004.005-.003.001.006-.003.003-.006.001ZM.17-.566h.003a.045.045 0 0 0 .011-.003l.009-.002.01-.005c.005-.003.01-.006.012-.009.003-.002.004-.006.004-.011a.016.016 0 0 0-.003-.008C.215-.606.213-.608.211-.608s-.003.001-.005.003l-.002.006c0 .003.002.005.007.005l.006.002-.004.004a.086.086 0 0 1-.026.014L.17-.566ZM.21-.6.207-.601l.002-.002.004.003H.21Zm-.021.002v-.005L.19-.604c0-.005-.004-.011-.011-.019L.17-.631a.087.087 0 0 1-.009-.012l.003.001v-.002L.155-.649v.005l.002.002c.003.006.01.014.02.023.007.007.01.012.011.017l.001.004ZM.17-.583l.007-.001c.012-.003.018-.011.018-.025L.194-.627.192-.643l.002.002.001-.001v-.001L.192-.648.19-.653.189-.654l-.001.005v.005l.002.018a.119.119 0 0 1 .002.022c0 .006-.007.013-.022.02l-.001.001H.17Zm-.059.019L.13-.569a.02.02 0 0 0 .01-.005C.152-.58.157-.586.157-.593c.004-.002.006-.006.006-.011l-.004-.01h.003L.159-.617.156-.62l-.001.006.001.001v.001a.016.016 0 0 1 .003.006l.003.005-.004.002-.001.001C.155-.603.152-.605.149-.605c-.001 0-.003 0-.004.002-.002.002-.002.004-.002.006 0 .004.002.005.006.005l.005-.001.001.002c0 .003-.006.007-.016.013l-.031.014h.003Zm.038-.033c-.002 0-.003-.001-.003-.002s0-.002.002-.002l.004.003-.003.001ZM.125-.605.123-.609h.001l.003.001.002.001-.004.002Zm-.036.03.006-.003.006-.005.009-.01L.125-.6v.002l.001-.003.008-.002.002-.005-.004-.004-.007-.003c-.003 0-.004.002-.004.006l.001.005A.062.062 0 0 0 .1-.589l-.006.006-.006.003C.085-.58.083-.581.083-.585l.002-.008.002-.006V-.6l-.001.001a.034.034 0 0 0-.004.015l.002.006c.002.002.003.003.005.003ZM.55-.613l.001-.001.002-.004L.551-.62.548-.621v.001l-.002.002-.004-.003-.002.005.004.003.002-.003.004.003Zm-.021.048L.53-.566l.002-.002.004.003.001-.001.002-.004-.005-.003-.002.003-.005-.003-.001.002-.001.003.004.003ZM.421-.607.423-.61l.004.003h.001L.43-.612.428-.613.425-.615H.424l-.001.004C.421-.614.419-.615.418-.615l-.001.003-.001.002.005.003ZM.384-.614l.003-.004L.384-.62.382-.622.38-.62l-.001.003.005.003Zm-.12.007.002-.005-.004-.003-.002.002-.001.003.005.003ZM.152-.624l.001-.001a.014.014 0 0 0 .002-.003L.152-.63.15-.632l-.001.003-.001.002.004.003Zm.261.008.013-.006.001-.002-.013.005-.001.003Zm-.011-.03.007-.005.001-.002-.004.002-.002-.001-.001-.001.002-.001.002.001.001-.002-.001-.001c-.002 0-.003 0-.004.002l-.002.003.003.002-.002.002-.001.001h.001Zm0-.012.003-.001.001-.004a.002.002 0 0 0-.002-.002l-.003.002L.4-.659l.002.001Zm0-.002L.401-.661l.001-.001.001-.001.002.002-.003.001Zm-.016.022L.384-.639.385-.64l.001.001v.001Zm-.015.013.001-.001.005-.002a.022.022 0 0 0 .009-.007l.002.002.001-.003-.002-.001.001-.004a.002.002 0 0 0-.002-.002l-.002.002-.002.003.003.003-.01.007-.004.003ZM.365-.662.363-.664l.001-.001.001.001v.002ZM.351-.65l.005-.002C.36-.653.362-.655.365-.659l.002.002.001-.003-.002-.001.001-.004a.002.002 0 0 0-.002-.002l-.002.001a.008.008 0 0 0-.002.004l.003.003a.064.064 0 0 1-.009.006L.35-.65h.001ZM.333-.658.331-.66l.002-.001v.003Zm-.015.012h.001l.005-.002a.022.022 0 0 0 .009-.007l.002.001.001-.002-.002-.002.001-.003-.001-.002H.333l-.002.001-.001.003c0 .001 0 .002.002.003a.048.048 0 0 1-.013.009l-.001.001Zm.548.192c.003 0 .005-.003.008-.01.002-.006.005-.01.008-.01.001 0 .003.002.005.006.001.003.004.004.009.004.002 0 .004-.001.006-.004a.025.025 0 0 0 .003-.013L.903-.515l.002.002v-.002L.901-.526.9-.527v.001l-.002.005.001.004.003.04-.001.005C.899-.47.897-.47.896-.47.892-.47.89-.471.888-.474L.883-.479l-.005.002a.016.016 0 0 0-.004.007L.87-.462l-.004.004C.862-.458.86-.463.86-.471v-.008.001l-.002.01.003.01c.001.003.003.004.005.004Zm-.04-.009.006-.003a.03.03 0 0 0 .005-.007.03.03 0 0 0 .011.004L.85-.471l.001-.006-.002-.005c0-.002-.002-.003-.003-.003-.003 0-.005.002-.008.006l-.001.001-.002.004c-.001.003-.004.005-.009.005C.822-.469.82-.471.82-.475L.819-.492a.095.095 0 0 0-.004-.034H.814l-.001.005a.036.036 0 0 1 .002.011l.002.039c.001.005.004.008.009.008Zm.021-.012L.84-.478l.004-.001.002.001.001.002v.001Zm-.069.026.014-.004C.804-.458.81-.464.81-.47L.807-.473a.016.016 0 0 0-.006-.003l.005-.003.002-.008a.018.018 0 0 0-.003-.011.009.009 0 0 0-.007-.004l-.004.003c-.002.002-.002.004-.002.006 0 .003.001.005.005.005l.007.001c.002.001.002.002.002.003L.8-.481l-.006.002-.003.003-.001.002.001.002L.8-.47l.007.003-.005.004-.012.005a.026.026 0 0 1-.011.003C.775-.455.771-.456.77-.459a.011.011 0 0 1-.003-.008c0-.004.001-.008.004-.013v-.002L.77-.48c-.004.004-.005.01-.005.017 0 .004.001.007.003.01a.013.013 0 0 0 .01.004Zm.024-.044H.799L.797-.494.795-.495l.002-.002c.002 0 .003.002.005.004Zm-.047.03.001-.002c.002-.003.002-.007.002-.012L.756-.515l.002.002v-.001L.756-.521.753-.527v.001l-.002.005.001.004.003.046v.008Zm-.054.016.003-.002.002-.005C.706-.459.704-.461.7-.461L.694-.46.693-.463l.002-.005.003-.002C.699-.47.7-.469.7-.467a.008.008 0 0 1 .002.004l.004.001.006-.002.004-.004.001-.001c0 .004.002.006.006.006.003 0 .005-.002.006-.006L.73-.47v.001c.001.003.003.005.006.005s.005-.001.007-.004a.023.023 0 0 0 .003-.013L.744-.515l.002.002v-.001L.744-.52.742-.526.741-.527v.001l-.002.005.001.004.003.04-.001.005C.74-.47.738-.47.737-.47.734-.47.732-.472.732-.475v-.001H.731c-.002.005-.005.007-.008.007L.72-.47.719-.473.72-.476H.719l-.002.003-.003.003a.014.014 0 0 1-.006.002L.704-.469.702-.473.7-.476c-.002 0-.004.002-.006.004a.016.016 0 0 0-.003.009v.004a.019.019 0 0 1-.009.003c-.003 0-.005-.002-.006-.006L.674-.508A.104.104 0 0 0 .671-.52L.67-.521v.001l-.001.004.002.012.001.023.001.023c.001.006.004.008.009.008.003 0 .006-.001.011-.004.002.004.005.007.008.007Zm0-.006c-.002 0-.003-.001-.004-.003h.002l.002.001.002.001-.002.001Zm-.082.011a.03.03 0 0 1 .01-.003l.01-.002s.004-.001.009-.005a.048.048 0 0 0 .013-.009.018.018 0 0 0 .004-.011.016.016 0 0 0-.003-.008C.66-.483.659-.484.657-.484s-.003.001-.005.003L.65-.475c0 .003.002.005.007.005.003 0 .005 0 .006.002l-.004.004a.145.145 0 0 1-.026.014l-.017.008h.003Zm.04-.034H.656c-.002 0-.003-.001-.003-.002l.002-.001.004.003Zm-.02.014v-.001a.028.028 0 0 0 .003-.013L.639-.514l.003.002-.001-.002-.004-.011H.636L.635-.52l.001.004.003.047-.001.005v.002h.001ZM.62-.458l.005-.007c.005-.006.007-.01.007-.012S.631-.48.629-.48l-.005.001-.007.003a.067.067 0 0 1-.027.007C.583-.469.579-.47.576-.472L.573-.479l.001-.007.001-.003-.001.002a.017.017 0 0 0-.003.01c0 .009.006.014.016.014a.095.095 0 0 0 .035-.01l.006-.002.001.001-.004.005-.004.008-.001.003Zm-.105.011.003-.001.01-.002.01-.002.009-.005A.048.048 0 0 0 .56-.466a.018.018 0 0 0 .003-.011.03.03 0 0 0-.002-.008C.559-.488.557-.489.555-.489a.008.008 0 0 0-.004.002.01.01 0 0 0-.003.007c0 .003.003.004.007.004.003 0 .006.001.007.003l-.004.004a.145.145 0 0 1-.026.014l-.017.008Zm.04-.034L.551-.482c0-.001.001-.002.003-.002l.004.003H.555Zm-.039.017c.005 0 .009-.003.011-.01a.019.019 0 0 0 .011.004L.54-.472l.001-.005L.54-.483C.539-.485.538-.486.536-.486c-.003 0-.005.002-.007.006l-.002.001-.002.004C.524-.471.521-.47.516-.47.513-.47.511-.472.51-.476L.509-.493a.092.092 0 0 0-.004-.033v-.001l-.001.001-.001.004.003.011v.02l.002.019c0 .005.003.008.008.008Zm.021-.012L.531-.479.534-.48l.002.001.002.003H.537Zm-.069.029c.004 0 .008-.002.014-.004l.013-.008C.498-.462.5-.465.5-.468L.498-.471a.049.049 0 0 0-.007-.003l.005-.004.002-.007a.018.018 0 0 0-.003-.011A.009.009 0 0 0 .488-.5c-.002 0-.003.001-.004.003l-.003.006.002.004.003.001c.007 0 .01.001.01.004C.494-.48.49-.479.484-.477l-.003.003-.001.003.01.003.007.003-.005.004a.033.033 0 0 1-.012.005.026.026 0 0 1-.011.003c-.004 0-.008-.001-.01-.004a.019.019 0 0 1-.002-.008L.46-.479.461-.48l-.002.001a.034.034 0 0 0-.004.018c0 .009.004.014.013.014Zm.024-.044H.489L.487-.492.485-.493l.002-.002c.002 0 .003.002.005.004Zm-.047.029c.002-.002.003-.007.003-.014L.445-.515l.002.002.001-.001L.446-.52H.445L.444-.525.443-.526v.001l-.002.004.001.005.003.046-.001.006v.002h.001ZM.43-.469l.001-.006v-.001c0-.005-.003-.011-.01-.018l-.019-.02h.004L.401-.518.396-.521v.003l.001.003.004.005c.001.003.005.007.01.012l.008.008c.006.006.01.011.011.016v.005Zm-.018.014.006-.001c.013-.003.019-.011.019-.025L.435-.499.434-.514v-.001l.002.002h.001L.436-.515l-.004-.01-.001-.001-.002.005.001.002v.003l.002.018.002.023-.003.006a.017.017 0 0 1-.006.006.057.057 0 0 1-.013.007l-.001.001h.001Zm-.05.014.014-.003.009-.002.011-.005a.085.085 0 0 0 .013-.01l.002-.008L.41-.475.408-.48H.41L.404-.486l-.001.003v.002l.001.001.001.003.002.006.002.004-.003.004a.11.11 0 0 1-.027.014l-.017.008Zm.012-.03L.368-.472c.005-.008.01-.012.015-.012l.007.002.004.004-.003.002-.008.004a.028.028 0 0 1-.009.001ZM.333-.44A.037.037 0 0 0 .35-.445a.044.044 0 0 0 .012-.01c.002-.002.003-.006.003-.012.002.002.005.002.008.002a.027.027 0 0 0 .014-.004c.005-.003.007-.006.008-.009l.001-.004-.003-.005C.39-.489.388-.49.385-.49c-.004 0-.008.002-.011.007l-.008.01c-.002 0-.003-.002-.004-.004L.361-.478v.001l-.002.004.001.002a.02.02 0 0 1 .003.01l-.005.005-.011.007a.035.035 0 0 1-.014.003c-.005 0-.009-.002-.011-.005C.319-.454.318-.457.318-.459l.001-.009v-.001l-.001.002-.001.004v.005c0 .005.001.009.004.012.002.004.006.006.012.006ZM.265-.446a.03.03 0 0 0 .017-.005C.29-.455.295-.459.296-.464v-.01l.002.001c.005 0 .009-.004.012-.01a.014.014 0 0 0 .01.004.002.002 0 0 0 .002-.002.009.009 0 0 0 .001-.005c0-.007-.002-.01-.005-.01-.002 0-.004.002-.007.006l-.002.003-.001.003a.008.008 0 0 1-.004.004l-.006.001L.295-.48.294-.482.293-.483l-.001.004v.002a.023.023 0 0 1 .003.011L.29-.461a.045.045 0 0 1-.025.009C.26-.452.256-.453.253-.457A.011.011 0 0 1 .25-.465l.002-.008H.251v.001L.25-.467l-.001.005.001.005c.003.007.008.011.015.011Zm.054-.039L.313-.488.316-.49l.002.001.001.003v.001Zm-.102.029c.002 0 .007-.002.014-.007l.011-.008c.002-.001.003-.003.003-.006 0-.005-.001-.008-.003-.009L.235-.49a.035.035 0 0 1-.009-.006h.002l.001-.001-.001-.001-.007-.003H.22v.002a.01.01 0 0 0 .001.004l.002.001c.003.005.008.008.013.011l.008.005-.012.009c-.008.005-.013.008-.016.008L.213-.463.212-.466l.002-.01v-.002l-.001.001a.035.035 0 0 0-.003.013c0 .006.003.008.007.008ZM.201-.462v-.002a.024.024 0 0 0 .003-.012L.201-.515l.002.002h.001L.201-.521.199-.526l-.001.001-.001.004.001.005.003.046L.2-.464v.002h.001Zm-.014 0v-.002c.002-.003.002-.008.002-.012L.187-.515l.002.002v-.001L.185-.526l-.001.001-.001.004.001.005.003.046-.001.006v.002h.001Zm-.056.004a.024.024 0 0 0 .013-.004c.008-.005.013-.011.013-.016l.001.007c.001.005.004.008.009.008.002 0 .004-.001.006-.004A.025.025 0 0 0 .176-.48L.174-.514l.002.002v-.002L.172-.525.171-.526v.001l-.002.004a.009.009 0 0 1 .001.005l.003.04-.001.005C.17-.469.168-.469.167-.469c-.003 0-.005-.002-.006-.006L.158-.49A.03.03 0 0 0 .15-.508v-.001l-.001.004v.002c.004.01.007.018.007.025H.155v.001l-.009.009a.037.037 0 0 1-.015.005c-.003 0-.005-.002-.005-.005l.002-.01v-.001l-.001.001-.002.013.001.005c.001.002.003.002.005.002Zm-.046.01c.005 0 .01-.001.016-.004.011-.005.017-.011.017-.016 0-.002 0-.004-.002-.004A.016.016 0 0 0 .11-.475C.104-.476.101-.477.101-.479s.002-.004.005-.008C.109-.49.111-.492.113-.492l.002.002.001.001c.001 0 .002-.001.002-.004S.117-.498.114-.498c-.001 0-.003.001-.005.004a.019.019 0 0 0-.007.008.02.02 0 0 0-.003.01c0 .002 0 .004.002.005l.011.003c.002 0 .003.001.003.002L.11-.462a.067.067 0 0 1-.012.006l-.012.002c-.004 0-.007-.001-.009-.004a.011.011 0 0 1-.003-.008c0-.003.001-.008.004-.013v-.002l-.001.002a.029.029 0 0 0-.005.017c0 .004.001.007.003.01a.013.013 0 0 0 .01.004Zm.709-.059h.001l.002-.004-.002-.002-.003-.002L.79-.51l.004.003Zm-.186.023L.61-.488.608-.49.605-.492l-.001.004-.005-.003-.001.002-.001.002.005.003v-.001l.002-.002.004.003Zm-.121-.02.002-.005-.002-.002-.003-.001-.002.004.005.004Zm-.128.01.002-.005-.005-.002L.354-.5v.003l.005.003ZM.23-.505v-.001L.232-.51.23-.512.228-.513l-.002.004.004.004ZM.148-.514.15-.518.148-.52.146-.521l-.002.004.004.003Zm.125.033c.002-.002.002-.004.002-.005L.273-.487.271-.489H.27l-.001.005.004.003Zm.621-.052c.002 0 .003-.001.003-.003l.002.003c.002 0 .003-.002.003-.004L.9-.543l-.001.002.002.004L.9-.536.898-.537.897-.541.896-.542v.004l-.001.003c-.001 0-.002-.001-.002-.003L.894-.54.893-.542l-.001.001-.001.001.001.001v.002l.001.003.001.001ZM.883-.542l.018-.007.001-.002-.018.006-.001.003Zm-.008.031L.873-.513l.001-.001.001.001v.002Zm-.014.012.005-.002a.022.022 0 0 1 .005-.003l.004-.004.001.001.001-.002-.001-.002v-.003L.875-.516l-.002.001-.002.003c0 .002.001.003.003.004a.044.044 0 0 1-.01.006L.86-.499h.001Zm-.03 0 .013-.005.001-.002-.013.005-.001.002Zm-.038.057.018-.007.001-.002-.018.006-.001.003ZM.714-.489l.003-.003.002.002c.002 0 .003-.002.003-.004L.72-.5l-.001.002c0 .001 0 .003.002.005H.72L.718-.494.717-.498V-.5l-.001.002v.004c0 .001 0 .002-.002.002L.713-.495v-.004l-.001.001-.001.002.001.003.001.003.001.001ZM.705-.505l.018-.007.001-.002-.018.006-.001.003Zm-.026.018.018-.008.001-.001v-.001L.68-.49l-.001.003ZM.647-.495.661-.5v-.001l.001-.001-.014.004-.001.003Zm-.055.048L.61-.454l.001-.002-.018.006-.001.003ZM.545-.5l.018-.007.001-.002H.563l-.017.006L.545-.5Zm-.024.011.018-.007.001-.002-.019.006v.003Zm-.039.048L.5-.448.501-.45l-.018.006-.001.003Zm-.09-.081a.046.046 0 0 1 .006-.004l.001-.002L.4-.529H.399a.014.014 0 0 1-.003.002H.394L.393-.528l.002-.001h.001v.001l.001-.001v-.002L.396-.532l-.004.003-.001.002.002.002-.001.003Zm-.009-.01.013-.006v-.001L.397-.54H.396l-.011.004-.001.002-.001.002Zm.037 0 .003-.002.001-.003c0-.002 0-.003-.002-.003L.42-.537l-.001.003.001.002Zm.001-.003H.419L.42-.536l.001-.001.002.001-.002.001Zm-.023.042.003-.001.001-.004A.002.002 0 0 0 .4-.5l-.003.002-.001.004.002.001Zm0-.002H.397l.001-.002.001-.001.002.002-.003.001Zm-.027.041.013-.005.001-.002-.013.004-.001.003ZM.302-.507l.017-.007.001-.002-.017.007-.001.002ZM.218-.518l.018-.007.001-.002-.018.006-.001.003ZM.167-.53C.169-.53.17-.531.17-.533c.001.002.002.002.003.002s.002-.001.002-.004L.174-.537v-.002L.173-.54v-.001l-.001.003.002.004-.001.001a.002.002 0 0 1-.002-.002v-.003L.17-.54l-.001.001.001.004c0 .002-.001.003-.003.003v-.005L.166-.539v.001l-.001.001v.001l.001.002v.003l.001.001Zm-.01-.01.018-.006.001-.002H.175l-.017.006-.001.002Zm-.018.09.018-.008.001-.001-.018.006-.001.003Zm.71.132c-.011 0-.016-.005-.016-.015a.04.04 0 0 1 .003-.014.038.038 0 0 0 .019.004.046.046 0 0 0 .01.001l.005.003.002.005-.004.007a.035.035 0 0 1-.009.006.02.02 0 0 1-.01.003Zm-.001.005A.023.023 0 0 0 .865-.32C.87-.325.873-.33.873-.337L.871-.343a.008.008 0 0 0-.004-.004L.855-.348.838-.349l.009-.008a.018.018 0 0 0 .013.006.022.022 0 0 0 .013-.004l.004.002.007.001c.004 0 .008-.002.012-.007L.897-.36l.001.005a.008.008 0 0 0 .005.002.01.01 0 0 0 .007-.003L.914-.36v-.001.001c.001.004.003.006.006.006s.005-.002.007-.007c.002.004.004.006.007.006.002 0 .004-.001.005-.004l.002-.006a.03.03 0 0 0-.003-.011L.937-.382l.002.002-.001-.002-.004-.007-.001.002-.001.003.001.001v.002c0 .004.002.008.005.014l.001.004c-.001.001-.002.002-.005.002L.93-.362.929-.366.93-.367.929-.368l-.001.001C.926-.362.923-.36.92-.36c-.001 0-.002 0-.003-.002v-.005l-.003.002v.001l-.002.002-.007.003c-.004 0-.006-.002-.006-.004v-.003H.897L.892-.36a.019.019 0 0 1-.008.002L.878-.359C.88-.361.881-.365.881-.368L.88-.373C.879-.375.878-.375.877-.375l-.005.003a.016.016 0 0 0-.003.009l.001.004a.025.025 0 0 1-.01.002C.856-.357.853-.358.851-.36l.007-.004.002-.005L.859-.37.854-.372.846-.373l-.008.001-.005.003-.001.003v.003l.001-.001.003-.001c.001 0 .004.001.008.005a.035.035 0 0 0-.009.01l-.002.001.001.001a.047.047 0 0 0-.003.017c0 .012.005.018.017.018Zm.027-.048C.872-.362.871-.363.871-.365l.002-.003.003-.002.002.003v.003l-.003.003ZM.848-.363.844-.367h.003l.005.001-.004.003Zm-.113.027A.024.024 0 0 0 .748-.34a.034.034 0 0 0 .014-.016l.001.006c.001.006.003.009.008.009.004 0 .007-.003.012-.008h.001c0 .004.002.006.006.006a.035.035 0 0 0 .012-.003l.001-.001.01-.004.011-.005.003-.006-.012.005a.026.026 0 0 1-.007.003c-.003 0-.007-.002-.01-.005L.793-.368l.005-.003.011-.002.006.001.002.001-.002-.002L.81-.375.803-.376a.016.016 0 0 0-.009.003.011.011 0 0 0-.003.008c0 .003 0 .006.002.009A.018.018 0 0 0 .8-.351c-.003.002-.007.002-.01.002S.786-.35.786-.354v-.001L.779-.35a.011.011 0 0 1-.008.003L.767-.348C.766-.349.765-.35.765-.353a.08.08 0 0 0-.01-.034H.754l-.001.006c.005.01.007.018.007.023v.002l-.001.001a.034.034 0 0 1-.009.008.024.024 0 0 1-.015.006c-.003 0-.004-.002-.004-.005l.001-.01.001-.001-.001.001a.027.027 0 0 0-.003.012c0 .005.002.008.006.008ZM.73-.36l.005-.002c.004-.002.006-.005.006-.009 0-.003-.002-.007-.005-.01L.74-.388a.008.008 0 0 0 .002-.005l.001-.004-.001-.002c-.002 0-.006.004-.011.013L.729-.388.73-.389h.002L.725-.394l-.001.005.001.002.001.001.002.003a.038.038 0 0 1-.009.009l-.002.002.002-.001c.004-.001.007-.004.01-.008l.002.002a.03.03 0 0 0-.004.014c0 .004.001.005.003.005Zm.004-.023L.732-.385l.007-.009.002.001-.007.01ZM.73-.366.728-.367.73-.372l.003-.005a.017.017 0 0 1 .006.006L.738-.37C.736-.367.734-.366.73-.366ZM.706-.34l.001-.002C.709-.346.709-.35.709-.354L.707-.393l.002.002v-.002L.705-.404H.704l-.001.005.001.005.003.046-.001.005v.003ZM.692-.348l.001-.006v-.001c0-.005-.004-.011-.01-.018a.122.122 0 0 1-.019-.02h.003L.663-.396.658-.4v.006a.01.01 0 0 1 .003.005l.005.006a.07.07 0 0 0 .015.014.037.037 0 0 1 .01.016l.001.005Zm-.018.015L.68-.335l.006-.001C.689-.338.692-.34.694-.344a.025.025 0 0 0 .005-.015L.697-.377.695-.393v-.001h.001l.002.002-.003-.007-.003-.005-.001.002v.004l.001.004.002.018.002.022-.004.007a.052.052 0 0 1-.018.013l-.001.001h.001ZM.659-.339c.004 0 .006-.003.006-.01L.664-.354.662-.358l-.001.001-.001.004.001.001.002.005-.004.002-.004-.001c-.001 0-.002-.002-.002-.005L.652-.368.651-.389a.05.05 0 0 0-.003-.012L.647-.402v.001l-.001.004.002.011a.087.087 0 0 1 .001.02.2.2 0 0 1 .001.019c.001.005.004.008.009.008Zm-.045.007a.042.042 0 0 0 .014-.006l.011-.009C.641-.348.642-.35.642-.353c0-.004-.001-.008-.003-.009L.632-.365a.022.022 0 0 1-.009-.007l.003-.001-.008-.004-.001.001v.001l.001.004.002.001a.03.03 0 0 0 .013.011l.008.005-.012.009C.621-.34.616-.337.613-.337.61-.337.609-.339.609-.342l.002-.01v-.002L.61-.352a.028.028 0 0 0-.003.013c0 .005.003.007.007.007Zm-.053.003c.002 0 .005-.003.007-.01.002-.006.005-.01.009-.01l.004.006c.002.003.005.004.009.004L.594-.34l.004-.004.004-.003-.001.003L.6-.342h.001l.001-.001.002-.007c0-.002-.001-.003-.002-.003l-.003.002C.595-.347.592-.345.59-.345c-.003 0-.006-.001-.007-.004H.582L.577-.354a.008.008 0 0 0-.004.002l-.005.007-.004.008C.563-.335.562-.333.56-.333c-.004 0-.006-.005-.006-.013l.001-.008-.001.001-.001.01c0 .003 0 .006.002.01.001.003.003.004.006.004ZM.46-.322c.003 0 .007-.002.013-.008l.003-.002a.037.037 0 0 1 .01-.006c.003.004.006.006.009.006C.498-.332.5-.334.5-.338a.014.014 0 0 0-.002-.006L.494-.346l-.007.002-.001-.003.002-.002.004-.001v-.001a.011.011 0 0 0 .007-.008L.5-.345c.002.003.004.004.007.004l.006-.002.007-.004.006.005.007.001a.008.008 0 0 0 .004-.002l.004-.004.002-.003-.001.005h.001v-.001a.01.01 0 0 0 .003-.007.002.002 0 0 0-.002-.002l-.002.002c-.004.004-.007.006-.009.006-.004 0-.007-.001-.009-.003l.008-.003.002-.003v-.001L.533-.358C.53-.361.526-.362.521-.362l-.009.001-.005.003-.002.004h.004a.01.01 0 0 1 .007.003.012.012 0 0 1-.009.004c-.003 0-.005-.002-.006-.006L.5-.382a.157.157 0 0 0-.003-.016v-.001l-.002.005a.19.19 0 0 1 .003.032c0 .002-.003.005-.007.007-.004.001-.006.005-.006.01v.002a.042.042 0 0 0-.014.009c-.005.005-.009.008-.013.008-.002 0-.003-.002-.003-.006L.457-.34l.001-.006v.001c-.003.006-.005.01-.005.014l.002.007.005.002Zm.036-.015A.005.005 0 0 1 .491-.34h.002l.002.001.002.001-.001.001Zm.025-.016L.517-.356H.52l.006.001-.005.002Zm-.09.012c.005 0 .008-.003.011-.01a.015.015 0 0 0 .011.004l.002-.002.001-.005L.454-.36c0-.002-.002-.003-.003-.003-.003 0-.006.002-.008.006l-.001.002-.002.003c-.002.004-.005.005-.009.005-.004 0-.006-.002-.006-.006L.424-.369A.095.095 0 0 0 .42-.403v-.001l-.001.001-.001.004.002.012.002.038c.001.006.004.008.009.008Zm.021-.012L.445-.355c0-.001.001-.002.003-.002l.003.001.001.003Zm-.09.028A.043.043 0 0 0 .39-.337a.027.027 0 0 0 .004-.015h.001c.002 0 .004-.002.005-.007v-.002l.002.002.001.008.002.008.006.002c.004 0 .006-.003.006-.01L.416-.355.415-.358.414-.359l-.001.001-.001.004h.001l.002.005c-.001.002-.002.002-.004.002-.003 0-.004 0-.005-.002L.405-.356.403-.365.401-.367a.002.002 0 0 0-.002.002c0 .005-.001.007-.004.007H.393A.014.014 0 0 1 .39-.362v.001l-.002.004.001.002a.02.02 0 0 1 .003.01C.391-.344.39-.342.386-.34l-.011.007a.059.059 0 0 1-.013.002c-.005 0-.009-.001-.011-.004a.012.012 0 0 1-.004-.009l.001-.004.001-.004-.001.001-.002.006c0 .013.005.02.016.02ZM.335-.34l.001-.001c.002-.002.003-.006.003-.013L.336-.393l.002.002.001-.002-.004-.011H.334l-.002.005.001.005.003.046-.001.005v.003Zm-.048.005A.024.024 0 0 0 .3-.339C.308-.345.312-.35.313-.355l.001.006c.001.006.004.009.008.009.003 0 .004-.001.005-.003A.014.014 0 0 0 .329-.35L.328-.355.326-.359H.325l-.001.005.003.005c-.001.002-.002.003-.005.003S.317-.348.316-.352L.314-.367C.312-.375.31-.382.306-.386l-.001.003v.003a.065.065 0 0 1 .007.023l-.001.003a.04.04 0 0 1-.01.008.024.024 0 0 1-.014.006C.284-.34.282-.342.282-.345l.002-.01v-.001l-.001.001a.05.05 0 0 0-.002.012l.001.006a.008.008 0 0 0 .005.002Zm-.053.023v-.005L.233-.329A.053.053 0 0 1 .23-.342c0-.002.002-.004.004-.006 0 .004.002.007.006.01l.002.001.001-.005v-.004a.027.027 0 0 0 .012-.003l.006.001a.02.02 0 0 0 .012-.004.01.01 0 0 0 .003-.007c0-.003-.002-.005-.005-.007L.266-.368.265-.37.264-.371c0-.003.001-.005.003-.006.001-.002.003-.002.004-.002h.002v.001l.001-.001v-.003c0-.002-.001-.003-.003-.003s-.004.001-.006.004a.02.02 0 0 0-.003.01c-.003 0-.006.003-.009.007C.251-.362.25-.358.25-.353l-.007.001H.24L.236-.354H.235l-.003.003a.02.02 0 0 0-.003.011l.004.02.001.008Zm.007-.031L.239-.344.237-.347l.003.001.001.003Zm.021-.011H.26C.262-.357.264-.36.264-.363a.008.008 0 0 0 .005.002.014.014 0 0 1 .004.003l.001.001-.001.002-.011.001Zm-.007 0a.005.005 0 0 1-.003-.005c.001-.003.004-.005.007-.006l.002.001v.004c0 .002-.003.004-.006.006Zm-.078.026H.18a.045.045 0 0 0 .011-.003L.2-.333l.01-.005a.03.03 0 0 0 .012-.009.015.015 0 0 0 .004-.01.011.011 0 0 0-.003-.008C.222-.368.22-.37.218-.37s-.003.001-.005.003l-.002.006c0 .003.002.005.007.005l.006.002-.003.004a.12.12 0 0 1-.026.015l-.018.007Zm.041-.033c-.003 0-.004-.001-.004-.002l.003-.001.003.002-.002.001Zm-.04.02c.005 0 .009-.004.012-.011.004.003.007.005.011.005l.002-.002.001-.005a.014.014 0 0 0-.002-.007L.198-.363c-.002 0-.005.002-.007.005l-.003.006c-.002.003-.005.005-.01.005-.003 0-.005-.002-.006-.006V-.37a.128.128 0 0 0-.004-.034H.167l-.001.005a.036.036 0 0 1 .002.011l.001.02.001.018c.001.006.004.009.008.009Zm.021-.012a.011.011 0 0 1-.006-.003c0-.001.001-.002.003-.002l.002.001.002.003-.001.001Zm.675-.026V-.38l.002-.004-.005-.003-.002.004.005.004Zm.033.007.001-.001.001-.002.005.003.002-.004-.002-.002L.911-.38.91-.376.907-.378.905-.379l-.002.004.004.003Zm.002-.007.002-.004-.002-.002-.003-.002-.002.005.005.003Zm.028.043.001-.001.001-.004-.002-.002-.002-.001-.001.001-.001.002-.005-.003-.001.002-.001.003.004.003h.001L.933-.34l.004.004ZM.779-.359l.002-.004-.002-.002-.003-.002-.002.005.005.003Zm-.134.033.001-.001.006-.004.001-.002h.001l-.005.001-.002-.001h.001l.001-.001.001.001.001-.002L.65-.336c-.001 0-.002 0-.003.002l-.002.002.002.002a.008.008 0 0 0-.002.004Zm.02-.002.002-.005-.002-.001-.003-.001-.002.004.005.003ZM.626-.381c.002-.002.002-.004.002-.005L.626-.387.624-.389H.623l-.001.005.004.003Zm-.027.025v-.001l.002-.004-.002-.002-.003-.001-.002.004.005.004Zm-.23.001H.37l.002-.004-.003-.002-.002-.002-.002.005.004.003ZM.4-.327l.002-.004.005.003.002-.004-.005-.003-.002.003L.4-.334.398-.335l-.002.002v.003L.4-.327Zm.017-.002.002-.004-.004-.003-.002.004.004.003ZM.329-.403v-.001l.006-.004.002-.002v-.001l-.004.002H.331L.33-.41l.002-.001h.001v.001l.001-.002-.001-.002-.003.002-.002.003c0 .001.001.002.003.002-.002.001-.002.002-.002.003v.001Zm0 .074V-.33l.002-.003-.002-.002-.003-.002-.002.004L.32-.336l-.002.002-.001.002.005.003.001-.001.001-.003.005.004Zm.208.001.002-.004.004.003h.001l.002-.004-.005-.003-.002.003-.002-.002-.002-.001-.002.002-.001.003.005.003ZM.263-.331l.001-.001.001-.002.005.002.002-.004-.005-.003-.002.003-.004-.003-.002.003-.001.002.005.003ZM.141-.374l.002-.004L.141-.38.138-.381l-.002.004.005.003Zm-.042 0 .002-.004L.099-.38.096-.382l-.002.005.005.003ZM.077-.376l.002-.005-.002-.002-.003-.001-.002.005.005.003Zm.841-.021.019-.007v-.001l.001-.001L.919-.4l-.001.003Zm-.022.001a.002.002 0 0 0 .002-.002l.001-.003c0-.002 0-.003-.002-.003l-.002.002-.001.004.002.002Zm0-.003H.895l.001-.002v-.001c.002 0 .003.001.003.002l-.003.001Zm-.039.005.018-.007.001-.002-.018.007-.001.002ZM.843-.397.841-.399V-.4h.002v.003Zm-.015.012.007-.003.004-.003.004-.004a.003.003 0 0 1 .001.002l.002-.003-.002-.001L.845-.4.844-.403l-.003.002C.839-.4.839-.399.839-.398l.003.003a.035.035 0 0 1-.009.006l-.005.003v.001Zm-.029.059.018-.007.001-.001v-.001L.8-.329l-.001.003ZM.775-.387l.003-.002.001-.003a.002.002 0 0 0-.002-.002.002.002 0 0 0-.002.002l-.002.003.002.002Zm.001-.002L.774-.39l.001-.001.001-.001.002.001a.002.002 0 0 1-.002.002Zm-.03-.016.018-.007.001-.003-.018.007-.001.003ZM.732-.416.729-.417l.002-.001.001.001v.001Zm-.014.013.005-.002a.027.027 0 0 0 .008-.007l.002.001.001-.003-.001-.001v-.003L.732-.42l-.003.001-.001.003.002.003-.005.005-.008.005h.001Zm-.016.074.007-.004.001-.002v-.001l-.004.003-.002-.001v-.002h.003v.001-.001l.001-.001a.002.002 0 0 0-.002-.002l-.003.002-.001.004.002.001-.002.003ZM.7-.321l.013-.005.001-.002-.013.005L.7-.321Zm-.028-.08.003-.003c0 .002.001.003.002.003.002 0 .002-.002.002-.004L.678-.411l-.001.002.001.004-.001.001c-.001 0-.002 0-.002-.002v-.003L.674-.411l-.001.002.001.003c0 .002 0 .003-.002.003C.671-.403.67-.404.67-.406l.001-.002L.67-.41l-.001.001v.002l.001.002v.003l.002.001ZM.661-.412l.018-.007L.68-.42v-.001l-.018.006-.001.003Zm.001.095.013-.006.001-.002-.013.005-.001.003Zm-.019 0 .013-.006.001-.001v-.001L.644-.32l-.001.003ZM.619-.4l.002-.001.002-.004a.002.002 0 0 0-.002-.002l-.003.002-.001.004.002.001Zm.002-.002L.618-.403l.001-.001.001-.001.002.002-.001.001ZM.585-.32l.018-.007.001-.002-.018.006-.001.003Zm-.028.004L.57-.321l.001-.002H.57l-.01.004c-.002 0-.003.001-.003.003ZM.53-.368l.018-.007.001-.002-.018.006-.001.003ZM.517-.38.52-.382l.001-.003c0-.002-.001-.003-.002-.003l-.002.003-.001.003.001.002Zm.001-.003H.516l.002-.003.002.002-.002.001ZM.482-.4.5-.408v-.001L.501-.41l-.018.007L.482-.4Zm-.003.022L.477-.38l.001-.001.001.001v.002Zm-.014.012L.47-.368l.009-.007.001.001.001-.002L.48-.378v-.003L.479-.383l-.002.001-.002.003.003.003-.006.005-.008.005h.001ZM.436-.378l.017-.007.001-.002-.017.007-.001.002Zm-.037.001.013-.005.001-.001v-.001L.402-.38C.4-.38.399-.379.399-.377ZM.383-.389.386-.39l.001-.004c0-.001 0-.002-.002-.002l-.002.002-.001.004.001.001Zm.001-.002L.383-.392l.001-.002c.002 0 .002.001.002.002l-.002.001ZM.351-.38l.013-.005.001-.003-.013.005-.001.003ZM.322-.413l.013-.005.001-.001V-.42l-.013.004-.001.003ZM.316-.39l.003-.002.001-.003c0-.002-.001-.002-.002-.002s-.002 0-.003.002l-.001.003.002.002Zm0-.003H.315l.001-.001.001-.001.002.001-.003.001Zm-.027.075.018-.007.001-.002-.018.006-.001.003ZM.25-.317l.018-.007.001-.002-.018.007-.001.002ZM.237-.378.24-.38l.001-.003a.002.002 0 0 0-.002-.002c-.001 0-.002 0-.002.002L.235-.38l.002.002ZM.238-.38.236-.381l.001-.001.001-.001.002.001a.002.002 0 0 1-.002.002ZM.209-.383l.013-.006.001-.002-.013.005-.001.003Zm-.028.005.018-.007L.2-.387.182-.38l-.001.002ZM.128-.389l.018-.007v-.002l-.017.006-.001.003ZM.113-.413l.002-.001.002-.003C.117-.419.116-.42.114-.42l-.002.002-.001.004.002.001Zm0-.002L.112-.416l.001-.001.003.001-.003.001Zm-.03.019.018-.007.001-.002-.019.007v.002ZM.073-.4.07-.402l.002-.001.001.001V-.4Zm-.014.011.006-.002.003-.003.004-.003.002.001.002-.002L.074-.4v-.003L.073-.406.07-.404l-.001.003.002.003a.015.015 0 0 1-.006.004l-.007.005h.001Zm-.018.025.002-.002.001-.003c0-.002 0-.003-.002-.003L.04-.369l-.001.003c0 .001 0 .002.002.002Zm0-.002L.04-.367v-.001l.002-.001.001.001c0 .001 0 .002-.002.002Zm.001.062V-.317L.041-.32.039-.334.042-.34a.012.012 0 0 0 .007.007H.05c.001 0 .002-.001.002-.003A.008.008 0 0 0 .05-.341L.047-.344l.002-.001.003-.001v.001l.001.001.004.009a.01.01 0 0 0 .007.003c.004 0 .006-.002.006-.007 0-.003-.002-.005-.005-.007h.002l.007-.003.003.003.006.003a.02.02 0 0 0 .013-.004L.1-.345l.007.001c.003 0 .005 0 .006-.002a.01.01 0 0 0 .005-.009c.001.005.005.008.01.01l.001.003.001-.003A.05.05 0 0 0 .145-.35l.01-.005.006-.001.001-.002.001-.003-.001-.001-.007-.001-.01-.002a.045.045 0 0 0-.011-.003c-.006 0-.009.004-.009.011l.001.005-.002-.002C.122-.356.12-.363.12-.376a.13.13 0 0 0-.004-.031L.115-.408v.001l-.001.005a.27.27 0 0 1 .003.04c0 .008-.003.012-.01.012L.101-.351A.016.016 0 0 0 .104-.36L.103-.365.1-.367c-.001 0-.003.001-.005.004s-.003.005-.003.008l.001.004c-.003.002-.006.002-.01.002-.002 0-.004 0-.006-.002.002-.003.004-.006.004-.01L.079-.366.076-.369c-.002 0-.003.001-.004.003l-.001.007.001.005C.067-.352.063-.35.059-.35c.002-.002.003-.005.003-.01L.061-.365.06-.37v-.001l-.007.019-.005.001-.005.005-.003.003a.02.02 0 0 0-.003.01c0 .004.001.011.004.02l.001.007v.002Zm.023-.033C.062-.337.06-.339.058-.343a.01.01 0 0 1 .005.001.014.014 0 0 1 .004.003v.002H.065ZM.048-.338.046-.339.045-.342c.002.001.003.002.003.004Zm.083-.013H.13L.127-.358l.002-.003.003-.001.019.004-.008.004a.04.04 0 0 1-.012.003ZM.098-.353.094-.356l.002-.003c.001-.002.002-.002.003-.002l.002.002.001.003-.004.003Zm-.043 0 .003-.011.002.006c0 .002-.002.004-.005.005Zm.02-.001L.072-.36l.001-.002.002-.001c.001 0 .002 0 .003.002l.001.003-.004.004Zm.827.152.003-.001.011-.002.009-.002.01-.005.012-.009a.021.021 0 0 0 .004-.011C.951-.235.95-.237.948-.24.947-.243.945-.244.943-.244S.94-.243.938-.241l-.002.006c0 .003.002.005.007.005l.006.001c0 .001-.001.003-.004.004a.1.1 0 0 1-.026.015l-.017.007v.001Zm.04-.034c-.002 0-.003 0-.003-.002l.002-.001c.002 0 .003.001.004.003H.942ZM.92-.229l.001-.005v-.002c0-.005-.004-.011-.01-.018a.122.122 0 0 1-.019-.02l.004.001-.005-.004-.005-.004v.006l.003.004.005.006.015.015a.034.034 0 0 1 .01.017l.001.004Zm-.018.015.006-.002a.02.02 0 0 0 .014-.009.025.025 0 0 0 .005-.016L.925-.258.923-.274h.001l.002.002v-.001L.92-.286.919-.28v.001l.001.004.002.018.002.022a.009.009 0 0 1-.004.007.052.052 0 0 1-.018.013l-.001.001h.001ZM.757-.19l.011-.003.009-.002c.001 0 .004-.001.009-.005.01-.005.015-.01.016-.015l.001-.004.011-.003a.077.077 0 0 0 .035-.007c0 .004.002.006.007.006.002 0 .004 0 .007-.002l.009-.004a.047.047 0 0 1 .017-.003l.002-.003.001-.003H.891L.874-.24.863-.241l.004-.004a.092.092 0 0 1 .01-.014l.002.001a.008.008 0 0 1 .001.004v.002c.001 0 .002-.002.002-.006L.881-.263.878-.265c-.001 0-.003.002-.004.005l-.007.009a.036.036 0 0 1-.012.008l-.002.002-.002.004.002.001.018.002a.032.032 0 0 1-.015.005L.853-.23.851-.234l.001-.001H.85a.035.035 0 0 1-.018.006c.006-.002.009-.006.009-.01C.841-.24.84-.242.837-.243L.831-.246c-.003 0-.006.001-.01.004l-.008.007.002-.013-.002-.023.002.002.001-.001-.001-.001-.001-.005-.002-.006H.811l-.002.005.001.004.001.016.001.022-.001.003-.005.007H.804l-.001.001C.801-.229.798-.231.795-.231c-.001 0-.003 0-.004.002-.002.002-.002.004-.002.006 0 .004.002.005.006.005L.8-.219l.001.002c0 .003-.006.007-.016.013a.26.26 0 0 1-.022.009L.754-.19h.003Zm.038-.033c-.002 0-.003-.001-.003-.002s0-.002.002-.002l.004.003-.003.001Zm.013-.003c.009-.01.016-.015.021-.015.003 0 .006.002.008.004v.001a.15.15 0 0 1-.029.01Zm-.056.015A.05.05 0 0 0 .77-.216c.009-.005.014-.011.014-.017L.781-.24.779-.245h.003L.776-.251v.001l-.001.004.001.001.001.002.003.008.002.004-.005.005-.011.006a.035.035 0 0 1-.014.003c-.005 0-.009-.001-.011-.004A.012.012 0 0 1 .737-.23l.001-.005.001-.003-.001.001c-.002.003-.002.006-.002.01l.001.005c.003.007.008.011.015.011ZM.655-.19c.004 0 .009-.002.015-.004C.681-.2.687-.205.687-.211L.686-.215.679-.217.67-.221c0-.001.001-.003.005-.006l.006-.004.003.002a.014.014 0 0 0 .003.004.008.008 0 0 0 .005.002c.003 0 .005-.002.008-.006.001.003.003.005.006.005.002 0 .005-.002.006-.006h.001c.001.003.003.005.007.005a.005.005 0 0 0 .005-.003l.002-.007a.036.036 0 0 0-.003-.011L.722-.251l.003.001-.001-.002L.72-.259l-.001.002-.001.003.001.002v.001c0 .002 0 .006.002.009l.004.009A.022.022 0 0 1 .72-.23C.717-.23.715-.232.715-.235v-.002H.714C.712-.232.709-.23.706-.23S.702-.231.702-.232l.001-.003H.702l-.004.004-.005.002a.008.008 0 0 1-.005-.002L.686-.234.683-.237c-.004 0-.008.003-.013.009l-.002.01.002.004.008.003.007.002-.006.004a.067.067 0 0 1-.023.009.013.013 0 0 1-.01-.004.011.011 0 0 1-.003-.008.03.03 0 0 1 .004-.014v-.001l-.001.001a.034.034 0 0 0-.005.017c0 .01.005.015.014.015ZM.624-.219.643-.23l.002-.004H.644l-.003.001-.005.002-.005-.001-.003-.002.002-.002.004-.001.001.001.001.002.002-.002.001-.003c0-.002-.001-.004-.003-.004l-.007.004c-.003.003-.004.006-.004.008 0 .001.001.003.004.004-.004.003-.005.005-.005.007v.001Zm-.065.018c.004 0 .01-.002.016-.005a.044.044 0 0 0 .011-.008C.589-.216.59-.221.59-.229h.001c.005 0 .009-.003.012-.009a.021.021 0 0 0 .011.004l.001-.003.001-.005-.001-.006C.614-.25.613-.25.611-.25c-.003 0-.005.001-.007.005l-.001.003-.002.003c-.002.003-.005.005-.01.005L.589-.235.587-.237.586-.238l-.001.005v.001a.023.023 0 0 1 .003.011l-.005.005-.011.006a.035.035 0 0 1-.013.003C.553-.207.55-.208.547-.211.545-.214.543-.217.543-.22l.002-.009-.001.002-.001.005-.001.005.001.005c.003.007.008.011.016.011ZM.612-.24.606-.243c0-.001.001-.002.003-.002l.003.001.001.003-.001.001Zm-.137.028c.002 0 .004-.003.006-.009.003-.007.006-.01.01-.01l.002.002.002.003c.002.003.005.004.009.004a.019.019 0 0 0 .011-.004c.002.004.005.007.008.007s.005-.003.005-.007c0-.005-.002-.007-.006-.007a.01.01 0 0 0-.005.001.022.022 0 0 1-.002-.01.019.019 0 0 0 .008.007l.004.001a.028.028 0 0 0 .012-.004l.008-.006.002-.004-.001-.001-.008.006a.019.019 0 0 1-.007.002.01.01 0 0 1-.008-.004C.523-.248.521-.251.521-.254c.003-.003.008-.004.014-.004l.007.001v.001l.001-.001-.001-.001A.021.021 0 0 0 .53-.262a.011.011 0 0 0-.008.003C.52-.257.519-.254.519-.25c0 .003 0 .005.002.008L.518-.245C.516-.247.515-.25.515-.256L.513-.272C.512-.282.511-.286.51-.286l-.001.005.002.012.001.016.002.022a.022.022 0 0 1-.01.003.01.01 0 0 1-.007-.003C.495-.235.493-.237.491-.237a.008.008 0 0 0-.004.002.027.027 0 0 0-.005.006.042.042 0 0 0-.003.009c-.002.002-.003.004-.005.004C.47-.216.468-.22.468-.229l.001-.007-.001.001-.001.009.002.009c.001.004.003.005.006.005Zm.048-.013C.521-.225.52-.226.519-.228h.002l.003.001.001.001-.002.001ZM.456-.22v-.001l.002-.012-.002-.039.002.002v-.001L.456-.278.454-.283H.453l-.001.005.001.004.001.024.001.028v.002h.001ZM.441-.228l.001-.005v-.001c0-.005-.003-.011-.01-.018a.65.65 0 0 0-.019-.02h.004L.413-.276.408-.279l-.001.003.001.003.004.005a.077.077 0 0 0 .01.012l.008.007c.006.007.01.012.01.017l.001.004Zm-.019.015L.43-.214a.028.028 0 0 0 .014-.009.027.027 0 0 0 .004-.016L.447-.257.445-.272v-.001l.003.002a.08.08 0 0 0-.006-.013L.44-.279l.001.002v.003l.002.018a.122.122 0 0 1 .002.023l-.003.006a.013.013 0 0 1-.006.005l-.014.009ZM.407-.219c.002 0 .003 0 .003-.002l.002-.004C.412-.23.41-.233.406-.233L.4-.231.399-.234l.002-.007.004-.002.003.001h.001v-.004c0-.001-.001-.002-.003-.002-.003 0-.005.001-.006.004a.02.02 0 0 0-.003.01v.004a.019.019 0 0 1-.009.003c-.003 0-.005-.002-.006-.006a.15.15 0 0 0-.005-.051H.376l-.001.005a.104.104 0 0 1 .003.031l.001.019c.001.005.004.008.009.008.003 0 .006-.001.011-.004.002.004.005.006.008.006Zm0-.006c-.002 0-.003 0-.004-.002h.004l.001.002H.407Zm-.074.006c.003 0 .005-.001.008-.003l.004-.005h.001c0 .005.002.007.006.007S.358-.222.36-.226c.002.003.004.004.005.004.005 0 .007-.003.007-.009L.371-.233.37-.235v.001L.369-.23v.001H.37l-.003.001-.003-.001-.001-.002.001-.002-.001-.001-.001.001-.001.002c-.002.003-.004.005-.007.005C.35-.226.348-.228.348-.23v-.003l-.007.006a.019.019 0 0 1-.008.002L.33-.226C.328-.227.327-.228.327-.231L.326-.248V-.27a.104.104 0 0 0-.003-.012H.322a.017.017 0 0 0-.002.005.127.127 0 0 1 .004.031l.001.02.003.006.005.001ZM.296-.223l.002-.001.011-.006.006-.004.002-.003v-.001l-.008.004a.008.008 0 0 1-.005-.002L.301-.238.303-.24l.004-.001.001.002.001.001.002-.001.001-.003c0-.003-.001-.004-.003-.004s-.004.001-.007.004a.009.009 0 0 0-.004.007c0 .002.001.003.004.005-.004.002-.006.005-.006.007Zm-.057.016h.003A.062.062 0 0 0 .253-.21l.009-.002.01-.005a.03.03 0 0 0 .012-.009c.002-.003.004-.006.004-.011a.016.016 0 0 0-.003-.008C.284-.248.282-.249.28-.249s-.003.001-.005.003a.01.01 0 0 0-.002.006c0 .003.002.005.007.005.003 0 .005 0 .006.002l-.003.004a.11.11 0 0 1-.027.014l-.017.008Zm.04-.034L.276-.242l.002-.002c.002 0 .003.001.004.003H.279ZM.214-.2C.204-.2.198-.204.198-.214c0-.004.002-.009.004-.014a.036.036 0 0 0 .019.004l.009.001c.005.001.007.004.007.008l-.003.006a.022.022 0 0 1-.009.007.036.036 0 0 1-.011.002Zm-.001.007c.007 0 .012-.003.018-.008a.025.025 0 0 0 .008-.017L.237-.224a.008.008 0 0 0-.004-.004L.221-.229.204-.23c.001-.003.004-.006.008-.008a.02.02 0 0 0 .014.006c.003 0 .007-.003.011-.008h.002c0 .004.002.007.006.007.003 0 .006-.002.008-.006.002.002.003.004.005.004.004 0 .007-.003.007-.01L.264-.247.263-.249v.001l-.002.004.001.002-.002.001c-.003 0-.004-.001-.004-.003v-.004l-.001.001c-.003.005-.006.008-.009.008L.242-.24.24-.244l.001-.002L.24-.247l-.007.006a.01.01 0 0 1-.007.003L.22-.239a.014.014 0 0 0-.003-.002l.007-.004.002-.005-.002-.001c0-.001-.002-.002-.005-.002L.211-.254l-.008.001-.004.003-.002.004.001.001.004-.002c.001 0 .004.002.007.006l-.004.004-.004.007-.002-.001v.001L.2-.229a.047.047 0 0 0-.004.017c0 .012.006.018.017.019Zm0-.052L.209-.248h.003l.006.001-.005.002Zm-.072.043a.009.009 0 0 0 .007-.004l.008-.008.006-.004.007-.003.011-.005.002-.007a.008.008 0 0 0-.005-.008C.176-.243.172-.245.168-.247L.159-.254h.003L.155-.258v-.001a.152.152 0 0 1 .021-.012l.02-.007.003.001v.001L.193-.27.19-.264v.002l.001-.002.003-.004C.199-.273.201-.277.201-.28.201-.282.2-.283.199-.283a.126.126 0 0 0-.044.019.022.022 0 0 0-.002.01l.002.001a.061.061 0 0 0 .016.013c.007.004.01.007.01.008S.177-.229.17-.227a.063.063 0 0 0-.018.011L.147-.21.14-.207c-.003 0-.005-.001-.005-.004A.03.03 0 0 1 .137-.22l.002-.006-.001.001a.03.03 0 0 0-.004.014l.002.007a.008.008 0 0 0 .005.002ZM.113-.219c.003 0 .006-.002.008-.006.002.003.003.004.005.004a.005.005 0 0 0 .005-.003L.133-.23.132-.232.131-.234.13-.233l-.001.004.001.001-.002.001-.003-.001-.001-.001.001-.003-.001-.001-.001.001a.022.022 0 0 0-.003.005l-.006.002c-.003 0-.005-.001-.005-.003L.11-.231H.108A.022.022 0 0 1 .1-.226a.028.028 0 0 1-.009.001L.084-.226C.079-.228.076-.231.076-.234v-.001L.07-.229c-.001.003-.003.004-.006.004-.005 0-.008-.006-.01-.017L.053-.245C.056-.248.058-.25.058-.252l-.001.001-.004.003L.05-.255v.001l-.002.005.001.003c-.007.006-.01.011-.01.017 0 .001.001.003.003.003A.016.016 0 0 0 .05-.229a.016.016 0 0 0 .003-.006.03.03 0 0 0 .002.009c.002.004.005.007.009.007.002 0 .004-.002.006-.004l.004-.006.004.005.005.004.007.001c.003 0 .006 0 .01-.002l.006-.004h.001c0 .004.002.006.006.006Zm-.07-.013L.041-.233l.001-.002.004-.004.004-.004.002.006C.051-.236.05-.234.048-.234l-.005.002Zm.71-.013L.755-.25.753-.251.75-.252l-.002.004.004.003h.001ZM.699-.25H.7l.002-.004-.003-.002-.002-.002-.002.004-.002-.002L.69-.257l-.002.004.005.003.002-.003.004.003ZM.695-.257l.002-.005-.005-.003L.69-.26l.005.003Zm.029.049.002-.004-.005-.004-.001.003-.001.002.005.003ZM.416-.231l.002-.005-.005-.003-.002.005.005.003ZM.352-.244l.001-.001.001-.002.004.003.001-.001.002-.004-.005-.003-.002.003L.35-.251.348-.25l-.001.003.005.003Zm.002-.007.002-.005-.002-.001-.003-.002-.002.005.005.003Zm-.283.042L.072-.21l.002-.002.004.003h.001l.002-.005-.005-.003-.002.003-.005-.003-.001.002-.001.003.004.003Zm.81-.005.002-.004.004.003h.001L.89-.219.885-.223l-.002.004-.005-.003-.001.002-.001.002.005.004Zm-.029.005h.001l.001-.004-.001-.002L.85-.217l-.001.001-.001.003C.846-.215.845-.216.843-.216l-.002.004.005.003.002-.003.004.003ZM.563-.231c.002-.002.002-.004.002-.005L.563-.237.561-.239l-.002.005.004.003Zm.37-.024L.946-.26l.001-.002H.946l-.012.005-.001.002ZM.894-.283.912-.29l.001-.002H.912l-.017.006-.001.003Zm-.02.001L.872-.283l.001-.001.002.001-.001.001ZM.86-.27l.005-.002.005-.003.004-.003.001.001.002-.003-.002-.001.001-.004-.001-.002-.003.002-.002.003.003.003-.009.007-.005.002H.86Zm.001.07.018-.007.001-.001-.018.006L.861-.2ZM.833-.274.831-.276l.001-.001.001.001v.002Zm-.016.012.007-.002C.827-.265.83-.268.833-.271l.001.001.001-.002-.002-.001.001-.004-.001-.002-.003.001-.001.004.003.003-.01.006-.005.003ZM.745-.269l.018-.006.001-.002-.018.006-.001.002Zm-.03.075.017-.007.001-.002-.017.006-.001.003ZM.679-.269l.018-.006.001-.002-.018.006-.001.002Zm-.023.011L.659-.26.66-.263c0-.001 0-.002-.002-.002l-.002.002-.001.003.001.002ZM.657-.26.655-.261l.002-.002.002.001c0 .001 0 .002-.002.002Zm-.039.056.016-.007.001-.002H.634l-.015.006-.001.003Zm-.001.003.016-.007.001-.001-.016.006-.001.002Zm-.02-.011.018-.007.001-.002H.615l-.017.006-.001.003ZM.572-.261c.002 0 .003-.001.003-.002l.002-.003c0-.002-.001-.003-.003-.003l-.002.003-.001.003.001.002Zm.001-.003H.572l.001-.002v-.001c.002 0 .003.001.003.002l-.003.001ZM.516-.2l.017-.008h.001l.001-.001H.534l-.017.006L.516-.2ZM.513-.291l.002-.001.002-.003c0-.002-.001-.003-.002-.003l-.003.002-.001.004.002.001Zm0-.002H.512v-.002l.002-.001.002.002-.003.001Zm-.038.094.013-.005.001-.002-.013.005-.001.002ZM.5-.204a.104.104 0 0 1 .012-.005L.513-.21v-.001L.5-.207v.003Zm.102-.06c.001 0 .002-.001.002-.003.001.002.002.002.003.002s.002-.001.002-.004L.608-.271v-.002H.607v-.001l-.001.002.002.004-.001.001a.002.002 0 0 1-.002-.002v-.003L.604-.274l-.001.002.001.003c0 .002-.001.002-.002.002L.601-.269v-.002L.6-.273l-.001.001v.002L.6-.268v.003l.002.001Zm-.153.06.008-.004V-.21l.001-.001-.005.003-.001-.001L.451-.21v-.001h.002l.001.001.001-.002-.001-.002-.004.002-.001.004.002.001-.002.003Zm-.006.008.018-.007.001-.002-.018.006-.001.003ZM.423-.28c.002 0 .003-.001.003-.003.001.001.001.002.003.002.001 0 .002-.001.002-.004L.43-.287.429-.289v-.002l-.001.002.002.005-.001.001c-.002 0-.002-.001-.002-.002v-.003L.426-.29l-.001.001.001.004c0 .001-.001.002-.003.002L.422-.285v-.004l-.001.001-.001.001.001.001v.002l.001.003.001.001ZM.414-.291l.018-.007L.433-.3l-.018.007-.001.002Zm.004.067.013-.005.001-.002-.013.004-.001.003Zm-.03-.028.018-.007.001-.002-.018.007-.001.002ZM.34-.269l.018-.006.001-.002-.018.006-.001.002Zm-.047.012.018-.008.001-.001v-.001L.294-.26l-.001.003ZM.269-.262l.018-.007.001-.002-.018.006-.001.003ZM.245-.22l.018-.008.001-.001H.263l-.017.006-.001.003ZM.206-.259l.018-.007.001-.002-.018.007-.001.002ZM.168-.291.166-.293l.001-.001.001.001v.002Zm-.014.012.005-.002a.027.027 0 0 0 .008-.007l.002.001L.17-.29.169-.291v-.003L.168-.296l-.002.001-.002.003.003.003-.006.005-.008.005h.001Zm-.008.044.003-.002L.15-.24c0-.002-.001-.003-.002-.003L.146-.24l-.001.003.001.002Zm.001-.003H.145l.001-.001.001-.001.002.001-.002.001Zm-.042.036.018-.007.001-.002-.018.006-.001.003ZM.079-.251l.003-.003c0 .002.001.003.002.003.002 0 .002-.002.002-.005L.084-.261v.002l.001.004-.001.001-.001-.002-.001-.003v-.002l-.001.002v.003c0 .002-.001.003-.002.003L.078-.256V-.26l-.002.001v.002l.001.002v.003l.002.001Zm.004-.023L.082-.275l.001-.001.001.001-.001.001Zm-.014.012c.007-.003.012-.006.014-.009a.003.003 0 0 0 .002.001l.001-.002-.002-.001.001-.004-.001-.002-.003.002-.001.003.003.003-.007.004-.008.005h.001Zm-.027 0L.04-.264l.001-.001h.001v.003ZM.027-.25h.001l.005-.002a.022.022 0 0 0 .009-.007l.001.001.002-.002-.002-.002.001-.003a.002.002 0 0 0-.002-.002L.04-.266l-.002.003.003.003-.006.005-.007.004-.001.001Zm.899.128c.002 0 .003-.001.003-.003.001.002.001.002.003.002.001 0 .002-.001.002-.004L.932-.132.931-.13l.002.004-.001.001A.002.002 0 0 1 .93-.127V-.13L.929-.132.928-.13l.001.003c0 .002-.001.002-.002.002s-.002 0-.002-.002v-.004L.924-.13l-.001.001.001.001v.002l.001.003.001.001Zm-.01-.02.023-.009.001-.001v-.001l-.023.009-.001.002Zm-.021.02.018-.007.001-.002-.018.006-.001.003Zm.074.024L.97-.1a.027.027 0 0 0 .003-.012L.97-.15v-.001l.003.002L.972-.15.97-.156.968-.162H.967l-.001.005.001.005.003.046-.001.005v.003Zm-.053.016c.002 0 .004-.002.004-.006 0-.006-.002-.008-.005-.008l-.006.001-.002-.003.003-.004c.001-.002.002-.002.003-.002l.004.005c.001.002.002.003.004.003S.925-.097.928-.1l.003-.003v-.001l.001.001c0 .004.002.006.005.006s.005-.002.007-.007h.001c.001.004.003.006.006.006.002 0 .005-.002.007-.005A.035.035 0 0 0 .96-.116L.958-.149V-.15l.002.002h.001L.96-.149a.031.031 0 0 0-.004-.012l-.002.005.001.005.003.04c0 .005-.003.007-.007.007-.003 0-.004-.002-.004-.005L.946-.111v.001c-.002.005-.005.007-.008.007L.935-.104.934-.107V-.11l-.002.003-.003.002-.007.003C.92-.102.918-.104.916-.108L.914-.11c-.002 0-.003.001-.005.004-.002.002-.003.005-.004.009l.001.003C.902-.091.899-.09.896-.09L.893-.091A.022.022 0 0 1 .89-.096v-.018L.889-.135a.104.104 0 0 0-.003-.012H.885l-.001.004a.05.05 0 0 1 .002.012.077.077 0 0 1 .001.019l.001.019c.001.006.004.009.008.009a.03.03 0 0 0 .011-.004c.003.004.005.006.009.006Zm0-.006L.912-.09h.002c.002 0 .003.001.003.002H.916Zm-.083.011A.045.045 0 0 0 .844-.08l.009-.002.01-.005a.03.03 0 0 0 .012-.009c.003-.002.004-.006.004-.011a.016.016 0 0 0-.003-.008C.875-.118.873-.119.871-.119s-.003.001-.005.003a.01.01 0 0 0-.002.006c0 .003.002.005.007.005.003 0 .005 0 .006.002l-.003.004a.162.162 0 0 1-.027.014L.83-.077h.003Zm.04-.034L.867-.112c0-.001.001-.002.003-.002l.003.003Zm-.02.014.001-.002c.002-.003.002-.007.002-.012L.854-.149l.002.002v-.002L.852-.161.851-.16.85-.155l.001.004.003.047-.001.005v.002Zm-.04.002a.05.05 0 0 0 .029-.008c.003-.002.004-.005.004-.01L.845-.117.843-.121.842-.122.841-.12.84-.118v.001l.001.002.001.003.002.003a.05.05 0 0 1-.029.008c-.011 0-.017-.003-.017-.008l.001-.004L.8-.116v-.001l.001-.002-.002.001-.002.011c0 .008.005.012.016.012Zm-.071.011.003-.001.011-.002.009-.002.01-.005a.044.044 0 0 0 .012-.01.015.015 0 0 0 .004-.01.011.011 0 0 0-.003-.008C.787-.125.785-.126.783-.126s-.003 0-.005.002l-.002.006c0 .004.002.005.007.005.003 0 .005.001.006.003l-.003.003a.13.13 0 0 1-.027.015l-.017.008Zm.04-.034C.78-.118.779-.119.779-.12l.002-.001.004.002-.003.001Zm-.018.02L.765-.1a.036.036 0 0 0 .002-.011L.764-.15h.001l.002.002V-.15L.765-.155.762-.161.76-.156l.001.004.001.024.002.028v.002ZM.749-.104.75-.111c0-.006-.004-.012-.011-.018L.72-.149h.004L.715-.157l-.001.004.001.003.003.004.004.005.015.016c.006.006.01.011.011.016l.001.005ZM.73-.09l.006-.001c.013-.003.019-.011.019-.025L.753-.134.752-.15l.003.002-.003-.007-.003-.006-.002.005.001.002.001.003.001.018a.122.122 0 0 1 .002.023l-.003.006C.747-.101.745-.1.743-.099L.729-.09H.73Zm-.051.013A.087.087 0 0 0 .693-.08l.009-.002.01-.005a.064.064 0 0 0 .014-.01.019.019 0 0 0 .002-.007L.727-.111.725-.116h.002L.722-.122H.721L.72-.12v.003l.006.014-.003.004a.192.192 0 0 1-.026.014l-.018.008Zm.013-.034L.687-.112c.004-.009.009-.013.014-.013a.01.01 0 0 1 .007.003.007.007 0 0 1 .004.003l-.003.003-.008.003-.009.002Zm-.041.03a.05.05 0 0 0 .018-.005.035.035 0 0 0 .011-.009c.002-.002.003-.006.003-.012l.007.002c.005 0 .01-.002.015-.004l.007-.006c.002-.001.002-.004.002-.007L.711-.128C.708-.13.706-.131.703-.131c-.004 0-.008.002-.011.007a.052.052 0 0 0-.007.011C.682-.114.681-.115.68-.117L.679-.118l-.001.005v.001a.026.026 0 0 1 .003.011c0 .001-.001.003-.005.005L.665-.09a.04.04 0 0 1-.014.003C.646-.087.642-.088.64-.091A.012.012 0 0 1 .636-.1l.002-.009-.002.001-.001.005v.004a.02.02 0 0 0 .004.013c.002.003.006.005.012.005Zm-.072.003h.002a.045.045 0 0 0 .011-.003l.009-.002a.035.035 0 0 0 .01-.004.09.09 0 0 0 .012-.009.015.015 0 0 0 .004-.011L.625-.115C.623-.118.621-.12.619-.12l-.004.003-.003.006c0 .003.003.005.007.005l.006.002L.622-.1a.108.108 0 0 1-.027.015l-.017.007h.001Zm.04-.033c-.003 0-.004-.001-.004-.002l.003-.001.004.002-.003.001Zm-.025.008.001-.005v-.001c0-.005-.003-.011-.01-.018l-.019-.02.003.001.001-.001-.005-.004-.004-.003-.001.003.001.003.003.004.004.006.015.015c.006.006.01.012.011.016v.004Zm-.018.016.007-.002a.018.018 0 0 0 .013-.009C.6-.102.601-.107.601-.114L.599-.132.598-.147v-.001l.003.002-.003-.007-.003-.006-.002.005.001.002v.003l.002.019.002.022-.003.006a.017.017 0 0 1-.006.006l-.014.008.001.001Zm-.051.003c.007 0 .014-.005.023-.015a.013.013 0 0 0 .004-.009l.006-.004v.001c0 .004.003.006.007.006A.005.005 0 0 0 .57-.108l.002-.008L.57-.121v-.001H.569l-.001.005.001.002.001.002a.008.008 0 0 1-.005.002L.562-.113A.002.002 0 0 1 .56-.115l.001-.003H.56l-.008.004H.551C.549-.119.547-.121.544-.121c-.002 0-.003.001-.005.003a.01.01 0 0 0-.002.006c0 .003.002.005.007.005l.005-.001v.002L.545-.1l-.01.007a.02.02 0 0 1-.01.003C.52-.09.517-.093.517-.098c0-.002 0-.005.002-.009v-.002l-.001.001a.03.03 0 0 0-.003.013c0 .003.001.006.003.008.001.002.004.003.007.003Zm.019-.029L.54-.114c0-.001.001-.002.003-.002l.003.003H.544Zm-.051.029.014-.008C.513-.096.517-.098.518-.1.52-.101.521-.103.521-.106c0-.005 0-.007-.002-.009L.511-.119a.035.035 0 0 1-.009-.006h.003L.504-.126.498-.13H.497v.003l.001.003.001.001a.045.045 0 0 0 .013.011l.008.005-.012.009a.054.054 0 0 1-.015.008C.49-.09.488-.092.488-.095l.002-.01v-.001.001a.027.027 0 0 0-.003.012c0 .006.002.009.006.009ZM.47-.088.476-.09c.003-.003.005-.006.005-.009 0-.004-.002-.007-.004-.011l.004-.006.002-.006.001-.004-.001-.002c-.002 0-.006.004-.012.013L.469-.117h.003L.465-.122l-.001.005.001.001.001.002.003.003-.011.01h.001A.044.044 0 0 0 .47-.11l.002.003a.03.03 0 0 0-.005.014c0 .003.001.005.003.005Zm.005-.024L.473-.113.48-.122h.001l-.003.005-.003.005Zm-.004.018c-.002 0-.003-.001-.003-.002L.47-.101l.004-.005a.03.03 0 0 1 .005.007l-.001.002-.004.002-.003.001Zm-.119.022.001-.006-.001-.001-.003-.006c0-.003.003-.006.009-.008l.011-.005c.01 0 .017-.001.023-.003l.007-.003.003.005a.014.014 0 0 0 .006.002l.013-.002a.07.07 0 0 0 .013-.005.077.077 0 0 1 .015-.002l.003.001.001-.002.003-.003-.001-.001L.44-.113.423-.118H.415l-.002.003-.001.003h.001l.006.001.003-.001h.001l.012.003a.083.083 0 0 1-.027.006L.402-.105a.013.013 0 0 0 .004-.01L.404-.121.401-.124l-.004.003-.001.007.001.006a.023.023 0 0 1-.009.003l-.002.001H.384l.004-.004.002-.005-.003-.005A.01.01 0 0 0 .38-.121a.012.012 0 0 0-.009.004l-.006.008.001-.013-.002-.023h.001l.002.002v-.003l-.005-.01-.002.005.001.004.002.032-.001.009-.005.008c-.007.003-.01.008-.01.016L.346-.089v-.004a.027.027 0 0 0 .006-.005l.002-.008-.001-.005v-.005L.352-.117.35-.111l-.004.012a.03.03 0 0 1-.009.002L.334-.098.331-.1l-.005.004-.007.002-.003-.001L.313-.1v-.017a.136.136 0 0 0-.004-.034H.308l-.001.005a.095.095 0 0 1 .003.031l.001.02.003.005a.008.008 0 0 0 .005.002c.003 0 .004-.001.005-.002l.005-.005v.001c0 .005.002.008.005.01l.002.001.001-.001.001-.004-.001-.003a.019.019 0 0 0 .007-.002v.006c0 .007.002.012.007.014l.001.001ZM.336-.088.333-.09.332-.093l.003.002.001.003Zm.023-.011V-.1l.005-.005c.005-.007.01-.01.014-.01s.006.001.008.004h.001l-.014.007-.014.005Zm-.012 0L.351-.11l.002.006c0 .002-.002.004-.006.005Zm.052-.01L.397-.115l.001-.002L.4-.118l.003.002.001.003-.005.004Zm-.145.028h.004l.01-.002.009-.002a.044.044 0 0 0 .01-.006A.048.048 0 0 0 .3-.1c.002-.002.003-.006.003-.01a.019.019 0 0 0-.002-.008C.299-.121.297-.123.295-.123L.291-.12c-.002.002-.002.004-.002.006 0 .003.002.005.006.005.003 0 .005.001.006.003l-.003.003a.12.12 0 0 1-.026.015l-.018.007Zm.041-.033c-.002 0-.003-.001-.003-.002l.002-.001.004.002-.003.001Zm-.088.041.01-.003.009-.002.01-.005a.048.048 0 0 0 .013-.009.017.017 0 0 0 .003-.01l.012-.005.009.002.004-.001.002-.003.001-.005L.278-.12a.014.014 0 0 0-.004-.003L.269-.126H.27l.001-.001-.003-.002-.004-.002-.001.001v.004c-.004.003-.005.007-.005.012l.001.004-.007.003C.25-.112.247-.114.245-.114a.008.008 0 0 0-.005.002l-.002.007c0 .003.002.004.007.004L.25-.102v.003c0 .004-.012.011-.037.021l-.009.005h.003Zm.037-.033c-.002 0-.003-.001-.003-.002l.002-.001.004.003H.244Zm.031-.005L.269-.112A.022.022 0 0 0 .27-.12a.027.027 0 0 0 .005.004c.002.001.003.002.003.004l-.003.001Zm-.01-.002c-.004 0-.006-.001-.006-.004l.002-.004.004-.002.002.002.001.004-.003.004ZM.227-.1l.001-.002.001-.012-.002-.038h.001l.001.002.001-.001-.002-.007-.003-.006v.001l-.002.005.001.004.001.023.002.029V-.1Zm-.083.018a.033.033 0 0 0 .014-.004c.006-.002.01-.005.013-.007.003-.004.004-.007.004-.01 0-.002-.003-.004-.008-.005a.024.024 0 0 0 .006-.008c.001.005.001.009.003.012.001.002.003.004.007.004a.008.008 0 0 0 .005-.002l.007-.004a.023.023 0 0 0 .007.005L.208-.1c.003 0 .005-.002.007-.005a.04.04 0 0 0 .002-.013L.215-.152l.002.002.001-.001-.005-.012-.002.005.001.005.002.04v.005l-.007.002A.01.01 0 0 1 .2-.109l.008-.003.002-.003-.001-.003a.025.025 0 0 0-.013-.003L.188-.12a.016.016 0 0 0-.006.003l-.001.003v.001h.004c.002 0 .004.001.007.004a.016.016 0 0 1-.009.003c-.004 0-.006-.003-.006-.007L.176-.129.175-.148.173-.157.172-.162l-.001.001-.001.005c.002.008.003.02.003.034 0 .003-.001.005-.004.007l-.012.006-.001.003.01.003A.106.106 0 0 1 .173-.1l-.005.004a.045.045 0 0 1-.023.009.013.013 0 0 1-.01-.004L.133-.1a.04.04 0 0 1 .003-.013l.001-.002-.002.002a.03.03 0 0 0-.004.017c0 .004.001.007.003.01s.005.004.01.004Zm.053-.03a.022.022 0 0 0-.005-.003l.003-.001c.004 0 .006.001.007.002a.008.008 0 0 0-.005.002ZM.121-.1l.001-.002a.037.037 0 0 0 .002-.012L.121-.152h.001l.002.002v-.002L.12-.163.119-.164v.001l-.002.005.001.004.001.023.002.029V-.1Zm.567-.038v-.001L.69-.143.688-.145.685-.146l-.002.004.005.004Zm.129.013.002-.003.004.003h.001L.826-.13.824-.131.821-.133H.82L.819-.13.814-.133l-.002.005.005.003ZM.053-.13h.001l.002-.004-.003-.002-.002-.002-.002.005.004.003ZM.02-.071l.001-.003.005.003.002-.005-.002-.001-.003-.002-.002.004a.002.002 0 0 0-.002-.002L.017-.079l-.002.005.005.003Zm.841-.061.013-.005.001-.002-.013.004-.001.003Zm-.05.049.013-.004.001-.002-.011.004c-.002 0-.003.001-.003.002ZM.747-.168.75-.169l.001-.004a.002.002 0 0 0-.002-.002l-.002.002a.008.008 0 0 0-.002.004l.002.001ZM.748-.17.746-.171l.001-.001.001-.001.002.002-.002.001Zm-.039.012L.71-.159l.007-.004.001-.002v-.001l-.004.002H.712L.711-.165l.001-.001.001-.001.001.001.001-.001-.001-.002-.004.003-.001.002.002.002-.002.002v.002ZM.703-.167a.049.049 0 0 1 .013-.006l.001-.002-.013.005-.001.003Zm-.001.023.003-.001.001-.003c0-.002-.001-.003-.002-.003l-.002.002L.7-.146c0 .002.001.002.002.002Zm.001-.002H.701l.001-.002.001-.001.002.002-.002.001ZM.668-.149l.019-.007v-.001l.001-.001-.019.006-.001.003Zm-.059.018.018-.007.001-.003-.018.007-.001.003ZM.569-.16l.014-.005v-.002l-.011.004-.003.003ZM.56-.089.561-.09l.001-.003.004.003h.001l.002-.004-.005-.004-.002.004-.004-.003-.002.002-.001.002.005.004ZM.556-.121l.007-.004v-.002l.001-.001H.563l-.002.002H.558L.557-.127l.002-.001.001.001h.001v-.002L.56-.131l-.003.002-.002.003.002.002-.001.003ZM.401-.128l.002-.004-.002-.002-.003-.002-.002.005.005.003ZM.377-.131h.001L.38-.135.378-.137.375-.139l-.002.005.004.003Zm.168-.006.013-.005.001-.002-.013.004-.001.003ZM.538-.144c-.002 0-.002-.001-.002-.002h.002v.002Zm-.014.012L.53-.134l.004-.003a.008.008 0 0 0 .004-.004l.002.002.001-.003-.002-.001.001-.003c0-.002-.001-.003-.002-.003l-.002.002-.002.003.003.003-.014.009h.001ZM.508-.151.506-.153l.001-.001h.001l.001.001v.001l-.001.001Zm-.014.012L.5-.141a.018.018 0 0 0 .008-.007l.002.002.001-.003L.509-.15.51-.154.509-.156l-.003.001-.002.004.003.003-.009.006-.005.003h.001ZM.478-.148.476-.149.477-.15l.001.001v.001Zm-.015.012h.001l.005-.002a.022.022 0 0 0 .009-.007l.001.001.001-.002-.001-.001v-.004L.478-.153l-.002.001-.002.004c0 .001.001.002.003.002C.475-.143.47-.14.463-.137v.001Zm-.045.051.019-.007.001-.002H.437l-.018.006-.001.003ZM.399-.146l.003-.001.001-.003c0-.002 0-.003-.002-.003L.399-.15l-.001.003.001.001ZM.4-.147.399-.148v-.001L.4-.15l.002.001c0 .001 0 .002-.002.002ZM.386-.156.384-.158v-.001l.002.001v.002Zm-.014.012.005-.002.009-.007.001.001.002-.002-.002-.002.001-.003a.002.002 0 0 0-.002-.002L.383-.16l-.001.003c0 .002.001.003.003.003-.002.002-.005.005-.01.007l-.004.003h.001ZM.347-.148.345-.149.347-.15l.001.001-.001.001Zm-.014.012.005-.002C.343-.14.346-.142.347-.145l.002.001.001-.002-.002-.001.001-.004-.001-.002-.003.001-.002.004c0 .001.001.002.003.002a.01.01 0 0 1-.006.005.22.22 0 0 0-.008.005h.001ZM.32-.11l.018-.008v-.001L.339-.12l-.018.007L.32-.11ZM.279-.136l.018-.007.001-.001v-.001L.28-.139l-.001.003ZM.271-.151.269-.153H.27l.001.001v.001Zm-.016.012h.002l.005-.002a.022.022 0 0 0 .009-.007l.001.002.001-.003L.272-.15v-.006H.271l-.003.001-.001.004.003.003a.051.051 0 0 1-.014.008l-.001.001Zm-.016.012.012-.005.002-.002-.001-.001v.001l-.01.003a.002.002 0 0 0-.002.002l-.001.002ZM.208-.168l.003-.001.001-.004c0-.001 0-.002-.002-.002l-.002.002-.001.004.001.001ZM.209-.17.208-.171v-.001l.001-.001c.002 0 .002.001.002.002L.209-.17Zm-.024.032.018-.007.001-.002-.018.006-.001.003ZM.168-.08l.019-.007.001-.002-.019.006-.001.003ZM.146-.127c.001 0 .002-.001.002-.003l.003.003c.002 0 .002-.002.002-.004L.151-.137.15-.135l.002.004-.001.001c-.001 0-.002 0-.002-.002v-.003L.148-.137l-.001.002.001.003c0 .002-.001.003-.002.003L.145-.132v-.004l-.002.001v.002l.001.002v.003l.002.001Zm.006-.027L.15-.156l.001-.001h.001l.001.001v.001l-.001.001Zm-.015.012.001-.001c.007-.002.011-.004.014-.008l.002.001.001-.002-.002-.002.001-.003-.001-.002-.003.001-.002.003.003.003-.006.005-.003.002-.003.002-.002.001ZM.104-.168l.002-.001.001-.004c0-.001 0-.002-.002-.002l-.002.002-.001.004.002.001Zm0-.002L.103-.171l.001-.002c.002 0 .002.001.002.002L.104-.17Zm-.03.03.017-.006.001-.002-.017.006-.001.002Zm-.049.001L.023-.14l.001-.001h.001l.001.001-.001.001Zm-.017.014c.009-.003.015-.007.017-.01l.002.001.001-.003-.002-.001.001-.004-.001-.002-.003.002-.002.003.003.003-.007.006-.01.005h.001Zm.035.042.019-.006.001-.002H.062l-.018.006-.001.002ZM.02-.094a.008.008 0 0 1-.005-.002h.004l.002.002H.02Zm-.01.036.001-.005L.01-.072a.04.04 0 0 1-.002-.007L.006-.088c0-.003.002-.006.005-.007.002.005.005.008.009.008l.003-.002a.009.009 0 0 0 .001-.005c0-.005-.002-.008-.005-.008l-.006.001-.002-.003.002-.003.003-.003.002.003.004.005.007.005a.046.046 0 0 0 .014.002.074.074 0 0 0 .03-.004l.006-.002.01-.005.007.005h.006c.003 0 .005-.001.007-.004a.04.04 0 0 0 .002-.013L.109-.152l.002.002.001-.002-.004-.011-.001-.001v.001l-.002.005.001.005.002.04v.005l-.006.002c-.003 0-.006-.001-.007-.003l.007-.003.002-.004-.001-.002A.023.023 0 0 0 .09-.121L.082-.12c-.003.001-.005.001-.006.003l-.001.003v.001h.001l.003-.001.003.001.004.004-.011.004-.002.001a.164.164 0 0 1-.011.003C.067-.105.07-.108.07-.111L.067-.117a.007.007 0 0 0-.006-.004c-.005 0-.011.004-.019.012l.001-.012-.002-.026h.001l.001.001h.001v-.001L.04-.158.039-.159v.001l-.002.005.001.004.001.017.002.023-.001.003-.005.005-.006-.002a.03.03 0 0 1-.009-.01L.017-.116c-.001 0-.003.001-.005.004l-.003.009.001.004c-.003.002-.005.006-.005.013l.004.02.001.005v.003Zm.028-.043C.046-.11.053-.115.059-.115c.003 0 .005.002.007.006v.001a.055.055 0 0 1-.028.007Zm.053-.011a.022.022 0 0 0-.005-.003l.003-.001c.004 0 .006.001.007.002a.008.008 0 0 0-.005.002Zm.443.154L.556.038l.01-.005C.577.027.583.021.583.014L.591.008c0 .005.002.007.006.007C.6.015.603.013.605.01l.004.003A.005.005 0 0 0 .614.01L.616.004c0-.003-.001-.005-.002-.005L.612.004l.002.002-.003.001C.609.007.607.006.607.004L.608.001H.607L.603.007a.008.008 0 0 1-.005.002C.595.009.593.008.593.006L.594.004V.002L.592.003a.014.014 0 0 1-.004.003L.583.008C.58.003.578.001.575.001L.571.004C.569.005.568.008.568.01c0 .003.003.005.007.005L.58.014l.001.002C.581.019.57.026.55.035L.537.041.534.042ZM.578.009H.575L.571.008c0-.001.001-.002.003-.002l.004.003ZM.511.04A.12.12 0 0 0 .525.037L.534.035.544.03.558.02A.019.019 0 0 0 .56.012L.559.006.556 0l.003.001-.006-.006-.001.002v.004l.006.013-.004.004a.1.1 0 0 1-.026.014L.511.04ZM.532.021c.001 0 .003 0 .005-.002C.541.017.542.014.542.01A.014.014 0 0 0 .538 0l.004-.007a.008.008 0 0 0 .002-.005l.001-.005-.001-.002c-.002 0-.006.005-.011.014L.531-.007l.002-.001h.001L.527-.013l-.001.005.001.002.001.001.002.003a.038.038 0 0 1-.009.009L.52.009.521.008C.525.007.528.004.531 0l.003.002a.024.024 0 0 0-.006.014c0 .004.001.005.004.005Zm.004-.023L.534-.004a.03.03 0 0 1 .008-.008v-.001.001L.54-.007a.027.027 0 0 1-.004.005ZM.533.015.53.014.532.009.536.004.541.01.54.012a.008.008 0 0 1-.004.002L.533.015ZM.511.024.512.022A.021.021 0 0 0 .515.01L.512-.029l.002.003.001-.001-.001-.001-.002-.006v-.001L.51-.04H.509l-.001.005.001.005.003.046-.001.005v.003Zm-.08.017L.438.037A.035.035 0 0 1 .453.024L.466.019l.003.002.007.003c.003 0 .005 0 .007-.002L.487.018c0 .003.003.005.007.005C.496.023.498.022.5.019A.023.023 0 0 0 .503.006L.5-.028h.001l.002.002v-.002L.501-.033.499-.04l-.001.001-.001.005v.005L.5.011C.5.015.498.018.494.018.491.018.489.016.489.014V.011L.484.016a.011.011 0 0 1-.008.003C.473.019.472.018.47.016a.015.015 0 0 0 .004-.01L.472.001C.471-.001.47-.002.468-.002L.465.001.463.008l.002.006L.45.02a.053.053 0 0 0-.012.01L.437.032C.434.035.432.036.43.036.427.036.425.034.425.031L.427.022.429.016.428.017a.033.033 0 0 0-.004.014l.002.007a.005.005 0 0 0 .005.003ZM.467.013.465.007.466.005.468.004.47.006l.002.003-.005.004ZM.436.02.441.018C.445.016.447.013.447.009c0-.003-.002-.007-.005-.01a.068.068 0 0 1 .005-.007l.002-.005.001-.005L.449-.02c-.003 0-.006.005-.012.014L.435-.009h.003L.437-.01.434-.012.431-.014.43-.009l.001.002.001.001.003.003-.01.009-.002.002.002-.001.011-.008.002.002a.024.024 0 0 0-.005.014c0 .003.001.005.003.005ZM.44-.003.438-.005l.008-.009.001.001-.003.005a.027.027 0 0 1-.004.005ZM.437.014.434.013.436.008.44.002l.005.007-.001.002L.44.013.437.014ZM.536-.02l.001-.001a.014.014 0 0 0 .002-.003L.537-.026.534-.028l-.001.001-.001.003C.53-.026.529-.027.527-.027l-.002.004.005.003.001-.001.001-.002.004.003ZM.389.039V.038c0-.002.003-.004.007-.006A.035.035 0 0 0 .409.024L.413.02h.001L.413.019H.412C.414.015.416.011.416.006c0-.005-.002-.009-.004-.013l.002-.001H.413L.409-.012.402-.018.397-.02.392-.022.39-.025.389-.027l-.001.002-.003.003L.38-.02l-.005.002a11269858601087.54 11269858601087.54 0 0 0-.01.01H.364v.001h.001a.028.028 0 0 0-.003.013c0 .005.001.009.003.013L.364.02h.001l.003.004A.02.02 0 0 0 .38.032c.004.002.007.004.008.006l.001.001ZM.411.018H.409A.024.024 0 0 0 .412.006a.027.027 0 0 0-.003-.012h.002a.027.027 0 0 1 .003.012.027.027 0 0 1-.003.012ZM.407-.006.405-.009.4-.012.396-.013a.01.01 0 0 0-.007.003.011.011 0 0 0-.008-.003l-.004.001-.004.003-.003.003-.004-.001.004-.005a.024.024 0 0 1 .011-.006c.004-.001.007-.003.008-.006.001.003.003.005.007.006a.02.02 0 0 1 .011.006.036.036 0 0 0 .004.005H.409l-.002.001ZM.396.023A.01.01 0 0 1 .389.02H.388C.387.022.384.023.381.023H.377A.014.014 0 0 0 .373.02L.371.017H.37A.02.02 0 0 1 .367.006.02.02 0 0 1 .37-.005l.001.001v-.001l.002-.003.004-.002.004-.001c.003 0 .006.001.007.003h.001a.01.01 0 0 1 .007-.003L.4-.01l.004.002.002.003v.001l.001-.001A.02.02 0 0 1 .41.006a.02.02 0 0 1-.003.011H.406L.404.02.4.023H.396ZM.389.036C.388.033.385.032.381.03A.019.019 0 0 1 .37.023L.366.02.368.019.37.018l.003.003c.001.002.002.003.004.003l.004.001A.01.01 0 0 0 .389.021c.002.003.004.004.007.004L.4.024C.402.024.403.023.405.021L.407.018l.002.001.002.001-.005.004a.024.024 0 0 1-.01.006C.392.031.39.033.389.036ZM.367.018A.02.02 0 0 1 .363.006a.02.02 0 0 1 .004-.012h.001a.021.021 0 0 0-.003.012c0 .005.001.008.003.012H.367Zm.036-.03h.001L.403-.013.4-.015.396-.016l.001.001.003.001.003.002ZM.389-.013c.002 0 .003-.001.003-.003S.391-.019.389-.019s-.003.001-.003.003.001.003.003.003Zm-.015.001.003-.002A.004.004 0 0 0 .38-.015l.001-.001-.004.001-.003.002-.001.001h.001Zm.022.04L.4.027.403.025.404.024.403.023v.001L.4.026.397.027H.396v.001ZM.389.032C.391.032.392.031.392.029S.391.026.389.026.386.027.386.029s.001.003.003.003ZM.381.028.382.027H.381L.377.026.375.024.374.023.373.024l.001.001.003.002.004.001Zm.083-.037.002-.003.005.003.002-.005-.005-.003-.002.003-.004-.003-.003.005.005.003Zm.023.045L.489.032.484.028.483.031.482.033l.004.003h.001ZM.439-.025H.44l.002-.004L.44-.031.437-.033l-.002.004-.004-.003-.002.002-.001.002.005.003.001-.001.001-.002.004.003Zm-.06.04V.011c0-.003 0-.005-.002-.008L.381.002l.001-.006-.001.001v.002L.379 0H.376L.373-.003l-.001.002V0c.005.006.007.01.007.014v.001ZM.398.012.403.01.404.004.403 0C.402-.002.401-.003.399-.003L.396 0 .394.007c0 .004.002.005.004.005Zm0-.003L.396.008.395.006.396.002.398 0C.399 0 .4 0 .401.002c.002.001.002.002.002.003v.001c0 .002-.002.003-.005.003ZM.386.012.39.01C.392.008.392.006.392.004.392.003.392.001.39 0L.387-.003.384 0C.382.003.382.005.382.007c0 .004.001.005.004.005Zm0-.003L.384.008.382.006.384.002.386 0c.001 0 .002 0 .003.002l.002.003v.001C.39.008.389.009.386.009Zm.218-.032L.602-.025l.002-.001v.003Zm-.015.012.007-.003L.6-.017a.008.008 0 0 0 .004-.004l.002.002.001-.002-.002-.002.001-.003-.001-.003-.003.002-.001.003c0 .001 0 .002.002.003-.001.002-.005.004-.01.007l-.004.002v.001ZM.558-.019l.018-.007.001-.002-.018.006-.001.003Zm-.01-.007L.55-.031c0-.003.001-.005.002-.005l.001.001.001.001v-.003L.552-.038.55-.036.548-.03c0-.005-.002-.007-.005-.007l-.001.002.001.002h.002l.002.003.001.003v.001Zm.031.06h.002L.584.032.588.028.594.025l.001.001L.6.024h.003L.604.023V.019L.603.02v.002H.601V.02L.6.021.599.023H.596C.592.023.589.024.587.027L.583.031.579.034ZM.478.001l.013-.005.001-.002-.013.004-.001.003ZM.454-.023l.024-.01.001-.002-.024.009-.001.003Zm.029.006.002-.001.002-.003.001-.003-.001-.002-.003.003h.002l.001.001-.004.004v.001Z" style="fill:#00a2b5;fill-rule:nonzero" transform="translate(-2.462 391.975) scale(504.25)"/></svg>