<?xml version="1.0" encoding="UTF-8" standalone="no"?>
<!DOCTYPE svg PUBLIC "-//W3C//DTD SVG 1.1//EN" "http://www.w3.org/Graphics/SVG/1.1/DTD/svg11.dtd">
<svg width="100%" height="100%" viewBox="0 0 1156 1239" version="1.1" xmlns="http://www.w3.org/2000/svg" xmlns:xlink="http://www.w3.org/1999/xlink" xml:space="preserve" xmlns:serif="http://www.serif.com/" style="fill-rule:evenodd;clip-rule:evenodd;stroke-linejoin:round;stroke-miterlimit:2;">
    <g transform="matrix(1,0,0,1,-623.606,-1200.32)">
        <g transform="matrix(4.16667,0,0,4.16667,0,0)">
            <g id="path1" transform="matrix(0.652763,0,0,0.652763,149.666,288.076)">
                <path d="M151.11,322.21C152.61,321.87 154.11,321.71 155.61,321.71C159.11,321.71 162.86,322.62 166.86,324.46C176.36,328.96 181.86,331.46 183.36,331.96C187.03,332.96 190.95,333.46 195.11,333.46C199.45,333.46 204.03,332.87 208.86,331.71C216.7,329.71 223.28,323.71 228.61,313.71C232.61,306.21 234.61,298.46 234.61,290.46C234.61,286.29 234.11,282.04 233.11,277.71C230.78,268.71 226.61,261.62 220.61,256.46C213.61,250.29 194.95,240.46 164.61,226.96C131.11,212.12 106.78,199.54 91.61,189.21C100.95,188.21 105.61,186.96 105.61,185.46C105.61,183.96 102.36,182.12 95.86,179.96C77.7,173.62 68.61,170.21 68.61,169.71L69.11,168.71C81.78,151.71 107.61,127.62 146.61,96.46C185.11,65.79 210.28,48.96 222.11,45.96C224.95,45.29 227.28,44.96 229.11,44.96C232.61,44.96 234.36,46.04 234.36,48.21C234.36,51.37 228.86,63.37 217.86,84.21C216.86,86.37 215.53,90.66 213.86,97.08C212.2,103.5 211.36,108.12 211.36,110.96C211.36,116.12 211.7,118.71 212.36,118.71C212.7,118.71 213.28,116.79 214.11,112.96C215.28,107.12 218.36,99.29 223.36,89.46L232.86,71.46C239.03,58.29 242.11,47.29 242.11,38.46C242.11,35.62 241.78,33.04 241.11,30.71C239.61,24.37 236.53,21.21 231.86,21.21C218.86,21.21 189.2,39.46 142.86,75.96C102.2,107.96 76.45,131.96 65.61,147.96C63.78,150.79 62.86,155.12 62.86,160.96C62.86,168.29 64.36,178.12 67.36,190.46C67.53,191.29 68.53,192.46 70.36,193.96C73.53,195.79 75.11,196.96 75.11,197.46C89.45,210.12 106.86,221.62 127.36,231.96C134.03,235.46 151.2,243.21 178.86,255.21C198.03,263.54 211.95,270.96 220.61,277.46C225.28,281.12 227.61,283.54 227.61,284.71C227.61,285.54 227.36,286.46 226.86,287.46C220.36,298.29 212.36,304.87 202.86,307.21C199.53,308.04 196.28,308.46 193.11,308.46C186.11,308.46 179.11,306.62 172.11,302.96C164.61,298.96 157.78,296.96 151.61,296.96C149.45,296.96 147.2,297.21 144.86,297.71C123.86,302.87 103.61,324.54 84.11,362.71C80.45,369.71 72.7,385.04 60.86,408.71C49.86,427.87 39.2,437.46 28.86,437.46C25.2,437.46 21.86,436.29 18.86,433.96C12.03,428.62 8.61,418.21 8.61,402.71C8.61,397.04 9.03,390.54 9.86,383.21C11.2,371.54 11.86,363.54 11.86,359.21C11.86,356.54 11.53,355.04 10.86,354.71C10.2,354.87 9.53,356.46 8.86,359.46C4.86,376.79 2.86,391.62 2.86,403.96C2.86,424.96 9.03,439.87 21.36,448.71C27.03,453.04 32.86,455.21 38.86,455.21C48.86,455.21 57.53,449.79 64.86,438.96C68.53,433.79 73.7,423.87 80.36,409.21C88.03,392.71 94.45,380.04 99.61,371.21C116.28,342.87 133.45,326.54 151.11,322.21Z" style="fill:rgb(255,97,6);"/>
            </g>
            <g id="path2" transform="matrix(0.652763,0,0,0.652763,149.666,288.076)">
                <path d="M255.74,261.84C255.93,261.48 256.08,261.2 256.26,261.05C256.44,260.91 256.54,260.96 256.54,261.11C256.63,261.29 256.63,261.61 256.54,262.04C254.9,271 252.25,275.47 248.51,275.47C244.59,275.47 242.63,272.16 242.63,265.58C242.63,257.51 244.97,249.02 249.64,240.16C250.8,237.96 251.5,236.85 251.73,236.8C251.78,236.8 251.82,236.8 251.82,236.89C251.82,237.31 251.5,238.52 250.8,240.63C247.76,249.86 246.27,256.35 246.27,260.03C246.27,265.06 247.63,267.63 250.34,267.63C251.91,267.63 253.74,265.67 255.74,261.84Z" style="fill:rgb(255,176,0);"/>
            </g>
            <g id="path3" transform="matrix(0.652763,0,0,0.652763,149.666,288.076)">
                <path d="M207.23,356.32C207.23,359.44 205.92,362.94 203.4,366.91C200.79,371.01 197.39,374.55 193.28,377.45C191.65,378.61 190.66,379.22 190.34,379.22C190.29,379.22 190.29,379.18 190.29,379.13C190.29,378.85 190.99,378 192.35,376.47C199.16,369.06 202.56,364.11 202.56,361.64C202.56,359.26 201.45,358.09 199.25,358.09C198.09,358.09 196.96,358.42 195.98,359.06C195.28,359.54 194.82,359.81 194.63,359.86C194.54,359.77 194.35,359.67 194.17,359.63C194.26,359.35 194.35,358.74 194.54,357.72C195.66,352.59 198.18,350.06 202.19,350.06C205.55,350.06 207.23,352.17 207.23,356.32Z" style="fill:rgb(255,176,0);"/>
            </g>
            <g id="path4" transform="matrix(0.652763,0,0,0.652763,149.666,288.076)">
                <path d="M239.79,114.85C239.79,117.97 238.48,121.48 235.97,125.44C233.35,129.54 229.95,133.09 225.85,135.98C224.21,137.15 223.23,137.76 222.9,137.76C222.86,137.76 222.86,137.71 222.86,137.66C222.86,137.38 223.56,136.54 224.9,135C231.72,127.59 235.13,122.64 235.13,120.17C235.13,117.79 234,116.63 231.81,116.63C230.64,116.63 229.53,116.95 228.55,117.6C227.85,118.07 227.38,118.35 227.19,118.4C227.1,118.31 226.92,118.21 226.72,118.17C226.82,117.88 226.92,117.28 227.1,116.25C228.23,111.12 230.73,108.6 234.75,108.6C238.11,108.6 239.79,110.69 239.79,114.85Z" style="fill:rgb(255,176,0);"/>
            </g>
            <g id="path5" transform="matrix(0.652763,0,0,0.652763,149.666,288.076)">
                <path d="M77.81,325.25C77.81,328.37 76.51,331.87 74,335.84C71.37,339.94 67.97,343.48 63.87,346.38C62.23,347.54 61.26,348.15 60.93,348.15C60.89,348.15 60.89,348.11 60.89,348.06C60.89,347.78 61.59,346.94 62.93,345.4C69.74,337.99 73.16,333.04 73.16,330.57C73.16,328.19 72.03,327.02 69.84,327.02C68.67,327.02 67.56,327.34 66.58,328C65.88,328.47 65.41,328.74 65.22,328.79C65.13,328.7 64.95,328.6 64.75,328.56C64.85,328.28 64.95,327.67 65.13,326.65C66.25,321.51 68.76,318.99 72.78,318.99C76.14,318.99 77.81,321.1 77.81,325.25Z" style="fill:rgb(255,176,0);"/>
            </g>
            <g id="path6" transform="matrix(0.652763,0,0,0.652763,149.666,288.076)">
                <path d="M193.79,90.69C193.79,93.81 192.49,97.31 189.97,101.28C187.35,105.38 183.95,108.92 179.84,111.82C178.21,112.98 177.23,113.59 176.91,113.59C176.85,113.59 176.85,113.55 176.85,113.5C176.85,113.21 177.55,112.37 178.91,110.83C185.72,103.43 189.13,98.47 189.13,96.01C189.13,93.63 188,92.46 185.81,92.46C184.65,92.46 183.53,92.79 182.55,93.44C181.85,93.91 181.38,94.18 181.2,94.23C181.11,94.14 180.92,94.04 180.73,94C180.83,93.72 180.92,93.11 181.11,92.09C182.22,86.95 184.74,84.43 188.75,84.43C192.11,84.43 193.79,86.54 193.79,90.69Z" style="fill:rgb(255,176,0);"/>
            </g>
            <g id="path7" transform="matrix(0.652763,0,0,0.652763,149.666,288.076)">
                <path d="M384.5,258.73C384.5,261.84 383.19,265.35 380.68,269.32C378.06,273.42 374.66,276.96 370.56,279.85C368.92,281.02 367.95,281.63 367.61,281.63C367.57,281.63 367.57,281.59 367.57,281.54C367.57,281.25 368.27,280.41 369.61,278.87C376.43,271.46 379.84,266.51 379.84,264.04C379.84,261.66 378.72,260.5 376.52,260.5C375.35,260.5 374.24,260.82 373.26,261.48C372.56,261.95 372.09,262.22 371.9,262.27C371.81,262.18 371.63,262.08 371.44,262.04C371.53,261.75 371.63,261.15 371.81,260.12C372.94,254.99 375.45,252.47 379.47,252.47C382.83,252.47 384.5,254.57 384.5,258.73Z" style="fill:rgb(255,176,0);"/>
            </g>
            <g id="path8" transform="matrix(0.652763,0,0,0.652763,149.666,288.076)">
                <path d="M312.57,265.72C312.75,265.35 312.89,265.06 313.08,264.93C313.26,264.79 313.36,264.83 313.36,264.97C313.45,265.16 313.45,265.49 313.36,265.9C311.73,274.86 309.06,279.34 305.34,279.34C301.42,279.34 299.46,276.03 299.46,269.46C299.46,261.38 301.78,252.89 306.45,244.03C307.62,241.84 308.33,240.72 308.56,240.66C308.6,240.66 308.65,240.66 308.65,240.77C308.65,241.18 308.33,242.4 307.62,244.49C304.59,253.73 303.09,260.21 303.09,263.9C303.09,268.94 304.45,271.5 307.15,271.5C308.74,271.5 310.56,269.55 312.57,265.72Z" style="fill:rgb(255,176,0);"/>
            </g>
            <g id="path9" transform="matrix(0.652763,0,0,0.652763,149.666,288.076)">
                <path d="M362.48,62.46C362.67,62.09 362.81,61.8 362.99,61.66C363.19,61.53 363.28,61.57 363.28,61.71C363.37,61.91 363.37,62.23 363.28,62.65C361.64,71.61 358.99,76.08 355.25,76.08C351.33,76.08 349.38,72.77 349.38,66.19C349.38,58.12 351.71,49.64 356.37,40.77C357.54,38.58 358.24,37.46 358.47,37.41C358.52,37.41 358.56,37.41 358.56,37.51C358.56,37.92 358.24,39.14 357.54,41.23C354.5,50.48 353.01,56.96 353.01,60.64C353.01,65.68 354.37,68.25 357.07,68.25C358.66,68.25 360.47,66.29 362.48,62.46Z" style="fill:rgb(255,176,0);"/>
            </g>
            <g id="path10" transform="matrix(0.652763,0,0,0.652763,149.666,288.076)">
                <path d="M305.7,72.16C305.7,75.29 304.4,78.79 301.88,82.75C299.27,86.86 295.86,90.41 291.76,93.3C290.12,94.47 289.15,95.07 288.82,95.07C288.78,95.07 288.78,95.02 288.78,94.98C288.78,94.7 289.47,93.86 290.83,92.32C297.63,84.9 301.05,79.96 301.05,77.49C301.05,75.11 299.92,73.93 297.74,73.93C296.56,73.93 295.45,74.27 294.46,74.92C293.77,75.38 293.3,75.67 293.11,75.71C293.02,75.62 292.83,75.52 292.64,75.47C292.73,75.2 292.83,74.59 293.02,73.57C294.14,68.44 296.66,65.92 300.67,65.92C304.03,65.92 305.7,68.01 305.7,72.16Z" style="fill:rgb(255,176,0);"/>
            </g>
            <g id="path11" transform="matrix(0.652763,0,0,0.652763,149.666,288.076)">
                <path d="M50.44,374.37C50.67,373.86 50.94,373.48 51.18,373.21C51.46,373.07 51.55,373.11 51.55,373.35C51.64,373.58 51.64,374 51.55,374.6C49.31,387.02 45.58,393.22 40.44,393.22C34.95,393.22 32.24,388.65 32.24,379.54C32.24,368.31 35.46,356.55 41.95,344.23C43.58,341.21 44.51,339.62 44.88,339.56C44.93,339.56 44.97,339.62 44.97,339.67C44.97,340.26 44.51,342 43.58,344.89C39.37,357.72 37.28,366.68 37.28,371.8C37.28,378.81 39.14,382.35 42.97,382.35C45.16,382.35 47.63,379.69 50.44,374.37Z" style="fill:rgb(255,176,0);"/>
            </g>
            <g id="path12" transform="matrix(0.652763,0,0,0.652763,149.666,288.076)">
                <path d="M307.95,145.82C308.18,145.32 308.46,144.94 308.69,144.66C308.97,144.52 309.06,144.57 309.06,144.8C309.15,145.04 309.15,145.45 309.06,146.06C306.83,158.47 303.09,164.68 297.97,164.68C292.46,164.68 289.76,160.1 289.76,151.01C289.76,139.76 292.97,128.01 299.46,115.69C301.09,112.66 302.02,111.07 302.39,111.03C302.44,111.03 302.49,111.07 302.49,111.12C302.49,111.73 302.02,113.45 301.09,116.34C296.9,129.17 294.79,138.13 294.79,143.26C294.79,150.26 296.66,153.8 300.48,153.8C302.68,153.8 305.15,151.15 307.95,145.82Z" style="fill:rgb(255,176,0);"/>
            </g>
            <g id="path13" transform="matrix(0.652763,0,0,0.652763,149.666,288.076)">
                <path d="M374.47,98.94C374.47,103.23 372.7,108.13 369.15,113.64C365.51,119.38 360.85,124.27 355.11,128.33C352.83,129.92 351.47,130.76 351.05,130.76C350.96,130.76 350.96,130.71 350.96,130.62C350.96,130.29 351.89,129.03 353.85,126.93C363.28,116.63 368.04,109.76 368.04,106.27C368.04,103 366.5,101.37 363.46,101.37C361.78,101.37 360.24,101.84 358.89,102.77C357.91,103.43 357.25,103.8 357.02,103.89C356.84,103.7 356.65,103.61 356.37,103.52C356.46,103.19 356.65,102.3 356.88,100.85C358.43,93.77 361.92,90.22 367.52,90.22C372.14,90.22 374.47,93.11 374.47,98.94Z" style="fill:rgb(255,176,0);"/>
            </g>
            <g id="path14" transform="matrix(0.652763,0,0,0.652763,149.666,288.076)">
                <path d="M49.73,188.56C49.73,192.85 47.96,197.75 44.42,203.26C40.78,209 36.11,213.89 30.37,217.95C28.09,219.54 26.74,220.38 26.31,220.38C26.22,220.38 26.22,220.33 26.22,220.23C26.22,219.91 27.15,218.65 29.12,216.55C38.53,206.24 43.29,199.38 43.29,195.89C43.29,192.62 41.75,190.99 38.72,190.99C37.04,190.99 35.51,191.45 34.15,192.38C33.18,193.04 32.52,193.41 32.29,193.51C32.1,193.32 31.91,193.22 31.63,193.13C31.73,192.81 31.91,191.92 32.14,190.47C33.68,183.38 37.19,179.84 42.79,179.84C47.4,179.84 49.73,182.73 49.73,188.56Z" style="fill:rgb(255,176,0);"/>
            </g>
            <g id="path15" transform="matrix(0.652763,0,0,0.652763,149.666,288.076)">
                <path d="M103.01,401.2C107.72,401.2 111.96,403.99 115.7,409.59C119.47,415.19 122.08,422.51 123.62,431.56C123.77,432.49 123.86,433.06 123.86,433.2C124.05,433.48 124.14,433.48 124.23,433.2C124.33,433.06 124.52,432.49 124.89,431.56C125.64,426.15 127.5,418.09 130.44,407.4C133.66,399.7 137.16,395.87 140.94,395.87C142.9,395.87 144.8,397.18 146.77,399.79C148.45,402.08 149.29,403.9 149.29,405.35C149.29,406.46 149,407.91 148.4,409.68C147.66,412.02 146.77,413.23 145.74,413.23C145.32,413.23 144.39,412.3 142.94,410.48C141.54,408.66 140.04,407.77 138.51,407.77C135.15,407.77 132.03,415.75 129.18,431.66C127.92,438.61 126.52,443.51 124.98,446.35C123.91,448.32 122.98,449.29 122.23,449.29C121.53,449.29 121.21,448.41 121.21,446.64C121.21,443.83 119.61,438.43 116.4,430.36C113.18,422.28 110.94,418.27 109.58,418.27C108.65,418.27 108.04,418.55 107.81,419.16C107.54,419.72 106.79,420.04 105.53,420.04C104.08,420.04 102.21,418.97 99.88,416.87C97.56,414.77 96.43,413.04 96.43,411.79C96.43,411.22 97.36,409.31 99.33,406.05C101.28,402.78 102.5,401.2 103.01,401.2Z" style="fill:rgb(255,176,0);"/>
            </g>
            <g id="path16" transform="matrix(0.652763,0,0,0.652763,149.666,288.076)">
                <path d="M24.4,289.51C24.63,289 24.92,288.62 25.15,288.35C25.43,288.21 25.52,288.26 25.52,288.49C25.62,288.72 25.62,289.14 25.52,289.75C23.29,302.16 19.55,308.36 14.42,308.36C8.91,308.36 6.21,303.79 6.21,294.69C6.21,283.45 9.43,271.7 15.92,259.37C17.55,256.35 18.48,254.76 18.85,254.71C18.89,254.71 18.94,254.76 18.94,254.81C18.94,255.42 18.48,257.14 17.55,260.03C13.34,272.86 11.25,281.82 11.25,286.95C11.25,293.95 13.11,297.49 16.94,297.49C19.14,297.49 21.61,294.83 24.4,289.51Z" style="fill:rgb(255,176,0);"/>
            </g>
            <g id="path17" transform="matrix(0.652763,0,0,0.652763,149.666,288.076)">
                <path d="M76.51,284.57C74.09,293.71 67.69,302.86 57.29,311.95C44.51,323.01 26.97,334.86 4.62,347.45C2.66,348.52 1.31,349.13 0.57,349.22C0.23,349.27 0.05,349.22 0,349.08C-0.04,348.58 0.98,347.36 3.18,345.5C7,342.09 16.51,334.48 31.73,322.77C44.79,312.7 53.56,305.28 58.04,300.52C62.37,296.37 67.51,290.68 73.39,283.5C75.67,279.07 77.07,276.78 77.68,276.69C77.86,276.63 77.95,276.73 77.95,276.87C78.1,277.8 77.63,280.37 76.51,284.57Z" style="fill:rgb(255,176,0);"/>
            </g>
            <g id="path18" transform="matrix(0.652763,0,0,0.652763,149.666,288.076)">
                <path d="M94.8,225.55C94.98,226.62 94.89,228.12 94.61,229.94C94.23,232.42 93.54,233.72 92.51,233.86C92.14,233.95 91.07,233.15 89.35,231.61C87.66,230.04 86.07,229.38 84.59,229.61C81.23,230.18 79.4,238.52 79.08,254.71C78.94,261.9 78.7,269.46 78.42,277.33C77.63,279.44 76.88,280.51 76.14,280.64C75.49,280.75 74.97,279.91 74.69,278.17C74.27,275.24 71.62,268.98 66.86,259.33C61.96,249.25 58.83,244.31 57.62,244.49C56.68,244.63 56.17,245.06 55.99,245.66C55.84,246.26 55.15,246.69 53.88,246.87C52.48,247.1 50.44,246.36 47.82,244.63C45.2,242.91 43.81,241.41 43.58,240.16C43.53,239.59 44.18,237.55 45.58,234.04C46.99,230.54 47.92,228.73 48.42,228.64C53.09,227.93 57.71,230.04 62.28,234.98C66.9,239.93 70.64,246.73 73.52,255.42C73.85,256.3 74.04,256.85 74.04,256.99C74.27,257.23 74.36,257.23 74.41,256.95C74.5,256.76 74.59,256.2 74.79,255.22C74.69,249.77 75.25,241.56 76.51,230.5C78.47,222.43 81.32,218.09 85.09,217.48C87.01,217.21 89.11,218.18 91.44,220.47C93.45,222.43 94.57,224.15 94.8,225.55Z" style="fill:rgb(255,176,0);"/>
            </g>
            <g id="path19" transform="matrix(0.652763,0,0,0.652763,149.666,288.076)">
                <path d="M92.05,288.03C115.46,279.48 140.38,270.43 166.69,260.77C168,260.3 168.84,260.12 169.07,260.3C169.39,260.54 169.34,261.25 168.84,262.45C167.3,266.14 166.08,268.38 165.15,269.17C143.03,277.1 117.24,287.18 87.75,299.44C88.64,295.95 90.08,292.17 92.05,288.03Z" style="fill:rgb(255,176,0);"/>
            </g>
            <g id="path0" transform="matrix(0.24,0,0,0.24,0,0)">
                <path d="M1267.6,1706.58C1269.87,1706.44 1257.1,1704.27 1229.37,1699.98C1219.09,1718.12 1208.29,1732.07 1197.12,1741.7C1187.49,1749.97 1173.02,1758.73 1153.73,1767.84C1148.65,1770.37 1146.12,1772.95 1146.12,1775.48C1146.12,1777.77 1147.91,1779.29 1151.34,1780.3C1163.25,1783.72 1180.9,1784.1 1204.38,1781.57C1214.39,1780.4 1238.38,1775.48 1276.18,1766.48C1281,1765.31 1283.42,1764.93 1283.42,1765.44C1283.42,1766.07 1276.18,1771.54 1261.71,1781.57C1255.35,1786.25 1243.95,1791.34 1227.71,1797.18C1205.52,1805.15 1185.34,1809.23 1167.44,1809.23C1145.98,1809.23 1135.21,1802.11 1135.21,1788.15C1135.21,1773.93 1141.3,1761.5 1153.73,1750.98C1164.02,1743.85 1174.43,1736.64 1184.71,1729.27C1199.4,1719.23 1210.44,1708.6 1218.09,1697.69C1195.1,1693.75 1183.68,1684.99 1183.68,1671.42C1183.68,1661.38 1186.75,1650.1 1192.93,1637.8C1188.74,1623.44 1189.66,1613.43 1195.62,1607.48C1200.33,1602.91 1205.63,1600.62 1211.86,1600.62C1217.84,1600.62 1224.67,1602.66 1232.53,1606.71C1259.56,1621.7 1277.57,1639.84 1286.43,1661.14C1287.22,1662.55 1287.61,1664.32 1287.61,1666.61C1287.61,1673.95 1285.18,1682.46 1280.62,1692.09C1276.17,1701.53 1271.81,1706.37 1267.6,1706.58C1267.52,1706.59 1267.43,1706.59 1267.32,1706.59C1267.41,1706.59 1267.5,1706.59 1267.6,1706.58ZM1271.75,1674.57C1266.04,1662.17 1255.89,1652.9 1241.42,1646.7C1241.42,1659.75 1240.25,1669.76 1238,1676.61C1240.25,1677.27 1251.08,1678.9 1270.33,1681.46C1271.5,1681.7 1272.37,1681.56 1272.75,1681.05C1273.65,1680.18 1273.41,1678.03 1271.75,1674.57ZM1226.71,1674.57C1228.1,1667.61 1227.85,1660.51 1225.92,1653.17C1223.91,1644.9 1220.48,1640.85 1215.64,1640.85C1212.62,1640.85 1208.54,1643.38 1203.24,1648.71C1197.9,1654.04 1195.35,1657.98 1195.35,1660.76C1195.35,1667.23 1205.77,1671.8 1226.71,1674.57Z" style="fill:rgb(255,176,0);"/>
            </g>
            <g id="path22" transform="matrix(0.652763,0,0,0.652763,149.666,288.076)">
                <path d="M181.52,125.58C183.95,126.93 185.12,128.52 185.12,130.38C185.12,131.69 184.56,132.91 183.34,134.07C179.98,137.47 177.89,138.92 177.05,138.5C177.14,137.34 175.97,135.43 173.64,132.82C172.01,131.88 167.66,131.64 160.58,132.07C153.07,132.48 147,133.55 142.39,135.34C140.85,135.93 140.1,136.59 140.1,137.38C140.1,138.74 142.57,140.83 147.56,143.68C151.34,145.87 156.23,148.07 162.21,150.21C168.23,152.35 171.87,153.8 173.22,154.6C180.68,158.89 184.08,163.84 183.49,169.38C183.15,172.74 181.01,176.1 177.05,179.51C173.49,182.54 171.02,183.89 169.68,183.57C148.22,178.39 133.1,173.3 124.42,168.22C117.14,164.02 113.55,158.05 113.55,150.26C113.55,148.86 113.69,147.51 114.02,146.25C116.16,150.12 121.06,154.27 128.86,158.75C132.12,160.71 140.47,163.98 153.91,168.64C165.75,172.74 173.17,175.17 176.02,175.82C177.05,171.86 173.26,167.43 164.78,162.44C158.85,160.33 150.78,156.88 140.47,152.17C133.8,148.3 130.49,144.85 130.49,141.76C130.49,139.34 132.73,136.68 137.2,133.79C147.79,126.98 158.9,123.57 170.47,123.57C175.41,123.57 179.09,124.23 181.52,125.58Z" style="fill:rgb(255,176,0);"/>
            </g>
            <g id="path23" transform="matrix(0.652763,0,0,0.652763,149.666,288.076)">
                <path d="M297.13,5.87C302.3,5.87 306.97,8.95 311.07,15.11C315.23,21.27 318.11,29.34 319.8,39.23C319.99,40.25 320.08,40.86 320.08,41.05C320.26,41.32 320.4,41.32 320.49,41.05C320.58,40.86 320.82,40.25 321.19,39.23C321.99,33.31 324.04,24.44 327.31,12.63C330.81,4.19 334.68,0 338.83,0C340.98,0 343.12,1.4 345.27,4.29C347.09,6.8 348.02,8.86 348.02,10.4C348.02,11.61 347.7,13.2 347.04,15.15C346.2,17.77 345.27,19.07 344.14,19.07C343.68,19.07 342.66,18.05 341.07,16.05C339.49,14.04 337.84,13.06 336.22,13.06C332.48,13.06 329.08,21.83 325.91,39.37C324.51,46.97 322.96,52.34 321.33,55.51C320.12,57.66 319.1,58.73 318.26,58.73C317.51,58.73 317.13,57.75 317.13,55.79C317.13,52.72 315.36,46.79 311.87,37.92C308.33,29.06 305.84,24.67 304.36,24.67C303.32,24.67 302.68,25 302.39,25.65C302.12,26.31 301.28,26.64 299.87,26.64C298.29,26.64 296.24,25.47 293.72,23.13C291.16,20.8 289.89,18.94 289.89,17.53C289.89,16.93 290.92,14.78 293.07,11.24C295.21,7.64 296.56,5.87 297.13,5.87Z" style="fill:rgb(255,176,0);"/>
            </g>
            <g id="path24" transform="matrix(0.652763,0,0,0.652763,149.666,288.076)">
                <path d="M335.14,159.77C334.21,161.78 333.42,163.05 332.86,163.46C332.35,163.88 332.07,163.6 331.97,162.67C331.97,161.74 332.16,160.47 332.58,158.89C333.05,157.3 333.65,154.32 334.5,150.02C334.77,147.83 334.91,145.73 334.91,143.68C334.91,127.82 328.1,113.96 314.52,102.07C313.68,101.32 313.55,100.39 314.16,99.27L317.93,92.6C318.26,92 318.81,92 319.56,92.6C332.91,102.77 339.58,117.28 339.58,136.12C339.58,145.55 338.08,153.43 335.14,159.77Z" style="fill:rgb(255,176,0);"/>
            </g>
            <g id="path25" transform="matrix(0.652763,0,0,0.652763,149.666,288.076)">
                <path d="M303.05,195.55C326.47,187.02 351.38,177.97 377.69,168.31C379,167.84 379.84,167.66 380.07,167.84C380.4,168.08 380.35,168.78 379.84,169.99C378.3,173.68 377.09,175.91 376.16,176.71C354.04,184.64 328.24,194.72 298.76,206.98C299.64,203.49 301.09,199.71 303.05,195.55Z" style="fill:rgb(255,176,0);"/>
            </g>
            <g id="path26" transform="matrix(0.652763,0,0,0.652763,149.666,288.076)">
                <path d="M366.91,230.88C366.91,234.19 366.16,237.59 364.73,241.13C362.81,245.71 360.33,247.99 357.25,247.99C352.45,247.99 349.04,244.68 347.04,238.1C344.75,246.55 340.6,250.79 334.5,250.79C332.25,250.79 330.24,249.62 328.56,247.34C326.61,244.63 325.68,241.09 325.68,236.71L325.68,226.35C325.68,225.51 325.07,224.9 323.95,224.58C322.78,224.24 322.22,223.36 322.22,221.92C322.22,219.63 323.16,217.39 325.11,215.19C326.89,213.28 328.24,212.31 329.17,212.31C330.39,212.31 330.99,214.6 330.99,219.11C330.99,221.49 330.76,223.46 330.39,225.08C330.01,226.67 329.83,228.07 329.83,229.24C329.83,231.72 330.29,234.09 331.32,236.33C332.53,238.99 333.98,240.3 335.75,240.3C338.04,240.3 340.19,239.23 342.19,237.17C344.14,235.12 345.18,232.69 345.18,229.89C345.18,228.3 344.71,225.55 343.78,221.68C342.84,217.76 342.37,215.38 342.37,214.45C342.37,213.61 342.8,212.26 343.64,210.43C344.48,208.66 345.08,207.73 345.5,207.73C346.29,207.73 347.27,210.3 348.49,215.48C349.7,220.61 350.35,224.39 350.35,226.86C350.35,233.95 353.06,237.49 358.56,237.49C360.9,237.49 362.39,236.28 362.99,233.95C358.24,225.65 355.91,219.35 355.91,214.96C355.91,212.4 356.52,210.16 357.77,208.25C358.66,206.89 359.22,206.14 359.54,206.1C359.92,206.1 360.15,206.94 360.33,208.62C360.56,211 360.94,212.91 361.46,214.45C361.55,214.6 362.67,217.53 364.86,223.17C366.21,226.53 366.91,229.1 366.91,230.88Z" style="fill:rgb(255,176,0);"/>
            </g>
            <g id="path27" transform="matrix(0.652763,0,0,0.652763,149.666,288.076)">
                <path d="M124.93,369.33C124.57,369.1 124.57,368.59 124.93,367.84L133.01,351.23C133.52,350.21 134.08,349.74 134.64,349.74C135.48,349.74 139.11,351.93 145.55,356.32C151.95,360.71 155.16,363.27 155.16,364.01C155.16,366.91 152.32,372.87 146.68,382.02C145.98,383.19 145.28,383.46 144.53,382.91C138.18,378.06 131.65,373.58 124.93,369.33Z" style="fill:rgb(255,176,0);"/>
            </g>
            <g id="path28" transform="matrix(0.652763,0,0,0.652763,149.666,288.076)">
                <path d="M254.25,52.2C254.25,43.94 252.95,37.28 250.34,32.18C250.34,29.43 252.71,22.43 257.51,11.2C258.12,9.84 258.64,9.18 259.05,9.18C259.57,9.18 260.12,9.89 260.83,11.33C262.18,14.18 265.26,22.06 270.16,34.99C275.34,48.46 278.33,56.82 279.17,60.03C279.82,62.41 280.19,64.18 280.19,65.36C280.19,69.18 276.6,66.9 269.41,58.55C268.58,57.51 268.15,58.08 268.15,60.18C268.15,60.93 271.55,108.6 278.42,203.16C285.23,297.77 288.69,348.24 288.69,354.68C288.69,374.51 285.65,391.77 279.67,406.56C278.42,409.68 277.39,411.92 276.65,413.28C275.43,415.24 274.73,415.47 274.45,414.07C274.13,412.62 274.27,409.45 274.88,404.55C275.62,397.79 276.04,389.9 276.04,380.9C276.04,372.78 272.4,317.74 265.13,215.71C257.85,113.73 254.25,59.19 254.25,52.2Z" style="fill:rgb(255,97,6);"/>
            </g>
            <g id="path29" transform="matrix(0.652763,0,0,0.652763,149.666,288.076)">
                <path d="M365.66,364.48C361.36,351.46 358.47,339.33 356.93,328C356.37,323.61 355.95,320.96 355.67,319.92C355.07,317.55 353.94,315.22 352.26,312.98C353.43,309.06 355.3,303.65 357.82,296.65C358.66,294.6 359.45,293.61 360.1,293.61C360.71,293.61 361.74,294.6 363.28,296.65C369.95,305.93 375.55,314.24 380.07,321.57C381.94,324.59 382.87,326.74 382.87,328C382.87,328.94 382.45,329.4 381.61,329.4C379.93,329.4 376.89,328 372.51,325.25C372.09,325.25 371.76,325.52 371.49,326.13C373.03,331.59 375.45,339.15 378.81,348.76C386.41,370.36 390.24,386.09 390.24,395.97C390.24,405.82 388.75,414.44 385.8,421.77C380.91,434.27 372.42,440.52 360.38,440.52C347.56,440.52 337.43,434.92 330.01,423.82C325.53,417.15 321.57,407.16 318.11,393.82C316.63,407.26 312.33,418.79 305.34,428.48C296.75,440.24 285.74,446.12 272.35,446.12C257.56,446.12 247.26,439.07 241.32,424.94C238.06,417.01 236.44,407.73 236.44,397C236.44,382.82 238.11,369.61 241.47,357.39C242.36,354.07 242.82,351.89 242.82,350.81C242.82,350.21 242.68,349.92 242.36,349.92C241.75,349.92 240.39,351.56 238.3,354.82C234.99,360.01 231.54,370.45 227.89,386.22C223.18,406.56 220.11,418.82 218.66,423.03C216.74,428.86 213.99,433.57 210.45,437.12C207.6,440.06 205.08,441.54 202.98,441.54C193.56,441.54 186.23,435.53 181.11,423.54C176.91,413.6 174.8,401.56 174.8,387.48C174.8,377.63 176.3,366.91 179.32,355.34C180.04,352.73 180.68,350.81 181.38,349.51C182.27,347.92 182.92,347.74 183.24,348.9C183.58,350.26 183.44,352.63 182.74,356.09C181.06,364.9 180.22,372.92 180.22,380.29C180.22,408.8 186.19,423.08 198.18,423.08C203.31,423.08 207.6,419.2 210.96,411.55C213.06,406.75 215.62,397.55 218.66,384.07C222.16,369.15 225.1,358.23 227.52,351.28C230.32,343.35 233.77,336.3 237.92,330.15C242.36,323.24 246.27,319.79 249.53,319.79C252.25,319.79 253.6,322.64 253.6,328.37C253.6,333.13 252.25,342.69 249.53,357.16C246.83,371.67 245.53,381.37 245.53,386.36C245.53,397.14 247.76,405.58 252.29,411.65C256.77,417.75 263.07,420.79 271.05,420.79C285.56,420.79 296.47,416.21 303.7,407.12C309.44,399.93 312.33,391.07 312.33,380.53C312.33,370.4 311.44,360.61 309.76,351.19C308.6,344.51 306.97,338.17 304.96,332.2C303.28,326.97 302.44,324.5 302.44,324.83C302.44,319.04 304.31,311.11 308.13,301.03C308.97,298.85 309.63,297.77 310.14,297.77C310.74,297.77 311.68,299.21 313.03,302.07C318.44,313.3 322.69,330.51 325.82,353.71C328.76,375.4 333,390.88 338.55,400.22C344.05,409.54 352.45,414.21 363.78,414.21C373.21,414.21 379.42,410.76 382.35,403.94C382.35,401.56 380.4,396.53 376.43,388.74C371.35,378.9 367.8,370.78 365.66,364.48Z" style="fill:rgb(0,162,181);"/>
            </g>
            <g id="path30" transform="matrix(0.652763,0,0,0.652763,149.666,288.076)">
                <path d="M388.28,46.18C388.28,37.92 386.98,31.25 384.37,26.17C384.37,23.42 386.75,16.42 391.54,5.17C392.15,3.83 392.67,3.17 393.08,3.17C393.6,3.17 394.16,3.87 394.85,5.32C396.21,8.16 399.29,16.05 404.19,28.97C409.36,42.45 412.35,50.8 413.19,54.02C413.85,56.4 414.22,58.17 414.22,59.33C414.22,63.11 410.63,60.83 403.44,52.48C402.6,51.5 402.18,52.02 402.18,54.16C402.18,54.9 405.96,107.99 413.56,213.47C421.12,318.95 424.95,374.89 424.95,381.28C424.95,400.68 421.92,417.98 415.94,433.15C414.78,436.23 413.8,438.43 413.05,439.77C411.88,441.78 411.09,442.06 410.77,440.66C410.43,439.22 410.58,436.05 411.14,431.15C411.88,424.38 412.31,416.5 412.31,407.5C412.31,399.38 408.29,338.92 400.27,226.02C392.24,113.12 388.28,53.18 388.28,46.18Z" style="fill:rgb(0,162,181);"/>
            </g>
        </g>
    </g>
</svg>
