<svg viewBox="0 0 496 495" xmlns="http://www.w3.org/2000/svg" xml:space="preserve" style="fill-rule:evenodd;clip-rule:evenodd;stroke-linejoin:round;stroke-miterlimit:2"><path d="M2468.43 1795.93c0-618.01-501.74-1119.748-1119.74-1119.748-618.008 0-1119.75 501.738-1119.75 1119.748 0 618 501.742 1119.74 1119.75 1119.74 618 0 1119.74-501.74 1119.74-1119.74Z" style="fill:#5d1100;stroke:#ffb000;stroke-width:154.78px" transform="matrix(.20674 0 0 .20674 -31.332 -123.796)"/><path d="M2468.43 1795.93c0-618.01-501.74-1119.748-1119.74-1119.748-618.008 0-1119.75 501.738-1119.75 1119.748 0 618 501.742 1119.74 1119.75 1119.74 618 0 1119.74-501.74 1119.74-1119.74Zm-80.53 0c0 573.56-465.65 1039.21-1039.21 1039.21-573.562 0-1039.219-465.65-1039.219-1039.21 0-573.56 465.657-1039.218 1039.219-1039.218 573.56 0 1039.21 465.658 1039.21 1039.218Z" style="fill:#5d1100;stroke:#ffb000;stroke-width:9.67px" transform="matrix(.20674 0 0 .20674 -31.332 -123.796)"/><g><path d="M342.395 295.133c0-3.153-.485-5.742-1.457-7.758 0-1.281.902-3.98 2.718-8.102.395-.918.828-.898 1.278.037.523 1.116 1.726 4.174 3.601 9.178 1.996 5.223 3.149 8.426 3.473 9.633.254.918.394 1.602.394 2.051 0 1.441-1.382.574-4.156-2.594-.324-.449-.484-.25-.484.594 0 .289.863 12.402 2.625 36.324 1.765 23.941 2.648 37.137 2.648 39.602 0 7.558-1.172 14.238-3.512 20.035-.484 1.168-.882 2.015-1.168 2.535-.468.738-.738.828-.828.289-.144-.559-.089-1.781.145-3.672.285-2.609.43-5.633.43-9.09 0-3.078-.954-18.019-2.864-44.82-1.906-26.785-2.843-41.543-2.843-44.242Z" style="fill:#ffb000;fill-rule:nonzero" transform="translate(-298.116 -441.256) scale(1.81655)"/><path d="M1324.77 1527.17c12.97 0 25.57-5.03 37.8-15.08 3.53-2.99 5.33-13.8 5.33-32.55 0-11.39-2.92-57.14-8.79-137.32-5.84-80.17-8.69-127.42-8.69-141.83 0-13.05-2.09-23.7-6.15-32.18 0-4.57 3.74-15.82 11.39-33.74.83-2.18 1.58-3.24 2.41-3.24.83 0 1.79 1.21 2.85 3.62 2.18 4.64 7.2 17.4 15.07 38.25 8.11 21.74 13.06 35.02 14.63 39.89.82 4.13 1.28 6.98 1.28 8.54 0 6.01-5.7 2.5-17.11-10.56-1.34-1.87-2.02-1.06-2.02 2.48 0 .81 2.56 36.44 7.73 107.01 5.1 70.51 7.72 112.58 7.72 126.15 0 39.31-7.05 70.29-21.14 92.78-11.95 18.89-25.98 28.41-42.08 28.5v.19c-5.63.81-11.25.84-16.87 0v-.19c-19.09-.03-37.73-7.74-56-23.18-16.96-15.9-33.98-31.72-51.07-47.62-2.18-1.87-3.53-2.85-4.06-2.85-.68 0-.16 2.03 1.65 6.07 6.23 14.4 9.29 24.67 9.29 30.76 0 22.95-6.59 40.27-19.87 52.05-9.52 8.55-30.97 19.94-64.5 34.05v-.01c-20.57 8.8-35.99 15.7-46.17 20.52-20.32 9.46-34.35 17.19-41.93 23.18-13.95 10.87-34.19 31.66-60.82 62.26-15.817 18.29-31.8 27.52-47.767 27.52-13.429 0-25.133-6.07-35.191-18.15-10.563-12.6-15.821-27.98-15.821-46.21 0-25.05 10.271-57.74 30.908-98.01 2.167-4.2 3.825-6.3 5.017-6.3.6.15.829.67.829 1.56 0 4.14-4.429 18.16-13.429 42.24-8.921 24.07-13.346 43.11-13.346 57.06 0 10.73 2.475 19.29 7.504 25.65 5.242 6.9 12.679 10.44 22.117 10.44 16.733 0 33.612-8.55 50.7-25.51 10.808-12.89 21.679-25.72 32.471-38.62 14.108-15.9 32.638-30.08 55.578-42.53 13.36-7.3 36.49-17.88 69.35-31.72v-.06c35.4-14.98 58.66-26.62 69.76-34.79 3.22-2.39 4.34-5.62 3.22-9.75-5.93-21.68-30.37-50.56-73.36-86.62-41.09-33.16-82.19-66.23-123.286-99.3-1.433-1.21-2.183-5.7-2.183-13.43 0-10.04 1.058-20.39 3.229-31.12 2.32-11.93 5.17-19.5 8.55-22.57 23.18-20.94 72.67-48.69 148.42-83.26 76.73-35.11 127.43-52.65 151.96-52.65 7.27 0 12.29 1.43 14.99 4.34 2.78 2.93 4.13 7.88 4.13 14.93 0 16.13-9.68 36.23-28.87 60.24-7.21 8.17-14.48 16.34-21.76 24.59-11.54 13.43-19.35 24.38-23.39 32.78-2.7 5.7-4.43 8.55-5.11 8.55-.67 0-.29-3.83 1.21-11.4.82-4.2 4.04-11.47 9.6-21.76 5.03-9.52 8.77-15.67 11.32-18.52 21.75-24.68 34.72-40.95 39.07-48.68.46-.75.6-1.56.6-2.39 0-4.66-6.07-6.91-18.29-6.91-19.35 0-65.26 16.88-137.7 50.64-72.38 33.74-121.96 61.49-148.65 83.23-1.73 1.52-1.51 2.79.82 3.83 23.69 14.55 47.03 29.56 69.98 45 55.2 37.44 104.02 74.34 146.62 110.71 12.9 11.25 25.73 22.58 38.62 33.97 15.21 11.32 30.21 17.04 44.89 17.03v-.08c5.77 1.03 11.37 1.05 16.81.08Z" style="fill:#ffb000;fill-rule:nonzero" transform="translate(-298.116 -439.532) scale(.43597)"/><path d="M246.652 358.187a88.331 88.331 0 0 1-3.617-16.218c-.125-.953-.215-1.532-.289-1.766-.195-.719-.609-1.492-1.258-2.34l2.196-5.328c.343-.883.668-1.312.918-1.312.234 0 .613.429 1.171 1.312l5.614 8.985c.758 1.203 1.117 2.085 1.117 2.644 0 .395-.18.594-.574.594-.688 0-1.91-.574-3.672-1.711.504 3.437 1.637 7.812 3.418 13.086 0 .359-.574.828-1.727 1.422-1.152.578-2.054.882-2.719.882-.324 0-.503-.089-.578-.25Z" style="fill:#ffb000;fill-rule:nonzero" transform="translate(-300.53 -431.66) scale(1.81655)"/><path d="M262.961 367.961c1.262 0 1.91-.344 1.91-1.027 0-1.008-.902-1.891-2.699-2.645-1.332-.543-3.492-.559-6.481-.039 1.582 2.469 4.012 3.711 7.27 3.711Zm-57.598 25.828c-3.222 0-6.031-1.457-8.441-4.355-2.539-3.024-3.801-6.715-3.801-11.09 0-6.012 2.469-13.86 7.418-23.524.52-1.008.918-1.511 1.203-1.511.145.015.199.16.199.378 0 .989-1.062 4.356-3.222 10.133-2.141 5.778-3.203 10.348-3.203 13.7 0 2.535.593 4.589 1.8 6.152 1.297 1.656 3.079 2.504 5.309 2.504 3.691 0 7.148-1.207 10.406-3.617 3.996-3.457 8.008-6.914 12.004-10.352 7.219-6.121 14.418-10.801 21.582-14.02l4.535-2.054c3.836-1.332 7.129-1.996 9.867-1.996 2.754 0 4.95 1.152 6.551 3.492 1.621 2.32 2.43 5.398 2.43 9.195 0 3.168-.684 5.781-2.051 7.832-1.371 2.051-3.187 3.078-5.418 3.078-3.098 0-6.086-1.511-8.984-4.5-2.16-2.25-3.762-4.664-4.84-7.238-5.293 2.109-11.379 5.871-18.199 11.27a4941.626 4941.626 0 0 0-14.992 12.312c-3.711 2.809-7.094 4.211-10.153 4.211Z" style="fill:#ffb000;fill-rule:nonzero" transform="translate(-301.314 -443.044) scale(1.81655)"/><path d="M240.301 383.367v5.688c0 .449-.11.703-.309.812-.285.141-1.926 0-4.875-.433-2.972-.45-4.519-.793-4.644-1.063-.489-.988-.524-3.547-.09-7.648.035-.504.234-.723.594-.668 2.628.488 5.543.937 8.73 1.332-.074-2.25-.035-4.211.125-5.887.035-.52.234-.734.594-.664 3.008.594 6.031 1.062 9.09 1.387.164.015.254.195.254.519v7.113c0 .45-.11.719-.309.809-.27.125-1.637.02-4.121-.324-2.485-.344-4.176-.668-5.039-.973Z" style="fill:#ffb000;fill-rule:nonzero" transform="translate(-298.116 -439.532) scale(1.81655)"/><path d="M267.82 430.797c0 1.656-.683 3.547-2.05 5.672-1.403 2.215-3.204 4.101-5.419 5.668-.882.613-1.402.937-1.566.937-.035 0-.035-.019-.035-.054 0-.125.359-.614 1.117-1.422 3.637-3.977 5.473-6.625 5.473-7.973 0-1.262-.598-1.891-1.766-1.891-.648 0-1.242.18-1.766.539a5.778 5.778 0 0 1-.718.434.567.567 0 0 0-.25-.145c.035-.125.105-.468.195-1.027.594-2.734 1.945-4.101 4.106-4.101 1.781 0 2.679 1.113 2.679 3.363Z" style="fill:#ffb000;fill-rule:nonzero" transform="translate(-302.96 -440.743) scale(1.81655)"/><path d="M267.82 430.797c0 1.656-.683 3.547-2.05 5.672-1.403 2.215-3.204 4.101-5.419 5.668-.882.613-1.402.937-1.566.937-.035 0-.035-.019-.035-.054 0-.125.359-.614 1.117-1.422 3.637-3.977 5.473-6.625 5.473-7.973 0-1.262-.598-1.891-1.766-1.891-.648 0-1.242.18-1.766.539a5.778 5.778 0 0 1-.718.434.567.567 0 0 0-.25-.145c.035-.125.105-.468.195-1.027.594-2.734 1.945-4.101 4.106-4.101 1.781 0 2.679 1.113 2.679 3.363Z" style="fill:#ffb000;fill-rule:nonzero" transform="translate(-249.069 -679.317) scale(1.81655)"/><path d="M267.82 430.797c0 1.656-.683 3.547-2.05 5.672-1.403 2.215-3.204 4.101-5.419 5.668-.882.613-1.402.937-1.566.937-.035 0-.035-.019-.035-.054 0-.125.359-.614 1.117-1.422 3.637-3.977 5.473-6.625 5.473-7.973 0-1.262-.598-1.891-1.766-1.891-.648 0-1.242.18-1.766.539a5.778 5.778 0 0 1-.718.434.567.567 0 0 0-.25-.145c.035-.125.105-.468.195-1.027.594-2.734 1.945-4.101 4.106-4.101 1.781 0 2.679 1.113 2.679 3.363Z" style="fill:#ffb000;fill-rule:nonzero" transform="rotate(155.979 398.791 564.29) scale(1.81655)"/><path d="M267.82 430.797c0 1.656-.683 3.547-2.05 5.672-1.403 2.215-3.204 4.101-5.419 5.668-.882.613-1.402.937-1.566.937-.035 0-.035-.019-.035-.054 0-.125.359-.614 1.117-1.422 3.637-3.977 5.473-6.625 5.473-7.973 0-1.262-.598-1.891-1.766-1.891-.648 0-1.242.18-1.766.539a5.778 5.778 0 0 1-.718.434.567.567 0 0 0-.25-.145c.035-.125.105-.468.195-1.027.594-2.734 1.945-4.101 4.106-4.101 1.781 0 2.679 1.113 2.679 3.363Z" style="fill:#ffb000;fill-rule:nonzero" transform="translate(-208.5 -664.18) scale(1.81655)"/><path d="M267.82 430.797c0 1.656-.683 3.547-2.05 5.672-1.403 2.215-3.204 4.101-5.419 5.668-.882.613-1.402.937-1.566.937-.035 0-.035-.019-.035-.054 0-.125.359-.614 1.117-1.422 3.637-3.977 5.473-6.625 5.473-7.973 0-1.262-.598-1.891-1.766-1.891-.648 0-1.242.18-1.766.539a5.778 5.778 0 0 1-.718.434.567.567 0 0 0-.25-.145c.035-.125.105-.468.195-1.027.594-2.734 1.945-4.101 4.106-4.101 1.781 0 2.679 1.113 2.679 3.363Z" style="fill:#ffb000;fill-rule:nonzero" transform="matrix(-.94065 .3435 -.3435 -.94065 463.364 492.707)"/><path d="M113.113 389.379c0 1.656-.683 3.547-2.054 5.672-1.403 2.215-3.204 4.101-5.418 5.668-.879.613-1.403.937-1.567.937-.035 0-.035-.019-.035-.054 0-.125.359-.614 1.117-1.422 3.637-3.977 5.473-6.625 5.473-7.973 0-1.262-.594-1.891-1.766-1.891-.648 0-1.242.18-1.761.539a5.99 5.99 0 0 1-.723.434.55.55 0 0 0-.25-.144c.035-.125.105-.469.195-1.028.598-2.734 1.946-4.101 4.106-4.101 1.781 0 2.683 1.113 2.683 3.363Z" style="fill:#ffb000;fill-rule:nonzero" transform="translate(-67.844 -357.67) scale(1.40135)"/><path d="M61.273 396.398c.918 0 1.762-.394 2.59-1.187.937-.899 1.406-2.035 1.406-3.402 0-1.512-.848-2.25-2.539-2.25-.738 0-1.387.218-1.945.683 0-.879.613-2.25 1.855-4.101 1.098-1.731 2.215-3.098 3.313-4.106.269-.305.34-.558.25-.793-.071-.195-.25-.195-.539-.035-1.442.863-2.969 2.52-4.59 4.934-1.856 2.699-2.774 5.019-2.774 6.984 0 2.176.993 3.273 2.973 3.273Z" style="fill:#ffb000;fill-rule:nonzero" transform="matrix(1.14393 0 0 1.14393 70.195 -79.748)"/><path d="M91.351 426.875c0 1.656-.687 3.543-2.055 5.668-1.402 2.215-3.203 4.105-5.418 5.672-.882.609-1.402.933-1.566.933-.035 0-.035-.015-.035-.054 0-.125.359-.61 1.117-1.422 3.637-3.977 5.473-6.621 5.473-7.973 0-1.258-.594-1.89-1.766-1.89-.648 0-1.242.179-1.762.543-.379.25-.632.394-.722.429a.595.595 0 0 0-.25-.144c.035-.125.105-.469.195-1.024.594-2.738 1.945-4.105 4.106-4.105 1.781 0 2.683 1.117 2.683 3.367Z" style="fill:#ffb000;fill-rule:nonzero" transform="translate(-42.186 -671.191) scale(1.81655)"/><path d="M91.351 426.875c0 1.656-.687 3.543-2.055 5.668-1.402 2.215-3.203 4.105-5.418 5.672-.882.609-1.402.933-1.566.933-.035 0-.035-.015-.035-.054 0-.125.359-.61 1.117-1.422 3.637-3.977 5.473-6.621 5.473-7.973 0-1.258-.594-1.89-1.766-1.89-.648 0-1.242.179-1.762.543-.379.25-.632.394-.722.429a.595.595 0 0 0-.25-.144c.035-.125.105-.469.195-1.024.594-2.738 1.945-4.105 4.106-4.105 1.781 0 2.683 1.117 2.683 3.367Z" style="fill:#ffb000;fill-rule:nonzero" transform="matrix(.7913 .38323 -.38323 .7913 263.985 -303.11)"/><path d="M91.351 426.875c0 1.656-.687 3.543-2.055 5.668-1.402 2.215-3.203 4.105-5.418 5.672-.882.609-1.402.933-1.566.933-.035 0-.035-.015-.035-.054 0-.125.359-.61 1.117-1.422 3.637-3.977 5.473-6.621 5.473-7.973 0-1.258-.594-1.89-1.766-1.89-.648 0-1.242.179-1.762.543-.379.25-.632.394-.722.429a.595.595 0 0 0-.25-.144c.035-.125.105-.469.195-1.024.594-2.738 1.945-4.105 4.106-4.105 1.781 0 2.683 1.117 2.683 3.367Z" style="fill:#ffb000;fill-rule:nonzero" transform="matrix(-.7954 -.37466 .37466 -.7954 114.405 431.752)"/><path d="M56.773 423.398c.918 0 1.762-.394 2.59-1.187.937-.899 1.406-2.035 1.406-3.402 0-1.512-.848-2.25-2.539-2.25-.738 0-1.387.218-1.945.683 0-.879.613-2.25 1.855-4.101 1.098-1.731 2.215-3.098 3.313-4.106.269-.305.34-.558.25-.793-.071-.195-.25-.195-.539-.035-1.442.863-2.969 2.52-4.59 4.934-1.856 2.699-2.774 5.019-2.774 6.984 0 2.176.993 3.273 2.973 3.273Z" style="fill:#ffb000;fill-rule:nonzero" transform="translate(166.832 -260.019) scale(1.25485)"/><path d="M113.023 430.906c.918 0 1.762-.398 2.59-1.187.938-.903 1.407-2.035 1.407-3.403 0-1.511-.848-2.25-2.54-2.25-.738 0-1.386.215-1.945.684 0-.883.613-2.25 1.856-4.105 1.097-1.727 2.214-3.094 3.312-4.102.27-.309.34-.559.25-.793-.07-.199-.25-.199-.539-.035-1.441.863-2.969 2.519-4.59 4.93-1.855 2.699-2.773 5.023-2.773 6.984 0 2.18.992 3.277 2.972 3.277Z" style="fill:#ffb000;fill-rule:nonzero" transform="translate(-22.561 -196.347) scale(1.14405)"/><path d="M62.496 366.539c.089-.199.199-.344.289-.453.105-.051.144-.035.144.055.035.089.035.254 0 .488-.867 4.785-2.304 7.18-4.285 7.18-2.125 0-3.168-1.762-3.168-5.274 0-4.336 1.242-8.875 3.742-13.625.633-1.172.992-1.781 1.137-1.801.016 0 .035.02.035.036 0 .234-.18.902-.539 2.015-1.621 4.953-2.43 8.406-2.43 10.387 0 2.699.719 4.07 2.196 4.07.843 0 1.797-1.027 2.879-3.078Z" style="fill:#ffb000;fill-rule:nonzero" transform="translate(217.695 -154.659) scale(1.25485)"/><path d="M84.257 397.281c.09-.234.2-.379.289-.449.071-.055.125-.035.145.055.035.09.035.25 0 .484-.219 1.856-.758 3.512-1.586 4.988-.828 1.457-1.727 2.196-2.699 2.196-1.082.015-1.891-.524-2.449-1.676-.539-1.133-.793-2.664-.719-4.59.09-2.34.808-5.344 2.14-9.016 1.137-3.132 2.145-5.328 3.024-6.589.558-.758.883-1.153.973-1.168.035.125-.106.554-.43 1.312-1.965 4.356-3.188 8.387-3.672 12.059-.074.414-.09.847-.09 1.261 0 2.934.719 4.336 2.195 4.211.883-.109 1.836-1.132 2.879-3.078Z" style="fill:#ffb000;fill-rule:nonzero" transform="translate(-78.895 -414.62) scale(1.81655)"/><path d="M105.695 450.148c1.711 0 3.438 1.657 5.168 4.969 1.567 3.039 2.645 6.426 3.274 10.168.054.36.09.559.09.629.074.09.109.09.144 0 .035-.07.125-.269.254-.629.449-3.223 1.332-7.469 2.629-12.762 1.238-2.953 2.59-4.429 4.047-4.429.758 0 1.496.508 2.25 1.515.648.879.972 1.582.972 2.141 0 .434-.109.973-.339 1.656-.289.918-.633 1.367-1.028 1.367-.164 0-.523-.339-1.062-1.043-.559-.703-1.133-1.043-1.711-1.043-1.203 0-2.574 4.211-4.102 12.633-.488 2.684-1.027 4.575-1.621 5.672-.414.754-.773 1.133-1.062 1.133-.27 0-.395-.34-.395-1.023 0-1.118-.703-3.766-2.09-7.922-1.437-4.301-2.394-6.446-2.879-6.446-.359 0-.593.11-.683.344-.11.215-.399.34-.883.34-.559 0-1.277-.414-2.18-1.223-.898-.808-1.332-1.476-1.332-1.961 0-.214.364-.953 1.117-2.214.758-1.262 1.223-1.872 1.422-1.872Z" style="fill:#ffb000;fill-rule:nonzero" transform="matrix(1.36027 0 0 1.36027 -63.014 -472.196)"/><path d="M379.801 326.363c0-3.187-.504-5.761-1.477-7.707 0-1.312.899-4.031 2.735-8.152.379-.918.812-.899 1.261.035.524 1.117 1.727 4.176 3.618 9.18 1.98 5.222 3.152 8.441 3.472 9.683.254.868.399 1.551.399 2 0 1.493-1.407.629-4.176-2.593-.324-.395-.488-.18-.488.632 0 .305 1.027 14.508 3.062 42.606 2.031 28.113 3.059 43.414 3.059 45.879 0 7.652-1.168 14.328-3.473 20.019-.488 1.188-.883 2.032-1.188 2.555-.453.738-.722.828-.828.289-.129-.559-.074-1.785.161-3.672.289-2.613.449-5.652.449-9.129 0-3.058-1.098-20.086-3.293-51.047-2.196-30.976-3.293-47.843-3.293-50.578Z" style="fill:#ffb000;fill-rule:nonzero" transform="translate(-298.116 -439.532) scale(1.81655)"/><path d="M304.523 351.094c0-3.149-.484-5.742-1.457-7.758 0-1.277.899-3.977 2.719-8.102.395-.918.828-.898 1.278.039.523 1.114 1.726 4.176 3.597 9.18 2 5.219 3.153 8.422 3.477 9.629.25.918.394 1.602.394 2.051 0 1.441-1.386.578-4.156-2.59-.324-.453-.488-.254-.488.594 0 .285.867 12.402 2.629 36.324 1.765 23.937 2.644 37.133 2.644 39.598 0 7.562-1.168 14.238-3.508 20.035-.488 1.172-.882 2.015-1.172 2.539-.464.738-.738.828-.828.285-.14-.555-.089-1.781.145-3.672.289-2.609.433-5.633.433-9.09 0-3.078-.953-18.015-2.863-44.82-1.906-26.781-2.844-41.543-2.844-44.242Z" style="fill:#ffb000;fill-rule:nonzero" transform="translate(-300.538 -440.138) scale(1.81655)"/><path d="M296.82 424.535c0 6.047-1.367 10.637-4.105 13.77-4.301 5.004-10.617 9.863-18.934 14.543-10.551 5.867-20.379 8.8-29.484 8.8-12.242 0-20.664-5.992-25.289-17.98-.903-2.34-1.352-5.328-1.352-8.981 0-2.414.18-4.843.574-7.328.594-3.636 1.407-6.839 2.45-9.574.324-.828.648-1.262.972-1.262.325 0 .395.559.2 1.657a458.592 458.592 0 0 0-1.172 5.074c-.649 3.008-.973 5.223-.973 6.644 0 4.95 1.656 9.504 4.969 13.661 4.5 5.546 11 8.316 19.531 8.316 7.469 0 15.406-1.762 23.813-5.273 6.769-2.809 12.851-6.317 18.253-10.547 4.875-3.782 7.325-6.481 7.325-8.102 0-.269-1.008-2.375-3.024-6.351-2.414-4.684-4.211-9.254-5.383-13.684-.449-1.492-.988-2.5-1.601-3.023-.613-.52-.918-1.063-.918-1.657 0-.449.449-2.859 1.351-7.215.141-.793.34-1.171.594-1.171.27 0 .594.179.973.574 1.238 1.371 3.902 4.07 8.008 8.101.648.668.972 1.188.972 1.567 0 .468-.379.683-1.172.683-.843 0-2.105-.25-3.796-.773.125.523 1.496 3.383 4.086 8.586 2.089 4.23 3.132 7.883 3.132 10.945Z" style="fill:#ffb000;fill-rule:nonzero" transform="translate(-302.112 -439.895) scale(1.81655)"/><path d="M259.883 412.457c-.145-.09-.145-.289 0-.578l3.113-6.406c.199-.399.414-.578.633-.578.324 0 1.726.847 4.211 2.539 2.465 1.691 3.707 2.683 3.707 2.968 0 1.118-1.098 3.422-3.274 6.95-.269.449-.543.558-.828.343a101.438 101.438 0 0 0-7.562-5.238ZM346.41 405.437l2.485-5.132c.199-.395.414-.575.648-.575.324 0 1.711.844 4.191 2.54 2.469 1.691 3.711 2.679 3.711 2.968 0 1.117-1.097 3.418-3.277 6.93-.254.434-.539.539-.828.34a151.382 151.382 0 0 0-7.274-5.02c-.918 2.051-1.796 3.797-2.679 5.239-.254.449-.539.558-.828.339a104.127 104.127 0 0 0-7.563-5.238c-.141-.09-.141-.285 0-.574l3.117-6.41c.196-.395.414-.574.629-.594.305.02 1.492.703 3.563 2.109 2.09 1.403 3.457 2.43 4.105 3.078Z" style="fill:#ffb000;fill-rule:nonzero" transform="translate(-298.116 -439.532) scale(1.81655)"/><path d="M340.254 390.461a4.326 4.326 0 0 0 .144-2.035c-.144-.758-.488-1.117-1.027-1.117-.25 0-.609.128-1.043.359-.449.254-.683.488-.683.723 0 .539.882 1.242 2.609 2.07Zm-1.332 3.039c-2.18-1.133-3.277-2.32-3.277-3.563 0-1.492.703-2.863 2.07-4.105 1.387-1.242 2.539-1.707 3.457-1.367.773.269 1.152 1.098 1.152 2.484 0 1.242-.254 2.645-.773 4.196 1.097.628 1.801 1.168 2.07 1.601 0 .594-.488 1.582-1.476 2.988-.27-.433-.938-.972-2-1.621-1.223 1.692-2.77 3.242-4.641 4.625-2.125 1.567-4.09 2.754-5.871 3.547-.36.18-2.43.973-6.172 2.36-.594.214-.973.324-1.172.324-.09 0-.125-.035-.125-.074 0-.145.324-.43.973-.844 2.769-1.641 5.543-3.297 8.332-4.969 3.332-2.016 5.816-3.871 7.453-5.582Z" style="fill:#ffb000;fill-rule:nonzero" transform="matrix(2.35149 0 0 2.35149 -482.54 -669.878)"/><path d="M329.957 430.293c0 1.316-.449 2.574-1.348 3.762-.957 1.297-2.089 1.945-3.367 1.945-1.332 0-2-.648-2-1.945 0-.934.524-2.305 1.567-4.086 1.062-1.801 1.964-2.68 2.718-2.68.649 0 1.227.285 1.711.844.469.578.719 1.297.719 2.16Zm-1.152 1.477c0-1.208-.844-1.817-2.5-1.817-.235 0-.629.375-1.188 1.133-.558.773-.828 1.297-.828 1.601.195.434.809.649 1.871.649 1.766 0 2.645-.524 2.645-1.566Z" style="fill:#ffb000;fill-rule:nonzero" transform="translate(-681.946 -957.227) scale(2.99836)"/><path d="M317.035 322.832c1.313 0 1.981.633 1.981 1.926 0 .687-.18 1.406-.543 2.144-.235.504-.828 1.313-1.782 2.465-1.367 1.567-2.265 2.664-2.734 3.313-.773 1.027-1.227 1.547-1.352 1.547-.015 0-.035-.036-.035-.071 0-.125.125-.469.36-1.062.523-1.297 1.351-2.594 2.539-3.942.664-.738 1.367-1.496 2.07-2.25-.269-.648-.684-.972-1.277-.972-.414 0-.938.144-1.532.449-5.957 3.023-11.699 4.555-17.226 4.555-3.043 0-5.797-.664-8.262-1.981.36 1.152.235 2.52-.379 4.141-.234.629-.394.972-.504.988-.054 0-.089-.395-.089-1.168 0-1.441-.235-2.684-.684-3.727-.055-.125-.809-1.261-2.231-3.367.235-1.457.594-2.175 1.079-2.175.054 0 .414.25 1.097.773a15.186 15.186 0 0 0 2.485 1.656c2.504 1.313 5.257 1.981 8.226 1.981 3.133 0 6.156-.45 9.071-1.352 1.71-.539 3.746-1.387 6.101-2.539 1.856-.898 3.063-1.332 3.621-1.332Z" style="fill:#ffb000;fill-rule:nonzero" transform="translate(-294.785 -440.138) scale(1.81655)"/><path d="M251.207 421.418c0 .613-.773 1.98-2.305 4.141-1.746 2.414-3.398 4.195-4.964 5.312-1.008.699-4.34 1.816-10.008 3.313-1.008.25-1.516.339-1.516.285.074-.106.414-.395 1.047-.883.738-.574 2.754-1.707 6.047-3.453 3.168-1.676 5.023-2.754 5.562-3.223.09-.109.145-.199.145-.289 0-.754-2.828-1.117-8.442-1.117-.019 0-1.097.039-3.242.129-1.023.054-1.527-.02-1.527-.199 0-.145.125-.434.375-.883l2-3.383c.594-.992 1.656-1.602 3.203-1.871.559-.09 1.856-.129 3.906-.129 6.481 0 9.719.738 9.719 2.25Z" style="fill:#ffb000;fill-rule:nonzero" transform="translate(-298.116 -439.532) scale(1.81655)"/><path d="M238.609 295.203c19.403-7.289 39.184-14.742 59.379-22.336.379-.129.598-.18.668-.129.09.074.071.27-.07.594-.414 1.009-.758 1.621-1.012 1.855-18.554 6.95-38.609 14.688-60.152 23.219.23-.988.629-2.051 1.187-3.203Z" style="fill:#ffb000;fill-rule:nonzero" transform="translate(-290.244 -447.214) scale(1.81655)"/><path d="M280.043 308.129c.668.375.992.828.992 1.332 0 .359-.164.699-.488 1.023-.934.938-1.512 1.352-1.746 1.227.019-.324-.305-.848-.953-1.586-.45-.25-1.657-.324-3.618-.199-2.089.109-3.781.414-5.058.918-.434.164-.629.343-.649.558.02.379.704.957 2.09 1.746 1.043.614 2.41 1.227 4.067 1.821 1.675.593 2.683 1.008 3.058 1.203 2.055 1.207 3.008 2.574 2.848 4.125-.094.933-.688 1.871-1.785 2.808-.988.844-1.672 1.223-2.051 1.133-5.977-1.441-10.152-2.863-12.582-4.265-1.996-1.172-3.008-2.828-3.008-4.989 0-.394.039-.773.129-1.113.594 1.063 1.961 2.231 4.121 3.473.918.539 3.223 1.457 6.949 2.734 3.313 1.152 5.364 1.82 6.157 2.016.285-1.114-.758-2.356-3.133-3.742-1.641-.575-3.891-1.532-6.75-2.844-1.836-1.082-2.774-2.035-2.774-2.879 0-.684.629-1.422 1.871-2.215 2.954-1.91 6.032-2.844 9.235-2.844 1.387 0 2.414.18 3.078.559Z" style="fill:#ffb000;fill-rule:nonzero" transform="translate(-296.905 -437.716) scale(1.81655)"/><path d="M249.426 401.727c11.609-4.336 23.633-8.801 36.054-13.426.379-.129.594-.18.665-.129.089.074.074.273-.071.598-.414 1.023-.758 1.652-1.027 1.851-.125.145-5.902 2.34-17.317 6.606-11.644 4.339-18.14 6.894-19.492 7.707.235-.973.629-2.036 1.188-3.207Z" style="fill:#ffb000;fill-rule:nonzero" transform="translate(-298.116 -439.532) scale(1.81655)"/><path d="M239.004 348.59c0 .613-.774 1.98-2.305 4.14-1.746 2.415-3.402 4.196-4.969 5.313-1.007.699-4.335 1.816-10.007 3.312-1.008.25-1.512.34-1.512.286.074-.106.414-.395 1.047-.883.734-.574 2.754-1.707 6.047-3.453 3.168-1.676 5.019-2.754 5.562-3.223.09-.109.145-.199.145-.289 0-.754-2.828-1.117-8.446-1.117-.015 0-1.097.039-3.238.129-1.027.054-1.531-.02-1.531-.2 0-.144.129-.433.379-.882l2-3.383c.594-.988 1.652-1.602 3.203-1.871.559-.09 1.851-.129 3.906-.129 6.481 0 9.719.738 9.719 2.25Z" style="fill:#ffb000;fill-rule:nonzero" transform="scale(1.41866) rotate(20.563 809.448 -164.14)"/><path d="M208.422 354.152c.703 0 1.691.489 2.969 1.496 1.281.989 1.964 1.852 2.089 2.575.016.195-.144.683-.503 1.457-.344.793-.594 1.207-.739 1.261-1.133.325-2.285.629-3.437.934-1.422.469-2.414 1.027-2.988 1.656 1.601 4.824 2.41 9.594 2.41 14.309 0 1.387-.16 2.793-.465 4.23-.129.489-.219.739-.289.774-.125 0-.199-.824-.199-2.465 0-2.719-.415-5.992-1.207-9.828-.79-3.832-1.188-6.028-1.188-6.606 0-1.89.539-3.293 1.602-4.175.523-.434 1.496-.848 2.918-1.278-.579-.578-1.133-.863-1.676-.863-.27 0-.629.305-1.098.918-.469.609-.738.918-.808.918-.11 0-.145-.254-.11-.774.344-3.027 1.242-4.539 2.719-4.539Z" style="fill:#ffb000;fill-rule:nonzero" transform="rotate(50.755 964.08 131.795) scale(2.32185)"/><path d="M401.363 342.453c0 2-.828 4.266-2.465 6.805-1.675 2.664-3.851 4.933-6.5 6.804-1.058.739-1.671 1.114-1.871 1.114-.035 0-.054-.035-.054-.071 0-.144.453-.718 1.332-1.691 4.375-4.769 6.57-7.957 6.57-9.559 0-1.531-.699-2.285-2.121-2.285-.777 0-1.477.215-2.109.649-.465.304-.754.484-.864.519a.84.84 0 0 0-.304-.16c.054-.164.125-.578.234-1.242.719-3.277 2.355-4.914 4.93-4.914 2.144 0 3.222 1.332 3.222 4.031Z" style="fill:#ffb000;fill-rule:nonzero" transform="translate(-297.51 -439.532) scale(1.81655)"/><path d="M328.375 460.859c1.816 0 3.453 1.078 4.895 3.239 1.457 2.16 2.464 4.984 3.058 8.476.055.363.094.578.094.633.07.105.105.105.141 0 .039-.055.109-.27.253-.633.289-2.086 1.008-5.199 2.141-9.324 1.242-2.969 2.594-4.445 4.051-4.445.758 0 1.496.504 2.25 1.511.648.883.972 1.586.972 2.145 0 .43-.109.988-.343 1.672-.285.902-.629 1.367-1.024 1.367-.164 0-.523-.359-1.082-1.059-.539-.703-1.117-1.046-1.711-1.046-1.293 0-2.5 3.078-3.597 9.218-.489 2.68-1.028 4.571-1.621 5.668-.414.758-.774 1.133-1.063 1.133-.269 0-.394-.34-.394-1.023 0-1.082-.614-3.168-1.856-6.282-1.242-3.117-2.105-4.664-2.629-4.664-.359 0-.594.11-.683.344-.106.215-.395.34-.879.34-.559 0-1.282-.414-2.18-1.223-.898-.812-1.332-1.476-1.332-1.961 0-.218.359-.957 1.117-2.215.754-1.261 1.223-1.871 1.422-1.871Z" style="fill:#ffb000;fill-rule:nonzero" transform="translate(-297.813 -439.835) scale(1.81655)"/><path d="M394.848 370.066c1.242 0 2.484 1.188 3.726 3.582 1.117 2.176 1.906 4.606 2.36 7.309.035.25.07.414.07.449.035.071.07.071.109 0 .016-.035.071-.199.16-.449.344-2.324.973-5.383 1.911-9.18.879-2.125 1.851-3.187 2.914-3.187.539 0 1.082.359 1.621 1.078.469.633.703 1.152.703 1.551 0 .304-.094.699-.254 1.187-.215.664-.449.989-.738.989-.125 0-.379-.25-.774-.754-.394-.489-.808-.739-1.222-.739-.868 0-1.856 3.024-2.954 9.09-.359 1.926-.738 3.278-1.171 4.086-.305.539-.555.809-.774.809-.18 0-.269-.25-.269-.739 0-.808-.504-2.699-1.512-5.703-1.027-3.097-1.727-4.629-2.07-4.629-.27 0-.43.075-.504.235-.071.164-.27.254-.629.254-.399 0-.918-.309-1.567-.883-.629-.594-.953-1.063-.953-1.402 0-.165.27-.704.789-1.606.543-.898.883-1.348 1.028-1.348Z" style="fill:#ffb000;fill-rule:nonzero" transform="translate(-298.419 -439.532) scale(1.81655)"/><path d="M399.023 411.52c1.098 0 2.125-.469 3.098-1.422 1.133-1.078 1.707-2.45 1.707-4.086 0-1.801-1.023-2.7-3.039-2.7-.902 0-1.691.27-2.359.829.019-1.063.758-2.7 2.23-4.934 1.332-2.07 2.664-3.707 3.981-4.914.324-.359.414-.664.304-.934-.09-.234-.304-.254-.648-.054-1.727 1.043-3.563 3.023-5.508 5.902-2.23 3.242-3.328 6.031-3.328 8.387 0 2.613 1.187 3.926 3.562 3.926Z" style="fill:#ffb000;fill-rule:nonzero" transform="translate(-297.813 -439.23) scale(1.81655)"/><path d="M268.883 464.457c0 1.656-.684 3.547-2.051 5.672-1.402 2.211-3.203 4.101-5.418 5.668-.883.613-1.402.937-1.567.937-.035 0-.035-.019-.035-.054 0-.125.36-.614 1.118-1.422 3.633-3.977 5.468-6.625 5.468-7.973 0-1.262-.593-1.89-1.761-1.89-.649 0-1.242.179-1.766.539-.379.253-.629.394-.719.433a.559.559 0 0 0-.254-.144c.039-.129.11-.469.199-1.028.594-2.734 1.946-4.105 4.106-4.105 1.781 0 2.68 1.117 2.68 3.367Z" style="fill:#ffb000;fill-rule:nonzero" transform="translate(-301.446 -438.018) scale(1.81655)"/><path d="M1504.12 1867.65v-.05c12.98 0 25.58-5.03 37.81-15.08 3.51-3.01 5.32-13.8 5.32-32.55 0-11.41-6.07-100.8-18.15-268.13-12.07-167.4-18.08-258.16-18.08-272.25 0-13.05-2.31-23.78-6.9-32.18 0-4.86 3.82-16.13 11.55-33.74.83-2.18 1.65-3.24 2.48-3.24.83 0 1.8 1.06 2.93 3.24 2.16 4.87 7.27 17.61 15.3 38.25 8.32 21.66 13.26 35.09 14.92 40.27.83 3.82 1.27 6.67 1.27 8.54 0 5.94-5.78 2.33-17.17-11.02-1.35-1.87-2.02-1.04-2.02 2.48 0 .83 5.7 80.11 17.09 237.82 11.41 157.8 17.11 243.46 17.11 257.04 0 39.28-7.05 70.26-21.16 92.77-12 18.98-26.09 28.5-42.3 28.5v-.07l-.07.07c-15.07 0-30.45-6.61-46.2-19.81-8.4-7.05-15-14.62-19.73-22.79l-44.7 18.96-.14-.07v.01c-20.85 8.92-36.46 15.9-46.73 20.77-20.33 9.46-34.34 17.17-41.93 23.17-13.95 10.88-34.2 31.66-60.82 62.26-15.82 18.29-31.8 27.52-47.77 27.52-13.43 0-25.13-6.07-35.18-18.14-10.57-12.6-15.83-27.98-15.83-46.21 0-25.05 10.28-57.75 30.91-98.01 2.16-4.22 3.82-6.32 5.03-6.32.58.16.81.68.81 1.58 0 4.13-4.42 18.14-13.43 42.24-8.92 24.07-13.34 43.11-13.34 57.06 0 10.72 2.47 19.27 7.5 25.65 5.26 6.9 12.68 10.43 22.12 10.43 16.73 0 33.61-8.56 50.7-25.5 10.8-12.91 21.68-25.74 32.48-38.63 14.1-15.9 32.62-30.07 55.57-42.53 13.43-7.35 36.75-18 69.91-31.95v.12l.14-.12 33.08-14.03c-4.72-12.97-7.05-26.23-7.05-39.66 0-20.33 3-36.69 9-49.06 6.07-12.3 14.03-18.44 23.93-18.44 8.77 0 17.02 7.28 24.75 21.98 6.89 12.97 10.42 24.82 10.42 35.4 0 26.83-7.88 48.89-23.62 66.06 11.17 11.56 24.52 17.34 40.12 17.34l.07.05Zm-26.92-65.99c0-4.49-3.52-11.39-10.42-20.77-7.58-10.06-14.18-15.01-19.73-15.01-4.2 0-8.33 2.56-12.38 7.74-4.04 5.09-6.07 9.97-6.07 14.61 0 3.91 2.18 10.81 6.67 20.56 3.83 8.54 6.76 14.32 8.93 17.25 5.7-2.7 12.23-6.52 19.57-11.55 8.93-5.99 13.43-10.27 13.43-12.83Z" style="fill:#ffb000;fill-rule:nonzero" transform="translate(-298.116 -439.532) scale(.43597)"/><path d="M421.738 435.191c.129-.273.235-.453.364-.523.07-.09.125-.074.16.055.054.105.054.304 0 .574-.27 2.234-.899 4.23-1.891 5.976-1.008 1.766-2.086 2.645-3.258 2.645-1.277.039-2.265-.629-2.933-1.996-.664-1.367-.953-3.203-.864-5.508.11-2.844 1.207-7.039 3.278-12.547 1.797-4.84 3.347-8.262 4.679-10.297.594-.898.969-1.367 1.168-1.402.036.144-.125.684-.519 1.566-2.938 6.536-4.824 11.809-5.692 15.821-.359 1.601-.519 3.062-.519 4.34 0 1.8.324 3.148.988 4.05.504.739 1.028 1.043 1.586.934 1.133-.234 2.285-1.457 3.453-3.688Z" style="fill:#ffb000;fill-rule:nonzero" transform="matrix(.99312 0 0 .99312 -141.739 1.94)"/></g></svg>