<svg xmlns="http://www.w3.org/2000/svg" id="svg2" style="fill-rule:evenodd" xml:space="preserve" version="1.0" viewBox="0 0 210 297" width="1168.802" height="1010.003"><defs id="defs4"><style id="style6" type="text/css">.fil4{fill:none}.fil1{fill:#ef7900}.fil3{fill:#fff}.fil0,.fil2{fill:#ef7900;fill-rule:nonzero}.fil2{fill:#fff}</style></defs><g id="g8277"><g id="g6144"><path id="path13" style="fill:#336747;fill-rule:nonzero;fill-opacity:1" d="m101.668 7.44-.472.028c-19.546.529-39.614 2.919-60.284 7.026-20.66 4.105-41.937 9.929-63.84 17.272l-1.36.444.056.083c-37.573 11.952-36.639 16.303-22.742 47.734 1.307 2.386 2.645 4.815 3.998 7.275.56 2.184 1.308 4.284 2.25 6.22a27.175 27.175 0 0 0 1.832 3.22 22.144 22.144 0 0 0 2.194 2.806h.028c.213.23.468.419.749.555 1.85 3.343 3.75 6.723 5.665 10.163.684 2.8 1.656 5.5 2.916 7.97a30.29 30.29 0 0 0 1.833 3.08 25.8 25.8 0 0 0 2.138 2.78l.11.14c.354.39.814.66 1.306.8 1.14 2.05 2.286 4.12 3.443 6.2.575 4.18 1.788 8.23 3.666 11.85.504.98 1.04 1.91 1.638 2.81.6.9 1.246 1.78 1.944 2.61l.055.05c.73.86 1.876 1.19 2.944.95h.027c.005-.01.023-.03.028-.03 1.84 3.24 3.71 6.5 5.581 9.77.77 3.88 2.113 7.62 4.054 11.03a33.54 33.54 0 0 0 1.61 2.58c.592.84 1.232 1.65 1.889 2.42a3.104 3.104 0 0 0 2.25 1.08c1.814 3.16 3.64 6.32 5.47 9.5.603 4.49 1.992 8.88 4.304 12.85.46.79.972 1.56 1.5 2.31.529.75 1.087 1.47 1.694 2.19v.03c.786.93 2.023 1.28 3.165 1.03h.028c2.925 5.02 5.838 10.05 8.775 15.05v.02c.057.4.124.81.194 1.2.748 4.17 2.217 8.25 4.498 11.99.438.72.903 1.43 1.417 2.14.5.7 1.033 1.4 1.61 2.08h.028c.81.96 2.06 1.38 3.22 1.14a3695.455 3695.455 0 0 0 21.855 36.38c3.947 6.56 7.584 10.3 15.828 5.72 6.162-3.1 12.398-6.18 18.66-9.25 3.797 7.24 7.468 15.84 9.218 21.75.72-2.28 2.95-7.03 3.61-10.25 2.57 3.19 7.37 6.03 9.97 7.47-3.79-6.17-7.52-15.83-12.14-24.19 52.29-25.38 106-49.93 145.31-74.08.32-.18.59-.4.78-.61.04-.05.08-.1.11-.14 1.48-2.05-1.83-5.34-5.58-5-2-6.35.27-15.04 5.72-25.33 1.39-2.61 3.01-5.36 4.81-8.19.8-1.25 1.63-2.53 2.5-3.8 0-.01.02-.02.02-.03 3.06-1.41 6.12-2.81 9.19-4.22l1.12-.5-.62-1.05-.05-.09-.03-.03c-.47-.52-5.33-4.13-13.27-9.99-33.35-24.61-121.59-89.697-158.09-124.68l-.33-.336zm-20.742 3.444c.028-.003.055.002.083 0a292.9 292.9 0 0 1 30.6 8.692c36.36 32.222 100.07 79.857 135.2 105.85v.03c.42 9.42.41 18.87-.08 28.35-17.58 8.22-34.82 16.41-51.79 24.6-24.89 12.01-49.15 23.97-73.05 35.91-25.808-28.94-51.105-58.5-75.173-88.72C22.772 95.532.039 64.816-20.844 33.404c21.309-7.09 42.02-12.74 62.173-16.744 13.45-2.672 26.655-4.604 39.597-5.776zm-107.13 45.845c.03-.002.053.003.084 0 .063-.004.13.004.194 0 .065-.004.129.004.194 0 .068-.003.126.003.195 0 .146-.006.296.003.444 0 .245-.004.5-.004.75 0l.083.028h.028c.032.006.083.019.11.028l.056.028.056.027.056.028v.028h.027v.028a.357.357 0 0 0-.027.028v.027l-.028.056-.028.028-.028.027-.028.028a.918.918 0 0 1-.138.083l-.056.028c-.03.009-.085.02-.111.028a1.353 1.353 0 0 1-.194.028h-.167c-.478-.006-.941 0-1.361.028-.444.028-.862.078-1.277.138-2.158.314-4.037 1.047-5.637 2.11-.296.197-.61.425-.916.667-.29.229-.56.468-.833.722-1.387 1.294-2.542 2.886-3.444 4.665-.168.334-.33.717-.5 1.11-.183.425-.351.785-.471 1.112-.723 1.95-1.191 4.077-1.444 6.275v.028a32.943 32.943 0 0 0-.223 3.61c-.005 1.22.074 2.43.195 3.638.63 6.272 2.934 12.387 6.664 16.383l.028.028v.027l-.028.028v.028l-.028.028-.055.055c-.016.013-.057.038-.083.056l-.084.055c-.017.01-.042.022-.055.028h-.028l-.056.028-.027.028h-.167l-.055.027h-.112l-.055-.027h-.028l-.111-.028-.028-.028h-.027l-.028-.028-.028-.027a.13.13 0 0 0-.028 0v-.028a20.236 20.236 0 0 1-2-2.527 24.762 24.762 0 0 1-1.665-2.944c-2.615-5.375-3.708-12.1-3-18.243.055-.464.104-.908.168-1.305.068-.43.163-.858.249-1.278.442-2.143 1.123-4.184 2.055-6.025a19.696 19.696 0 0 1 1.222-2.111 15.696 15.696 0 0 1 4.304-4.276l.056-.056c.333-.22.69-.427 1.083-.638.366-.198.76-.408 1.166-.583a16.436 16.436 0 0 1 5.22-1.306zm14.468 18.744c.036-.003.074.003.11 0h.223c.078-.005.143.004.222 0 .08-.004.168.003.25 0 .129-.005.258.002.389 0h.111c.03.006.085.02.11.028.024.007.063.018.084.028a.965.965 0 0 1 .056.027c.02.014.063.04.083.056l.028.028.027.027.028.028.028.028.028.028c.009.022.02.064.028.083v.055l.027.056c-.007.007-.026.025-.027.028a.501.501 0 0 0 0 .055v.028l-.028.028v.028l-.028.027v.028l-.028.028a.728.728 0 0 1-.111.11l-.028.029-.027.028-.056.027h-.028a.944.944 0 0 0-.055.028h-.028a1.6 1.6 0 0 1-.222.056h-.167a16.61 16.61 0 0 0-1.416.11c-.48.052-.926.11-1.361.195-2.285.447-4.308 1.355-6.025 2.638v.028c-.367.274-.731.57-1.111.916-.374.339-.734.68-1.055 1.028-1.694 1.834-3.03 4.11-4.027 6.636l-.055.167a28.31 28.31 0 0 0-.556 1.527 30.454 30.454 0 0 0-.444 1.583c-.704 2.697-1.081 5.588-1.111 8.525v.194a40.48 40.48 0 0 0 .139 3.446c.094 1.14.222 2.27.417 3.41.993 5.81 3.307 11.3 6.859 15.28l.027.05c.008.01.022.04.028.06l.028.05v.2l-.028.05v.03c-.005 0-.022.02-.028.03v.03c-.006 0-.026.02-.027.02a.417.417 0 0 1-.056.06c-.006 0-.021.02-.028.03l-.055.05a.154.154 0 0 1-.056.03c-.014.01-.047.02-.055.03-.005 0-.023.02-.028.03-.001-.01-.022 0-.028 0-.01 0-.046.02-.055.02h-.028c-.012.01-.044.02-.056.03-.064.01-.162 0-.222 0-.08 0-.18-.03-.25-.05-.011-.01-.043-.03-.055-.03h-.028c-.022-.02-.06-.04-.083-.06a.082.082 0 0 1-.028-.03c-.003 0-.022-.02-.028-.02l-.111-.11.028-.03c-.71-.81-1.374-1.66-1.972-2.56a27.84 27.84 0 0 1-1.666-2.86c-2.621-5.13-3.948-11.3-3.887-17.297v-.194c.008-.567.045-1.158.083-1.778.035-.591.076-1.166.139-1.75.316-2.943.98-5.78 1.999-8.357v-.028a23.786 23.786 0 0 1 1.416-2.971c1.344-2.41 3.066-4.493 5.193-6.081l.055-.056a16.3 16.3 0 0 1 1.167-.777c.425-.262.83-.5 1.222-.695a16.996 16.996 0 0 1 6.22-1.75zM3.73 96.243c.041-.003.097.004.138 0H4.618a.863.863 0 0 1 .5.167c.02.018.065.063.083.084.012.01.045.043.056.055l.028.056.027.055v.028l.028.055v.195l-.028.055v.028a14.547 14.547 0 0 1-.055.11c-.014.025-.04.062-.056.084a1.06 1.06 0 0 1-.166.167l-.028.028a.975.975 0 0 1-.472.166h-.028c-.52.03-1.038.069-1.527.139-.495.07-.994.167-1.472.278-2.454.569-4.63 1.647-6.553 3.11-.48.365-.944.756-1.389 1.166-.447.417-.894.857-1.305 1.307-2.101 2.31-3.776 5.14-4.998 8.3v.08c-.258.68-.505 1.3-.694 1.89-.201.64-.384 1.3-.556 1.97-.857 3.38-1.234 6.99-1.138 10.58v.09c.029 1.03.087 2.05.194 3.05.109 1.02.255 2.03.445 3.03.977 5.14 3.046 9.95 6.247 13.72l.028.02c.016.03.043.06.056.09.029.06.051.15.055.22 0 .02.002.06 0 .08a.75.75 0 0 1-.25.45l-.055.02a.504.504 0 0 1-.111.09c-.013 0-.044.02-.056.03-.024 0-.084.02-.111.02a.15.15 0 0 1-.055.03.937.937 0 0 1-.5-.03.544.544 0 0 1-.195-.11c-.006 0-.025-.02-.027-.03-.012-.01-.042-.04-.056-.05l-.055-.06a24.707 24.707 0 0 1-1.778-2.38 29.385 29.385 0 0 1-1.527-2.61c-2.407-4.65-3.658-10.06-3.804-15.5v-.08c-.018-.73-.021-1.44 0-2.17.019-.68.049-1.41.111-2.16.299-3.69 1.093-7.28 2.36-10.56.248-.64.537-1.3.833-1.94.297-.64.598-1.25.917-1.83 1.669-3.05 3.833-5.681 6.442-7.667v-.028h.028c.395-.3.818-.594 1.277-.888.451-.29.889-.57 1.333-.806 2.141-1.142 4.485-1.938 7.109-2.193zm17.41 23.303h.029c.006 0 .022-.01.028 0 .01 0 .044-.01.055 0h.084a.209.209 0 0 1 .11 0c.01-.01.047 0 .056 0 .032 0 .083.01.11.02.025.01.062.02.085.03.058.02.135.05.194.08a.15.15 0 0 0 .055.03c.005.01.023.02.028.03.023.02.066.06.084.08.024.03.064.09.083.11l.055.11.028.06c.009.03.022.08.028.11v.06l.028.02v.12l-.028.05v.08l-.028.06-.028.06v.02a.625.625 0 0 0-.027.06l-.056.08c-.005.01-.023.03-.028.03-.004.01-.023.02-.027.03-.005 0-.023.02-.028.03-.005 0-.023.02-.028.02-.006.01-.024.03-.028.03-.021.02-.06.04-.083.06-.01 0-.046.02-.056.02-.037.02-.093.04-.138.06-.07.02-.153.05-.223.06h-.027c-.54.05-1.06.12-1.583.22-.517.09-1.043.22-1.555.36-2.597.71-4.933 1.96-6.998 3.61-.563.45-1.114.91-1.61 1.39-.506.49-.975 1.01-1.445 1.55-2.394 2.77-4.282 6.18-5.581 9.92v.02c-.259.75-.489 1.51-.694 2.25a38.56 38.56 0 0 0-.556 2.31 39.798 39.798 0 0 0-.666 12.3v.03c.098.93.233 1.85.389 2.72.154.86.348 1.75.583 2.66 1.172 4.54 3.238 8.8 6.275 12.33l.028.03c.017.02.04.06.056.08.019.04.042.08.055.11l.028.06v.06c.013.05.025.13.028.19v.11l-.028.06v.05c-.005.01-.023.03-.028.03a1.26 1.26 0 0 1-.055.11c-.003 0-.026.03-.028.03-.02.02-.06.08-.083.11-.007.01-.022.02-.028.03-.006 0-.022.02-.028.03l-.028.02-.027.03a.49.49 0 0 0-.084.06h-.028c-.011 0-.044.02-.055.02a.526.526 0 0 1-.111.06h-.056a.962.962 0 0 1-.86-.22.46.46 0 0 1-.056-.06H6.59a27.097 27.097 0 0 1-1.721-2.25 28.575 28.575 0 0 1-1.528-2.39c-2.411-4.23-3.82-9.03-4.332-13.93v-.03c-.086-.84-.16-1.67-.194-2.5-.035-.85-.044-1.7-.028-2.53.085-4.3.833-8.55 2.194-12.47v-.02c.265-.77.57-1.5.889-2.25.308-.73.659-1.47 1.027-2.2 1.847-3.62 4.257-6.79 7.22-9.16h.027c.442-.35.897-.68 1.361-1 .456-.31.951-.61 1.444-.89 2.459-1.41 5.186-2.35 8.192-2.66zm18.884 26.43h.111c.072.01.16.02.222.03h.028a.47.47 0 0 1 .11.03h.028c.03.01.086.04.11.05.044.02.102.06.14.08.03.03.076.06.11.09.007 0 .027.02.029.03.006 0 .023.02.028.02l.028.06c.003 0 .025.02.027.03.067.1.123.24.139.36v.22l-.027.06c-.008.02-.021.08-.028.11-.12.33-.434.58-.833.64-.587.07-1.152.18-1.694.3-.562.12-1.13.26-1.666.42-2.778.83-5.338 2.21-7.637 4a26.414 26.414 0 0 0-3.526 3.27c-2.81 3.09-5.087 6.88-6.664 11-.301.79-.572 1.62-.834 2.47-.26.84-.497 1.67-.694 2.5-1.03 4.35-1.32 8.92-.75 13.36.102.78.232 1.58.389 2.36.162.8.347 1.59.556 2.33 1.105 3.94 2.987 7.65 5.72 10.88l.028.03v.03c.003 0 .025.02.027.03.005.01.024.04.028.05.007.01.022.05.028.06l.028.05.028.06a.815.815 0 0 0 0 .08l.027.06v.19l-.027.06v.05l-.028.06c-.005.01-.023.05-.028.05a.283.283 0 0 1-.028.06.955.955 0 0 0-.028.06c-.014.02-.038.06-.055.08-.005 0-.023.02-.028.03-.013.01-.042.06-.055.08-.008.01-.025.02-.028.03l-.083.05c-.022.02-.06.04-.084.06a.568.568 0 0 1-.111.05h-.028c-.004.01-.022.03-.027.03h-.028c-.01.01-.046.02-.056.03h-.055c-.371.08-.784-.02-1.028-.31a29.463 29.463 0 0 1-1.582-2.05c-.496-.7-.965-1.41-1.39-2.14-2.198-3.77-3.503-7.94-4.053-12.22v-.02c-.114-.89-.202-1.78-.25-2.7-.05-.92-.072-1.85-.055-2.75.086-4.67 1.034-9.33 2.693-13.66v-.03c.328-.85.68-1.69 1.055-2.5.377-.81.789-1.6 1.222-2.38 2.21-4.01 5.09-7.53 8.525-10.19.475-.37.996-.76 1.527-1.12.524-.35 1.034-.67 1.555-.97 2.726-1.57 5.726-2.63 8.942-3.05v-.03zm219.86 4.14c-.19.29-.37.59-.55.89-1.82 2.85-3.43 5.63-4.86 8.33-6.99 13.19-8.94 24.08-3.75 31.29-.16.14-.38.27-.64.39-2.91 1.38-95.05 47.1-142.45 70.37-3.44-5.4-7.409-9.78-11.801-12.78l-12.58 6.42c2.743.79 5.038-.26 9.109 4.49 1.44 1.69 3.084 4.14 4.748 7-9.907 4.84-16.286 7.93-16.994 8.17-3.744 1.22-6.064-.98-7.525-3.28-16.12-22.25 26.209-41.26 48.843-54.32.3-.15.57-.31.81-.47.04-.03.09-.05.14-.08l.02-.03h.03c24.17-12.07 48.61-24.1 73.48-36.1 20.94-10.1 42.21-20.22 63.97-30.29zm-198.48 26.43h.278l.222.03h.028c.39.11.678.43.749.83h.028v.09c.013.14-.01.31-.055.44a1.39 1.39 0 0 1-.056.11.862.862 0 0 1-.083.14c-.06.08-.14.16-.222.22-.135.1-.32.17-.5.2v.03h-.028c-.607.1-1.196.21-1.777.36-.573.14-1.16.33-1.75.52-2.947.99-5.69 2.54-8.191 4.53h-.028c-.691.55-1.345 1.13-2 1.75-.64.6-1.27 1.26-1.887 1.94-3.117 3.45-5.66 7.62-7.387 12.14v.03a39.686 39.686 0 0 0-1.638 5.44c-1.082 4.75-1.302 9.68-.444 14.47v.02c.132.74.303 1.44.472 2.11.174.7.357 1.39.583 2.09a29.812 29.812 0 0 0 5.553 9.97l.028.05c.003 0 .026.03.028.03.05.07.105.17.139.25.009.02.02.06.028.08.009.04.022.1.027.14V234.776c-.01.06-.038.14-.055.2v.03l-.028.05v.03a1.88 1.88 0 0 1-.055.11l-.056.08-.056.06a.679.679 0 0 1-.111.11l-.027.03h-.028c-.005 0-.023.02-.028.03a1.05 1.05 0 0 0-.14.08c-.004 0-.022.02-.027.03-.076.03-.147.06-.222.08h-.027c-.412.09-.861-.03-1.14-.36v-.03a29.177 29.177 0 0 1-1.498-1.92 32.503 32.503 0 0 1-5.554-13.21v-.03c-.175-.98-.297-1.96-.39-2.94-.091-1-.154-2.01-.165-3-.062-5.12.925-10.25 2.749-15.03.359-.93.752-1.85 1.166-2.74.43-.93.87-1.81 1.333-2.64 2.45-4.43 5.67-8.36 9.44-11.36.52-.41 1.078-.8 1.639-1.19.553-.39 1.098-.77 1.666-1.11 2.929-1.77 6.122-3.02 9.497-3.59z"/><path style="fill:#336747;fill-rule:evenodd;stroke:none;stroke-width:1px;stroke-linecap:butt;stroke-linejoin:miter;stroke-opacity:1;fill-opacity:1" d="m75.665 29.214-8.045 4.022-4.023 17.814 1.724 17.24-19.538 18.963 6.896 24.135 4.597 9.195 13.792 17.24 30.456 4.022 9.769 11.493 22.986 8.62h12.068l4.022-25.86 1.724-11.493 13.217-12.067 14.366-39.651 74.13 56.316 1.724 18.963-10.919 8.045-94.817 45.397-47.695 24.136-26.434-54.017L-2.487 64.842-23.75 33.236l19.538-6.32 34.478-9.77 47.122-6.321-1.724 18.389z" id="path8273"/><path style="fill:#336747;fill-rule:evenodd;stroke:none;stroke-width:1px;stroke-linecap:butt;stroke-linejoin:miter;stroke-opacity:1;fill-opacity:1" d="m90.303 11.484-17.605-1.14-5.852 14.732 16.864 7.586 11.493 1.724 8.62 9.769 11.493 8.045 20.112 4.022 9.195.575 16.09 21.837 13.791 40.225 28.733-23.56-19.538-19.539-25.86-20.112-39.076-32.755-21.565-9.685-6.895-1.724z" id="path8275"/><path style="fill:#336747;fill-opacity:1" d="M68.126 31.388c.407-.012.932.079 1.165.201.263.139.694-.02 1.135-.42.392-.352 1.844-1 3.229-1.437 5.384-1.702 7.632-1.425 9.535 1.175.583.796 1.21 1.4 1.395 1.34.502-.16-1.81-4.303-2.317-4.152-1.002.3.644-.944 1.704-1.288 1.06-.344 1.25-.251 2.2 1.077 2.127 2.971 6.613 6.279 10.41 7.676.752.277 2.41 1.345 3.684 2.374 1.274 1.03 3.81 2.657 5.636 3.617s4.016 2.47 4.868 3.356c4.736 4.921 7.573 6.888 12.234 8.48 3.23 1.102 6.505 1.608 10.111 1.562 1.608-.02 4.411.16 6.23.402 1.82.242 3.708.41 4.196.375.54-.04 1.505.504 2.465 1.389.867.799 2.763 2.2 4.213 3.115l2.637 1.661.63 2.474c.347 1.36 1.053 3.308 1.569 4.329.956 1.89 3.909 5.423 4.88 5.838.294.126 1.02.68 1.612 1.229 1.313 1.217 1.538 3.62.514 5.48-1.064 1.932-.847 4.92.598 8.244 1.506 3.463 1.857 2.832.638-1.145-.687-2.24-.95-5.672-.419-5.455.535.218 4.178 9.922 4.264 11.356.055.923.354 2.613.664 3.755.31 1.143.496 2.917.415 3.944-.102 1.292.25 2.832 1.145 5.002l1.291 3.136-1.93 1.752c-1.06.963-2.648 2.88-3.527 4.258-.902 1.415-2.374 3.049-3.381 3.752-6.26 4.371-9.614 11.54-8.296 17.73.245 1.15.395 2.852.334 3.784-.062.931.068 2.329.287 3.105.22.777.383 2.895.364 4.707-.02 1.812.038 3.442.128 3.622.09.18-.978 1.31-2.374 2.511-1.616 1.391-3.237 3.335-4.46 5.351-1.846 3.042-1.972 3.162-3.227 3.062-1.703-.136-2.238.044-3.688 1.236-.708.583-1.567.99-2.086.99-1.323 0 1.241-1.455 4.196-2.379 2.303-.72 2.412-.81 3.1-2.564.393-1 .65-1.946.57-2.104-.078-.158-.355.392-.615 1.22-.48 1.534-1.322 2.456-1.932 2.118-.185-.104-.036-.87.332-1.702.802-1.817 1.469-5.353 1.363-7.233-.051-.903.32-1.75 1.103-2.518.96-.941 1.072-1.313.597-2.002l-.583-.846-5.969 2.096c-3.282 1.152-8.16 2.787-10.838 3.632-2.678.845-4.835 1.662-4.793 1.815.042.152.186.496.32.763.5.995.714 1.116 1.921 1.08 1.766-.054 1.822.545.102 1.095-1.606.514-2.187.244-3.011-1.397-.48-.956-.522-.965-.825-.176-.462 1.209.632 3.248 1.693 3.154 1.064-.094 3.933-1.197 4.17-1.603.365-.627.91-.513 1.305.274.224.445.618.743.875.66.258-.082.478.06.49.314.012.255.357.525.767.601.41.076 1.006.454 1.325.84.47.57.41.72-.318.802-.625.07-.758.215-.44.477.54.447.661.421 1.475-.314.816-.737 2.766-.114 2.754.88-.008.638-.06.652-.935.246-.51-.235-1.008-.289-1.107-.118-.1.17.31.486.91.702 1.05.378 1.486 1.422.7 1.674-1.082.345-7.12-.681-10.76-1.83-2.274-.717-4.475-1.281-4.89-1.253-1.418.097-3.74-1.399-4.516-2.909-.797-1.549-3.237-4.376-4.454-5.161-.415-.267-1.226-1.097-1.804-1.843-1.408-1.82-4.207-4.149-6.368-5.3-8.594-4.574-14.667-6.35-20.925-6.121-1.354.05-4.432-.025-6.84-.166-3.934-.23-4.613-.396-6.71-1.635-7.402-4.371-11.068-8.606-16.745-19.341-1.779-3.363-3.931-7.414-4.784-9.004-2.688-5.011-3.795-8.716-3.183-10.652.657-2.077.762-4 .369-6.787-.166-1.18-.116-2.82.112-3.648.228-.827.407-2.296.398-3.264-.013-1.284.345-2.154 1.324-3.218.738-.802 1.97-2.455 2.737-3.674.911-1.447 2.289-2.862 3.97-4.08 7.71-5.585 10.526-12.737 7.944-20.183-.56-1.617-.703-3.155-.457-4.932.196-1.42.214-3.552.04-4.738-.209-1.427-.07-2.425.411-2.953 2.16-2.366 4.081-6.412 4.597-9.68.144-.91.296-1.65.338-1.648.043.003.411-.005.819-.017zm9.947 1.835c.084.168.444.212.8.098.669-.214.667-.657-.002-.866-.475-.15-1.003.36-.798.768zm-8.42 2.206c.074.148.815.052 1.647-.214.832-.266 1.469-.57 1.416-.676-.054-.106-.795-.01-1.648.214-.853.224-1.49.528-1.416.676zm11.452-.16c.077.154.39.102.695-.114.305-.217.492-.52.414-.673-.077-.154-.39-.102-.694.114-.305.217-.492.52-.415.673zm-2.711 1.591c.09.178.357.262.595.186.237-.076.358-.284.269-.462-.09-.179-.357-.262-.595-.186-.238.076-.359.284-.27.462zm1.176 1.187c-.502.672-.544.894-.113.6.377-.255.875-.526 1.107-.6.233-.074.246-.233.03-.353-.217-.12-.186-.37.067-.557.253-.185.29-.296.084-.246-.208.05-.736.57-1.175 1.156zm2.575.292c.09.178.312.171.494-.015s.258-.484.169-.662c-.09-.179-.312-.172-.495.014-.182.186-.258.484-.168.663zm-1.817 3.714c-.003.366.173.42.53.166.585-.415.481-1.034-.14-.836-.212.068-.388.37-.39.67zm2.97-.5c-.067.095.385.011 1.005-.187.62-.198 1.176-.552 1.235-.786.099-.386-1.896.48-2.24.972zm-2.026 3.039c-.598.635.084.417 1.08-.345.478-.366.5-.49.067-.366-.36.104-.877.424-1.147.71zm-1.187 1.132c-.057.225.102.343.353.263.252-.08.385-.292.295-.47-.09-.179-.248-.297-.353-.264-.105.034-.238.245-.295.47zm-6.535 2.465c-.436.463-.419.498.158.314.356-.114.868-.442 1.138-.729.436-.463.419-.498-.157-.314-.357.114-.87.442-1.14.729zm13.385-3.368c-.228.512-.134.541.523.165.441-.252.737-.587.658-.745-.22-.437-.869-.118-1.18.58zM71.08 50.786c.183.058.482-.153.664-.469.262-.455.194-.476-.334-.104-.365.258-.513.516-.33.573zm11.835-3.92c.04.078.311.17.604.205.293.034.455-.092.36-.281-.094-.189-.366-.281-.604-.205-.238.076-.4.202-.36.28zm6.271-.829c-.003.325.33.684.74.798.58.16.628.136.219-.111-.29-.175-.4-.606-.242-.958.21-.469.152-.596-.214-.48-.274.088-.5.426-.503.751zm-8.84 3.828c-.134.782-.12.778.886-.208.562-.552.872-1.086.69-1.187-.518-.288-1.424.515-1.575 1.395zm6.598-1.5c.34.114.917-.636.748-.972-.087-.175-.337-.043-.554.293-.217.336-.304.642-.194.679zm-2.8.951c-.109.636-.002.753.527.584.375-.12.522-.493.338-.86-.18-.357-.416-.62-.526-.584-.11.035-.263.422-.338.86zm-7.45 1.889c.456-.052 1.137-.27 1.512-.484.375-.214 0-.172-.83.094-.832.266-1.14.441-.682.39zm14.73-2.124c-.714.39-1.148.463-1.274.212-.125-.249-.488-.192-1.045.164-.47.3-1.082.62-1.359.71-.277.091-.574.57-.659 1.064-.145.843-1.596 2-2.416 1.926-.204-.018-.612.383-.908.892l-.539.925.775-.68c.59-.52 1.02-.652 1.81-.557.75.09 1.268-.058 1.874-.536 1.124-.886 3.431-.666 3.006.287-.356.797.033.897 1.105.284 1.195-.685.555-1.739-1.027-1.691-1.703.051-1.449-.568.4-.97 1.147-.25 1.3-.356.666-.463-.452-.077-1.66.212-2.686.643l-1.863.782 1.06-.885c.583-.487 1.734-1.115 2.559-1.395.824-.28 1.875-.885 2.334-1.343.64-.639.652-.732.052-.397-.432.24-1.271.703-1.866 1.028zm11.032 3.734c-1.773 3.153-2.464 3.99-4.14 5.012-2.5 1.527-5.474 4.057-5.636 4.796-.162.735-1.506 1.14-2.484.746-.43-.173-1.024-.237-1.32-.143-.295.095-1.216.03-2.047-.143l-1.51-.315.105.764c.077.556-.234.873-1.14 1.163-.685.219-1.187.516-1.115.66.072.143.737.006 1.477-.306 2.14-.902 3.503-1.237 3.832-.94.168.152.822.11 1.453-.091l1.148-.367-.758 1.183c-.417.65-.912 1.233-1.1 1.294-.973.317-3.224 1.863-3.093 2.123.088.177.571.005 1.165-.415.558-.394 1.721-.834 2.585-.978 1.301-.218 1.482-.335 1.058-.686-.364-.3-.203-.592.556-1.006.587-.32 1.326-.969 1.64-1.44.315-.472 1.062-1.131 1.66-1.465.597-.333 1.204-.962 1.348-1.397.145-.434.835-1.08 1.535-1.436.699-.355 1.31-.798 1.357-.985.048-.186.39-.347.761-.357.477-.013.795.375 1.087 1.33.381 1.248.489 1.322 1.462 1.01.578-.184 1.347-.242 1.71-.129.48.15.558.05.288-.374-.24-.378-.108-.63.38-.72.413-.076.753-.354.756-.617.003-.347-.515-.297-1.879.18-1.616.566-1.842.567-1.593.01.23-.517.131-.673-.494-.774-.65-.104-.698-.187-.282-.49.275-.201.662-.778.86-1.281.198-.504 1.13-2.224 2.074-3.824 1.787-3.031 1.944-4.334.788-6.541-.676-1.29-.676-1.29-.521.937.13 1.872-.185 2.833-1.973 6.012zm-22.024-.157c.926-.215 1.732-.29 1.792-.166.059.124-.573.738-1.405 1.366-.832.628-1.386 1.18-1.23 1.23.446.139 3.159-1.562 2.999-1.881-.08-.158.2-.506.622-.773 1.357-.859.035-.951-2.247-.157-1.846.643-1.934.706-.531.38zm14.708-3.465c-.813.264-.903.382-.345.452.933.117 2.286-.778 2.227-1.472-.036-.413-.117-.399-.414.075-.203.323-.864.748-1.468.945zm-18.985 5.914c.198.061.576-.046.841-.24.293-.213.152-.257-.36-.112-.462.132-.678.29-.48.352zm-.86 1.552c.089.178.54.204 1 .056.462-.147.887-.452.944-.677.06-.233-.374-.257-1.001-.056-.609.194-1.033.499-.944.677zm20.471-6.168c.194.385.944.145 1.945-.621.607-.465.495-.486-.691-.129-.78.235-1.343.572-1.254.75zm-14.818 7.44c.249.497 1.023-.02 1.016-.677-.004-.36.193-.855.436-1.098.244-.243.36-.608.258-.811-.102-.203-.558.237-1.014.977-.456.74-.769 1.465-.696 1.61zm20.592-7.294c-1.15 2.397-.82 2.611.47.304.492-.882.698-1.54.457-1.463-.242.077-.659.599-.927 1.159zm-4.528 1.337c.09.178.357.262.595.186.238-.076.359-.284.27-.462-.09-.178-.358-.262-.595-.186-.238.076-.36.284-.27.462zm-3.639 2.14c-.002.291.243.45.544.354.59-.188 1.268-1.139 1.08-1.514-.202-.402-1.62.611-1.624 1.16zm-6.857 1.924c.25.497 1.819.123 2.158-.515.268-.504.094-.538-.989-.191-.722.23-1.248.548-1.17.706zm12.498-3.58c-.06.233.141.232.47-.002.64-.455.661-.731.04-.532a.85.85 0 0 0-.51.534zm-9.298 4.445c.255.21.207.86-.107 1.444-.778 1.454-.059 1.546 1.14.147.768-.895.827-1.205.27-1.428-.561-.226-.485-.41.366-.888.987-.554.996-.617.1-.778-1.193-.214-2.502.898-1.769 1.503zm-5.367.812c-.251.562-.09.592 1.108.21 1.207-.386 1.36-.356 1.104.22-.519 1.161.293.917 1.156-.347.801-1.173.796-1.203-.149-.912-.537.165-1.05.154-1.14-.024-.251-.5-1.75.114-2.08.853zm11.588-2.86c-.432.498-1.57 1.543-2.53 2.32-.96.779-1.594 1.462-1.41 1.52.346.108 2.264-1.392 4.944-3.866 1.062-.98 1.268-1.339.661-1.152-.484.149-1.233.679-1.665 1.178zm2.463.662c-2.332 1.253-4.263 2.646-5.932 4.28-.96.941-1.932 1.77-2.16 1.843-.226.073-.34.278-.25.456.276.55 1.02.101 3.21-1.936 1.158-1.078 3.081-2.545 4.274-3.26 2.047-1.228 2.748-2.03 2.984-3.416.055-.328-.158-.135-.475.43-.316.564-1.06 1.285-1.65 1.603zm7.967-.89c.09.178 1.243-.022 2.564-.444 1.492-.477 2.24-.858 1.973-1.007-.237-.131-1.39.069-2.565.444-1.174.375-2.062.828-1.972 1.007zm-17.204 5.687c.43.172 1 .24 1.265.148.265-.092-.003-.26-.596-.374-1.385-.267-1.662-.174-.669.226zm-9.187 3.312c-.003.312-.298.66-.657.775-.413.132-.472.397-.162.72.491.514.078 1.698-.525 1.509-.177-.056-.06.171.258.504.675.705 1.31.565 2.149-.475.467-.58.442-.796-.11-.969-1.072-.335-1.21-.965-.374-1.719.59-.533.895-.613 1.44-.379.824.355 2.782-.03 2.546-.5-.092-.182-.546-.301-1.01-.265-.465.037-1.2.033-1.634-.008-1.21-.114-1.916.183-1.921.807zm25.038-6.052c.184.057.63-.114.99-.38.612-.452.59-.483-.332-.455-.93.03-1.386.607-.658.835zm-30.317 9.245c-.006.717.497.561 1.267-.393.588-.73.58-.739-.331-.459-.512.157-.934.54-.936.852zm37.726-10.116c.507 1.01.989 1.723 1.07 1.584.279-.479-1.14-3.693-1.569-3.556-.232.074-.008.962.5 1.972zm-5.933 1.417c-.297.37-.493.766-.435.88.185.37 1.02-.072 1.414-.75.714-1.223-.021-1.322-.979-.13zm-8.8 2.942c.013.25.332.232.818-.046.438-.25.615-.557.393-.68-.497-.276-1.239.169-1.21.726zM76.233 68.02c-.132.522.869.202 1.513-.483.399-.424.313-.466-.459-.224-.522.164-.996.482-1.054.707zm39.163-11.39c.09.179.608.202 1.153.051.545-.15 1.58-.405 2.3-.565 1.558-.347.776-.696-.906-.405-2.074.36-2.713.59-2.547.92zM85.17 66.769c-.732.696-1.313 1.514-1.292 1.818.03.405.204.308.658-.364.34-.504 1.287-1.23 2.105-1.615.817-.384 1.476-.907 1.463-1.16-.036-.719-1.464-.076-2.934 1.321zm8.982-2.406c-.583.704-1.356 1.48-1.717 1.721-.81.545-.614 1.041.401 1.013.419-.011 1.02-.415 1.338-.896.41-.62 1.254-1.091 2.895-1.616 1.274-.407 2.164-.825 1.979-.928-.506-.281-3.691.824-4.563 1.583-.675.588-.716.585-.355-.025.482-.818 2.766-2.365 3.384-2.293a.511.511 0 0 0 .541-.366c.225-.884-2.855.542-3.903 1.807zm8.606-2.438c.417.832 1.184.55.847-.313-.164-.419-.483-.641-.709-.494-.225.146-.288.51-.138.807zm-21.801 6.653c-1.122.992-2.27 1.453-2.834 1.14-.699-.389-3.13.303-3.43.976-.246.55-.03.522 1.54-.197 1.639-.751 1.77-.763 1.279-.117-.645.85-.185.938 1.559.298 1.939-.71 2.966-1.479 3.112-2.327.159-.925.054-.906-1.226.227zm25.952-7.873c-.763.403-1.52.806-1.682.895-.162.09-.406.22-.543.29-.137.069.142.286.619.483.763.314.76.361-.028.387-.748.025-.786.134-.232.662.86.82.85.819 1.56.314.335-.237.453-.744.263-1.127-.408-.821 1.212-2.363 2.169-2.064.397.124.287.285-.33.482-1.078.345-1.404 1.037-.476 1.011.876-.024 1.627-1.016 1.555-2.053-.05-.724-.175-.794-.774-.437-.392.234-1.338.755-2.1 1.157zm-6.636 2.265c.237.131.613.18.837.109.223-.072.333-.276.244-.455-.09-.178-.466-.227-.837-.108-.37.118-.48.322-.244.454zM59.776 76.218c.183.057.481-.154.663-.47.263-.455.195-.476-.333-.104-.365.258-.513.516-.33.574zm54.114-16.593c.207.412.337.394.697-.1.243-.333.268-.702.054-.821-.548-.305-1.055.316-.75.921zm2.54-1.185c.456-.051 1.137-.269 1.512-.483.375-.215 0-.172-.83.093-.833.266-1.14.442-.683.39zm3.47-.826c.04.078.312.17.605.205.293.034.455-.093.36-.281-.094-.19-.366-.281-.604-.206-.238.076-.4.203-.36.282zM83.314 71.066c.298.166 1.073-.358 2.022-1.368.085-.09-.193-.204-.617-.253-.852-.1-2.038 1.27-1.405 1.621zm-3.852.249c-.003.31.183.505.414.432.23-.074.308-.353.174-.62-.134-.268-.32-.462-.414-.432-.093.03-.172.308-.174.62zm36.164-11.23c.123.245.59.53 1.037.634.64.148 1-.014 1.688-.755.8-.861.795-.94-.053-.922-1.55.034-2.911.565-2.672 1.043zm-15.598 5.179c-.454.78.19.752 1.554-.066.687-.412 1.625-.762 2.084-.777.69-.024.7-.084.066-.346-.862-.356-3.25.41-3.704 1.189zm-4.446 1.527c-.355.564-.549 1.218-.43 1.455.131.261-.292.592-1.08.844-.714.228-1.22.569-1.125.758.284.565 3.35-.812 3.085-1.385-.353-.76.02-1.678.999-2.468.748-.602.755-.679.045-.473-.466.135-1.138.706-1.494 1.27zM89.3 68.555c.437.176.85.224.918.108.187-.32-.731-.741-1.253-.574-.287.091-.16.267.335.466zm-19.971 6.187c.09.178.357.262.595.186.237-.076.358-.284.269-.463-.09-.178-.357-.262-.595-.186-.238.076-.359.284-.27.463zm50.494-14.962c.065.47.526.755 1.418.878 1.232.17 1.342.128 1.632-.628.552-1.44-.038-1.94-1.672-1.418-1.093.35-1.449.651-1.378 1.168zm-4.914 1.803c.423.781.483.794.524.114.062-1.047-.063-1.296-.57-1.134-.237.076-.217.535.046 1.02zM64.905 76.92c.305.607 1.72.304 2.17-.466.407-.7.337-.724-.949-.313-.764.244-1.313.595-1.221.779zm26.949-8.25c.09.178.357.262.594.186.238-.076.36-.284.27-.462-.09-.179-.357-.262-.595-.186-.238.075-.359.284-.27.462zm-12.801 4.468c.18.36.613.556.973.44.782-.249.646-.644-.325-.948-.96-.3-1.027-.248-.648.508zm46.884-14.987c.237.132.624.177.862.101.238-.076.239-.246.002-.377-.236-.131-.624-.177-.862-.1-.238.075-.239.245-.002.376zm-17.715 6.26c-.274.415-1.24 1.083-2.147 1.484-1.547.685-1.654.68-1.759-.077-.099-.717-.21-.741-1.017-.217-.498.324-1.244.703-1.657.841-.413.14-.693.367-.623.507.07.14-.273.383-.762.54-.537.171-.702.388-.417.547.281.156.979.006 1.718-.37 1.144-.58 1.21-.572.812.111-.365.625-1.515 1.083-7.206 2.865-3.725 1.166-6.714 2.237-6.642 2.38.072.142-.28.678-.78 1.191-.897.917-.895.928.106.617.56-.173 1.437-.803 1.948-1.4.85-.992 1.37-1.21 6.126-2.57 5.244-1.5 6.9-1.748 6.075-.905-.231.236-2.227.917-4.434 1.512-3.119.841-4.991 1.582-8.404 3.324-5.088 2.598-7.593 4.163-8.277 5.174-.268.394-.741.687-1.053.65-.311-.036-.495.076-.408.25.087.172-.73 1.354-1.816 2.624s-2.711 3.703-3.611 5.404c-1.523 2.879-1.698 3.065-2.523 2.68-.487-.226-1.045-.55-1.239-.716-.194-.168-.448-.155-.565.028-.117.182.221.467.75.633 1.136.355 1.993 1.8 1.213 2.046-.297.094-1.225.13-2.061.08l-1.52-.091 1.21.474c.667.26 1.452.515 1.745.566.293.05.45.231.351.402-.1.172-.593.183-1.096.026-.503-.158-1.548-.196-2.323-.085-.774.11-1.475.067-1.558-.097-.082-.164-.393-.22-.69-.125-.297.095.433.426 1.622.736 1.19.31 2.09.688 2.002.84-.089.151.187.076.613-.168 1.06-.606 1.737-.13 1.425 1.003-.142.517-.188 1.637-.104 2.489.124 1.25-.04 1.612-.855 1.872-.99.316-2.595 2.171-2.333 2.694.275.548 1.337-.153 2.026-1.336.393-.675.85-1.184 1.016-1.132.166.052.479 1.114.695 2.36.242 1.388 1.076 3.542 2.157 5.567 1.593 2.982 1.683 3.308.939 3.362-.584.043-.955.546-1.27 1.727-.246.917-.665 1.737-.93 1.822-.267.085-.683.569-.924 1.075-.372.778-.617.908-1.585.842-.63-.043-1.005-.231-.835-.418.17-.188.307-.644.304-1.014-.005-.55.188-.66 1.063-.6.886.06 1.145-.1 1.524-.94.25-.559.363-1.213.251-1.456-.113-.242-.09-.944.05-1.56.197-.862.075-1.227-.527-1.582-.736-.434-.762-.417-.424.284.6 1.247.004 3.84-.954 4.145-.47.15-.928.128-1.018-.05-.09-.178.032-.387.27-.462.237-.076.344-.314.236-.528-.151-.302-.267-.265-.518.166-.178.305-.673.667-1.101.803-.428.137-.705.395-.615.573.09.179.398.249.687.157.334-.107.362.112.076.601-.39.67-.578.742-1.456.56-.913-.19-.928-.176-.154.158.905.39.898.471-.215 2.652-.244.477-.365 1.022-.27 1.21.42.839-.786.136-1.262-.735-.405-.741-.312-1.173.39-1.816.851-.777.463-.915-.909-.322-.722.312-1.485-.247-1.141-.837.782-1.343-.395-1.228-1.338.13-.499.719-.473 1.203.113 2.128.477.752.944 1.102 1.258.943.666-.338.887.176.377.875-.225.308-.224.928.002 1.378.403.803.416.802.697-.041.359-1.08 1.006-1.31 1.411-.503.234.466.51.504 1.121.154.527-.302.646-.636.34-.955-.562-.588.49-1.911 1.097-1.379.272.24.54.1.938-.487.314-.463.971-.869 1.506-.929.612-.068 1.362-.646 2.115-1.63 1.297-1.696 1.796-1.993 2.152-1.284.266.53-.726 1.704-2.202 2.607-.527.323-1.45 1.51-2.05 2.64-.9 1.695-.956 2.114-.323 2.401 1.377.626 2.444.753 3.493.418 1.199-.383 2.867-2.968 2.166-3.357-.3-.167-.738.247-1.193 1.13-.395.766-1.148 1.53-1.673 1.698-.914.292-.936.268-.519-.553.24-.472.357-1.145.259-1.493-.13-.462.193-.752 1.178-1.065 1.096-.347 1.255-.524.831-.92-.364-.342-.244-.716.393-1.225.505-.403.85-.87.764-1.04-.084-.168.192-.316.614-.328.44-.012.586-.122.343-.257-.234-.13-.117-.335.26-.455.375-.12 1.072.104 1.546.498.94.78.942.978.02 1.397-.941.428-1.59 1.52-1.277 2.145.724 1.442-1.647 4.294-4.264 5.13-.643.205-1.406.733-1.696 1.173-.765 1.158-2.083.732-1.47-.475.364-.715.309-.872-.36-1.026-1.398-.323-1.58.917-.305 2.08.881.804 1.307.911 2.492.629 1.745-.416 2.046-.002.829 1.14-.835.785-1.017.831-2.112.538-1.438-.385-1.412-.25.157.809.656.443 1.47.716 1.81.608.675-.216.84-.016 2.337 2.826l1.017 1.932 2.492-.747c3.23-.969 3.92-.964 4.42.03.226.452.594.763.817.692.482-.154 4.766 1.843 4.808 2.242.016.153.404.364.862.47.458.105.787.099.73-.014-.057-.114.796-.1 1.894.028 3.259.382 5.398.328 7.922-.202 1.31-.274 2.449-.367 2.53-.205.368.733-5.238 1.533-9.595 1.369-3.262-.123-7.058-1.007-6.731-1.568.073-.125-.123-.257-.436-.294-.312-.036-.458.154-.323.423s1.959 1.032 4.053 1.696c4.046 1.284 6.123 1.327 11.305.232 3.284-.695 4.457-1.414 3.95-2.423-.222-.443-.253-.853-.068-.912.184-.059.744.863 1.243 2.048l.908 2.155 3.182-.974c1.75-.536 3.53-1.118 3.954-1.295.48-.199.781-.134.797.173.018.364-1.04.833-4.04 1.792l-4.065 1.3-.726-.897c-.71-.877-.73-.877-.894-.021-.091.48-.023 1.16.152 1.51.295.586.704.521 5.458-.866 4.408-1.286 5.459-1.716 7.385-3.02 3.102-2.099 4.195-3.007 5.627-4.673 1.198-1.394 2.278-2.065 2.52-1.565.215.448-4.7 4.964-7.111 6.533-1.478.962-2.433 1.865-2.522 2.385-.08.46-.645 1.778-1.258 2.927-1.681 3.158-1.371 5.31.989 6.855.627.41.994.793.816.85-.178.056.223.192.89.3.668.11 1.303.376 1.413.594.4.798 3.746 1.64 5.691 1.432 3.19-.34 17.2-4.95 19.406-6.383 2.238-1.456 4.221-4.922 3.98-6.96-.2-1.71-1.252-3.897-2.285-4.755-1.417-1.177-7.794-3.001-10.371-2.967-2.956.04-2.497-.207.83-.445 1.624-.117 3.752-.622 6.474-1.537 4.209-1.416 5.464-2.15 5.058-2.96-.26-.518-.997-.427-1.142.141-.129.505-4.588 2.332-6.381 2.615-2.505.395-1.963-.274.984-1.216 4.204-1.344 4.158-1.26 2.537-4.707-1.033-2.195-1.116-2.508-.315-1.176.662 1.1 1.306 1.769 1.636 1.699 2.257-.478 3.575-1.005 6.073-2.429 1.575-.897 3.336-2.047 3.914-2.556 1.712-1.503 3.492-4.598 4.118-7.158.567-2.321.64-2.41 2.444-2.986 1.022-.327 2.42-.88 3.108-1.229 1.193-.606 1.212-.7.437-2.114-.49-.894-.73-1.134-.605-.606.273 1.16-.154 1.541-2.627 2.338-2.71.874-3.387 1.537-3.597 3.523-.296 2.796-2.645 6.266-5.894 8.706-1.736 1.305-6.422 3.326-6.263 2.702.06-.232 1.01-.79 2.114-1.238 4.561-1.853 8.668-6.747 9.188-10.947l.242-1.958 2.326-.86c1.28-.472 2.416-1.01 2.525-1.194.109-.185-.121-1.232-.512-2.328-.539-1.513-.548-2.383-.04-3.612 1.294-3.124 1.179-5.421-.472-9.405-1.469-3.544-2.598-8.933-2-9.543.473-.484-.385-1.786-1.319-2.002-.472-.109-.9-.374-.95-.589-.05-.215-.816-1.09-1.7-1.945-.912-.883-2.516-3.17-3.71-5.29-2.411-4.283-4.347-6-8.068-7.159l-2.148-.668-4.377 4.54c-2.408 2.498-4.722 4.652-5.144 4.786-.422.135-.684.41-.584.61.13.258-.052.309-.63.175-.694-.16-.744-.493-.344-2.257.258-1.138.658-3.428.888-5.09.23-1.66.705-3.648 1.056-4.416.42-.92.44-1.557.058-1.865-.534-.43-.604-.4-.893.385-.172.47-.825 3.438-1.45 6.597-.94 4.756-1.274 5.713-1.94 5.559-1.053-.243-1.428-1.023-.617-1.283.35-.112.718-.728.816-1.37.099-.642.397-1.372.663-1.623.266-.25.42-.874.342-1.385-.134-.885-.22-.902-1.766-.352-1.544.548-1.596.628-1.043 1.59.46.8.41 1.068-.237 1.275-.451.144-.93.043-1.064-.224-.135-.268-.077-.54.128-.605.204-.066.096-.454-.241-.864-.45-.545-.427-.804.085-.967.41-.132.564-.491.373-.872-.21-.419-.037-.74.488-.908.45-.144 1.06-.003 1.366.316.778.812 2.18.242 2.39-.973.135-.788-.042-1.198-.785-1.818-.83-.693-.86-.833-.22-1.038.768-.245 1.483-1.155 1.26-1.601-.07-.14-.916-.25-1.879-.246-1.193.007-1.856-.202-2.084-.655-.403-.803-1.953-.413-2.867.721-.33.41-.948.855-1.374.991-.471.151-.718.61-.633 1.174.102.673-.098.954-.726 1.024-.476.054-1.1.379-1.387.723-.448.536-.391.696.4 1.131 1.263.695.873 1.125-.81.893-1.39-.191-1.395-.187-1.458 1.177-.036.752.011 1.519.104 1.703.266.53 2.424-.324 2.992-1.184.42-.637.674-.745 1.377-.582 1.209.279 1.276.654.204 1.137-.723.326-.807.6-.392 1.28.291.475.427.897.303.937-.124.04-1.716-.238-3.538-.617-3.53-.735-3.647-.885-2.219-2.85.655-.9-.012-3.87-1.055-4.697-.483-.384-.635-.39-.526-.023.377 1.273.483 1.59.766 2.293.302.75-1.183 4.235-1.903 4.465-.73.234-.748-.71-.043-2.22 1.047-2.238.306-2.024-1.091.316-.91 1.525-1.388 1.981-1.942 1.855-.404-.091-2.018-.048-3.586.097l-2.853.263 2.043-1.377c3.432-2.312 4.397-3.18 4.13-3.711-.232-.463-.322-.434-.963.301-.389.447-1.102.936-1.585 1.088-.746.235-.73.084.11-1.002.543-.704.92-1.415.836-1.58-.223-.444-.667-.213-1.23.64zm-3.823 2.843c.211.117.136.39-.168.606-.336.238-.646.205-.791-.084-.264-.524.352-.86.959-.522zm-1.142 1.156c.09.179-.044.39-.295.47-.252.081-.411-.037-.354-.262.058-.226.19-.437.295-.47.105-.034.264.084.354.262zm3.065-.446c-.666.894-1.208 1.15-1.444.68-.09-.178.016-.38.234-.45.219-.07.71-.326 1.094-.569.638-.404.648-.375.116.34zm21.784-5.992c.408.814.316 1.027-.561 1.308-.604.193-1.237.794-1.492 1.417-.244.595-.768 1.186-1.166 1.313-.638.204-.674.086-.303-.995.524-1.527.505-1.562-.81-1.433-1.056.104-1.064.093-.473-.648.534-.67.67-.712 1.212-.381.788.48 2.322-.008 2.328-.74.008-.96.75-.865 1.265.16zm-25.412 9.813c3.215-.486 3.848-.521 7.293-.402 1.388.049 2.748.016 3.02-.07.274-.088.995.02 1.605.239.609.219 1.28.343 1.49.276.773-.247 6.397.994 8.17 1.803 1.003.458 2.127.871 2.497.919.37.047.775.29.9.54.126.25.535.49.91.537 1.245.152 5.313 3.07 8.09 5.802 3.347 3.293 5.941 8.062 6.451 11.856.43 3.195-.325 8.863-1.582 11.882-1.992 4.78-6.909 9.92-12.843 13.424-3.875 2.287-10.401 4.448-15.393 5.095-8.675 1.125-18.168-.364-25.093-3.936-4.665-2.407-6.594-3.875-9.464-7.204-5.13-5.95-6.69-12.578-4.655-19.766 1.366-4.823 5.603-10.55 10.035-13.566 5.244-3.567 12.67-6.538 18.569-7.43zm-9.666 3.697c-4.96 2.14-9.636 5.282-12.298 8.263-2.54 2.841-5.045 7.453-5.67 10.434-.507 2.419-.391 3.081.26 1.491.248-.605.404-1.193.347-1.306-.057-.114.295-1.25.782-2.526 2.657-6.962 10.94-13.855 20.13-16.75 4.825-1.521 10.215-2.439 14.243-2.425 1.716.006 2.644-.509 1.232-.683-2.106-.26-10.335.72-14.654 1.745-.37.088-2.337.879-4.372 1.757zm6.943.926c-.338.42-.362.673-.055.582.3-.09.655.056.79.324.134.267.535.393.892.279.854-.274 1.86-2.027 1.33-2.32-.62-.345-2.277.29-2.957 1.135zm-7.342 2.89c-2.381 1.607-5.178 3.936-4.85 4.038.267.084 3.13-1.778 3.996-2.597.325-.308 1.199-.891 1.942-1.297.743-.405 1.34-.938 1.328-1.183-.029-.573-.027-.574-2.416 1.04zm3.436 2.372c-2.078 1.327-3.932 2.797-4.236 3.357-.655 1.207-7.805 6.903-8.556 6.815-.293-.034-.332.05-.086.187.246.136.249.521.005.855-.783 1.073-.182 1.22.944.232 4.19-3.682 13.573-10.3 16.63-11.73 2.786-1.304 5.29-.282 3.43 1.398-.936.845-2.75 4.997-2.446 5.601.101.203.63-.49 1.176-1.54l2.167-4.163c1.34-2.573 1.056-3.802-1.014-4.392-1.613-.46-2.757.023-8.014 3.38zm2.216-.196c-.467.445-1.14.902-1.496 1.016-.375.12-.29-.134.2-.602.466-.444 1.139-.901 1.495-1.015.375-.12.29.134-.2.601zM94.88 83.69c-.711.506-1.68 1.049-2.152 1.207-.473.157-.187-.172.635-.733 1.884-1.286 3.263-1.717 1.517-.474zm14.52-3.607c1.439 2.38 2.187 3.28 2.838 3.419.517.109.674.254.377.35-.542.173.907 2.682 3.21 5.556.66.824 1.79 2.578 2.512 3.9 1.664 3.045 1.89 3.251 2.73 2.492.794-.717.41-1.565-2.243-4.95-1.087-1.387-2.566-3.39-3.287-4.453-1.238-1.823-1.26-1.948-.405-2.222.619-.197.803-.496.581-.938-.38-.758-1.214-.62-1.221.202-.01 1.075-.7.782-1.834-.778-2.287-3.14-2.539-3.655-1.892-3.861.338-.108.54-.348.447-.532-.292-.583-2.345-1.497-2.654-1.182-.162.165-.373.147-.467-.042-.095-.19-.279-.31-.409-.268-.13.041.643 1.53 1.717 3.307zm4.808-2.27c.56.896 1.047 1.62 1.083 1.61.036-.012.965 1.593 2.064 3.566 1.1 1.974 2.344 3.808 2.766 4.076 1.177.748 1.318 1.359.618 2.689-.768 1.46-.734 1.67.141.88.503-.454.776-.493 1.17-.168.76.628 2.82 4.891 2.423 5.018-.187.06-.132.508.124.995.403.77.277.97-.962 1.53-1.447.653-1.672 1.417-.588 1.994.459.244.766.153 1.526-.454.524-.418.868-.929.764-1.135-.262-.522 2.077-2.39 2.736-2.184.895.28 2.299-.772 1.952-1.463-.492-.98-2.032-1.344-2.57-.607-.238.327-.243.7-.01.83.24.133-.043.204-.648.163-1.64-.112-2.025-.492-1.516-1.497.364-.718.225-1.347-.636-2.877-1.431-2.542-1.562-3.398-.61-4.001.656-.416.646-.666-.066-1.596-.464-.606-1.061-1.17-1.326-1.253-.646-.202-1.037.775-.738 1.843.22.79-1.643-1.519-4.526-5.606-.964-1.367-1.03-1.646-.433-1.837.585-.187.369-.43-1.28-1.438-1.09-.667-2.094-1.1-2.23-.961-.135.138.212.985.772 1.882zM85.02 85.524c-.057.225.09.347.328.271.237-.076.479-.322.536-.547.058-.226-.09-.348-.328-.272-.237.076-.479.323-.536.548zm35.715-7.584c.268.214.332.105.163-.28-.153-.347-.35-.506-.44-.352-.09.153.035.438.277.632zm1.41 2.267c.708 1.625 4.582 7.722 5.581 8.782 1.242 1.317 2.007 2.513 5.594 8.744 2.363 4.103 2.519 4.51 2.015 5.236-.746 1.078-1.922 1.746-2.869 1.63-.67-.08-.713-.3-.287-1.46.947-2.574-1.503-6.253-3.698-5.552-.836.267-1.506 1.299-1.125 1.731.121.138.17.928.108 1.755-.063.827.125 1.753.416 2.057.413.432.081 1.012-1.517 2.646-2.952 3.019-3.705 4.11-3.954 5.734-.121.794-.782 2.372-1.468 3.508-1.223 2.025-1.27 2.06-2.422 1.75-.656-.175-1.38-.722-1.638-1.237-.567-1.13-1.79-.894-1.78.344.006.924 1.476 2.445 2.153 2.229.231-.074.841-.003 1.356.158 1.411.441 2.852-.55 3.946-2.713 2.628-5.199 3.276-6.201 4.938-7.639 2.23-1.927 2.738-2.095 4.137-1.361 2.27 1.189 5.192-.818 5.626-3.864.33-2.305-.392-3.913-4.206-9.38-7.438-10.66-9.02-13.178-8.568-13.64.356-.362.175-.616-.94-1.32l-1.38-.872-.16 1.022c-.087.562-.023 1.332.142 1.712zm7.866 20.038c.92.165 1.024.314.977 1.395-.068 1.604-.94 1.59-1.944-.03-.864-1.395-.677-1.66.967-1.365zm-21.483-14.905c.501.614 1.11.967 1.47.852.778-.25.821-1.483.05-1.436-.316.02-.84-.495-1.166-1.144-.581-1.157-.598-1.162-.902-.25-.214.646-.047 1.251.548 1.978zm-9.153.704c-.007.84.053.893.754.669.763-.244.984-.934.402-1.257-.635-.352-1.15-.09-1.156.588zm-3.938 2.263c.372.346.887.948 1.144 1.337.257.39.79.809 1.185.932.56.175.571-.01.05-.845-.408-.654-.478-1.191-.18-1.386.368-.239.23-.409-.564-.694-1.507-.542-2.497-.145-1.635.656zm-3.449 2.422c.43 1.197-.094 1.598-1.334 1.02-.924-.43-2.136.244-1.765.983.135.27.751.43 1.369.355.618-.074 1.524.157 2.015.513 1.203.874 1.725.212.9-1.142-.612-1.005-.461-1.59.594-2.302.167-.112.04-.421-.282-.687-.956-.789-1.935.036-1.497 1.26zm35.06-10.478c.242-.015.73.696 1.08 1.58.352.883 2.544 4.438 4.871 7.9 2.632 3.915 4.456 6.997 4.825 8.157.535 1.68.665 1.827 1.317 1.501 1.116-.558.69-2.237-1.507-5.95-1.924-3.251-1.975-3.413-1.15-3.676 1.21-.387 1.256-1.067.121-1.788-.766-.487-.969-.863-.968-1.793.001-1.37-.35-1.614-1.014-.704-.339.464-.238.948.358 1.726.748.977.885 2.433.208 2.21-.15-.05-.985-1.217-1.856-2.594-.87-1.377-1.828-2.741-2.127-3.032-.299-.292-.475-.93-.39-1.418.129-.752-.16-1.09-1.888-2.21-1.758-1.14-2.059-1.222-2.181-.601-.082.417.044.708.3.692zm-19.943 8.564c.525.766.83 1.521.677 1.678-.153.156.201.47.788.7 1.048.408 1.06.395.76-.727-.173-.642-.059-1.18.26-1.229.761-.117.462-.613-.914-1.513-.626-.41-1.45-.646-1.832-.524-.567.18-.519.476.261 1.615zm-24.878 6.63c.09.178.357.262.595.186.238-.076.359-.284.27-.463-.09-.178-.358-.262-.595-.186-.238.076-.36.284-.27.463zm1.347.835c-.147.444 2.121 1.05 4.43 1.181.851.05 2.633.282 3.958.518l2.41.428-2.308 3.848c-2.677 4.46-3.54 5.48-5.18 6.117-.657.255-1.085.637-.95.849.133.211.381.594.551.85.17.256.67.35 1.113.208 1.358-.434 3.222-2.816 5.571-7.117l2.246-4.113 1.583.09c1.762.101 3.217.648 5.397 2.027 2.36 1.493 3.324.302 1.274-1.572-.847-.774-.096-1.088 1.732-.723 1.225.245 1.266.302 1.103 1.518-.094.694.083 1.5.392 1.788.376.352.312.964-.194 1.852-1.29 2.265-3.029 4.315-3.75 4.422-.931.139-4.932 4.47-4.65 5.034.125.246.59.331 1.035.19.662-.212.917-.023 1.41 1.041.774 1.678 1.712 2.006 2.938 1.027 1-.799.812-1.74-.342-1.708-.428.011-.946-.385-1.222-.936-.572-1.138.693-3.357 2.41-4.23.67-.34 1.98-1.982 3.229-4.044 1.697-2.806 1.98-3.585 1.473-4.06-.748-.7-.011-1.032 1.599-.722.593.115 1.407.103 1.809-.026 1.048-.335 1.654.43 4.928 6.23 2.225 3.942 3.058 5.136 3.488 4.999 1.39-.445-.318-4.68-3.628-8.993l-.93-1.212 1.61-.514c1.746-.558 3.596-2.356 3.212-3.122-.274-.547-.506-.503-1.348.258-.409.37-1.584.734-3.39 1.051-2.106.37-2.95.352-3.547-.078-.431-.31-3.578-.94-6.993-1.4-3.415-.46-6.228-1-6.252-1.199-.023-.204 1.137-.7 2.652-1.134 2.584-.74 2.677-.803 2.3-1.554-.279-.556-.866-.805-2.022-.858-1.509-.07-1.675-.011-2.24.783-1.76 2.471-2.815 2.89-6.093 2.421-1.337-.191-2.871-.208-3.409-.037-.537.17-1.469.113-2.07-.128-.6-.241-1.47-.43-1.93-.418-1.247.032-3.257.72-3.405 1.168zm-2.756 1.272c-.156.348.027.94.422 1.36.726.775.17 2.101-1.809 4.309-.852.95-.908 1.683-.11 1.428.235-.075 1.119-1.184 1.963-2.465.845-1.281 1.782-2.558 2.081-2.839.452-.423.366-.692-.505-1.574-1.126-1.143-1.607-1.194-2.042-.22zm-2.499 2.34c.156.68.38.818 1.005.618.91-.29.736-.989-.333-1.323-.927-.29-.904-.313-.672.704zm28.286-6.315c-.017.367.16 1.242.395 1.943.466 1.396 1.391 1.48 1.972.18.263-.59.177-.713-.54-.772-.668-.055-.878-.307-.97-1.159-.123-1.16-.806-1.313-.857-.192zm-19.887 6.657c-.048.542.165 1.49.474 2.105.441.879.736 1.064 1.373.86.447-.143.937-.54 1.09-.882.218-.49.093-.638-.59-.695-.646-.053-.964-.39-1.248-1.324-.443-1.453-.974-1.484-1.1-.064zm-3.562.556c-.058.226.101.344.353.264.252-.08.384-.293.295-.47-.09-.18-.249-.298-.353-.264-.105.033-.238.245-.295.47zm27.51-6.14c.512.653 1.108 1.13 1.324 1.061.457-.146-.975-3.196-1.591-3.389-.81-.253-.648 1.16.267 2.328zm3.554-1.927c-.099.642.08 1.685.398 2.318.457.91.748 1.096 1.39.89.446-.142.952-.576 1.126-.964.267-.598.165-.733-.664-.881-.765-.138-1.042-.45-1.271-1.434-.356-1.527-.738-1.5-.979.07zm-30.838 14.014c.929 1.849 1.559 1.623.68-.244-.411-.874-.875-1.46-1.03-1.302-.155.158.003.853.35 1.546zm15.158-3.687c-.512.88-.646.94-1.568.693-.855-.23-1.094-.166-1.584.421-.747.895.27 1.872 1.202 1.154.346-.267 1.345-.735 2.22-1.04 1.799-.629 2.457-1.423 1.697-2.05-.698-.576-1.298-.326-1.967.822zm-15.45 6.701c-.428.47.395 3.348.91 3.183.755-.241 1.229-2.652.63-3.21-.64-.6-.973-.594-1.54.027zm18.56-4.57c-1.52 1.085-2.972 2.268-3.226 2.63-.253.363-.649.72-.879.793-.23.074-.885.98-1.456 2.016-1.567 2.843-3.319 4.777-4.734 5.23-.97.31-1.164.524-.835.925.7.854 2.938.09 4.197-1.432 1.075-1.301 2.023-1.352 1.454-.078-.32.716 1.32 3.284 2.766 4.335.461.336 1.783.69 2.936.786 2.985.252 7.096-1.349 10.818-4.211 2.681-2.063 4.832-5.225 4.107-6.04-.166-.187-.1-.618.147-.956.578-.793.05-1.82-1.595-3.096-.72-.559-1.564-1.453-1.874-1.986-.423-.726-.807-.92-1.53-.774-1.762.356-.894 2.004 2.558 4.856 1.67 1.378 1.883 2.593.5 2.836-.37.065-.877.566-1.13 1.113l-.458.996.664-.931c.365-.512.826-.88 1.025-.818.392.122-1.605 2.286-2.313 2.505-.238.074-.213-.1.057-.387.555-.59.2-.554-.677.068-.321.229-.488.61-.369.845.23.46-1.127 1.504-1.715 1.32-.194-.06-.04-.21.343-.332.382-.122.744-.415.804-.652.06-.237-.511.059-1.27.657-2.008 1.581-4.515 2.504-7.276 2.677-2.613.164-3.362-.22-5.115-2.617-1.948-2.662-.918-4.749 4.046-8.2 1.564-1.089 3.028-2.399 3.253-2.912.419-.952.313-1.734-.182-1.35-.15.118-1.519 1.1-3.04 2.185zm-10.316 5.409c.374.746 1.08.862 1.863.306.768-.546.488-1.045-.706-1.26-1.158-.207-1.57.132-1.157.954zm30.692-8.983c-.471.808-.18 1.11.776.805.95-.304 1.26-.97.618-1.326-.57-.316-1-.155-1.394.52zm-12.762 5.657c-.268.602-.018 1.47.829 2.878.32.532.694.625 1.492.37 1.313-.42 1.775-1.957.578-1.924-.48.013-.967-.386-1.315-1.079-.585-1.166-1.134-1.251-1.584-.245zm12.473-3.286c-.438.569.039 1.771.628 1.583 1.034-.33 3.69-2.72 3.483-3.133-.18-.36-.632-.294-1.983.295-.962.42-1.92.984-2.128 1.255zm-15.383 7.086c-.522 1.026.317 1.556 1.51.954 1.087-.548 1.264-1.788.275-1.915-1.122-.143-1.262-.067-1.785.961zm-12.08 6.184c-.451.776.44 2.418 1.185 2.18.327-.105.617-.695.643-1.312.068-1.583-1.09-2.133-1.827-.868zm45.582-12.388c-.057.225.102.344.353.264.252-.08.385-.293.295-.47-.09-.18-.248-.298-.353-.264-.105.033-.238.245-.295.47zm-9.696 4.444c-.146.907-.255.984-.984.69-.976-.392-2.145-.081-2.594.69-.52.89.012 1.416 1.39 1.374.706-.021 1.53.22 1.832.534.982 1.026 2.325.064 2.077-1.49-.084-.528.19-1.177.607-1.442.732-.464.608-1.494-.21-1.75-.885-.277-1.964.434-2.118 1.394zm6.765.17c-2.099 2.958-4.047 4.736-8.168 7.452-2.613 1.722-3.597 2.147-8.979 3.878-4.263 1.37-5.558 1.883-4.393 1.738 3.106-.388 9.273-2.562 12.464-4.394 5.57-3.197 10.499-8.13 11.935-11.944.306-.813.29-.816-.36-.073-.372.427-1.497 1.932-2.499 3.343zm-12.093 3.668c-.369.88.356 2.802.982 2.602.865-.277 1.421-1.562 1.02-2.36-.574-1.146-1.573-1.266-2.002-.242zm-18.02 9.804c.237.131.625.176.863.1.237-.076.238-.245.002-.376-.237-.132-.625-.177-.862-.101-.238.076-.239.245-.002.377zM123.3 66.89c.243.135.097.245-.343.257-.857.024-1.11-.165-.489-.363.224-.072.598-.024.832.106zm19.86-.88c-.396.885-8.998 9.45-9.727 9.682-.556.178 1.176-2.587 1.756-2.803.162-.06 1.903-1.724 3.869-3.697 3.582-3.596 4.66-4.431 4.102-3.183zm-16.588 5.274c.865.714.341 1.331-.856 1.01-.606-.162-1.163-.418-1.239-.568-.236-.47 1.593-.856 2.095-.442zm20.09-4.694c1.586.627 3.686 3.053 3.777 4.365.027.4.3.756.605.791.304.036.736.463.958.948.222.486.214.733-.018.548-.232-.185-.697-.247-1.033-.14-.395.126-.79-.157-1.111-.798-.275-.547-.842-1.212-1.261-1.478-.478-.303-.72-.743-.65-1.178.063-.395-.205-.957-.623-1.306-.626-.523-1.05-.51-2.907.083-1.196.383-2.1.844-2.009 1.027.092.182-.281.674-.829 1.095-.547.42-1.667 1.62-2.487 2.667-.82 1.048-1.694 1.969-1.941 2.048-.248.08-.688.503-.978.943-.381.577-.708.743-1.177.596-.469-.146-.25-.618.789-1.7a179.88 179.88 0 0 1 7.083-6.964l2.3-2.144 1.512.597zm-.075 2.23c.075.151-.063.55-.308.885-.573.785-.028 1.89.8 1.625.94-.3 2.545 1.478 2.13 2.359-.181.384-.253.852-.159 1.039.094.187-.03.614-.275.95-.313.43-.5.502-.63.243-.215-.428.054-2.026.414-2.462.411-.498-1.3-1.64-2.761-1.841-2.506-.346-5.636 1.385-4.956 2.74.246.49.286.477.54-.173.25-.642 2.334-2.092 2.508-1.746.171.341-.283 2.638-.582 2.943-.179.183-.667.253-1.085.157-.899-.208-1.083.715-.276 1.382.301.249.244.486-.149.611-.353.113-.776.506-.94.874-.172.385-.678.695-1.197.733-.559.04-.832.232-.72.504.185.454-1.372-.63-2.642-1.84-.693-.66-.679-.676.321-.363.577.18 1.296.151 1.6-.064.407-.29.577-.203.65.335.056.4.236.588.402.42.165-.17.124-.659-.091-1.088-.624-1.243-.186-3.336.928-4.428.589-.578 1.827-1.252 2.908-1.584 1.058-.324 1.937-.798 2.006-1.08.152-.623 1.375-1.507 1.564-1.13zm-1.004 4.494c.268.149.715.11.993-.088.88-.625 1.273.012.932 1.512-.237 1.039-.632 1.548-1.393 1.79-.585.188-1.57.99-2.19 1.785-1.276 1.639-2.682 2.315-2.49 1.199.065-.375.826-1.196 1.69-1.823 2.137-1.55 3.33-3.481 2.385-3.86-.389-.157-.64-.398-.56-.535.08-.138.365-.13.633.02zm-7.85 2.844c.08.16-.104.467-.408.683-.338.24-.648.208-.794-.082-.131-.262.053-.57.41-.683.356-.114.713-.077.793.082zm15.755-1.025c.49.599.836 1.18.77 1.294-.066.113-.52-.284-1.01-.883-.488-.598-.835-1.18-.769-1.294.066-.113.52.285 1.01.883zm-2.66.34c.393.123.773.34.845.483.194.386-1.044.697-1.583.398-.716-.398-.093-1.14.739-.88zm-4.033 2.31c.586.325.46 1.443-.167 1.483-.87.057-1.637-1.25-.877-1.492.359-.115.829-.111 1.044.008zm-6.276 2.952c.486.404.996.958 1.133 1.23.137.274.963 1.2 1.837 2.061 1.367 1.347 1.613 1.799 1.772 3.253.102.93.312 1.837.467 2.017.433.504.006 2.508-.477 2.24-.235-.13-.424-.686-.422-1.235.005-1.244-1.688-4.61-3.822-7.596-1.738-2.434-1.918-3.157-.488-1.97zm10.313-3.457c.09.178-.032.386-.27.462-.237.076-.505-.007-.594-.186-.09-.178.031-.386.27-.462.237-.076.504.008.594.186zm2.384-.167c.169.385.105.494-.163.28-.242-.194-.367-.479-.278-.632.09-.154.288.005.441.352zm-8.454 3.496c-.266.85-.33 1.59-.14 1.644.187.055.47-.322.63-.838.186-.61.722-1.078 1.53-1.336.684-.218 1.18-.526 1.1-.684-.213-.424 1.26-1.168 1.911-.964.705.22.86 2.765.196 3.198-.273.178-.42.112-.352-.157.076-.297-.276-.336-.988-.109-.608.195-1.187.191-1.287-.007-.108-.215.36-.469 1.155-.627 1.01-.2 1.315-.425 1.247-.918-.075-.546-.26-.56-1.134-.08-1.726.945-2.264 1.583-2.123 2.515.185 1.224.878 1.697 2.725 1.86.869.077 1.616.212 1.661.302.045.089-.43.733-1.056 1.432-.657.734-.951 1.423-.697 1.633.242.2.239.428-.008.507-.246.078.173.44.93.804.759.364 1.25.793 1.094.953-.395.403-2.752-.742-3.567-1.734-.376-.457-.545-1.15-.383-1.57.41-1.066.096-1.512-1.392-1.978-.715-.224-1.614-.874-1.995-1.446-.836-1.25-.474-3.336.64-3.692.707-.226.737-.095.303 1.292zm7.228-2.53c.364.175 1.063 1.35 1.577 2.653.854 2.161.85 2.294-.04 1.759-.705-.423-1.044-.441-1.263-.067-.384.66-1.369.976-1.601.513-.1-.197.155-.792.564-1.32.45-.582.618-1.535.427-2.408-.24-1.088-.157-1.367.336-1.13zm3.393-.273c.67.553.93 2.715.37 3.08-.681.443-1.846-2.133-1.302-2.878.356-.488.537-.528.932-.202zm1.924 4.05c.685.214.695.656.02.871-.356.114-.758-.011-.892-.279-.254-.506.188-.806.872-.592zm-1.19 4.12c.97 2.28.993 2.632.242 3.704-.99 1.412-1.773 1.406-.873-.006.864-1.355-.437-3.557-2.146-3.632-1.995-.088-2.12-.344-.319-.654 1.538-.265 1.694-.372 1.398-.961-.183-.365-.117-.732.147-.817.323-.103.827.666 1.55 2.366zm2.965-.706c.107 1.214-.282 1.724-.916 1.202-.755-.624-.678-1.54.153-1.805.515-.165.71-.012.763.603zM147.97 89.17c.436.52 1.22 1.098 1.744 1.286.603.217.826.469.61.69-.363.37-3.233-1.342-3.653-2.18-.455-.906.49-.758 1.299.204zm5.78-2.418c.217.068.471.275.564.459.102.203-.109.248-.536.115-.387-.121-.641-.328-.565-.46.077-.13.318-.182.536-.114zm-.553 1.162c.863.213 1.519.627 1.59 1.004.136.729-.867.936-1.304.269a352.03 352.03 0 0 1-.541-.83c-.14-.213-.654-.26-1.143-.104-.49.156-.843.1-.786-.125.15-.587.525-.624 2.184-.214zm-76.429 26.28c.807.844.73.874-.977.375-1.411-.413-1.428-.435-.544-.718.578-.185 1.136-.058 1.521.344zm-13.638 4.487c.279.23.447.522.373.648-.074.126-.387-.035-.696-.358-.657-.686-.418-.901.323-.29zm83.134-26.496c.06.136-.035.622-.21 1.08-.325.848-.683.591-.675-.484.005-.6.684-1.057.885-.596zm6.787-1.104c-.003.328.026.658.063.732.037.075-.126.198-.364.274-.238.076-.579-.154-.758-.51-.19-.38-.037-.74.37-.87.455-.146.692-.018.689.374zm-3.895 1.12c0 .44.212.59.636.455.349-.111.708-.057.797.121.238.475-.913.751-1.74.419-.546-.22-.594-.447-.204-.97.448-.6.51-.603.511-.025zm9.072-2.034c.077.344-.088.775-.368.957-.325.212-.56.106-.65-.294-.077-.344.089-.775.368-.957.326-.212.56-.106.65.294zm-9.853 3.694c.237.132.224.305-.027.385-.252.08-.531 0-.62-.177-.09-.179-.078-.352.027-.386.105-.033.384.047.62.178zm-1.384 1.245c.094 1.086-.187 1.639-.852 1.675-.667.037-.455-1.744.264-2.21.38-.246.532-.109.588.535zm8.214-2.115c.427.171.895.19 1.041.041.146-.148.32-.076.39.162.27.937-.932 1.175-2.303.456-.906-.475-1.001-.62-.51-.778.333-.106.955-.053 1.382.119zm-4.974 1.813c.746.072.898.247.785.905-.077.449.095 1.062.383 1.362.324.339.3.618-.064.735-.53.169-2.396-1.343-2.914-2.36-.247-.485.54-.764 1.81-.642zm11.565-.386c1.046 2.704.94 5.769-.211 6.118-.76.23-2.594-.012-2.772-.366-.057-.114.475-.393 1.182-.619 1.509-.482 2.217-2.125 1.29-2.992-.687-.642-1.234-3.703-.75-4.197.217-.222.655.493 1.26 2.056zm-8.234 1.02c.195.061.353.377.35.702-.003.387.128.455.38.198.253-.258.382-.187.379.21-.004.544-.109.574-1.092.31-1.262-.338-1.785-1.08-.95-1.347.318-.102.737-.134.933-.073zm-73.077 23.77c-.25.43-.655.719-.899.642-.243-.076-.225-.365.042-.643.801-.835 1.344-.835.857 0zm-7.83 2.619c-.058.225-.19.437-.296.47-.104.034-.263-.085-.353-.263-.09-.178.043-.39.295-.47.252-.08.41.038.353.263zm86.726-27.519c.048.096-.012.857-.134 1.691-.238 1.624-1.343 2.527-3.392 2.773-1.726.207-1.712-.36.021-.913 1.19-.38 1.624-.788 2.132-1.998.577-1.377 1.14-2.015 1.373-1.553zm-77.296 24.83c.09.18-1.043 1.629-2.52 3.22-3.462 3.733-4.193 4.384-4.42 3.933-.096-.194.353-.76.999-1.259.646-.498 1.61-1.56 2.143-2.358.533-.8 1.208-1.529 1.5-1.622.292-.094.892-.636 1.333-1.206.44-.57.875-.888.965-.709zm-10.348 3.358c.09.179-.032.387-.27.463-.237.076-.505-.008-.594-.186-.09-.179.031-.387.269-.463.238-.076.505.008.595.186zm78.79-24.182c.824.258.581.582-.578.772-.877.144-1.081.073-.759-.263.538-.563.82-.67 1.337-.509zm-66.336 22.022c.075.15-.253.583-.73.964-.476.38-2.092 1.993-3.591 3.584-4.337 4.605-5.152 5.357-5.558 5.131-.21-.117.338-.9 1.218-1.739.88-.84 2.92-2.945 4.532-4.678 2.827-3.039 3.84-3.84 4.13-3.262zm1.618 1.225c.131.262.1 1.16-.068 1.996-.17.836-.66 3.314-1.093 5.506-.432 2.192-.949 3.838-1.148 3.657-.2-.181.005-2.265.454-4.632.45-2.367.85-4.864.89-5.55.076-1.303.557-1.79.965-.977zm74.41-23.586c.09.179-.032.387-.27.463-.237.076-.505-.008-.595-.187-.09-.178.032-.386.27-.462.237-.076.505.008.595.186zm-76.567 25.416c-.347 1.524-.813 2.243-1.092 1.687a.476.476 0 0 0-.555-.221c-.621.198-4.281 4.353-5.153 5.85-.732 1.255-.834 1.318-1.14.709-.218-.435.155-1.178 1.066-2.124.77-.8 2.604-2.742 4.074-4.317 1.471-1.574 2.775-2.894 2.899-2.933.123-.04.078.568-.1 1.35zm66.013-21.229c.405.127.847.451.982.721.214.425.117.45-.714.19-.53-.165-.971-.49-.983-.72-.015-.304.183-.357.715-.19zm-4.23 2.325c.19.38-.051.675-.731.893-.86.275-.988.214-.83-.394.104-.395.433-.796.732-.892.3-.096.673.081.83.393zm-56.913 17.938c.254.141.241.696-.03 1.232-.27.537-.482 1.27-.472 1.628.01.36-.292.752-.671.873-.565.18-.624-.138-.327-1.777.368-2.025.67-2.418 1.5-1.956zm55.08-15.596c.146.291-.165.833-.69 1.204-.613.432-.967 1.22-.985 2.187-.023 1.25-.232 1.576-1.213 1.89-1.276.407-1.624 1.501-.58 1.828 1.334.417.839.797-.531.407-1.847-.525-1.875-.602-.65-1.804.557-.546 1.77-2.173 2.698-3.617 1.11-1.727 1.776-2.443 1.951-2.095zm-60.725 20.034c.028.7-.046 1.388-.164 1.53-.118.14-.328 1.133-.468 2.206-.271 2.088-.952 2.708-3.62 3.301-1.798.4-2.335-.155-.595-.614 3.243-.855 3.167-.743 4.284-6.302.278-1.38.511-1.431.563-.121zm68.248-21.826c.465.256.67.521.456.59-.388.123-1.545-.637-1.385-.911.046-.08.464.065.929.32zm-3.755.807c.236.131.224.305-.028.385-.252.08-.53 0-.62-.178-.09-.178-.077-.351.028-.385.104-.033.384.047.62.178zm-55.282 17.696c.252.14.394.365.315.501-.193.331-1.241.191-1.433-.191-.208-.414.552-.625 1.118-.31zm63.593-19.62c.085.17.982.542 1.994.827 1.218.344 1.838.73 1.834 1.142-.008.982-1.748.669-3.331-.6-1.596-1.278-1.651-1.357-1.083-1.538.237-.076.501 0 .586.17zm-74.768 23.871c.079.156-.021 1.12-.222 2.14-.276 1.41-.616 1.938-1.408 2.19-1.777.569-1.963-.87-.36-2.8 1.456-1.755 1.76-1.989 1.99-1.53zm65.38-20.098c-.058.225-.19.437-.296.47-.104.034-.263-.084-.353-.263-.09-.178.043-.39.295-.47.252-.08.41.038.353.263zm-55.598 17.8c.011.219-.164.457-.39.529-.226.072-.56-.003-.74-.168-.182-.164-.007-.402.39-.529.396-.127.73-.051.74.168zm62.278-19.308c.218.068.472.274.565.459.102.203-.109.248-.536.114-.387-.12-.641-.327-.565-.459.077-.131.318-.183.536-.114zm2.76-.184c.437.176.726.436.643.58-.083.142-.521.024-.973-.263-.964-.613-.8-.77.33-.317zm-58.778 19.039 1.303.407-1.384.918c-1.578 1.047-2.211 1.073-1.362.055.352-.421.366-.863.036-1.136-.753-.62-.138-.727 1.407-.244zm-10.176 3.448c.094.187-.07.648-.363 1.025-.493.636-.51.623-.224-.164.17-.468.333-.93.363-1.025.03-.096.13-.022.224.164zm2.439-.386c.505-.07.97.187 1.214.672.533 1.06-.617 1.374-1.517.413-.818-.873-.802-.929.303-1.085zm60.557-18.964c.205.408-.458 1.35-1.093 1.553-.443.142-.545 0-.44-.612.133-.77 1.27-1.468 1.533-.941zm-5.854 2.322c.09.179-.032.387-.27.463-.237.076-.505-.008-.594-.186-.09-.179.032-.387.27-.463.237-.076.505.008.594.186zm18.15-4.926c-.35.8-3.555 2.036-3.834 1.479-.09-.178.37-.497 1.023-.708.653-.212 1.624-.636 2.16-.944.873-.502.94-.484.651.173zm-61.061 19.337c.208.414-.853 1.87-1.269 1.74-.525-.164-.056-1.635.587-1.84.3-.096.606-.05.682.1zm2.614.212c.182.364-1.612 3.605-1.94 3.502-.175-.054.022-.862.438-1.793.702-1.572 1.255-2.2 1.502-1.71zm-17.307 5.765c.123.22.467.587.764.818.374.29.246.653-.416 1.18-1.311 1.048-1.595.834-1.16-.872.408-1.604.484-1.709.812-1.126zm58.065-17.336c-.407 1.79-.821 2.225-1.269 1.333-.316-.63.533-2.372 1.288-2.645.168-.06.16.53-.019 1.312zm10.63-3.756c.158.767-.587 1.055-1.105.428-.27-.326-.164-.606.28-.748.416-.133.76 0 .825.32zm-19.116 6.247c.216.12-.119.74-.744 1.38-1.03 1.05-1.295 1.162-2.794 1.18l-1.657.019 1.855-1.224c2.112-1.394 2.781-1.665 3.34-1.355zm-26.942 8.96c1.153-.038 2.14.017 2.192.121.053.105-.36.497-.916.871-.836.562-1.245.608-2.353.261-.739-.23-1.752-.289-2.252-.129-.5.16-.862.106-.805-.119.143-.56 1.634-.923 4.134-1.005zm-16.496 4.863c.42.894-1.727 3.186-2.7 2.881-.768-.24-.504-1.01.452-1.316.433-.139.918-.548 1.08-.91.31-.696.974-1.068 1.168-.655zm5.896-1.506c.97-.137 1.554.723.682 1.002-.331.106-.845-.008-1.142-.253-.645-.533-.604-.599.46-.749zm52.122-16.23c.274.153.898.026 1.48-.3.758-.425 1.01-.437 1.022-.046.009.285-.359.582-.819.66-.46.079-1.198.47-1.641.87-1.097.99-1.761.688-1.075-.49.37-.635.718-.869 1.033-.694zm-13.153 5.393c.014.267-.198.631-.471.81-.284.184-.507.114-.52-.164-.014-.267.198-.631.47-.809.284-.184.507-.115.521.163zm-33.238 10.413c.12.168.252.43.292.58.04.151.368.47.73.707.409.268.673.929.695 1.738l.036 1.305-1.117-1.843c-.615-1.014-1.059-2.057-.987-2.318.074-.27.225-.343.35-.169zm43.607-12.966c.452.287.751.643.665.79-.086.148-.242.099-.346-.11-.105-.207-.482-.284-.838-.17-.357.114-.758-.012-.893-.28-.354-.704.457-.837 1.412-.23zm-15 4.338c.471.055.412.305-.204.862-1.072.968-1.65.865-.966-.172.29-.438.792-.735 1.17-.69zm-5.993 2.012c-.535.56-8.84 3.248-9.696 3.14-.34-.044 1.8-.87 4.757-1.837 3.048-.997 5.187-1.561 4.94-1.303zm-19.174 6.08c-.057.226-.385.5-.727.61-.343.109-.696.052-.785-.126-.09-.178.237-.452.727-.608.489-.157.842-.1.785.125zm-10.213 3.171c.058.137-.217.938-.61 1.78-.648 1.385-.75 1.463-1.076.814-.198-.395-.118-1.133.179-1.642.54-.928 1.312-1.416 1.507-.952zm-3.399 1.18c.09.179-.031.387-.269.463-.238.076-.505-.008-.595-.186-.09-.178.032-.387.27-.462.237-.076.505.008.594.186zm62.786-19.77c.186.372-2.817 5.116-3.346 5.285-.191.061-.633-.235-.981-.659-.542-.657-.494-.785.333-.878 1.387-.156 2.409-1.202 1.798-1.84-.31-.324-.263-.672.125-.905.346-.209.917-.593 1.268-.854.36-.268.71-.333.803-.15zm-17.023 5.696c.306.253.815.997 1.13 1.655l.575 1.196-1.262-.984c-.848-.662-1.219-1.205-1.13-1.655.123-.624.17-.639.687-.212zm-9.705 2.806c-.265.193-.643.3-.841.239-.198-.062.019-.22.482-.352.51-.145.652-.1.359.113zm-39.927 13.62c.031.101.05.49.043.865-.013.62-.144.637-1.481.18l-1.467-.502 1.424-.364c.783-.2 1.45-.28 1.481-.18zm38.427-11.842c-.05.195-.372.444-.717.554-.345.11-.814.599-1.042 1.086-.532 1.136-1.268 1.362-1.987.61-.471-.492-.845-.486-2.168.035-1.3.512-1.627.85-1.745 1.805-.126 1.023-.209 1.098-.643.582-.824-.981-1.701-1.15-3.313-.634-.842.27-1.45.35-1.352.18.27-.463 13.071-4.628 12.967-4.218zm-20.185 7.247c-.37.584-.817.953-.99.82-.342-.262.563-1.53 1.247-1.748.23-.074.114.344-.257.928zm40.792-12.82c-.197 1.146-.917 1.967-1.459 1.666-.254-.141-.152-.684.227-1.207.875-1.204 1.394-1.397 1.232-.459zM94.008 134.9c.262.52.022 2.29-.324 2.4-.173.055-.918-.04-1.655-.21-1.274-.297-1.297-.327-.47-.603.48-.16 1.19-.656 1.578-1.103.39-.446.781-.664.872-.484zm40.313-12.094c-.057.225-.19.437-.295.47-.104.034-.263-.085-.353-.263-.09-.178.043-.39.295-.47.252-.081.41.037.353.263zm-5.809 1.928c.114.235.128.706.032 1.047-.142.504-.243.488-.538-.088-.2-.39-.214-.86-.032-1.047.183-.186.425-.146.538.088zm-10.294 3.125c.172.1.5.673.726 1.273.365.965.537 1.05 1.5.743.686-.22 1.409-.945 1.96-1.97.482-.893.977-1.421 1.1-1.175.352.702-1.187 2.886-2.5 3.547-.741.373-1.595.521-2.277.396-.969-.18-1.07-.312-.918-1.199.094-.548-.04-1.115-.3-1.259-.258-.144-.275-.323-.038-.4.238-.075.574-.056.747.044zm-7.375 2.617c.14.278.06.568-.179.644-.237.076-.5 0-.585-.167-.084-.168-.004-.457.179-.644.182-.186.445-.11.585.167zm5.633-1.347c-.003.315.026.633.063.708.038.075-.434.296-1.048.492-1.45.464-1.51-.326-.086-1.15.87-.503 1.075-.513 1.07-.05zm-3.698 1.221c.205.4.178.79-.06.866-.541.173-.714-.171-.488-.973.142-.501.246-.48.548.107zm-13.908 4.318c.557.224.642.391.35.689-.356.364-1.42.054-1.716-.5-.211-.397.578-.505 1.366-.189zm33.154-10.402c.22.122.249.377.063.566-.395.404-1.335.353-1.555-.085-.198-.394.97-.77 1.492-.48zm-1.89 2.294c-.005.647-.923 1.354-1.647 1.27-.289-.034-.104-.432.41-.885 1.162-1.023 1.242-1.048 1.237-.385zm20.45-6.32a6.282 6.282 0 0 1-1.588.832c-.865.276-.865.276-.14-.28a6.283 6.283 0 0 1 1.588-.83c.865-.276.865-.276.14.278zm-45.682 14.415c.09.178.084.603-.012.944-.097.341-.248.474-.338.296-.09-.178-.084-.603.012-.944.096-.341.248-.475.338-.296zm13.538-3.105 1.495.556-1.583-.406c-1.48-.38-1.887-.554-1.548-.662.078-.025.814.206 1.636.512zm13.479-4.441c-.002.291-.343.723-.757.96-1 .572-1.01.418-.043-.624.63-.678.803-.75.8-.336zm8.683-1.531c.871-.167 1.354-.05 1.572.385.357.711-.05.95-1.074.63-.534-.167-.916-.044-1.628.524-.86.687-.947.685-1.158-.031-.238-.812.212-1.11 2.288-1.508zm-28.424 9.556c.284.566.156.72-.648.779-.627.046-1.195.364-1.516.852-.477.721-.556.744-1.076.315-.739-.61-.447-1.015 1.377-1.911 1.366-.672 1.542-.675 1.863-.035zm20.695-6.223c-.057.225-.19.437-.295.47-.105.034-.264-.084-.353-.263-.09-.178.043-.39.295-.47.251-.08.41.038.353.263zm-11.548 4.466c.095.189-.068.315-.36.281-.293-.034-.565-.126-.605-.205-.04-.079.123-.205.36-.281.238-.076.51.016.605.205zm18.69-4.724c.034.069-.289.325-.717.57-.429.246-.846.314-.927.152-.08-.161.242-.418.717-.57.475-.152.892-.22.927-.152zm-25.827 8.488c.09.178-.032.386-.27.462-.237.076-.505-.008-.594-.186-.09-.178.032-.386.27-.462.237-.076.505.008.594.186zm11.744-.08c-.573.69-.737 2.96-.243 3.368.269.222.267.474-.004.56-.27.087-.713-.026-.984-.25-.65-.536-1.717-.167-2.368.818-.843 1.277-1.215.715-.526-.795.348-.763 1.332-1.945 2.185-2.627 1.557-1.242 2.524-1.778 1.94-1.074zm-4.198 1.627c-1.037 1.39-2.438 2.483-2.875 2.24-.431-.24.867-1.525 2.505-2.48.947-.551.956-.546.37.24zm15.993-4.572c.433.054.717.218.632.365-.212.365-1.746.383-1.926.023-.186-.37.294-.513 1.294-.388zm-3.872 1.497c1.586.066 2.422.486 1.534.77-.228.073-.651.578-.94 1.123-.539 1.017-.715.968-1.213-.341-.192-.503-.526-.678-1.003-.526-.393.126-.725.03-.737-.21-.035-.687.558-.892 2.359-.816zm-13.766 6.787c-.057.224-.446.711-.865 1.083-.755.672-.757.67-.287-.282.475-.96 1.347-1.567 1.152-.801zm12.22-2.925c1.158.41.826 1.108-.485 1.02-.794-.055-1.272.107-1.848.627-.602.544-1.035.684-1.935.622-1.55-.105-1.106-.639 1.402-1.685 1.492-.623 2.295-.787 2.866-.584zm4.625-.975c.084.168.004.457-.179.643-.182.186-.445.111-.585-.167-.14-.278-.059-.567.179-.643.237-.076.5 0 .585.167zm-11.927 4.21c.09.179-.032.387-.27.463-.237.076-.505-.008-.594-.186-.09-.178.031-.386.27-.462.237-.076.505.008.594.186zm21.289-4.265c.704 1.318.702 1.409-.016.663-1.151-1.195-1.566-1.944-1.151-2.077.193-.062.718.575 1.167 1.414zm-7.257 1.002c.586.531-.17 1.467-1.524 1.887-1.19.368-1.207.357-.611-.397 1.137-1.438 1.733-1.854 2.135-1.49zm-14.367 5.205c.951.342.988.41.438.8-1.054.75-1.432.733-1.296-.054.07-.409-.041-.796-.248-.86-.206-.065-.276-.15-.154-.189.121-.039.688.098 1.26.303zm-7.46 2.525c.198.402.281 1.01.185 1.352-.13.46-.333.309-.792-.594-.339-.667-.422-1.275-.184-1.351.237-.076.594.19.791.593zm3.059-.461c-.3 1.352.332 2.31 2.02 3.053.852.375 1.15.32 2.526-.476 1.595-.922 2.648-.905 2.102.032-.154.263-.075.647.174.852.668.552-1.748 1.212-3.208.877-1.852-.425-4.04-1.644-4.453-2.482-.421-.857-.327-1.28.528-2.367.583-.742.588-.734.31.51zm11.582-3.686c.749.234.993 1.313.345 1.52-.403.129-.802-.1-1.055-.603-.395-.787-.098-1.17.71-.917zm-9.694 4.07c.276.888.643 1.155 1.443 1.052.765-.098.776-.07.154.41-.44.339-.877.402-1.278.184-.844-.458-1.451-1.754-.904-1.929a.459.459 0 0 1 .585.284zm20.662-5.863c.462.921.1 1.651-.62 1.25-.24-.132-.296-.663-.125-1.178l.311-.936.434.864zm2.482-.657c-.003.328.056.72.132.87.254.507-1.108 3.008-2.127 3.904-.913.802-1.109.86-1.984.586-.822-.257-.9-.378-.508-.793.395-.42.348-.505-.328-.593-.434-.057-.696-.263-.583-.458.114-.195.673-.298 1.243-.23.57.069 1.304.04 1.632-.065.98-.313 2.221-2.216 1.884-2.887-.172-.344-.098-.694.165-.778.263-.084.476.116.474.444zm-5.759 1.622c.237.131.387.405.335.61-.139.547-1.955.658-2.217.136-.258-.514 1.235-1.106 1.882-.746zm-3.31 1.128c.035.686-.845 1.084-1.132.511-.142-.282.05-.612.426-.732.377-.12.695-.02.707.221zm-6.175 2.092c-.003.31-.178.62-.39.689-.213.067-.496-.096-.63-.363-.134-.268.041-.578.39-.69.387-.123.633.019.63.364zm-2.873.63c.243.484-.471 1.38-1.315 1.649-1.318.421-1.281-.888.04-1.449.624-.264 1.197-.355 1.275-.2zm20.191-4.729c.053.106-.125.905-.396 1.776-.508 1.638-2.737 3.965-4.255 4.442-.54.17-.264-.231.733-1.064 2.018-1.685 2.715-2.544 3.331-4.103.27-.683.534-1.156.587-1.05zm-23.002 10.618c1.394.249 2.753.223 3.7-.07.953-.295 1.404-.302 1.24-.022-.41.705-3.96.96-6.096.44-2.495-.608-1.677-.854 1.156-.348zm11.182-3.198c.372.742.229.831-1.183.735-1.195-.082-1.184-.731.018-1.116.551-.176.95-.045 1.165.38zM83.877 71.76c.04.079.312.171.605.205.293.035.455-.092.36-.28-.094-.19-.366-.282-.604-.206-.237.076-.4.203-.36.281zm5.418-1.05c-.569.557-.79.628-1.11.354-.22-.188-.71-.243-1.089-.122-.93.297-3.34 1.928-3.497 2.366-.07.194-.535.224-1.034.068-.5-.156-.983-.155-1.074.003-.313.536.103.826.872.607.651-.186.657-.138.034.318-.403.296-.911.52-1.128.5-.217-.02-.317.118-.223.306.095.19.442.258.772.152.329-.105 1.254-.153 2.054-.106.801.046 1.518-.037 1.594-.185.077-.149-.137-.257-.474-.242-.337.015-.68-.106-.762-.27-.2-.399 1.256-.84 2.004-.607.4.125.793-.065 1.19-.574.565-.724.541-.733-.493-.18-.68.365-1.154.448-1.267.223-.099-.197.17-.471.598-.608.428-.137.918-.49 1.09-.784.236-.405.506-.49 1.113-.35.628.145.953-.024 1.507-.786.794-1.093.402-1.142-.677-.084zm-19.974 7.015c.077.153.474.269.882.257.408-.01.86.215 1.004.503.383.762 1.248.044.997-.827-.295-1.028-1.643-1.448-2.417-.754-.333.299-.542.668-.466.821zM117.475 62.2c-.233.4-.173 1.226.134 1.838.45.895.726 1.057 1.422.835.476-.152.79-.423.7-.603-.09-.18.163-.798.562-1.374.68-.982.662-1.071-.284-1.411-1.24-.446-1.98-.237-2.534.715zM63.788 80.24c.539.3 1.776-.011 1.582-.397-.072-.143-.451-.36-.844-.483-.832-.26-1.455.483-.738.88zm14.757-4.12c-.164.368-.103.597.138.52.238-.076.564-.434.726-.796.164-.367.103-.597-.138-.52-.238.076-.565.434-.726.796zM60.93 82.447c-.364.435-.368.716-.012.757.81.095 1.782-.688 1.515-1.22-.286-.57-.765-.421-1.503.463zm19.25-4.699c.349.194 1.68-1.017 1.503-1.368-.06-.119-.494.1-.966.487s-.714.783-.538.881zm30.987-9.753c.529.166 1.126.135 1.326-.07.658-.672.077-.987-1.116-.606-1.08.346-1.097.4-.21.676zm-42.694 13.79c.182.752 2.389.75 2.789-.003.169-.318.19-.812.045-1.098-.348-.695-3.017.343-2.834 1.102zm69.508-22.367c-1.71.858-.604 1.029 2.033.313 1.714-.465 2.645-.87 2.647-1.152 0-.239-.104-.467-.234-.508-.343-.107-3.39.816-4.446 1.347zM79.333 78.69c.09.178.357.262.595.186.238-.076.359-.284.27-.463-.09-.178-.358-.262-.596-.186-.237.076-.358.284-.269.463zm-6.21 3.113c-.422.832-.401.88.284.662.408-.13.697-.066.644.144-.14.548.874.586 1.698.064 1.058-.67-.034-2.449-1.263-2.057-.498.159-1.111.693-1.363 1.187zm-7.345 2.348c-.058.225.198.313.569.194.37-.118.6-.36.51-.54-.089-.177-.345-.265-.569-.193a.855.855 0 0 0-.51.54zM53.73 87.876c.343-.005.829-.16 1.08-.346.253-.185-.027-.18-.622.01-.594.19-.8.34-.458.336zm89.646-26.303c.439.94 1.034 1.782 1.323 1.873.303.094.28-.267-.053-.855-.318-.56-.85-1.51-1.185-2.11-.925-1.665-.99-.842-.085 1.092zm-9.01 1.86c-.367 1.494.1 1.962.563.567.265-.798.71-1.05 3.307-1.88 3.734-1.194 3.68-1.846-.068-.829-1.517.412-2.921.768-3.12.791-.2.024-.506.632-.683 1.351zM69.462 83.802c-.515.884-.123 1.143.6.398.668-.689.705-1.267.069-1.063-.19.06-.491.36-.67.665zM65.4 85.4c-.057.225.102.344.354.263.251-.08.384-.292.295-.47-.09-.179-.249-.297-.354-.264-.104.034-.237.246-.295.47zM55.193 89.04c-.062.244.519.21 1.434-.082.846-.27 1.465-.637 1.375-.816-.09-.178-.734-.141-1.433.082-.7.224-1.318.59-1.376.816zm81.519-25.446c-.703.499-1.257 3.553-.608 3.345.243-.078.365-.294.271-.48-.327-.653 1.163-2.612 2.253-2.96.605-.193 1.026-.497.937-.676-.181-.36-1.923.11-2.853.77zM71.006 85.87c.154.467.695 1.042 1.202 1.278.898.419.942.398 1.632-.787.87-1.491.57-2.228-.815-2.007-1.835.294-2.305.647-2.019 1.516zm-4.124 2.195c.171.75.292.766 1.413.191 1.688-.865 1.433-1.981-.323-1.42-.996.319-1.236.59-1.09 1.229zm71.261-21.214c-.844.994-1.829 1.902-2.187 2.016-.785.251-1.354 1.38-.902 1.79.336.304 5.395-5.074 5.178-5.506-.206-.41-.494-.177-2.089 1.7zM53.693 93.42l-.575 1.073 1.301-.203c.716-.112 1.744-.22 2.285-.241.8-.03.723-.098-.416-.362-1.202-.278-1.355-.424-1.084-1.033.53-1.187-.834-.495-1.51.766zm17.028-4.126c.589.712 1.905.357 1.789-.482-.055-.394-.22-.754-.366-.8-.635-.199-1.788.84-1.423 1.282zm-2.826.577c.09.178.37.258.62.178.252-.08.265-.254.029-.385-.237-.131-.516-.211-.62-.178-.105.033-.118.207-.028.385zm65.012-18.524c-.291 1.128-.392 2.005-.225 1.95.168-.055.48-.874.695-1.82.464-2.045.494-2.319.247-2.24-.103.033-.426.983-.717 2.11zM54.505 97.16c-.14.81.607.918.811.116.177-.693 1.71-.962 2.525-.444.454.288 1 .33 1.322.101.792-.562.406-1.016-.592-.697-.579.185-.85.091-.846-.294.008-.94-3.047.215-3.22 1.218zm1.272 2.296c-.002 1.662.361 1.61.752-.106.22-.965.15-1.38-.212-1.265-.297.095-.54.712-.54 1.37zm100.427-24.398 1.223 1.428-1-1.52c-.55-.835-1.67-2.762-2.49-4.282l-1.49-2.763 1.267 2.855c.697 1.57 1.817 3.497 2.49 4.282zM59.212 98.315c-.634.423-1.154 1.013-1.157 1.31-.006.693.507.523 1.268-.42.33-.409 1.046-.892 1.592-1.073.55-.182.8-.436.563-.568-.543-.301-.842-.202-2.266.75zm.474 1.922c.567.177 1.14-.587.647-.861-.293-.163-.532-.08-.726.252-.158.272-.123.546.079.61zm7.575-2.64c.09.178.466.227.836.108.37-.118.48-.323.244-.454s-.613-.18-.836-.109c-.224.072-.334.276-.244.454zm-6.327 3.379c.035.07.355.034.712-.08.356-.114.577-.349.49-.521-.086-.173-.407-.137-.712.08-.305.216-.525.45-.49.52zm8.03-2.567c-.605.429-.564 1.08.055.882.192-.061.62-.446.949-.855.612-.76.048-.775-1.005-.027zm-13.603 5.425c-.506 1.133.17.952 1.23-.329.544-.657.823-1.246.62-1.309-.46-.144-1.442.725-1.85 1.638zm7.889-3.075c-.476.152-.701.425-.501.607.626.568 1.346.307 2.065-.75.532-.78.531-.915-.003-.575a8.123 8.123 0 0 1-1.561.718zm-5.69 3.62c.35-.021.765-.259.922-.528.2-.343.01-.33-.638.04-.527.301-.649.51-.285.488zm9.325-2.536c.087.172.407.136.712-.08.305-.217.526-.451.49-.521-.035-.07-.355-.035-.712.08-.356.113-.577.348-.49.52zm-5.098 1.595a57.39 57.39 0 0 1-1.967 1.563c-.747.571-1.284 1.187-1.193 1.368.236.47.565.297 1.524-.805.464-.534 1.517-1.3 2.339-1.703.822-.403 1.54-.91 1.595-1.126.126-.493-1.483 0-2.298.703zm3.276.686a38.423 38.423 0 0 1-1.344 1.902c-.495.661-.701 1.264-.458 1.34.244.077.678-.216.966-.652.287-.435.75-.864 1.029-.953.278-.09.424-.326.323-.526-.12-.238.156-.294.797-.16.888.183.897.167.102-.175-.704-.303-.82-.508-.584-1.036.38-.85-.253-.653-.83.26zm-4.388 2.526c-.304.876.379.503 1.22-.667.484-.675.717-1.278.516-1.341-.35-.11-1.438 1.15-1.736 2.008zm-4.206.415c.09.178.345.265.569.194a.855.855 0 0 0 .51-.54c.058-.225-.198-.312-.568-.194-.371.119-.6.361-.511.54zm12.994-2.085c.134.268.535.393.892.28.356-.115.538-.427.404-.694-.134-.268-.536-.393-.892-.28-.357.115-.539.427-.404.694zM58.7 108.89c1.046 1.143 1.256 1.126.663-.055-.283-.564-.713-.963-.955-.885-.262.083-.143.466.292.94zm9.94-2.904c.434.359.769 2.403.69 4.21-.025.544.197.594 1.204.273 1.23-.393 1.23-.402.181-2.333-1.07-1.97-1.787-2.797-2.284-2.638-.152.048-.058.268.21.488zm-12.379 4.647c.07.145.275.112.457-.074.182-.187.205-.585.05-.885-.243-.47-.306-.46-.457.074-.096.341-.118.74-.05.885zm8.96-2.586c-.06.236-.494.502-.965.59-1.24.234-.892.85.524.924 1.063.056 1.133.12.573.518-.352.25-1.03.498-1.508.551-.976.11-1.614 1.55-.732 1.653.29.033.528-.194.53-.505.003-.311.32-.575.706-.585 1.057-.03 1.085.462.053.927-.504.227-.85.7-.77 1.051.137.597.213.58 1.18-.27 1.03-.904 1.035-.904 1.818.027.432.515.663 1.146.513 1.403-.46.789-.04 1.045.666.407.367-.331 1.124-.749 1.682-.927.83-.266.925-.484.52-1.2-.383-.68-.915-.891-2.368-.94-2.241-.074-2.449-.326-1.183-1.435 1.193-1.046 1.362-1.497.907-2.423-.25-.51-.615-.65-1.198-.463-.462.147-.888.46-.948.697zm-7.437 7.168c1.16.955 1.677 1.204 1.553.75-.103-.376.014-.818.26-.983.244-.165.124-.152-.269.027-.76.349-1.376-.317-.82-.885.525-.535.05-1.06-.564-.624-.924.656-.845-.023.09-.779 1.063-.86 1.377-.784 2.04.495l.517.995.444-.987c.412-.915-.33-2.467-.9-1.884-.37.378-3.324.396-3.54.022-.103-.18-.27.29-.37 1.047-.173 1.322-.114 1.429 1.559 2.806zm7.302.026c.084.168.347.243.585.167.238-.076.318-.365.179-.643-.14-.278-.403-.353-.586-.167-.182.186-.262.476-.178.643zm99.867-16.879c-.169 1.281-.617 2.86-.995 3.51-.72 1.235-.608 2.043.298 2.15.293.033.446-.11.34-.32-.104-.21.142-1.065.548-1.9.826-1.697 1.224-3.932.973-5.46-.26-1.582-.818-.614-1.164 2.02zm-89.909 39.24c.666.37 7.865-2.06 7.39-2.494-.375-.342-7.183 1.346-7.613 1.888-.146.184-.045.456.223.605zm36.726 8.184c.102 1.479 1.623 5.397 2.46 6.34.494.556 1.505 1.29 2.247 1.632.743.342 1.415.75 1.494.909.08.157.61.411 1.179.564 1.317.353 4.793.344 4.614-.012-.074-.147-1.465-.717-3.092-1.266-1.756-.592-3.548-1.526-4.413-2.299-2.605-2.328-3.72-5.811-2.43-7.58.876-1.198.251-1.253-.943-.082-.64.626-1.141 1.433-1.116 1.794zm35.201-11.265c.17.337.642.604 1.05.593.792-.022.772-.332-.066-1.024-.72-.594-1.357-.314-.984.431zm3.277 6.61c-.125.92-.774 2.65-1.443 3.845-.846 1.51-1.028 2.233-.597 2.368 1.26.393 3.658-5.958 2.874-7.608-.348-.733-.604-.305-.834 1.395zm-.955 8.215c.312.825-.125 1.435-1.78 2.488-.366.233-.561.63-.435.882.198.393.458.307 1.83-.6 2.119-1.4 2.203-1.614 1.152-2.9-1.002-1.226-1.263-1.181-.767.13zm-20.006 10.5c-.068.269.133.472.448.453.315-.02.659.136.764.346.105.21.646.436 1.2.503.878.105.94.048.47-.442-.296-.31-.739-.587-.984-.615-.245-.029-.443-.302-.44-.606.006-.672-1.276-.354-1.458.362zm17.306-3.5c-.084 1.794.218 2.211.878 1.212.595-.901.693-2.868.151-3.038-.58-.18-.968.508-1.03 1.826zm-.338-6.71c-.667.83-2.022 1.407-2.247.96-.18-.361.733-1.027 1.936-1.412.894-.286.9-.277.311.453zm-16.789 5.528c.887-.02.909.012.306.44-1.098.78-2.296 1.017-2.552.506-.26-.517.675-.91 2.246-.946zm5.395-1.303c-.058.23-.329.39-.602.359-.738-.087-.724-.317.035-.56.37-.118.626-.028.567.201zm7.936-.684c.273.544-.426.923-.932.506-.298-.246-.241-.485.144-.608.35-.112.704-.066.788.102zm-8.701 2.874c.028.553-.82 1.134-1.034.708-.088-.174.104-.504.426-.732.36-.256.594-.247.608.024zm10.28-.726c.219.435.04.742-.537.927-.476.152-.92.165-.988.03-.068-.135.174-.553.537-.927.579-.597.702-.6.988-.03zm-10.048 3.54c.3.167.472.428.383.58-.241.414-.877.122-.904-.415-.02-.376.083-.408.521-.165zm6.414-1.264c.227.127.358.551.29.943a6.813 6.813 0 0 0-.074 1.387c.068.904-1.072.928-1.538.032-.204-.393-.69-.752-1.08-.798-.807-.094-.584-.384.93-1.214.582-.319 1.244-.476 1.472-.35zm3.063.582c.294.585-1.166 3.719-1.83 3.93-.336.108-.685.05-.774-.128-.09-.178.126-.416.48-.53.353-.112.84-.945 1.083-1.85.45-1.683.723-2.056 1.041-1.422zm-4.43 5.16c.095.19-.067.316-.36.281-.293-.034-.565-.126-.605-.205-.039-.078.123-.205.36-.28.239-.077.51.016.605.204zm2.751 2.484c-.64.681-1.212.864-1.08.346.058-.226.434-.513.838-.639.632-.197.665-.156.242.293z" id="path8269"/></g></g></svg>