<svg viewBox="0 0 563 563" xmlns="http://www.w3.org/2000/svg" xml:space="preserve" style="fill-rule:evenodd;clip-rule:evenodd;stroke-linecap:round;stroke-linejoin:round;stroke-miterlimit:1.5"><circle cx="454.567" cy="478.442" r="236.317" style="fill:#fff;stroke:#ffb000;stroke-width:12.94px" transform="translate(-245.552 -273.235) scale(1.15946)"/><circle cx="454.567" cy="478.442" r="236.317" style="fill:none;stroke:#ffb000;stroke-width:2.72px" transform="translate(-219.584 -245.903) scale(1.10233)"/><path d="M475 325.25c-.5 0-1.5-4.58-3-13.75-2.17-15.17-13.33-32.42-33.5-51.75l-26-24.75c-9.5-9.33-16.75-16.92-21.75-22.75-3.5-4.17-7.08-9.33-10.75-15.5l-6.5-11c-1.5-2.17-3.17-3.83-5-5-1-.5-1.5-1.42-1.5-2.75v-12.5c0-2.5.42-3.75 1.25-3.75.67 0 1.75.67 3.25 2L395 181.5c1.83 1.5 2.75 2.58 2.75 3.25 0 .5-.67.75-2 .75-2 0-5.33-.5-10-1.5 3.17 5.67 12 15.83 26.5 30.5L445 247c21.83 22.33 32.75 41.42 32.75 57.25v4.25c-1.33 11.17-2.25 16.75-2.75 16.75Z" style="fill:#693b9e" transform="matrix(.99496 0 0 .99496 32.5 30.648)"/><path d="M24 356.85c0-.24.48-.89 1.43-1.97 5.01-5.36 7.51-8.94 7.51-10.73-.12-1.78-.95-2.68-2.5-2.68-.84 0-1.55.21-2.15.63-.59.42-.95.62-1.07.62l-.36-.17.18-1.26c.83-3.69 2.68-5.54 5.54-5.54 2.51 0 3.76 1.49 3.76 4.47 0 2.27-.96 4.86-2.86 7.78-1.91 2.92-4.35 5.45-7.33 7.6-1.2.83-1.91 1.25-2.15 1.25Z" style="fill:#61bb00" transform="matrix(.99496 0 0 .99496 32.5 30.648)"/><path d="M24 356.85c0-.24.48-.89 1.43-1.97 5.01-5.36 7.51-8.94 7.51-10.73-.12-1.78-.95-2.68-2.5-2.68-.84 0-1.55.21-2.15.63-.59.42-.95.62-1.07.62l-.36-.17.18-1.26c.83-3.69 2.68-5.54 5.54-5.54 2.51 0 3.76 1.49 3.76 4.47 0 2.27-.96 4.86-2.86 7.78-1.91 2.92-4.35 5.45-7.33 7.6-1.2.83-1.91 1.25-2.15 1.25Z" style="fill:#01b948" transform="matrix(.99496 0 0 .99496 130.006 114.223)"/><path d="M24 356.85c0-.24.48-.89 1.43-1.97 5.01-5.36 7.51-8.94 7.51-10.73-.12-1.78-.95-2.68-2.5-2.68-.84 0-1.55.21-2.15.63-.59.42-.95.62-1.07.62l-.36-.17.18-1.26c.83-3.69 2.68-5.54 5.54-5.54 2.51 0 3.76 1.49 3.76 4.47 0 2.27-.96 4.86-2.86 7.78-1.91 2.92-4.35 5.45-7.33 7.6-1.2.83-1.91 1.25-2.15 1.25Z" style="fill:#01b948" transform="matrix(.99496 0 0 .99496 61.354 -8.653)"/><path d="M24 356.85c0-.24.48-.89 1.43-1.97 5.01-5.36 7.51-8.94 7.51-10.73-.12-1.78-.95-2.68-2.5-2.68-.84 0-1.55.21-2.15.63-.59.42-.95.62-1.07.62l-.36-.17.18-1.26c.83-3.69 2.68-5.54 5.54-5.54 2.51 0 3.76 1.49 3.76 4.47 0 2.27-.96 4.86-2.86 7.78-1.91 2.92-4.35 5.45-7.33 7.6-1.2.83-1.91 1.25-2.15 1.25Z" style="fill:#01b948" transform="matrix(.99496 0 0 .99496 204.627 -44.472)"/><path d="M24 356.85c0-.24.48-.89 1.43-1.97 5.01-5.36 7.51-8.94 7.51-10.73-.12-1.78-.95-2.68-2.5-2.68-.84 0-1.55.21-2.15.63-.59.42-.95.62-1.07.62l-.36-.17.18-1.26c.83-3.69 2.68-5.54 5.54-5.54 2.51 0 3.76 1.49 3.76 4.47 0 2.27-.96 4.86-2.86 7.78-1.91 2.92-4.35 5.45-7.33 7.6-1.2.83-1.91 1.25-2.15 1.25Z" style="fill:#008b96" transform="matrix(.99496 0 0 .99496 395.659 -32.035)"/><path d="M429.5 421.35c0-.24.48-.89 1.43-1.97 5.01-5.36 7.51-8.94 7.51-10.73-.12-1.78-.95-2.68-2.5-2.68-.84 0-1.55.21-2.15.63-.59.42-.95.62-1.07.62l-.36-.17.18-1.26c.83-3.69 2.68-5.54 5.54-5.54 2.51 0 3.76 1.49 3.76 4.47 0 2.27-.96 4.86-2.86 7.78-1.91 2.92-4.35 5.45-7.33 7.6-1.2.83-1.91 1.25-2.15 1.25Z" style="fill:#3071cf" transform="matrix(.99496 0 0 .99496 32.5 30.648)"/><path d="M19.5 187.75c0-.33.67-1.25 2-2.75 7-7.5 10.5-12.5 10.5-15-.17-2.5-1.33-3.75-3.5-3.75-1.17 0-2.17.29-3 .88-.83.58-1.33.87-1.5.87l-.5-.25.25-1.75c1.17-5.17 3.75-7.75 7.75-7.75 3.5 0 5.25 2.08 5.25 6.25 0 3.17-1.33 6.79-4 10.88-2.67 4.08-6.08 7.62-10.25 10.62-1.67 1.17-2.67 1.75-3 1.75Z" style="fill:#993fb1" transform="matrix(.99496 0 0 .99496 32.5 30.648)"/><path d="M198.25 443.75v-.25c0-.17.67-1 2-2.5 7-7.5 10.5-12.58 10.5-15.25-.17-2.33-1.33-3.5-3.5-3.5-1.17 0-2.17.25-3 .75l-1.5 1-.5-.25.25-2c1.17-5 3.92-7.5 8.25-7.5 3.17 0 4.75 2.08 4.75 6.25 0 3.17-1.33 6.79-4 10.88-2.67 4.08-6.08 7.62-10.25 10.62-1.67 1.17-2.67 1.75-3 1.75Z" style="fill:#d50019" transform="matrix(.99496 0 0 .99496 32.5 30.648)"/><path d="M384 301.75c3.5 1.83 8.08 2.75 13.75 2.75 6 0 11.75-2.33 17.25-7 1.67-1.33 2.5-6.25 2.5-14.75 0-5.17-2.17-37.83-6.5-98-4.5-60.33-6.75-93.75-6.75-100.25 0-5.83-.92-10.67-2.75-14.5 0-2.17 1.75-7.25 5.25-15.25.33-1 .75-1.5 1.25-1.5.33 0 .67.5 1 1.5 1 2.17 3.33 7.92 7 17.25 3.67 9.83 5.92 15.92 6.75 18.25.33 1.67.5 3 .5 4 0 2.67-2.58 1-7.75-5-.67-1-1-.67-1 1 0 .5 2.08 28.67 6.25 84.5 4 55.83 6 86.83 6 93 0 18-3.17 32.08-9.5 42.25-5.67 8.67-12.17 13-19.5 13-6.33 0-10.83-.42-13.5-1.25-6-1.67-10.92-5.5-14.75-11.5-2.5-4-5-8.17-7.5-12.5-2.17-3.33-4.33-5-6.5-5-7 0-14.33 5.83-22 17.5-1.33 2-3.75 7.42-7.25 16.25s-6.5 15.25-9 19.25c-4.17 6-8.58 9-13.25 9-6.67 0-12.33-5.33-17-16-4.17-9.33-6.25-19.08-6.25-29.25 0-12.17 1.17-21.83 3.5-29 .83-2.67 1.58-4 2.25-4 .67 0 .83 1.58.5 4.75-1 7.83-1.5 14.42-1.5 19.75 0 25.83 6 38.75 18 38.75 4.67 0 9.08-3.75 13.25-11.25l2-4.5c3.5-7.5 6.92-15 10.25-22.5 3.83-7.33 8.42-13.67 13.75-19s10.25-8 14.75-8c3.33 0 6.42 2.08 9.25 6.25l7 11.5c3.33 4.67 6.75 7.83 10.25 9.5Z" style="fill:#ffb000" transform="matrix(.99496 0 0 .99496 32.5 30.648)"/><path d="M449.639 509.749h-.25c0-.33 1.33-1.08 4-2.25 7.5-3 19.08-8.17 34.75-15.5 11.33-6.17 18.58-11.58 21.75-16.25 1.17-2.67 3.08-6.08 5.75-10.25.33-.33.75-.5 1.25-.5l.75.25c2.33-4.67 4.83-7 7.5-7 1.83 0 3.58 1.08 5.25 3.25s2.5 4.75 2.5 7.75c0 1.17-.17 2.25-.5 3.25-1.17 4.83-2.75 7.25-4.75 7.25-1.67 0-3.87-.92-6.62-2.75s-4.8-3.58-6.13-5.25c-1.67 5.17-3.83 9.33-6.5 12.5-4.67 5.33-11 10.08-19 14.25-6.17 3.5-9.92 5.25-11.25 5.25s-5.08.83-11.25 2.5c-9.33 2.33-15.08 3.5-17.25 3.5Zm79.5-37.25v-1.5c-.17-1-.79-2.12-1.87-3.37-1.09-1.25-2.13-1.88-3.13-1.88-1.5 0-2.75.75-3.75 2.25 1.67 1.33 4.17 2.75 7.5 4.25.33.17.75.25 1.25.25Z" style="fill:#d50019" transform="matrix(.99496 0 0 .99496 -77.083 -13.13)"/><path d="M259.25 504.25c-3 0-5.46-.79-7.37-2.37-1.92-1.59-2.88-3.63-2.88-6.13 0-4.33 1.79-8.54 5.38-12.62 3.58-4.09 7.12-7.88 10.62-11.38.33-.33.5-.67.5-1 0-.33-.33-.67-1-1-2.67-.83-5.5-1.25-8.5-1.25-1.83 0-3.67.5-5.5 1.5h-1l.25-1c1.17-3 2.46-5.04 3.88-6.12 1.41-1.09 3.7-1.63 6.87-1.63 7.17 0 10.75 1.75 10.75 5.25 0 2.67-2.25 6.42-6.75 11.25l-9.75 10c-1.5 1.83-2.25 3.42-2.25 4.75 0 3 3.33 4.5 10 4.5 6.17 0 12.75-1 19.75-3l2.75-.75.25.25c0 .17-.75.92-2.25 2.25-6.17 5.67-14.08 8.5-23.75 8.5Z" style="fill:#008b96" transform="matrix(.99496 0 0 .99496 32.5 30.648)"/><path d="M71.25 272.75c-10.67 0-18.17-5.17-22.5-15.5-2.33-5.83-3.5-12.58-3.5-20.25 0-10.5 1.17-20.17 3.5-29 .67-2.5 1-4.17 1-5l-.25-.5c-.5 0-1.5 1.17-3 3.5-2.5 3.67-5.08 11.33-7.75 23-3.33 14.83-5.58 23.83-6.75 27-1.33 4.17-3.33 7.5-6 10-2 2.33-3.75 3.5-5.25 3.5-7 0-12.42-4.42-16.25-13.25-3-7.33-4.5-16.17-4.5-26.5 0-7.17 1.08-15 3.25-23.5 1-3.33 1.83-5 2.5-5 .33 0 .5.5.5 1.5s-.17 2.42-.5 4.25C4.58 213.33 4 219.17 4 224.5c0 21 4.33 31.5 13 31.5 3.83 0 7-2.83 9.5-8.5 1.5-3.5 3.33-10.17 5.5-20 2.67-11 4.83-19 6.5-24 2.17-5.83 4.67-11 7.5-15.5 3.5-5.17 6.42-7.75 8.75-7.75 2 0 3 2.17 3 6.5 0 3.33-1 10.29-3 20.88-2 10.58-3 17.7-3 21.37 0 8 1.67 14.21 5 18.63 3.33 4.41 7.92 6.62 13.75 6.62 10.5 0 18.42-3.33 23.75-10 4.17-5.33 6.25-11.83 6.25-19.5 0-12.17-1.75-23.92-5.25-35.25l-2-5.5c0-4.33 1.42-10.17 4.25-17.5.67-1.5 1.17-2.25 1.5-2.25.5 0 1.25 1.08 2.25 3.25 3.83 8.17 6.92 20.67 9.25 37.5 2.17 16 5.25 27.42 9.25 34.25 4 6.83 10.17 10.25 18.5 10.25 6.83 0 11.33-2.5 13.5-7.5 0-1.83-1.42-5.58-4.25-11.25-3.67-7.17-6.33-13.08-8-17.75-3-9.5-5.08-18.42-6.25-26.75l-1-5.75c-.33-1.83-1.17-3.58-2.5-5.25 3-9.33 4.92-14 5.75-14 .5 0 1.25.75 2.25 2.25 9.67 13.17 14.5 20.75 14.5 22.75 0 .83-.33 1.25-1 1.25-1.17 0-3.42-1-6.75-3-.17 0-.42.17-.75.5 1.17 4 3 9.5 5.5 16.5 5.5 15.83 8.25 27.33 8.25 34.5 0 7.17-1.08 13.5-3.25 19-3.5 9.17-9.67 13.75-18.5 13.75-9.5 0-16.92-4.08-22.25-12.25-3.33-5-6.25-12.33-8.75-22-1 9.83-4.08 18.33-9.25 25.5-6.33 8.5-14.42 12.75-24.25 12.75Z" style="fill:#2f71cf" transform="matrix(.99496 0 0 .99496 32.5 30.648)"/><path d="M72 294.25c-.33 0-.5-.75-.5-2.25l.25-5.5c.67-4.83 1-10.58 1-17.25 0-5.83-1.5-30.17-4.5-73s-4.5-66.83-4.5-72c0-5.83-1-10.67-3-14.5 0-2.17 1.75-7.33 5.25-15.5.5-.83.83-1.25 1-1.25.5 0 1 .42 1.5 1.25l6.75 17.5c4.83 13 7.25 20.33 7.25 22 0 .83-.25 1.25-.75 1.25-1.17 0-3.5-2-7-6-.17-.33-.33-.5-.5-.5-.17 0-.25.5-.25 1.5 0 .67 1.33 19.67 4 57s4 58.42 4 63.25c0 16.83-2.92 31.08-8.75 42.75-.67.83-1.08 1.25-1.25 1.25Z" style="fill:#3071cf" transform="matrix(.99496 0 0 .99496 32.5 30.648)"/><path d="M278.639 351.499c.33-.17.75-.33 1.25-.5l5.75-2.5c4.67-2.33 7.58-3.83 8.75-4.5 5-2.67 9.92-6.08 14.75-10.25 1.5-1.17 2.67-1.75 3.5-1.75.67 0 1 .5 1 1.5 0 1.17-.33 3-1 5.5-.5 2.33-.75 4.17-.75 5.5-.17 6.83 4.58 10.25 14.25 10.25 7.5 0 13.75-3.25 18.75-9.75 3.17-5 6.33-9.83 9.5-14.5 1-1.33 1.92-2 2.75-2 1.17 0 1.42 1.33.75 4-1.17 5.33-1.75 7.67-1.75 7 0 2.17 1.17 4.25 3.5 6.25 2.33 1.83 5.17 2.75 8.5 2.75 4.17 0 6.92-1.08 8.25-3.25 0-.17-1.42-2.58-4.25-7.25.67-2.5 1.83-6.75 3.5-12.75.5-1.67 1-2.5 1.5-2.5s1.25.5 2.25 1.5c2.5 3.67 3.75 7.92 3.75 12.75 0 7.67-1.67 14.17-5 19.5-3.83 6.67-9.25 10-16.25 10-4.83 0-9.33-3.75-13.5-11.25-6.67 12-15.33 18-26 18-12.5 0-18.75-7.08-18.75-21.25-5 5.83-12.92 11.08-23.75 15.75l-.5.5c0 3.5-.92 7.92-2.75 13.25-2.17 7-5.25 12.75-9.25 17.25-9.33 10.83-19.42 20.33-30.25 28.5-16 12.33-30.17 18.5-42.5 18.5-10 0-17.83-3.75-23.5-11.25-4.83-6.67-7.25-15-7.25-25 0-12.83 2.67-26 8-39.5 1.33-2.83 2.25-4.25 2.75-4.25.17 0 .25.25.25.75 0 1-.17 2.42-.5 4.25-3.83 13.33-5.75 23.5-5.75 30.5 0 6.17 1.58 11.58 4.75 16.25 4.67 6.5 12.25 9.75 22.75 9.75 9.17 0 20.08-3.92 32.75-11.75 10.5-6.33 20.5-14.08 30-23.25 8.67-8.17 13-13.58 13-16.25 0-2.17-.42-4.25-1.25-6.25-3.5 1.33-8.67 2-15.5 2-14.5 0-21.75-5-21.75-15 0-7.67 2.42-14.42 7.25-20.25 4.33-5.33 9.08-8 14.25-8 3.83 0 7.92 2.33 12.25 7 4 4.33 7.58 9.75 10.75 16.25.17 0 .42-.08.75-.25Zm-24.75 3c2.67 0 5.58-.33 8.75-1-4.33-5.67-8.33-8.5-12-8.5-5.33 0-8 1.5-8 4.5 0 3.33 3.75 5 11.25 5Z" style="fill:#008b96" transform="matrix(.99496 0 0 .99496 -77.083 -13.13)"/><path d="M126.75 468c-6.17 0-11.58-2.79-16.25-8.37-4.67-5.59-7-12.55-7-20.88 0-11.33 4.67-26.17 14-44.5 1-2 1.75-3 2.25-3 .33.17.5.42.5.75 0 2-2.04 8.46-6.12 19.38-4.09 10.91-6.13 19.54-6.13 25.87 0 4.83 1.17 8.75 3.5 11.75s5.67 4.5 10 4.5c6.67 0 14.5-4.08 23.5-12.25l23.75-25.75c21.67-23.5 41.08-35.25 58.25-35.25 4.83 0 9.04 1.5 12.63 4.5 3.58 3 5.37 6.5 5.37 10.5 0 5-.92 9.33-2.75 13-.5 1.33-.83 2-1 2-.5 0-1.08-.67-1.75-2-3.5-6.33-8.92-9.5-16.25-9.5-13.17 0-28.17 8.58-45 25.75L150 455.25c-8.33 8.5-16.08 12.75-23.25 12.75Z" style="fill:#008b96" transform="matrix(.99496 0 0 .99496 32.5 30.648)"/><path d="M447.639 531.249c-6 0-13.5-1.5-22.5-4.5-12.5-4.17-22.5-9.92-30-17.25-6.83-6.83-11.92-15.25-15.25-25.25-2-5.67-4.33-15.5-7-29.5 0 2.5-.17 4.75-.5 6.75-.5 4.83-1.33 8.17-2.5 10-9.17 13.67-21.08 25.92-35.75 36.75-15.33 11.5-28.5 17.25-39.5 17.25-6.17 0-11-2.75-14.5-8.25-2.83-4.5-4.25-9.92-4.25-16.25 0-13.17 2.75-26.42 8.25-39.75 1.17-2.83 2-4.25 2.5-4.25.33 0 .5.33.5 1 0 .83-.25 2.25-.75 4.25-3.83 13.17-5.75 23-5.75 29.5 0 5.17 1.46 9 4.38 11.5 2.91 2.5 6.54 3.75 10.87 3.75 11.83 0 27-7.42 45.5-22.25 17.17-13.83 26.67-24.67 28.5-32.5-1.33-10.5-5.83-26.33-13.5-47.5-7.17-19.83-10.83-29.75-11-29.75 0-3.67.92-8.75 2.75-15.25.17-.67.5-1 1-1 1.83 0 5.75 6.42 11.75 19.25 5.67 11.67 9.75 23.33 12.25 35l3 15c1.5 8.5 3.08 16.92 4.75 25.25 5.5 26.33 17.17 43.08 35 50.25 0-14 3.67-23.25 11-27.75 6.17-3.67 16.92-8.42 32.25-14.25h-69.25c-2.83 0-4.25-.83-4.25-2.5l.25-1.5c.67-7.83 3.08-14.33 7.25-19.5 11.67-14.67 30.67-28.5 57-41.5l-4.75-9.5c-.83-2-1.25-4.58-1.25-7.75 0-4.67 1.17-8.58 3.5-11.75 2.83-4.17 7.17-6.25 13-6.25 4.33 0 10.75 2.92 19.25 8.75s12.75 10.67 12.75 14.5c-1.33 5.33-2.83 10.25-4.5 14.75l-16 5-9.75 2.75v3.25c0 3.67-.5 5.5-1.5 5.5-1.17 0-2.42-2.08-3.75-6.25-7.5 2.83-17 7.83-28.5 15s-19.75 13.42-24.75 18.75c6.5.5 16 .75 28.5.75 15.17 0 34.25-.33 57.25-1l31.5-1.25c1.33 0 2 .25 2 .75s-1.67 5-5 13.5c-.5 1.33-1.5 2.25-3 2.75-62.33 20-93.5 32.25-93.5 36.75 0 3.83 9.5 10.08 28.5 18.75 1 .33 1.5 1.25 1.5 2.75l-1.5 12.25c-.17 1.33-1 2-2.5 2Zm9.25-138c8.33-2.67 13.67-4.58 16-5.75 0-1.5-2.83-3.42-8.5-5.75-4.67-2.17-8.42-3.25-11.25-3.25-1.67 0-2.5.33-2.5 1 0 .67 2 5.17 6 13.5l.25.25Z" style="fill:#ff6105" transform="matrix(.99496 0 0 .99496 -77.083 -13.13)"/><path d="M270.639 92.999c-.17 0-.25-.08-.25-.25 0-.17.67-.67 2-1.5l15.5-9.25c5.83-3.33 10.33-6.58 13.5-9.75-4-.83-6-2.67-6-5.5 0-2.33.58-4.5 1.75-6.5-.33-1.17-.5-2.17-.5-3 0-1.17.38-2.12 1.13-2.87.75-.75 1.7-1.13 2.87-1.13 1.17 0 2.5.33 4 1 5.17 3 8.67 6.5 10.5 10.5 0 2.17-.42 4.17-1.25 6-.83 1.83-1.67 2.75-2.5 2.75l-7.25-.75c-2.33 3.17-5.17 6-8.5 8.5-4 3-7.67 5.25-11 6.75l-11.75 4.25c-1 .5-1.75.75-2.25.75Zm41.75-24.25-.25-1.25c-1.17-2.5-3.08-4.33-5.75-5.5 0 2.33-.25 4.25-.75 5.75.33.17 2.42.5 6.25 1h.5Zm-8.75-1.25.25-2-.25-2.25c-.5-1.67-1.25-2.5-2.25-2.5-.5 0-1.25.54-2.25 1.63-1 1.08-1.5 1.87-1.5 2.37 0 1.17 2 2.08 6 2.75Z" style="fill:#693b9e" transform="matrix(.99496 0 0 .99496 -77.083 -13.13)"/><path d="M301.5 321c0-.17.5-.83 1.5-2 4.83-5.33 7.25-8.92 7.25-10.75 0-1.67-.75-2.5-2.25-2.5-.83 0-1.58.21-2.25.63-.67.41-1.08.62-1.25.62l-.25-.25.25-1.25c.83-3.67 2.67-5.5 5.5-5.5 2.5 0 3.75 1.5 3.75 4.5 0 2.17-.96 4.71-2.87 7.63-1.92 2.91-4.3 5.45-7.13 7.62L301.5 321Z" style="fill:#01b948" transform="matrix(.99496 0 0 .99496 32.5 30.648)"/><path d="M367 52.25c-3 0-4.5-2.42-4.5-7.25 0-5.83 1.75-11.92 5.25-18.25.83-1.67 1.33-2.5 1.5-2.5 0 .33-.25 1.25-.75 2.75-2.17 6.67-3.25 11.33-3.25 14 0 3.67 1 5.5 3 5.5 1 0 2.33-1.42 4-4.25.17-.33.33-.5.5-.5v.75c-1.33 6.5-3.25 9.75-5.75 9.75Z" style="fill:#993fb1" transform="matrix(.99496 0 0 .99496 32.5 30.648)"/><path d="M220.75 501.75c0-.33.67-1.25 2-2.75 7-7.5 10.5-12.58 10.5-15.25-.17-2.33-1.33-3.5-3.5-3.5-1.17 0-2.25.33-3.25 1l-1.25.75-.5-.25.25-2c1.17-5.17 3.75-7.75 7.75-7.75 3.5 0 5.25 2.17 5.25 6.5 0 3.17-1.33 6.79-4 10.88-2.67 4.08-6.08 7.62-10.25 10.62-1.67 1.17-2.67 1.75-3 1.75Z" style="fill:#693b9e" transform="matrix(.99496 0 0 .99496 32.5 30.648)"/><path d="M263.25 161.75c0-.5.83-1.75 2.5-3.75 9-9.67 13.5-16.08 13.5-19.25 0-3.17-1.42-4.75-4.25-4.75-1.67 0-3.04.42-4.12 1.25-1.09.83-1.8 1.25-2.13 1.25l-.5-.25.5-2.75c1.5-6.67 4.83-10 10-10 4.33 0 6.5 2.75 6.5 8.25 0 4-1.75 8.75-5.25 14.25s-8 10.08-13.5 13.75c-1.83 1.33-2.92 2-3.25 2Z" style="fill:#993fb1" transform="matrix(.99496 0 0 .99496 32.5 30.648)"/><path d="M278.75 226.5c0-.33.67-1.25 2-2.75 6.83-7.5 10.25-12.5 10.25-15s-1.08-3.75-3.25-3.75c-1.33 0-2.42.29-3.25.88-.83.58-1.33.87-1.5.87l-.5-.25c.17-.17.33-.83.5-2 1.17-5 3.83-7.5 8-7.5 3.17 0 4.75 2.08 4.75 6.25 0 3.17-1.29 6.79-3.87 10.88-2.59 4.08-5.96 7.62-10.13 10.62-1.67 1.17-2.67 1.75-3 1.75Z" style="fill:#3071cf" transform="matrix(.99496 0 0 .99496 32.5 30.648)"/><path d="M324.25 185.25c-4 0-6-3.33-6-10 0-8.17 2.42-16.75 7.25-25.75.17-.5.42-.92.75-1.25.67-1.33 1.08-2 1.25-2l-.75 3.75c-3.17 9.5-4.75 16.08-4.75 19.75 0 5.17 1.42 7.75 4.25 7.75 1.5 0 3.33-2 5.5-6 0-.17.04-.33.13-.5.08-.17.2-.25.37-.25l.25-.25v1.25c-1.67 9-4.42 13.5-8.25 13.5Z" style="fill:#008b96" transform="matrix(.99496 0 0 .99496 32.5 30.648)"/><path d="M275.25 383.35c0-.24.48-.89 1.43-1.97 5.01-5.36 7.51-8.94 7.51-10.73-.12-1.78-.95-2.68-2.5-2.68-.84 0-1.55.21-2.15.63-.59.42-.95.62-1.07.62l-.36-.17.18-1.26c.83-3.69 2.68-5.54 5.54-5.54 2.51 0 3.76 1.49 3.76 4.47 0 2.27-.96 4.86-2.86 7.78-1.91 2.92-4.35 5.45-7.33 7.6-1.2.83-1.91 1.25-2.15 1.25Z" style="fill:#693b9e" transform="matrix(.99496 0 0 .99496 32.5 30.648)"/><path d="M91.25 103.25c-.33-.17-.5-.75-.5-1.75 0-1.83-1.17-6.17-3.5-13s-3.92-10.25-4.75-10.25c-.5 0-.83.17-1 .5-.17.33-.67.5-1.5.5s-2-.67-3.5-2-2.25-2.42-2.25-3.25c0-.33.63-1.5 1.88-3.5s2.04-3 2.37-3c2.67 0 5.38 2.54 8.13 7.63 2.75 5.08 4.62 10.7 5.62 16.87v1h.25c.17 0 .33-.33.5-1 .67-5.33 2.08-12.25 4.25-20.75 2-4.83 4.17-7.25 6.5-7.25 1.33 0 2.54.75 3.63 2.25C108.46 67.75 109 69 109 70c0 .67-.17 1.67-.5 3-.33 1.33-.92 2-1.75 2-.17 0-.71-.58-1.62-1.75-.92-1.17-1.88-1.75-2.88-1.75-2 0-4.17 6.83-6.5 20.5-1.5 7.5-3 11.25-4.5 11.25Z" style="fill:#d50019" transform="matrix(.99496 0 0 .99496 32.5 30.648)"/><path d="M135.5 61c-3.5 0-5.25-2.83-5.25-8.5 0-7 2.08-14.33 6.25-22 .83-2 1.42-3 1.75-3 0 .33-.33 1.42-1 3.25-2.67 8-4 13.58-4 16.75 0 4.5 1.17 6.75 3.5 6.75 1.5 0 3.08-1.67 4.75-5l.5-.5v-.25h.25v1c-1.33 7.67-3.58 11.5-6.75 11.5Z" style="fill:#008b96" transform="matrix(.99496 0 0 .99496 32.5 30.648)"/><path d="M95 364.25c-.5 0-.75-.71-.75-2.12 0-1.42-1-4.67-3-9.75-2-5.09-3.42-7.63-4.25-7.63-.67 0-1.04.21-1.12.63-.09.41-.55.62-1.38.62-.83 0-1.96-.67-3.37-2-1.42-1.33-2.13-2.42-2.13-3.25 0-.33.58-1.54 1.75-3.62 1.17-2.09 1.92-3.13 2.25-3.13 3 0 5.67 1.75 8 5.25s3.92 8.08 4.75 13.75c.17.67.25 1.04.25 1.13 0 .08.08.12.25.12l.5-1.25c.33-3.33 1.5-8.33 3.5-15 2-4.83 4.17-7.25 6.5-7.25 1.17 0 2.33.79 3.5 2.38 1.17 1.58 1.75 2.79 1.75 3.62 0 .67-.17 1.5-.5 2.5-.5 1.67-1.08 2.5-1.75 2.5-.33 0-.92-.58-1.75-1.75s-1.75-1.75-2.75-1.75c-2.17 0-4.17 5-6 15-1.17 7.33-2.58 11-4.25 11Z" style="fill:#ffb000" transform="matrix(.99496 0 0 .99496 32.998 30.648)"/><path d="m179.889 365.499-.25-.25c0-.33.75-1 2.25-2l18.75-11c7.5-4.67 13.17-8.92 17-12.75-5-2.5-7.5-5.17-7.5-8 0-3.5 1.58-6.58 4.75-9.25 2.33-2.17 4.42-3.25 6.25-3.25 2.67 0 4 1.92 4 5.75 0 2.83-.58 6-1.75 9.5 2.5 1.33 4.08 2.5 4.75 3.5 0 1.33-1.08 3.58-3.25 6.75-.67-.83-2.17-2-4.5-3.5-2.83 3.83-6.33 7.25-10.5 10.25-4.83 3.5-9.25 6.17-13.25 8-.83.5-4.33 1.92-10.5 4.25-1 .33-2.17.75-3.5 1.25s-2.25.75-2.75.75Zm40.75-32.75.25-3c0-2.83-.83-4.25-2.5-4.25-.5 0-1.25.29-2.25.88-1 .58-1.5 1.12-1.5 1.62 0 1.17 2 2.75 6 4.75Z" style="fill:#3071cf" transform="matrix(.99496 0 0 .99496 -77.083 -13.13)"/><path d="M105.75 157.25c-1.67 0-3.17-.92-4.5-2.75s-2-4.42-2-7.75v-7.5c0-.5-.42-.92-1.25-1.25-.83-.33-1.25-.92-1.25-1.75 0-1.83.67-3.5 2-5S101.17 129 102 129c.83.17 1.25 1.83 1.25 5 0 1.83-.12 3.33-.37 4.5s-.38 2.17-.38 3c0 1.67.38 3.42 1.13 5.25.75 1.83 1.79 2.75 3.12 2.75 1.67 0 3.25-.75 4.75-2.25s2.25-3.25 2.25-5.25c0-1.17-.37-3.21-1.12-6.12-.75-2.92-1.13-4.63-1.13-5.13 0-.67.33-1.67 1-3 .67-1.33 1.08-2 1.25-2 .67 0 1.46 1.88 2.38 5.63.91 3.75 1.37 6.54 1.37 8.37 0 5.17 2 7.75 6 7.75 1.67 0 2.75-.83 3.25-2.5-3.5-6.17-5.25-10.83-5.25-14 0-1.83.38-3.37 1.13-4.62.75-1.25 1.29-1.88 1.62-1.88.17 0 .33.75.5 2.25.17 1.5.42 2.83.75 4 .17 0 1 2.08 2.5 6.25 1.17 2.5 1.75 4.42 1.75 5.75 0 2.5-.58 5-1.75 7.5-1.33 3.33-3.17 5-5.5 5-3.5 0-6-2.42-7.5-7.25-1.67 6.17-4.75 9.25-9.25 9.25Z" style="fill:#61bb00" transform="matrix(.99496 0 0 .99496 32.5 30.648)"/><path d="m271.389 308.249-.25-.25c0-.33.83-1.08 2.5-2.25l22-13c8.67-5.33 15.17-10.25 19.5-14.75-5.67-3-8.5-6.17-8.5-9.5 0-3.83 1.83-7.42 5.5-10.75 2.83-2.5 5.25-3.75 7.25-3.75 3.17 0 4.75 2.25 4.75 6.75 0 3.17-.67 6.83-2 11 2.83 1.67 4.67 3.08 5.5 4.25 0 1.67-1.33 4.33-4 8-.67-1.33-2.42-2.75-5.25-4.25-3.17 4.33-7.25 8.33-12.25 12-5.5 4.17-10.67 7.25-15.5 9.25-.83.5-6.17 2.58-16 6.25l-1 .5c-1 .33-1.75.5-2.25.5Zm47.25-38.25c.33-1.33.5-2.67.5-4v-1.25c-.5-2-1.42-3-2.75-3-.67 0-1.58.33-2.75 1-1.17.67-1.75 1.25-1.75 1.75 0 1.5 2.25 3.33 6.75 5.5Z" style="fill:#d50019" transform="matrix(.99496 0 0 .99496 -77.083 -13.13)"/><path d="M188 372c.67-2.67 1.67-5.5 3-8.5 3-1.33 16.08-5.92 39.25-13.75l1.5-.5c.17 0 .25.17.25.5l-.25 1c-1.17 2.83-2.08 4.5-2.75 5-11.83 4.17-25.5 9.58-41 16.25Z" style="fill:#3071cf" transform="matrix(.99496 0 0 .99496 32.5 30.648)"/><path d="m385.389 290.749-.25-.25c0-.67 4.42-3.5 13.25-8.5 3.67-2.33 7.42-4.58 11.25-6.75 8.67-5.33 15.17-10.25 19.5-14.75-5.67-3-8.5-6.17-8.5-9.5 0-3.83 1.83-7.42 5.5-10.75 2.83-2.5 5.25-3.75 7.25-3.75 3.17 0 4.75 2.25 4.75 6.75 0 3.17-.67 6.83-2 11 2.83 1.67 4.67 3.08 5.5 4.25 0 1.5-1.33 4.17-4 8-.67-1.33-2.42-2.75-5.25-4.25-3.17 4.33-7.25 8.33-12.25 12-5.5 4.17-10.67 7.25-15.5 9.25-.83.5-6.17 2.58-16 6.25-.5.17-1.04.38-1.62.63-.59.25-1.13.37-1.63.37Zm47.25-38.25c.33-1.33.5-2.67.5-4v-1.25c-.5-2.17-1.42-3.25-2.75-3.25-.67 0-1.58.33-2.75 1-1.17.67-1.75 1.33-1.75 2 0 1.5 2.25 3.33 6.75 5.5Z" style="fill:#ffb000" transform="matrix(.99496 0 0 .99496 -77.083 -13.13)"/><path d="M335.75 394c.67-2.67 1.67-5.5 3-8.5 8-2.83 16.17-5.83 24.5-9l31.5-11.25c.33 0 .5.17.5.5l-.25 1c-1.17 2.83-2.08 4.5-2.75 5-16.17 5.83-35 13.25-56.5 22.25ZM287.5 39h-.25c-.17 0-.25-.17-.25-.5 0-.5.13-1.21.38-2.12.25-.92.62-2.63 1.12-5.13v-1.5c0-8.17-3.83-15.67-11.5-22.5-.33-.17-.5-.42-.5-.75 0-.17.46-1 1.38-2.5.91-1.5 1.45-2.25 1.62-2.25l.5.25c7.5 5.5 11.25 13.25 11.25 23.25 0 4.17-.75 8-2.25 11.5-.67 1.33-1.17 2.08-1.5 2.25Z" style="fill:#3071cf" transform="matrix(.99496 0 0 .99496 32.5 30.648)"/><path d="M85 127.25c.67-2.67 1.75-5.5 3.25-8.5 26.33-9.5 39.92-14.25 40.75-14.25l.25.25c0 .33-.17.75-.5 1.25-1 2.83-1.83 4.5-2.5 5-11.83 4.17-25.58 9.58-41.25 16.25Z" style="fill:#993fb1" transform="matrix(.99496 0 0 .99496 32.5 30.648)"/><path d="M188.5 137.75c1-2.5 2.42-5.17 4.25-8l42.25-8.5c.33 0 .5.08.5.25 0 .33-.17.75-.5 1.25-1.5 2.5-2.67 4-3.5 4.5-12.33 2.5-26.67 6-43 10.5Z" style="fill:#d50019" transform="matrix(.99496 0 0 .99496 32.5 30.648)"/><path d="M210.25 166.5c-1.67 0-3.17-.92-4.5-2.75s-2-4.42-2-7.75v-7.5c0-.5-.42-.87-1.25-1.12-.83-.25-1.25-.88-1.25-1.88 0-1.83.67-3.5 2-5s2.42-2.25 3.25-2.25c.83.17 1.25 1.83 1.25 5 0 1.83-.12 3.33-.37 4.5s-.38 2.17-.38 3c0 1.67.38 3.42 1.13 5.25.75 1.83 1.79 2.75 3.12 2.75 1.67 0 3.25-.75 4.75-2.25s2.25-3.25 2.25-5.25c0-1.17-.37-3.21-1.12-6.12-.75-2.92-1.13-4.63-1.13-5.13 0-.67.33-1.67 1-3 .67-1.33 1.08-2 1.25-2 .67 0 1.46 1.88 2.38 5.63.91 3.75 1.37 6.54 1.37 8.37 0 5.17 2 7.75 6 7.75 1.67 0 2.75-.83 3.25-2.5-3.5-6.17-5.25-10.83-5.25-14 0-1.83.38-3.37 1.13-4.62.75-1.25 1.29-1.88 1.62-1.88.17 0 .33.75.5 2.25.17 1.5.42 2.83.75 4 .17 0 1 2.08 2.5 6.25 1.17 2.5 1.75 4.42 1.75 5.75 0 2.5-.58 5-1.75 7.5-1.33 3.33-3.17 5-5.5 5-3.5 0-6-2.42-7.5-7.25-1.67 6.17-4.75 9.25-9.25 9.25Z" style="fill:#ffb000" transform="matrix(.99496 0 0 .99496 32.5 30.648)"/><path d="M297 290.25c.67-2.67 1.67-5.5 3-8.5l41-14.25.25.25c0 .33-.17.75-.5 1.25-1 2.83-1.92 4.5-2.75 5-11.67 4.17-25.33 9.58-41 16.25ZM365.25 252.75l-.5-.75c.33-1.33.54-2.54.63-3.62.08-1.09 1.95-3.05 5.62-5.88-4.33-1.67-6.5-3.67-6.5-6 0-2.83 1.08-5.58 3.25-8.25 4.67-5.5 8.67-8.25 12-8.25 2.33 0 3.5 1.5 3.5 4.5 0 1.83-.75 3.92-2.25 6.25l-.25.25c-.17 0-.42-.17-.75-.5-.83-1.83-1.92-2.75-3.25-2.75-1.17 0-2.5.54-4 1.63-1.5 1.08-2.25 2.04-2.25 2.87 0 .83.96 1.75 2.88 2.75 1.91 1 3.37 1.5 4.37 1.5s2.83-.75 5.5-2.25c4.33-3 7-4.5 8-4.5.17 0 .25.17.25.5l-.25 1.5c-.67 2.67-1.42 4.33-2.25 5l-22.25 15c-.5.17-1 .5-1.5 1Z" style="fill:#01b948" transform="matrix(.99496 0 0 .99496 32.5 30.648)"/><path d="M126.889 369.999c-5.83 0-8.75-1.92-8.75-5.75s1.67-7.17 5-10l8.25-5.75c4-2.83 7-5.67 9-8.5-6.17-1-9.25-3.33-9.25-7 0-2.67.83-5.67 2.5-9-.5-1.67-.75-3.08-.75-4.25 0-1.83.54-3.25 1.63-4.25 1.08-1 2.45-1.5 4.12-1.5s3.5.5 5.5 1.5c7.33 4 12.17 8.83 14.5 14.5.33.5.5 1 .5 1.5 0 2.17-.67 4.5-2 7s-2.5 3.75-3.5 3.75c0-.17-2.92-.67-8.75-1.5l-1.5-.25c-2.67 5-5.58 8.75-8.75 11.25-2.5 2.17-6.33 4.5-11.5 7-1.33.83-2 1.5-2 2 0 1.5 2.67 2.25 8 2.25 2.33 0 4.83-.17 7.5-.5 2.67-.33 9.08-1.75 19.25-4.25h2c0 .17-1.92 1.58-5.75 4.25-1.67 1.17-4.75 2.58-9.25 4.25-6 2.17-11.33 3.25-16 3.25Zm28.25-34.5v-.5l-.25-1.25c-1.67-3.33-4.42-5.83-8.25-7.5 0 3.5-.25 6.17-.75 8 .5.17 3.08.58 7.75 1.25h1.5Zm-12.5-1.75.25-2.25c0-1.17-.17-2.33-.5-3.5-.5-2.17-1.42-3.25-2.75-3.25-.67 0-1.71.71-3.12 2.13-1.42 1.41-2.13 2.45-2.13 3.12 0 1.83 2.75 3.08 8.25 3.75Z" style="fill:#993fb1" transform="matrix(.92215 0 0 .92215 -68.483 13.71)"/><path d="M277.25 273.5c.67-2.5 1.67-5.25 3-8.25 7.83-3 15.92-6 24.25-9l32-11.5.25.5-.25 1.25c-1.17 2.67-2.08 4.33-2.75 5-16.17 5.67-35 13-56.5 22Z" style="fill:#693b9e" transform="matrix(.99496 0 0 .99496 32.5 30.648)"/><path d="M362.75 271.5c.67-2.67 1.75-5.5 3.25-8.5.17-.17.42-.25.75-.25 11.83-4.33 24.58-8.83 38.25-13.5l1.75-.5.25.25c0 .33-.17.75-.5 1.25-1 2.83-1.83 4.5-2.5 5-11.83 4.17-25.58 9.58-41.25 16.25Z" style="fill:#d50019" transform="matrix(.99496 0 0 .99496 32.5 30.648)"/><path d="M383.5 134.5c-.17 0-.25-.25-.25-.75 0-.67.5-3.17 1.5-7.5l.25-3.75c0-10.33-4.83-19.83-14.5-28.5-.33-.33-.5-.67-.5-1 0-.33.92-2.25 2.75-5.75l.5-.5.75.5c9.67 7.17 14.5 17 14.5 29.5 0 5.5-1 10.5-3 15-1 1.83-1.67 2.75-2 2.75Z" style="fill:#693b9e" transform="matrix(.99496 0 0 .99496 32.5 30.648)"/><path d="M358 158c.67-2.67 1.67-5.5 3-8.5 12.17-4.5 25.25-9.08 39.25-13.75l1.5-.5c.33 0 .5.08.5.25 0 .33-.17.75-.5 1.25-1 2.83-1.83 4.5-2.5 5-11.83 4.17-25.58 9.58-41.25 16.25Z" style="fill:#61bb00" transform="matrix(.99496 0 0 .99496 32.5 30.648)"/><path d="M428 390c.5-2.67 1.5-5.5 3-8.5 26.5-9.5 40-14.25 40.5-14.25.33 0 .5.08.5.25 0 .33-.17.75-.5 1.25-1 2.67-1.83 4.25-2.5 4.75-11.83 4.17-25.5 9.67-41 16.5Z" style="fill:#01b948" transform="matrix(.99496 0 0 .99496 32.5 30.648)"/><path d="m412.25 355.25-.5-.5c.33-1.33.58-2.58.75-3.75.17-1.17 2-3.17 5.5-6-4.33-1.67-6.5-3.67-6.5-6 0-2.83 1.08-5.58 3.25-8.25 4.67-5.5 8.67-8.25 12-8.25 2.33 0 3.5 1.5 3.5 4.5 0 1.83-.75 3.92-2.25 6.25l-.25.25c-.17 0-.33-.17-.5-.5-1-1.67-2.17-2.5-3.5-2.5-1.17 0-2.5.5-4 1.5s-2.25 1.92-2.25 2.75c0 .83.96 1.75 2.88 2.75 1.91 1 3.37 1.5 4.37 1.5s2.83-.75 5.5-2.25c4.33-3 7-4.5 8-4.5.17 0 .25.17.25.5l-.25 1.5c-.67 2.67-1.42 4.33-2.25 5l-22.25 15c-.5.17-1 .5-1.5 1Z" style="fill:#008b96" transform="matrix(.99496 0 0 .99496 32.5 30.648)"/><path d="M42.75 146.5c-4-.17-6-3.5-6-10 0-8.33 2.42-17 7.25-26 1.17-2.17 1.83-3.25 2-3.25l-.75 3v.75c-3.17 9.5-4.75 16.08-4.75 19.75 0 5.17 1.42 7.75 4.25 7.75 1.5 0 3.25-2 5.25-6 .17-.17.29-.33.38-.5.08-.17.16-.29.25-.37.08-.09.2-.13.37-.13v1.25c-1.67 9.17-4.42 13.75-8.25 13.75ZM239 117.75c-10.83 0-18.42-5.17-22.75-15.5-2.33-5.83-3.5-12.67-3.5-20.5 0-10.5 1.25-20.17 3.75-29 .67-2.33 1-3.92 1-4.75 0-.5-.17-.75-.5-.75-.33 0-1.33 1.25-3 3.75-2.33 3.67-4.83 11.33-7.5 23-3.5 14.83-5.75 23.75-6.75 26.75-1.5 4.33-3.37 7.67-5.62 10s-4.21 3.5-5.88 3.5c-7 0-12.33-4.33-16-13-3-7.33-4.5-16.17-4.5-26.5 0-7.17 1.08-15 3.25-23.5 1-3.5 1.75-5.25 2.25-5.25s.75.75.75 2.25c0 .83-.17 2-.5 3.5-1.33 6.5-2 12.42-2 17.75 0 20.83 4.42 31.25 13.25 31.25 3.83 0 6.92-2.83 9.25-8.5 1.5-3.33 3.42-10 5.75-20 2.5-10.83 4.67-18.83 6.5-24 2-5.83 4.58-11.12 7.75-15.87s5.92-7.13 8.25-7.13c2 0 3 2.17 3 6.5 0 3.33-.96 10.29-2.87 20.88-1.92 10.58-2.88 17.7-2.88 21.37 0 8 1.63 14.21 4.88 18.63 3.25 4.41 7.79 6.62 13.62 6.62 10.5 0 18.42-3.33 23.75-10 4.33-5.33 6.5-11.83 6.5-19.5 0-12.83-1.83-24.67-5.5-35.5-1-3.5-1.58-5.25-1.75-5.25 0-4.33 1.42-10.17 4.25-17.5.5-1.5.92-2.25 1.25-2.25.5 0 1.25 1.08 2.25 3.25 4 8.17 7.08 20.67 9.25 37.5 2.17 16 5.29 27.38 9.38 34.13 4.08 6.75 10.2 10.12 18.37 10.12 7 0 11.58-2.5 13.75-7.5 0-1.67-1.5-5.33-4.5-11-3.67-7.17-6.25-13.08-7.75-17.75-3.17-9.5-5.33-18.42-6.5-26.75-.5-5-1.58-8.67-3.25-11 2.67-9.33 4.58-14 5.75-14 .33 0 1.08.67 2.25 2 9.5 13.5 14.25 21.17 14.25 23 0 .83-.33 1.25-1 1.25-1.17 0-3.33-1.08-6.5-3.25-.33 0-.58.25-.75.75 1.17 4 2.92 9.5 5.25 16.5 5.67 15.83 8.5 27.33 8.5 34.5 0 7.17-1.08 13.42-3.25 18.75-3.67 9.17-9.92 13.75-18.75 13.75-9.33 0-16.75-4.08-22.25-12.25-3.17-4.83-6-12.08-8.5-21.75-1.17 9.83-4.33 18.25-9.5 25.25-6.17 8.67-14.17 13-24 13Z" style="fill:#61bb00" transform="matrix(.99496 0 0 .99496 32.5 30.648)"/><path d="M243.25 201.25c-.33 0-.5-.67-.5-2l.25-5.5c.67-5 1-10.83 1-17.5 0-5.83-1.5-30.17-4.5-73S235 36.5 235 31.5c0-6-.92-10.92-2.75-14.75 0-2.17 1.67-7.25 5-15.25.5-1 .83-1.5 1-1.5.33 0 .83.5 1.5 1.5l6.75 17.25c4.83 13.17 7.25 20.58 7.25 22.25 0 .83-.25 1.25-.75 1.25-1.17 0-3.5-2.08-7-6.25-.17-.33-.33-.5-.5-.5-.17 0-.25.5-.25 1.5 0 .67 1.33 19.67 4 57s4 58.42 4 63.25c0 16.83-2.92 31.08-8.75 42.75-.67.83-1.08 1.25-1.25 1.25Z" style="fill:#61bb00" transform="matrix(.99496 0 0 .99496 32.5 30.648)"/><path d="M341.639 333.749c-8-.17-12-5.25-12-15.25 0-15.5 7-32.25 21-50.25-5.33-6.83-13.83-15.83-25.5-27-14.17-13.5-25.17-24.83-33-34-16.83-19-32.58-41.08-47.25-66.25-1.5-2.5-3.17-4.17-5-5-1-.67-1.5-1.58-1.5-2.75v-12.5c0-2.5.42-3.75 1.25-3.75.67 0 1.75.67 3.25 2l26.25 22c2.67 2.33 4 4 4 5 0 .67-.58 1-1.75 1-2 0-5.42-.92-10.25-2.75 5.17 11 19.08 29.25 41.75 54.75 7.5 8.83 18.08 19.67 31.75 32.5 11.17 10.67 19.33 19.33 24.5 26 7.83-8.33 27.42-31.17 58.75-68.5 35.5-42.5 59.25-71.92 71.25-88.25 2.33-3.33 3.83-5 4.5-5 .33.17.5.42.5.75 0 1.5-1.33 5.92-4 13.25-12.17 20.5-54.08 72.5-125.75 156 5.33 8.33 8.58 15.17 9.75 20.5.5 1.83.75 5.92.75 12.25 0 2.33-.62 5.58-1.87 9.75s-2.46 7.17-3.63 9c-2 3.33-5.58 6.67-10.75 10-6.17 4.33-11.83 6.5-17 6.5Zm1.25-18.75c4.67 0 10.46-2.04 17.38-6.12 6.91-4.09 10.37-6.96 10.37-8.63 0-2-1.58-5.25-4.75-9.75s-6.33-9.08-9.5-13.75c-13.83 15-20.75 25.92-20.75 32.75 0 3.67 2.42 5.5 7.25 5.5Z" style="fill:#993fb1" transform="matrix(.99496 0 0 .99496 -77.083 -13.13)"/><path d="M347.25 263.5c-.33 0-.5-.75-.5-2.25L347 256c.67-5 1-10.83 1-17.5 0-5.83-2.08-38.08-6.25-96.75S335.5 51.17 335.5 46c0-6-.92-10.92-2.75-14.75 0-2.5 1.67-7.58 5-15.25.5-1 .92-1.5 1.25-1.5.5 0 .92.5 1.25 1.5l6 15.25.75 2c5 13 7.5 20.42 7.5 22.25 0 .83-.25 1.25-.75 1.25-1.17 0-3.58-2-7.25-6-.17-.33-.33-.5-.5-.5-.17 0-.25.5-.25 1.5 0 .33 1.92 27.21 5.75 80.63 3.83 53.41 5.75 82.45 5.75 87.12 0 14.67-2.17 27.33-6.5 38l-.25.25c-1.5 3.83-2.58 5.75-3.25 5.75Z" style="fill:#993fb1" transform="matrix(.99496 0 0 .99496 32.5 30.648)"/><path d="M449.5 336.75c-.5-.17-.75-1.08-.75-2.75 0-1.17.17-2.83.5-5 .5-5 .75-10.75.75-17.25 0-5.83-2.08-38.12-6.25-96.87-4.17-58.75-6.25-90.71-6.25-95.88 0-6-.92-10.92-2.75-14.75 0-2.33 1.75-7.42 5.25-15.25.33-1 .75-1.5 1.25-1.5.33 0 .75.5 1.25 1.5l6.75 17.5c4.83 13 7.25 20.33 7.25 22 0 .83-.25 1.25-.75 1.25-1.17 0-3.58-2-7.25-6l-.5-.5c-.17 0-.25.58-.25 1.75 0 2.5 1.92 29.42 5.75 80.75 3.83 53.17 5.75 82.08 5.75 86.75 0 14.67-2.17 27.33-6.5 38-1.33 3-2.17 4.79-2.5 5.38-.33.58-.58.87-.75.87Z" style="fill:#ffb000" transform="matrix(.99496 0 0 .99496 32.5 30.648)"/><path d="M417.25 371.75c-1.83 0-2.75-.17-2.75-.5 0-.67.83-1.5 2.5-2.5 8.17-4.67 21.58-12.67 40.25-24 5.83-3.83 11.75-9 17.75-15.5 8-8.67 12-15.92 12-21.75 0-12.17-2.08-35.67-6.25-70.5s-6.25-54.5-6.25-59c0-2.5-.58-5.42-1.75-8.75s-1.75-5.17-1.75-5.5c0-.67.58-3.08 1.75-7.25 1.67-6 2.83-9 3.5-9 .67 0 3.83 6 9.5 18s8.5 19.25 8.5 21.75c0 .67-.25 1-.75 1-1.17 0-3.58-2-7.25-6l-.5-.25c-.17 0-.25.5-.25 1.5 0 4.83 1.67 21.17 5 49s5 46.67 5 56.5c0 20.33-4.75 37.08-14.25 50.25-7.5 10.5-15.92 17.92-25.25 22.25-3.67 1.67-10 3.67-19 6s-15.58 3.75-19.75 4.25Z" style="fill:#6a3a9e" transform="matrix(.99496 0 0 .99496 32.5 30.648)"/><path d="M24 356.85c0-.24.48-.89 1.43-1.97 5.01-5.36 7.51-8.94 7.51-10.73-.12-1.78-.95-2.68-2.5-2.68-.84 0-1.55.21-2.15.63-.59.42-.95.62-1.07.62l-.36-.17.18-1.26c.83-3.69 2.68-5.54 5.54-5.54 2.51 0 3.76 1.49 3.76 4.47 0 2.27-.96 4.86-2.86 7.78-1.91 2.92-4.35 5.45-7.33 7.6-1.2.83-1.91 1.25-2.15 1.25Z" style="fill:#ffa100" transform="matrix(.99496 0 0 .99496 20.56 -98.697)"/><path d="M24 356.85c0-.24.48-.89 1.43-1.97 5.01-5.36 7.51-8.94 7.51-10.73-.12-1.78-.95-2.68-2.5-2.68-.84 0-1.55.21-2.15.63-.59.42-.95.62-1.07.62l-.36-.17.18-1.26c.83-3.69 2.68-5.54 5.54-5.54 2.51 0 3.76 1.49 3.76 4.47 0 2.27-.96 4.86-2.86 7.78-1.91 2.92-4.35 5.45-7.33 7.6-1.2.83-1.91 1.25-2.15 1.25Z" style="fill:#008b96" transform="scale(.99496) rotate(-35.585 -142.087 25.231)"/><path d="M24 356.85c0-.24.48-.89 1.43-1.97 5.01-5.36 7.51-8.94 7.51-10.73-.12-1.78-.95-2.68-2.5-2.68-.84 0-1.55.21-2.15.63-.59.42-.95.62-1.07.62l-.36-.17.18-1.26c.83-3.69 2.68-5.54 5.54-5.54 2.51 0 3.76 1.49 3.76 4.47 0 2.27-.96 4.86-2.86 7.78-1.91 2.92-4.35 5.45-7.33 7.6-1.2.83-1.91 1.25-2.15 1.25Z" style="fill:#01b948" transform="matrix(.9867 .12787 -.12787 .9867 203.389 -286.749)"/><path d="M24 356.85c0-.24.48-.89 1.43-1.97 5.01-5.36 7.51-8.94 7.51-10.73-.12-1.78-.95-2.68-2.5-2.68-.84 0-1.55.21-2.15.63-.59.42-.95.62-1.07.62l-.36-.17.18-1.26c.83-3.69 2.68-5.54 5.54-5.54 2.51 0 3.76 1.49 3.76 4.47 0 2.27-.96 4.86-2.86 7.78-1.91 2.92-4.35 5.45-7.33 7.6-1.2.83-1.91 1.25-2.15 1.25Z" style="fill:#d50019" transform="matrix(.99496 0 0 .99496 32.5 30.648)"/><path d="M24 356.85c0-.24.48-.89 1.43-1.97 5.01-5.36 7.51-8.94 7.51-10.73-.12-1.78-.95-2.68-2.5-2.68-.84 0-1.55.21-2.15.63-.59.42-.95.62-1.07.62l-.36-.17.18-1.26c.83-3.69 2.68-5.54 5.54-5.54 2.51 0 3.76 1.49 3.76 4.47 0 2.27-.96 4.86-2.86 7.78-1.91 2.92-4.35 5.45-7.33 7.6-1.2.83-1.91 1.25-2.15 1.25Z" style="fill:#01b948" transform="matrix(.99496 0 0 .99496 365.81 -195.208)"/><path d="M84.75 424.25c-16.5 0-28.33-6.42-35.5-19.25-5-8.5-7.5-18.5-7.5-30 0-14 2.33-25.67 7-35 1.83-3.5 3.08-5.25 3.75-5.25.33 0 .5.33.5 1 0 1-.58 2.83-1.75 5.5C47.75 350.92 46 359.83 46 368c0 7.83 2.17 15.08 6.5 21.75C59.33 400.58 70.42 406 85.75 406c13.67 0 30.42-6.08 50.25-18.25 26-15.5 39-27.33 39-35.5 0-7.5-1.5-32.12-4.5-73.87-3-41.75-4.5-65.5-4.5-71.25s-.92-10.55-2.75-14.38c0-2.17 1.75-7.33 5.25-15.5.33-1 .75-1.5 1.25-1.5.33 0 .75.5 1.25 1.5 9.33 23.33 14 36.5 14 39.5 0 .83-.25 1.25-.75 1.25-1.17 0-3.5-2.08-7-6.25l-.5-.5c-.33 0-.5.58-.5 1.75l3.75 48.25c2.33 32.17 3.5 51.17 3.5 57 0 17.33-1.33 30.5-4 39.5-2 6.83-5.08 12.92-9.25 18.25-6 7.17-15.92 15.67-29.75 25.5-21.33 15.17-39.92 22.75-55.75 22.75Z" style="fill:#008b96" transform="matrix(.99496 0 0 .99496 32.5 30.648)"/></svg>