<svg viewBox="0 0 421 286" xmlns="http://www.w3.org/2000/svg" xml:space="preserve" style="fill-rule:evenodd;clip-rule:evenodd;stroke-linejoin:round;stroke-miterlimit:2"><path d="M1613.95 1222.47c1.65.03 3.54.63 5.67 1.81 72.14 37.8 141.59 95.34 208.58 172.23 79.81 91.6 119.72 199.93 119.72 325.23 0 78.61-18.45 143.83-55.05 195.54-28.48 40.3-61.11 68.96-97.82 85.65-14.32 6.76-38.98 14.58-74 23.73-34.99 9.16-60.71 14.45-77.28 15.91-6.76.66-10.07 0-10.07-1.84 0-1.72 3.16-4.65 9.66-9.03 31.97-17.9 83.94-49.17 156.07-93.45 32.07-20.97 59.52-44.83 82.2-71.61 32.07-38.19 48.25-75.71 48.25-112.56 0-104.06-41.64-202.73-124.76-295.78-64.45-72.13-121.7-120.78-171.82-145.98-2.65-1.18-4.52-1.84-5.71-1.84-2.38 0-3.19 4.11-2.26 12.31l1.01 11.01c2.64 28.71 7.22 78.71 13.72 149.83h.77c2.39 29.69 3.6 60.45 3.6 92.01 0 40.31-8.49 76.47-25.46 108.7-6.8 12.94-14.49 24.45-23.06 34.55l277.49 5.49c14.58 0 20.68 3.46 18.29 10.34l-16.83 49.6c-1.46 4.37-7.82 7.94-19.1 10.88-111.64 29.4-212.4 63.23-302.28 101.42v-.14c-40.05 17.08-59.93 27.3-59.93 30.89 0 7.94 6.91 16.29 20.8 24.92 19.1 11.94 56.77 29.18 112.85 51.44 4.22 1.73 6.1 5.18 5.43 10.48l-5.43 47.47c-.55 5.29-3.86 7.94-10.07 7.94-30.25 0-64.57-7.68-103.15-23.07l-.29-.42v.42c-57-23.6-95.18-55.68-114.28-96.39-13.64-29.03-24.66-78.49-33.15-148.2-5.96 34.32-17.75 62.29-35.53 84.18-35.24 43.62-77.94 81.4-128.06 113.22-57.66 36.72-110.58 55.16-158.45 55.16-25.18 0-44.285-10.47-57.138-31.3-10.849-17.36-16.175-38.85-16.175-64.43 0-52.77 13.413-104.06 40.163-153.93 7.71-14.44 12.61-21.61 14.73-21.61.52.27.81.78.81 1.73 0 4.38-2.39 12.46-7.16 24.11-21.901 52.77-32.743 91.75-32.743 116.96 0 39.1 19.623 58.72 58.863 58.72 53.95 0 112.01-21.35 174.07-64.04 48.4-32.86 86.17-67.62 113.22-104.33 8.34-11.28 12.71-17.12 13-17.64 2.65-5.03 3.98-12.45 3.98-22.27 0-22.27-6.25-57.8-18.71-106.45-9.67-37.67-32.34-95.35-68.01-173.04-.93-1.97 0-11.65 2.93-29.17 2.39-16.03 4.49-27.82 6.47-35.25 2.13-8.63 5.44-10.09 9.96-4.25 42.29 55.15 73.31 131.91 93.19 230.43 10.1 54.5 20.28 108.99 30.5 163.74 12.09 53.42 28.11 90.03 48.28 109.65 4.12 4.03 8.29 7.85 12.5 11.48 1.29-51.16 30.05-88.42 86.53-111.87v.15c18.16-7.97 53.95-21.09 107.12-39.5-115.09-7.43-193.29-11.02-234.81-11.02-11.53 0-15.77-3.46-12.86-10.08 4-13 11.28-30.75 21.9-53.16h.11c1.87-2.91 20.28-9.16 55.3-18.68 44.39-12.2 81.25-24.8 110.68-37.8 6.98-3.02 10.55-7.87 10.86-14.88l.01-.34c-.26 7.41-5.55-46.91-15.9-162.82l-.36-3.4c-3.79-35.76-8.85-88.2-15.15-157.44h.15c-.26-3.83-.66-8.89-1.07-15.11-.55-5.29 8.75-31.67 27.56-79.15 1.48-4.05 3.73-6.07 6.82-6.07l.11.01Z" style="fill:#00a2b5;fill-rule:nonzero" transform="matrix(.31267 0 0 .31267 -188.253 -373.132)"/><path d="M282.293 292.359c-1.656-5.023-2.77-9.703-3.363-14.074-.219-1.694-.379-2.719-.489-3.116-.234-.919-.664-1.817-1.312-2.681.449-1.511 1.168-3.6 2.141-6.301.324-.792.628-1.167.882-1.167.235 0 .629.375 1.223 1.167 2.574 3.584 4.734 6.787 6.48 9.615.719 1.167 1.083 1.995 1.083 2.483 0 .361-.165.539-.489.539-.648 0-1.816-.539-3.508-1.6-.164 0-.289.104-.398.338.594 2.107 1.531 5.024 2.828 8.731 2.934 8.336 4.41 14.402 4.41 18.215 0 3.801-.578 7.129-1.711 9.957-1.89 4.824-5.168 7.234-9.808 7.234-4.953 0-8.86-2.16-11.719-6.445-1.73-2.57-3.258-6.426-4.59-11.57-.578 5.183-2.234 9.628-4.934 13.371-3.312 4.535-7.558 6.804-12.726 6.804-5.703 0-9.684-2.718-11.969-8.172-1.261-3.058-1.89-6.64-1.89-10.781 0-5.472.648-10.566 1.945-15.281.34-1.281.519-2.125.519-2.539 0-.234-.05-.344-.179-.344-.235 0-.754.633-1.567 1.891-1.277 2-2.609 6.031-4.011 12.113-1.821 7.848-3.008 12.582-3.567 14.203-.734 2.25-1.797 4.071-3.168 5.438-1.097 1.133-2.066 1.707-2.879 1.707-3.636 0-6.461-2.321-8.441-6.946-1.621-3.836-2.43-8.48-2.43-13.914 0-3.797.574-7.937 1.746-12.402.27-1.008.524-1.746.793-2.25.34-.613.594-.684.719-.234.125.523.07 1.441-.199 2.773-.649 3.402-.973 6.496-.973 9.34 0 11 2.305 16.508 6.934 16.508 1.976 0 3.633-1.496 4.929-4.446.809-1.855 1.801-5.402 2.969-10.605 1.352-5.758 2.485-9.969 3.422-12.652 1.078-3.059 2.41-5.778 4.016-8.153 1.707-2.664 3.218-3.996 4.48-3.996 1.043 0 1.567 1.099 1.567 3.31 0 1.839-.524 5.526-1.567 11.108-1.043 5.598-1.547 9.34-1.547 11.266 0 4.16.864 7.418 2.61 9.758 1.726 2.355 4.156 3.527 7.234 3.527 5.598 0 9.813-1.766 12.601-5.274 2.215-2.773 3.329-6.191 3.329-10.261 0-3.906-.34-7.684-.989-11.321a50.165 50.165 0 0 0-1.855-7.328c-.649-2.014-.973-2.967-.973-2.842 0-2.232.723-5.289 2.199-9.18.325-.845.575-1.259.774-1.259.234 0 .594.555 1.113 1.656 2.09 4.336 3.727 10.978 4.934 19.926 1.133 8.367 2.773 14.344 4.914 17.945 2.125 3.598 5.363 5.399 9.738 5.399 3.637 0 6.031-1.332 7.164-3.961 0-.918-.758-2.859-2.285-5.867-1.965-3.797-3.332-6.93-4.16-9.36Z" style="fill:#00a2b5;fill-rule:nonzero" transform="matrix(2.303 0 0 2.303 -468.181 -528.87)"/><path d="M314.242 286.742c6.336-2.25 13.231-4.695 20.649-7.344.519-.179.828-.25.918-.179.125.091.105.359-.09.828-.594 1.422-1.063 2.285-1.422 2.594-6.246 2.175-13.484 5.039-21.707 8.601.34-1.367.898-2.879 1.652-4.5ZM332.316 258.465c0 .847-1.082 2.773-3.222 5.762-2.41 3.363-4.699 5.812-6.895 7.378-1.386.973-6.027 2.504-13.894 4.59-1.407.36-2.106.49-2.106.396.106-.142.594-.539 1.457-1.224 1.028-.793 3.817-2.375 8.407-4.789 4.39-2.34 6.964-3.851 7.703-4.5.125-.125.199-.25.199-.394 0-1.028-3.906-1.547-11.719-1.547-.019 0-1.531.054-4.48.179-1.442.071-2.145-.019-2.145-.289 0-.199.18-.593.524-1.222l2.789-4.68c.808-1.371 2.285-2.234 4.445-2.594.773-.125 2.574-.179 5.418-.179 9 0 13.519 1.027 13.519 3.113ZM303.227 238.145c.289-.954.363-1.891.199-2.844-.199-1.047-.664-1.567-1.422-1.567-.359 0-.848.18-1.457.52-.613.344-.938.668-.938.992 0 .754 1.207 1.711 3.618 2.899Zm-1.852 4.191c-3.023-1.563-4.535-3.203-4.535-4.93 0-2.09.953-3.996 2.879-5.722 1.906-1.711 3.508-2.36 4.769-1.891 1.078.375 1.621 1.547 1.621 3.453 0 1.731-.363 3.672-1.082 5.816 1.532.883 2.504 1.637 2.879 2.25 0 .809-.683 2.196-2.051 4.141-.378-.613-1.312-1.351-2.769-2.234-1.695 2.34-3.836 4.465-6.445 6.39-2.969 2.18-5.672 3.836-8.157 4.934-.519.269-3.382 1.348-8.586 3.273-.808.289-1.347.454-1.617.454-.129 0-.179-.04-.179-.11 0-.199.449-.578 1.347-1.172a2543.58 2543.58 0 0 0 11.574-6.894c4.625-2.789 8.067-5.379 10.352-7.758ZM266.777 349.223c9.036-3.297 18.649-6.786 28.801-10.512.504-.18.828-.254.918-.18.125.09.109.36-.09.828-.593 1.422-1.062 2.286-1.422 2.59-8.531 3.059-18.488 6.949-29.863 11.684.344-1.352.902-2.809 1.656-4.41ZM259.883 253.012c0 1.277-.286 2.593-.844 3.961-.738 1.761-1.692 2.644-2.883 2.644-1.851 0-3.168-1.277-3.941-3.816-.879 3.258-2.485 4.898-4.84 4.898-.863 0-1.641-.453-2.285-1.332-.758-1.047-1.117-2.414-1.117-4.105v-3.996c0-.325-.235-.559-.668-.684-.45-.125-.664-.469-.664-1.027 0-.883.359-1.746 1.117-2.59.683-.738 1.203-1.117 1.562-1.117.469 0 .703.882.703 2.629 0 .918-.089 1.671-.234 2.304-.144.61-.215 1.153-.215 1.602 0 .953.18 1.871.574 2.734.469 1.028 1.028 1.531 1.711 1.531.883 0 1.711-.414 2.485-1.207.758-.793 1.152-1.726 1.152-2.808 0-.61-.18-1.672-.539-3.168-.359-1.512-.543-2.43-.543-2.789 0-.324.164-.848.488-1.547.325-.684.559-1.047.719-1.047.309 0 .684.992 1.152 2.988.469 1.981.719 3.438.719 4.395 0 2.734 1.047 4.101 3.168 4.101.902 0 1.477-.464 1.711-1.367-1.836-3.203-2.734-5.633-2.734-7.324 0-.992.234-1.855.718-2.594.344-.523.559-.808.684-.828.144 0 .234.324.308.973.09.918.231 1.656.43 2.25.035.054.469 1.187 1.317 3.367.519 1.293.789 2.285.789 2.969ZM232.488 243.578c9.035-3.293 18.649-6.785 28.801-10.512.504-.179.828-.25.918-.179.125.09.106.359-.09.828-.594 1.422-1.062 2.285-1.422 2.594-8.535 3.058-18.488 6.945-29.863 11.679.344-1.347.898-2.804 1.656-4.41ZM234.18 264.172c-.844-1.856-2.285-3.203-4.301-4.051 0 1.781-.18 3.242-.578 4.34.254.07 1.82.285 4.679.684.165.035.274.015.344-.055.125-.125.09-.434-.144-.918Zm-6.391 0c.27-.953.27-1.961 0-3.043-.305-1.168-.809-1.746-1.566-1.746-.43 0-1.008.359-1.762 1.117-.738.754-1.117 1.312-1.117 1.711 0 .918 1.476 1.566 4.445 1.961Zm-4.785-5.219c-.598-2.035-.469-3.457.375-4.305.668-.648 1.422-.972 2.305-.972.847 0 1.82.289 2.933.867 3.836 2.121 6.391 4.695 7.653 7.723.105.195.16.449.16.773 0 1.043-.34 2.25-.989 3.617-.648 1.367-1.281 2.051-1.89 2.051-.235 0-2.035-.18-5.383-.538-1.691 2.358-3.781 4.444-6.281 6.3-2.973 2.177-5.688 3.833-8.157 4.929-.519.271-3.382 1.352-8.585 3.278-.829.289-1.368.449-1.672.449-.125 0-.18-.035-.18-.105 0-.165.469-.559 1.402-1.172 3.817-2.249 7.614-4.499 11.43-6.731 4.355-2.573 7.723-5.004 10.098-7.293-3.024-.683-4.535-2.051-4.535-4.101 0-1.692.433-3.278 1.316-4.77ZM357.355 289.875c-1.281-1.941-1.91-4.68-1.925-8.207-.039-3.672.644-7.254 2.05-10.78.559-1.408.934-2.161 1.118-2.286.05-.02.07-.02.105.015.09.164.02 1.008-.25 2.521-1.242 7.453-1.367 11.952-.344 13.518.973 1.492 2.145 1.801 3.512.899a4.228 4.228 0 0 0 1.656-1.981c.27-.594.43-.953.52-1.058.129.015.269.015.414-.02.055.18.234.629.543 1.348 1.402 3.656.844 6.301-1.695 7.941-2.086 1.367-3.996.719-5.704-1.91ZM281.504 235.516c0 1.656-.688 3.546-2.055 5.671-1.402 2.211-3.203 4.102-5.418 5.668-.883.614-1.402.938-1.566.938-.035 0-.035-.02-.035-.055 0-.125.359-.613 1.117-1.422 3.637-3.98 5.473-6.625 5.473-7.976 0-1.258-.594-1.887-1.766-1.887-.649 0-1.242.18-1.766.539-.375.25-.629.395-.718.43a.59.59 0 0 0-.25-.141c.035-.129.105-.469.195-1.027.594-2.734 1.945-4.106 4.105-4.106 1.782 0 2.684 1.118 2.684 3.368ZM302.488 338.906c-.644-1.527-.754-3.527-.324-6.011a20.063 20.063 0 0 1 2.774-7.309c.578-.918.937-1.402 1.082-1.473.035 0 .05 0 .05.035.055.106-.105.704-.465 1.727-1.82 5.078-2.449 8.227-1.925 9.449.484 1.172 1.277 1.531 2.355 1.063a3.1 3.1 0 0 0 1.406-1.168c.25-.399.43-.614.504-.684.09.035.18.051.285.035.02.145.09.469.219 1.024.52 2.738-.199 4.519-2.179 5.367-1.637.699-2.899.016-3.782-2.055ZM247.121 332.051c0 1.656-.683 3.543-2.051 5.668a20.054 20.054 0 0 1-5.418 5.672c-.882.609-1.406.933-1.566.933-.035 0-.035-.015-.035-.051 0-.128.359-.613 1.113-1.421 3.637-3.981 5.473-6.625 5.473-7.977 0-1.258-.594-1.891-1.762-1.891a3.04 3.04 0 0 0-1.766.543c-.379.25-.629.395-.718.43a.672.672 0 0 0-.254-.145c.039-.125.109-.468.199-1.023.594-2.738 1.945-4.105 4.105-4.105 1.782 0 2.68 1.117 2.68 3.367ZM216.305 326.777c1.82 0 3.457 1.078 4.898 3.239 1.457 2.16 2.465 4.984 3.059 8.476.054.363.09.578.09.633.074.105.109.105.144 0 .035-.055.109-.27.25-.633.289-2.086 1.012-5.199 2.145-9.324 1.242-2.969 2.589-4.445 4.05-4.445.754 0 1.493.504 2.25 1.511.649.883.969 1.586.969 2.145 0 .43-.105.988-.34 1.672-.289.902-.629 1.367-1.027 1.367-.16 0-.52-.359-1.078-1.059-.539-.703-1.117-1.047-1.711-1.047-1.297 0-2.5 3.079-3.602 9.219-.484 2.68-1.023 4.571-1.617 5.668-.414.758-.773 1.133-1.062 1.133-.27 0-.399-.34-.399-1.023 0-1.082-.609-3.168-1.851-6.282-1.243-3.117-2.106-4.664-2.629-4.664-.36 0-.594.11-.684.344-.109.215-.394.34-.883.34-.558 0-1.277-.414-2.175-1.223-.903-.808-1.332-1.476-1.332-1.961 0-.218.359-.957 1.113-2.215.758-1.261 1.226-1.871 1.422-1.871ZM356.508 326.289c-.379 1.621-1.477 3.313-3.278 5.059-1.851 1.836-4.031 3.277-6.55 4.3-.989.399-1.567.579-1.727.543-.019 0-.039-.019-.039-.054.039-.129.508-.504 1.426-1.137 4.426-3.039 6.801-5.219 7.09-6.516.289-1.242-.125-1.98-1.278-2.25a2.971 2.971 0 0 0-1.816.129c-.453.18-.723.27-.813.27a.746.746 0 0 0-.214-.199c.07-.11.214-.434.429-.954 1.192-2.519 2.809-3.546 4.914-3.062 1.731.398 2.36 1.695 1.856 3.871ZM326.824 234.129c0 1.656-.683 3.547-2.051 5.672-1.402 2.215-3.203 4.101-5.418 5.668-.882.613-1.402.937-1.566.937-.035 0-.035-.019-.035-.054 0-.125.359-.614 1.117-1.422 3.637-3.977 5.473-6.625 5.473-7.973 0-1.262-.598-1.891-1.766-1.891a3.06 3.06 0 0 0-1.765.539 5.757 5.757 0 0 1-.719.434.556.556 0 0 0-.25-.144c.035-.125.105-.469.195-1.028.594-2.734 1.945-4.101 4.106-4.101 1.781 0 2.679 1.113 2.679 3.363Z" style="fill:#f19950;fill-rule:nonzero" transform="matrix(2.303 0 0 2.303 -468.181 -528.87)"/></svg>