<svg version="1.0" xmlns="http://www.w3.org/2000/svg" width="400" height="400" viewBox="0 0 300 300"><path d="M56.7 10.7C54.9 13.8 23 133.4 23 137.1c0 5 3.9 8.2 13.6 11.1l7.4 2.3v4.6c0 2.7.6 5.1 1.4 5.8 3.9 3.2 20.4 6.9 57.6 12.8 18 2.9 9.3 2.5-16.7-.7-27.4-3.3-33.9-3.7-25.8-1.5 12.1 3.2 35.5 6.9 69.9 11.1 8.1 1 14.4 2 13.8 2.2-.6.2-10.4-.6-21.9-1.7-26.8-2.7-60-4.2-73.3-3.4l-10.5.7 5.6 1.7c7.7 2.4 22.2 3.6 63.4 5.4 33.6 1.5 61.2 3.6 69.9 5.5 5.2 1.2-5.3.6-30.9-1.5-34.3-2.9-93.2-3.2-88.2-.4 3.7 2.1 46.6 6.9 62.2 6.9 4.9 0 6.5.3 5.5 1-.8.5-6.2 1-12 1-17.4 0-97.6 4.5-98.8 5.5-.2.2 0 2.7.4 5.6.6 4.5.9 5 1.5 2.9.4-1.4.7-1.9.8-1.3.1 1 27.4 1.3 133 1.3h132.8l1.3 7.6c.6 4.2 1.3 11.3 1.5 15.8.4 9.4-1.8 24.5-3.7 25.7-.7.5-6.8.9-13.6.9h-12.3l.2-3.3c.4-4.8-1.6-7.7-5.1-7.7-2.2 0-3 .5-3 1.7-.1 1-1.4-.7-3-3.7-1.7-3-3.8-6.6-4.7-7.9-1.7-2.4-1.7-2.4.4-1.3 3.1 1.7 9 1.5 9.7-.3.3-.8-.4-2.4-1.6-3.5-1.8-1.7-3.5-2-10.4-2-6 0-8.5.4-9.4 1.5-1 1.2-.9 1.5.4 1.5 2.4 0 5 2.7 3.3 3.3-.6.3-.2.6.9.6 2.4.1 4 2.7 2.1 3.5-.7.2-.5.5.4.5 1.9.1 3.5 3.1 1.6 3.1-.8 0-.8.3.2.9.8.5 1.1 1.6.8 2.4-.3.9-.1 1.7.5 1.9.6.2.4 1.1-.6 2.1-1.6 1.5-1.6 1.7-.1 1.7 1.1 0 1.5.7 1.3 2.2l-.3 2.3-112.4.3-112.4.2.7-5.7c.3-3.2.9-10.8 1.1-16.8l.6-11-4.5 15.1c-4.7 16.1-4.9 19.8-1.8 26.4 1.3 2.6 2.7 3.8 5.7 4.7 3 .8 32.8 1.2 115.5 1.3 61.3.1 112.3.4 113.2.8.9.4 3 2.6 4.7 4.9l3.1 4.3h13.3l-2-2.3c-2.7-3-4.6-6.7-3.8-7.5.4-.4 4.1-.7 8.3-.8 15.3-.1 16.2-.2 18.6-2.9 1.4-1.5 2.2-3.3 1.9-4.4-.3-1.1.8-5.4 2.3-9.8 2.2-6.1 2.9-10.1 3.2-18.6.4-9.5.1-11.7-2.2-19.3-1.5-4.7-3.6-9.4-4.7-10.5-1.8-1.8-1.8-2.2-.4-4.9 1.9-3.6 1.9-3.7-.2-4.2-1.3-.4-5.5-9.9-14.7-33.4-7.1-18.1-19-48.6-26.6-67.8l-13.7-35-3.9-1.2c-4.8-1.6-108.6-35.5-143.5-47-25.2-8.3-28.4-9.1-29.2-7.7zm93.8 34.4c40.2 13.3 73.1 24.3 73.3 24.4.2.2 8.4 23.5 18.7 53.5 2.4 6.9 7.6 21.7 11.5 33 10.6 30.2 10.2 28.6 7.7 28.8-1.5.1-1.8-.1-.8-.7 1-.7.8-2.2-1.2-8.2-1.4-4.1-4.6-13.5-7.2-20.9-2.5-7.4-5-14.4-5.4-15.5-1.4-3.3-8.8-24-21.7-61.1l-2.5-7.2-11.7-3.8c-6.4-2-14.4-4.8-17.7-6-3.3-1.2-11.8-4.1-19-6.4-7.1-2.3-19.3-6.3-27-9-7.7-2.6-27-9.1-43-14.3-15.9-5.2-29.7-9.8-30.6-10.1-1.2-.5-2 .9-3.7 7.1C67.9 37.1 52.3 98.2 51 104c-.4 1.9-1.7 7.3-2.9 11.9-2.4 8.9-2.2 11.1.6 11.1 1 0 2.5.5 3.3 1.1 1.1.8.5.9-2.5.4-2.2-.4-4.4-1-4.8-1.4-.4-.4.8-7 2.7-14.7 1.9-7.6 6.3-25.2 9.6-38.9 11.9-48.6 13.2-54 13.6-54.7.3-.4 1.9-.1 3.7.7 1.7.7 36.1 12.2 76.2 25.6zm3.1 15.4c1 2.4-1.4 6.9-5.7 11.1-5.1 4.9-5 3.4.1-2.7 2.2-2.6 4-5 4-5.3 0-2.6-19.5 2.5-33.3 8.7l-6.7 3 9.6 6.2c9.3 6 9.7 6.1 13.5 5.1 3.4-.9 3.9-1.4 3.4-3.1-1.2-3.7-1.8-13.5-.8-13.5 1.5 0 3.2 4.5 2.6 6.8-.6 2.5 2.4 9 4.8 10.3 2.5 1.3 2.6 5.4.2 4.3-2.8-1.2-10-1.7-8.8-.7 4.1 3.9 15.7 12.5 16.2 12 .6-.6-1.3-17.2-2.3-21-.8-2.5-2.2-2.1-2.6.7l-.3 2.4-2.4-1.9c-1.3-1.1-2.1-2.2-1.8-2.6.4-.3 1.3-.1 2.1.6 1.1.9 1.5.7 1.9-1 .3-1.2 1-1.8 1.6-1.4.7.4 1.1-.4 1.1-1.9 0-3.7 1.8-3.2 3.6.9 1.6 3.9 1.7 4.8.6 4.1-.9-.5.7 15.3 1.7 17.2.6 1 1.3.9 3.1-.6l2.4-1.9-2.3-16.5c-1.3-9-2.1-17.5-1.9-18.9.3-2.2.5-2.1 2.6 1.8 1.4 2.8 1.8 4.3 1 4.5-.8.3-.5 4.4 1.1 14.9 3.1 20.9 2.8 23.6-2.9 25.4-1.7.5-2 1.5-2 6 0 7.2-1.6 7.9-2.2.9-.3-3.9-1-5.9-2.1-6.6-1-.5-4.6-3.4-8.2-6.4-6.5-5.5-6.5-5.5-4.9-2.1 3.2 6.7.7 9.3-12.8 13.6-5 1.7-8.8 4.8-8.8 7.5 0 5.1 5.7 8.7 12.3 7.8 3.5-.5 6.3-5.7 4.4-8.1-.9-1.1-.8-1.6.6-2.5 4.3-2.6 5-3.4 5.1-6.2.1-3.9 3-3.9 3.4 0 .2 1.5-.1 2.6-.6 2.2-1.2-.7-5.6 4-4.8 5.2.3.6-.3 2.7-1.5 4.7l-2.2 3.6 3.9-1.6c5.4-2.2 10.4-5.7 10.4-7.3 0-.7-1.1-3.4-2.4-6-2.7-5.4-2.2-8.6.9-5.2 1 1.1 2 2.8 2.2 3.8 1.6 9 1.6 9.3-.8 11.9-1.3 1.4-5 3.8-8.1 5.4-6 3-6.9 4.6-4.2 7.3 2.1 2.1 4.4.9 10.9-5.8 3.4-3.6 7.2-6.1 11.8-8.1 6.8-3 6.9-3 6.3-6.3-1.2-7.5 4.8-11.5 7.5-5 1.1 2.8 1 3.5-.8 6.9-2.4 4.3-2.1 4.9 2.1 4.9 6.4 0 6.3.4 2.8-25.2-3.7-26.6-3.9-29.6-1.8-27.9 1.8 1.5 3.8 7.1 2.6 7.1-1 0-1 .4 2 23.9 1.1 8.4 2 16.7 2 18.3 0 6.3-8.5 10.3-12.5 5.8-2.3-2.6-2.8-2.5-10.2.9-3.9 1.9-8.3 5.1-11.7 8.6-6.5 6.7-9.7 7.2-13.1 1.8-2.1-3.4-4.5-4.3-4.5-1.8 0 .8.5 1.5 1.1 1.5.5 0 .7.4.4 1-1.1 1.8-2.5 1-2.5-1.5 0-2-.5-2.5-2.6-2.5-5.2 0-8.8-3.3-9.9-8.8-.5-2.7-.9-3.1-2-2.2-2.2 1.8-5.6.8-7.9-2.3-2-2.7-2-3-.5-7.2 1.6-4.4 1.6-4.5-.7-6-3.2-2.1-3.9-5.5-1.9-10.1 1-2.1 1.9-5.4 2-7.3.2-1.9 1.3-4.7 2.4-6.2 1.2-1.6 2.1-3.9 2.1-5.2 0-1.3.8-3.1 1.9-4.1 3.9-3.5 31.9-13.4 38.4-13.5 1.6-.1 3 .5 3.3 1.4zm62.7 150.2c-36.4.2-96.2.2-133 0-36.7-.1-6.9-.2 66.2-.2 73.2 0 103.2.1 66.8.2z"/><path d="M109.6 82.2c-2.2 3.1-2.1 5.9.2 5.1 1.6-.7 1.6-.6-.1 1.7-6.2 8.6-7 11.6-4.1 14.1 1.3 1.1 2.2.9 5.7-.9 2.3-1.3 6.6-4.4 9.6-7l5.3-4.8-6.3-4.4c-9-6.4-8.6-6.3-10.3-3.8zM126.3 95.3c-1.7 1.2-5.4 4.1-8.2 6.4-2.8 2.3-6 4.5-7.1 4.8-2.2.7-4.5 7.5-3.5 10.5.9 3 4.2 2.4 9-1.5 2.3-2 8.4-5.2 13.4-7.1 5-2 9.1-4 9.1-4.5 0-1.8-3.1-5.7-6.4-8.3l-3.3-2.5-3 2.2zM84.3 215.7c36.8.2 96.6.2 133 0 36.4-.1 6.4-.2-66.8-.2-73.1 0-102.9.1-66.2.2zM17.2 221.2l.1 4.3.4-3.7.4-3.8 132.7-.3 132.7-.2-133.2-.3L17 217l.2 4.2z"/></svg>